<svg xmlns="http://www.w3.org/2000/svg" width="157.87" height="135.378" viewBox="0 0 157.87 135.378"><defs><style>.a{fill:#aeb0b3;}.b{fill:#fff;}.c{mix-blend-mode:multiply;isolation:isolate;}.d{fill:#e4aa5c;}</style></defs><g transform="translate(-748.075 -737.766)"><g transform="translate(774.749 755.96)"><path class="a" d="M892.273,834.34l-25.181.1-25.181.275-50.362.982-12.59.254a11.934,11.934,0,0,1-1.8-.055,8.07,8.07,0,0,1-1.9-.457,8.566,8.566,0,0,1-5.589-7.5c-.028-.356-.034-.631-.036-.88l-.017-.786-.48-25.181-.281-25.181-.053-12.59-.006-1.574c-.006-.219.01-.626.03-.985a9.412,9.412,0,0,1,1.9-5.067,9.58,9.58,0,0,1,7.592-3.8l25.181.1,25.182.274,50.362.986,12.59.255a12.2,12.2,0,0,1,1.718.115,7.411,7.411,0,0,1,1.752.484,7.851,7.851,0,0,1,4.616,5.2,7.426,7.426,0,0,1,.259,1.761c.027.614-.01,1.073-.013,1.619l-.48,25.181-.281,25.181-.052,12.59a19.189,19.189,0,0,1-.139,3.147,6.793,6.793,0,0,1-1.292,2.854A6.867,6.867,0,0,1,892.273,834.34Zm0,0a6.843,6.843,0,0,0,5.418-2.719,6.739,6.739,0,0,0,1.256-2.838,19.1,19.1,0,0,0,.112-3.133l-.053-12.59-.279-25.181-.48-25.181a9.555,9.555,0,0,0-.3-2.865,5.741,5.741,0,0,0-1.369-2.3,5.64,5.64,0,0,0-2.224-1.444,5.284,5.284,0,0,0-1.287-.3,9.843,9.843,0,0,0-1.422-.031l-12.59.255L828.691,757l-25.182.274-25.181.1a4.125,4.125,0,0,0-3.283,1.611,4.045,4.045,0,0,0-.783,1.71,4.133,4.133,0,0,0-.062.474c-.006.165-.027.282-.022.588l-.006,1.574-.053,12.59-.281,25.181-.48,25.181-.017.786c-.008.277-.009.528,0,.694a4.748,4.748,0,0,0,.156,1.142,5.121,5.121,0,0,0,2.974,3.41,4.782,4.782,0,0,0,1.14.326,8.566,8.566,0,0,0,1.346.087l12.59.254,50.362.982,25.181.277Z" transform="translate(-768.801 -751.903)"/></g><g transform="translate(812.23 836.435)"><path class="a" d="M838.807,816.4c-4.335.278-8.213.829-11.863,1.09-3.955.322-7.91.51-11.865.749l1.806-2.19a22.322,22.322,0,0,1,.436,3.736,30.246,30.246,0,0,1-.09,3.661,25.177,25.177,0,0,1-1.641,7.184,26.322,26.322,0,0,1-3.575,6.525,25.613,25.613,0,0,1-2.4,2.856c-.855.9-1.829,1.668-2.746,2.5l-1.642-4.773c3.619-.058,7.239-.052,10.859-.063,3.62.012,7.24.027,10.861.085,3.62.036,7.239.169,10.859.248s7.24.254,10.861.4l-1.232,3.577c-.874-.847-1.811-1.614-2.611-2.525a26.077,26.077,0,0,1-2.242-2.853,23.707,23.707,0,0,1-3.217-6.413,24.222,24.222,0,0,1-1.272-6.932A22.335,22.335,0,0,1,838.807,816.4Zm0,0a27.23,27.23,0,0,0,.645,6.691,25.83,25.83,0,0,0,2.177,6.181,24.18,24.18,0,0,0,3.565,5.315,30.4,30.4,0,0,0,4.7,4.247l4.311,3.355-5.543.223c-3.62.144-7.24.333-10.861.4-3.62.08-7.239.214-10.859.248-3.62.059-7.241.073-10.861.086-3.62-.012-7.24-.005-10.859-.064l-7.3-.117,5.655-4.655a28.625,28.625,0,0,0,4.405-4.266,21.407,21.407,0,0,0,3.207-5.2A25.028,25.028,0,0,0,813,822.9a23.619,23.619,0,0,0,.274-6.157l-.214-2.314,2.019.122c3.955.241,7.91.429,11.865.75C831.2,815.568,835.233,816.119,838.807,816.4Z" transform="translate(-797.925 -814.434)"/></g><g transform="translate(800.375 859.67)"><path class="a" d="M867.716,843.237c-5.977.381-12.139.7-18.374,1.017l-9.434.443c-3.159.153-6.343.291-9.554.394l-9.645.346-9.724.23c-6.492.163-13.014.251-19.529.282l-2.7.013-.009-2.724-.024-8.011-.009-2.737,2.744,0q9.533.01,19.065.112l19.065.367c6.355.2,12.71.353,19.064.654q9.533.382,19.065,1.008l.627.042-.032.552C868.148,838.046,867.873,840.739,867.716,843.237Zm0,0c-.157-2.842-.431-5.49-.595-8.011l.595.595q-9.533.629-19.065,1.008c-6.354.3-12.709.453-19.064.655l-19.065.366q-9.533.11-19.065.113l2.736-2.736-.024,8.011-2.712-2.71c6.2.031,12.383.118,18.6.281l9.341.232,9.419.345c3.145.1,6.315.242,9.511.4l9.632.441Z" transform="translate(-788.713 -832.488)"/></g><g transform="translate(777.438 822.934)"><line class="b" x2="127.62" transform="translate(0 2.736)"/><path class="a" d="M770.891,803.944l127.62,2.736-127.62,2.736Z" transform="translate(-770.891 -803.944)"/></g><g class="c" transform="translate(816.276 770.299)"><path class="d" d="M802.61,778.173a24.023,24.023,0,0,1,5.009-7.974,22.556,22.556,0,0,1,7.769-5.264,26.276,26.276,0,0,1,10.171-1.891,32.044,32.044,0,0,1,12.114,1.992,23.6,23.6,0,0,1,7.821,4.957,17.926,17.926,0,0,1,4.242,6.391,18.365,18.365,0,0,1,1.278,6.388,21.819,21.819,0,0,1-1.278,8.074,19.936,19.936,0,0,1-3.168,5.419,21.173,21.173,0,0,1-4.192,3.833q-2.3,1.587-4.345,3.167a20.45,20.45,0,0,0-3.629,3.63,10.4,10.4,0,0,0-1.992,5.112h0a3.883,3.883,0,0,1-3.884,3.883h-6.033a3.883,3.883,0,0,1-3.884-3.883v-.716a19.937,19.937,0,0,1,4.907-12.421,25.733,25.733,0,0,1,3.884-3.629q2.044-1.533,3.782-3.067a13.753,13.753,0,0,0,2.812-3.373,8.389,8.389,0,0,0,.97-4.6q0-4.7-2.3-6.951A8.755,8.755,0,0,0,826.276,775a9.891,9.891,0,0,0-4.754,1.072,9.487,9.487,0,0,0-3.271,2.862,12.405,12.405,0,0,0-1.891,4.192q-.216.846-.357,1.735a3.945,3.945,0,0,1-3.852,3.427h-7.2a3.92,3.92,0,0,1-3.826-4.6A27.237,27.237,0,0,1,802.61,778.173Zm30.617,47.739v7.975a3.883,3.883,0,0,1-3.883,3.883h-8.283a3.882,3.882,0,0,1-3.883-3.883v-7.975a3.883,3.883,0,0,1,3.883-3.884h8.283A3.883,3.883,0,0,1,833.227,825.912Z" transform="translate(-801.068 -763.045)"/></g><g transform="translate(748.075 737.766)"><rect class="b" width="59.831" height="77.396" rx="2.738" transform="translate(2.697 2.734)"/><path class="a" d="M807.08,817.9l-16.774.1c-5.592.048-11.184.188-16.776.277l-16.774.438-2.1.059a5.907,5.907,0,0,1-1.22-.049,4.755,4.755,0,0,1-1.256-.413,4.544,4.544,0,0,1-1.9-1.83,4.645,4.645,0,0,1-.476-1.266,6.767,6.767,0,0,1-.115-1.237l-.275-8.388c-.381-11.182-.735-22.366-.988-33.55l-.281-16.774-.053-8.387-.013-2.1,0-.524v-.284l.021-.46a6.184,6.184,0,0,1,.417-1.8,6.26,6.26,0,0,1,5.784-3.945l16.776.1c5.591.04,11.182.187,16.774.274s11.184.3,16.774.439l2.1.061a7.63,7.63,0,0,1,1.4.136,5.544,5.544,0,0,1,1.48.565,5.254,5.254,0,0,1,2.606,3.724,6.658,6.658,0,0,1,.057,1.354l-.278,8.388c-.383,11.182-.741,22.366-.992,33.549l-.279,16.776-.053,8.387-.013,2.1a5.027,5.027,0,0,1-.268,2.075A3.545,3.545,0,0,1,807.08,817.9Zm0,0a3.52,3.52,0,0,0,3.246-2.226,4.964,4.964,0,0,0,.239-2.055l-.014-2.1-.051-8.387-.279-16.776c-.251-11.182-.609-22.366-.992-33.549l-.278-8.388a3.012,3.012,0,0,0-.068-.735,1.905,1.905,0,0,0-.207-.494,1.817,1.817,0,0,0-.777-.692,2.006,2.006,0,0,0-.487-.136,4.907,4.907,0,0,0-.692,0l-2.1.059c-5.591.143-11.182.337-16.774.439s-11.184.234-16.774.274l-16.776.1a.8.8,0,0,0-.757.489.812.812,0,0,0-.061.232.264.264,0,0,1-.005.063l0,.239,0,.524-.013,2.1-.053,8.387-.281,16.774c-.253,11.184-.607,22.367-.987,33.55l-.277,8.388a4.825,4.825,0,0,0,.01.852,2.512,2.512,0,0,0,1.211,1.813,2.833,2.833,0,0,0,.71.291,4.1,4.1,0,0,0,.869.085l2.1.059,16.774.438c5.592.09,11.184.229,16.776.277Z" transform="translate(-748.075 -737.766)"/></g><rect class="a" width="10.653" height="50.336" transform="translate(759.623 754.579)"/><rect class="a" width="10.653" height="27.995" transform="translate(775.376 776.471)"/><rect class="a" width="10.653" height="42.522" transform="translate(791.129 762.394)"/></g></svg>