<svg xmlns="http://www.w3.org/2000/svg" width="144.507" height="130.964" viewBox="0 0 144.507 130.964"><defs><style>.a{fill:#aeb0b3;}.b,.d{fill:#e4aa5c;}.b,.c{mix-blend-mode:multiply;isolation:isolate;}</style></defs><g transform="translate(-119.211 -729.776)"><g transform="translate(119.211 738.009)"><path class="a" d="M233.438,807.55l-47.006,1.472c-7.969.194-15.968.463-24.023.594l-24.2.423-1.792.032-.582-1.767-7.876-23.919c-2.65-7.967-5.165-15.975-7.754-23.959l-.994-3.063,3.182-.623c9.2-1.8,18.4-3.642,27.621-5.361l27.643-5.238,27.68-5.051,27.709-4.9,2.5-.442-.032,2.481c-.079,5.9-.265,11.787-.405,17.649l-.514,17.49Zm0,0-1.158-35.14-.514-17.17c-.141-5.691-.327-11.358-.4-17.011l2.47,2.038-27.542,5.764-27.571,5.612-27.607,5.426c-9.2,1.834-18.418,3.548-27.632,5.3l2.188-3.685c2.5,8.014,5.077,16,7.516,24.035l7.395,24.074-2.372-1.734,23.414.423c7.816.131,15.691.4,23.593.594Z" transform="translate(-119.211 -735.75)"/></g><g transform="translate(232.175 729.776)"><path class="a" d="M202.447,753.728c-.019-4.414-.058-8.827-.207-13.239v.018a14.842,14.842,0,0,1,.176-4.115,7.03,7.03,0,0,1,1.876-3.813,3.847,3.847,0,0,1,.9-.69c.165-.1.328-.2.5-.288l.539-.187a3.833,3.833,0,0,1,1.1-.252,8.352,8.352,0,0,1,1.072-.106l4.043-.223,16.172-1.031-.438.048a2.961,2.961,0,0,1,.553-.072,3.319,3.319,0,0,1,1.2.179,3.5,3.5,0,0,1,1.293.812,4.693,4.693,0,0,1,1.134,1.973,10.755,10.755,0,0,1,.368,3.146,14.634,14.634,0,0,1-.323,2.935,12.457,12.457,0,0,1-.422,1.486c-.09.251-.194.5-.309.754a6.611,6.611,0,0,1-.484.882l-.645,1-1.408.063c-2.595.116-5.188.2-7.782.27l-6.856.121c-.145.088-.2.07-.38.729a32.443,32.443,0,0,0-.091,3.357c-.037,2.61-.068,5.22-.156,7.829-.068,2.61-.176,5.217-.291,7.825l-.214,3.969a23.738,23.738,0,0,1-.87,4.239,18.125,18.125,0,0,1-1.72,3.992,12.248,12.248,0,0,1-1.3,1.843c-.484.573-.875.966-1.311,1.469-1.691,1.917-3.329,3.937-4.878,5.982l-2.1,2.774.192-3.342.434-7.583c.152-2.527.251-5.056.354-7.584C202.343,763.839,202.427,758.785,202.447,753.728Zm0,0c.01,5.056.081,10.111.251,15.167.1,2.529.192,5.056.338,7.585l.418,7.585-1.91-.568c1.317-2.3,2.694-4.531,4.185-6.736.353-.533.8-1.134,1.1-1.6a8.746,8.746,0,0,0,.768-1.462,15.5,15.5,0,0,0,.951-3.328,19.683,19.683,0,0,0,.335-3.467l-.209-3.841c-.114-2.6-.223-5.2-.291-7.8-.088-2.6-.119-5.2-.156-7.792l-.012-1.949a12.987,12.987,0,0,1,.16-2.49,7.137,7.137,0,0,1,1.28-2.99,6.2,6.2,0,0,1,2.923-2.136,6.624,6.624,0,0,1,.9-.238,4.9,4.9,0,0,1,.966-.081l.98.005,1.96.033,3.921.077c2.614.073,5.227.156,7.839.271l-2.052,1.061c-.045.081.081-.109.13-.2l.2-.379a7.389,7.389,0,0,0,.356-.867,9.82,9.82,0,0,0,.434-1.958,7.4,7.4,0,0,0,.037-1.782c-.023-.2-.081-.278.014-.211a.736.736,0,0,0,.269.131.7.7,0,0,0,.186.026.684.684,0,0,0,.1,0,1.6,1.6,0,0,0,.245-.043l-.44.048-16.172-1.032-4.043-.223a4.734,4.734,0,0,0-3.407.827,5.822,5.822,0,0,0-1.9,3.182,12.683,12.683,0,0,0-.442,3.917v.019C202.506,744.9,202.467,749.314,202.447,753.728Z" transform="translate(-201.183 -729.776)"/></g><circle class="b" cx="10.964" cy="10.964" r="10.964" transform="translate(149.162 838.812)"/><circle class="b" cx="10.964" cy="10.964" r="10.964" transform="translate(219.12 838.812)"/><g transform="translate(144.31 809.25)"><path class="a" d="M213.589,788.005c2.029,4.7,4.14,9.306,6.168,13.761,2.059,4.461,4.027,8.809,5.942,13.154l.715,1.619-1.862.076c-7.02.285-14.038.444-21.058.66l-21.058.469c-7.02.174-14.04.2-21.058.309l-10.53.131-10.529.044,2.848-2.849.033,8.019-2.882-2.883,11.9-.046,11.9.051c7.935.052,15.871.019,23.808.153l23.808.335c7.936.187,15.871.289,23.808.544l-1.844,1.845.233-8.019.116.6c-1.716-4.607-3.369-9.24-5.037-13.865s-3.309-9.265-4.939-13.9l.507.343C221.094,788.4,217.428,788.1,213.589,788.005Zm0,0c3.492-.09,7.158-.4,11-.547l.347-.012.16.357c2.024,4.483,4.052,8.966,6.026,13.469s3.987,8.991,5.926,13.509l.106.245.01.353.234,8.019.051,1.783-1.9.061c-7.936.255-15.871.358-23.808.544l-23.808.335c-7.936.134-15.873.1-23.808.154l-11.9.05-11.9-.046-2.9-.011.012-2.87.034-8.019.011-2.859,2.837.011,10.529.044,10.53.132c7.019.108,14.038.135,21.058.307l21.058.47c7.02.215,14.038.375,21.058.659l-1.148,1.7c-1.738-4.781-3.426-9.558-5.02-14.22C216.758,796.948,215.215,792.425,213.589,788.005Z" transform="translate(-137.424 -787.446)"/></g><g class="c" transform="translate(151.447 736.684)"><path class="d" d="M144.254,750.987a25.694,25.694,0,0,1,5.363-8.537,24.114,24.114,0,0,1,8.319-5.636,28.1,28.1,0,0,1,10.891-2.024,34.286,34.286,0,0,1,12.972,2.133,25.228,25.228,0,0,1,8.373,5.308,19.2,19.2,0,0,1,4.544,6.842,19.672,19.672,0,0,1,1.368,6.841,23.36,23.36,0,0,1-1.368,8.646,21.36,21.36,0,0,1-3.394,5.8,22.588,22.588,0,0,1-4.488,4.1q-2.462,1.7-4.651,3.393a21.759,21.759,0,0,0-3.886,3.888,11.146,11.146,0,0,0-2.135,5.472h0A4.158,4.158,0,0,1,172,791.378h-6.462a4.158,4.158,0,0,1-4.158-4.159v-.766a21.32,21.32,0,0,1,5.255-13.3,27.578,27.578,0,0,1,4.159-3.888q2.189-1.641,4.05-3.284a14.7,14.7,0,0,0,3.011-3.611,8.987,8.987,0,0,0,1.039-4.927q0-5.033-2.463-7.444A9.376,9.376,0,0,0,169.6,747.6a10.592,10.592,0,0,0-5.091,1.148,10.144,10.144,0,0,0-3.5,3.064,13.3,13.3,0,0,0-2.024,4.488q-.232.905-.382,1.859a4.225,4.225,0,0,1-4.125,3.668h-7.713a4.2,4.2,0,0,1-4.1-4.927A29.08,29.08,0,0,1,144.254,750.987Zm32.784,51.118v8.54a4.159,4.159,0,0,1-4.159,4.159H164.01a4.158,4.158,0,0,1-4.158-4.159v-8.54a4.158,4.158,0,0,1,4.158-4.158h8.869A4.158,4.158,0,0,1,177.038,802.105Z" transform="translate(-142.603 -734.789)"/></g></g></svg>