<svg xmlns="http://www.w3.org/2000/svg" width="119.482" height="154.645" viewBox="0 0 119.482 154.645"><defs><style>.a{fill:#aeb0b3;}.b{fill:#e4aa5c;}.c{mix-blend-mode:multiply;isolation:isolate;}</style></defs><g transform="translate(-567.534 -710.171)"><g transform="translate(567.534 710.171)"><path class="a" d="M680.1,863.866l-32.7.1-32.7.275-32.7.472-4.087.063-2.045.032a6.9,6.9,0,0,1-2.318-.279,6.3,6.3,0,0,1-4.373-5.36l-.036-.607-.008-.51-.017-1.022-.251-16.35-.981-65.4-.28-32.7-.051-16.35-.021-8.227a7.974,7.974,0,0,1,7.957-7.834l32.7.1,32.7.273,32.7.473,4.087.063,2.045.032a10.671,10.671,0,0,1,1.232.072,7.251,7.251,0,0,1,1.325.308,7,7,0,0,1,3.989,3.462,6.93,6.93,0,0,1,.723,2.577l.023.66-.008.51-.015,1.022-.253,16.349-.985,65.4-.278,32.7-.052,16.35-.031,8.174a5.285,5.285,0,0,1-5.292,5.169Zm0,0a5.275,5.275,0,0,0,3.68-1.519,5.218,5.218,0,0,0,1.56-3.65l-.02-8.174-.052-16.35-.278-32.7-.985-65.4-.253-16.349-.015-1.022-.008-.51-.026-.362a3.577,3.577,0,0,0-2.506-3.016,3.842,3.842,0,0,0-.667-.13,7.519,7.519,0,0,0-.807-.014l-2.045.032-4.087.063-32.7.474-32.7.272-32.7.1a2.574,2.574,0,0,0-2.574,2.5l-.031,8.123-.051,16.35-.28,32.7-.981,65.4-.251,16.35-.017,1.022-.008.51.013.415a4.194,4.194,0,0,0,.426,1.565,4.282,4.282,0,0,0,2.42,2.132,4.93,4.93,0,0,0,1.713.246l2.045.031,4.087.064,32.7.472,32.7.274Z" transform="translate(-567.534 -710.171)"/></g><rect class="b" width="22.939" height="11.261" transform="translate(583.595 725.145)"/><rect class="b" width="22.939" height="11.261" transform="translate(609.982 725.145)"/><rect class="b" width="22.939" height="11.261" transform="translate(636.191 725.145)"/><g transform="translate(580.866 744.104)"><path class="a" d="M669.522,774.04c-14.229.574-28.883,1.141-43.76,1.589-7.427.258-14.942.394-22.453.586s-15.076.241-22.625.345l-2.495.036-.027-2.558-.09-8.654-.036-8.654-.072-17.309-.01-2.729,2.729.01,22.21.09c7.4,0,14.806.145,22.209.223s14.806.228,22.209.385c7.4.128,14.807.365,22.21.573l1.487.042-.038,1.406c-.163,5.943-.439,11.838-.676,17.63Zm0,0-.774-17.63c-.235-5.747-.512-11.392-.674-16.989l1.448,1.448c-7.4.209-14.807.447-22.21.573-7.4.157-14.806.317-22.209.385s-14.806.221-22.209.224l-22.21.088,2.719-2.719-.072,17.309-.036,8.654-.09,8.654-2.522-2.52c7.257.1,14.509.165,21.794.345s14.587.328,21.966.586C639.179,772.9,654.137,773.464,669.522,774.04Z" transform="translate(-577.954 -736.692)"/></g><g transform="translate(580.862 785.642)"><path class="a" d="M621.558,793.164l-9.687.782c-3.315.246-6.688.505-10.133.708-3.428.241-6.924.417-10.442.571-3.515.182-7.063.3-10.612.367l-2.37.046-.058-2.473c-.082-3.545-.194-7.091-.219-10.636-.058-3.544-.055-7.089-.073-10.635l-.014-2.736,2.733.017c3.406.019,6.813.006,10.219.063,3.406.027,6.812.114,10.218.2s6.812.151,10.219.313c3.406.147,6.812.256,10.218.474l1.758.113-.091,1.555-.326,5.573-.435,5.438Zm0,0-.906-11.011-.434-5.2-.328-5.062,1.667,1.667c-3.406.217-6.812.326-10.218.472-3.407.162-6.813.23-10.219.315s-6.812.175-10.218.2c-3.406.055-6.813.044-10.219.063l2.719-2.719c-.018,3.545-.015,7.091-.072,10.635-.026,3.545-.138,7.091-.22,10.636l-2.427-2.427c3.263.069,6.528.186,9.826.367,3.293.154,6.61.33,9.994.571l10.3.708Z" transform="translate(-577.951 -769.157)"/></g><g transform="translate(580.865 817.638)"><path class="a" d="M669.522,818.168l-21.585.92-22.119.807c-7.459.192-14.947.448-22.485.577s-15.089.283-22.649.316l-2.608.011-.013-2.633-.1-21.27-.011-2.732,2.73.013,22.21.1c7.4.041,14.806.189,22.209.279l22.209.486c7.4.25,14.807.441,22.21.774l1.117.05-.037,1.03c-.134,3.673-.322,7.313-.527,10.864Zm0,0c-.145-3.7-.372-7.339-.554-10.865-.2-3.54-.392-6.99-.526-10.406l1.08,1.079c-7.4.334-14.807.525-22.21.774l-22.209.486c-7.4.09-14.806.238-22.209.279l-22.21.1L583.4,796.9l-.1,21.27-2.62-2.619c7.247.033,14.5.2,21.77.315,7.267.13,14.587.385,21.934.577l22.3.809Z" transform="translate(-577.953 -794.165)"/></g><g transform="translate(628.826 785.642)"><path class="a" d="M659.046,793.164l-9.687.782c-3.315.246-6.689.505-10.133.708-3.429.241-6.924.417-10.442.571-3.515.182-7.063.3-10.612.367l-2.371.046-.056-2.473c-.082-3.545-.194-7.091-.22-10.636-.058-3.544-.054-7.089-.073-10.635l-.014-2.736,2.734.017c3.406.019,6.812.006,10.218.063,3.407.027,6.813.114,10.219.2s6.812.151,10.218.313c3.406.147,6.813.256,10.219.474l1.758.113-.091,1.555-.328,5.573-.434,5.438Zm0,0-.906-11.011-.435-5.2-.326-5.062,1.667,1.667c-3.406.217-6.813.326-10.219.472-3.406.162-6.812.23-10.218.315s-6.812.175-10.219.2c-3.406.055-6.812.044-10.218.063l2.719-2.719c-.018,3.545-.015,7.091-.073,10.635-.024,3.545-.137,7.091-.219,10.636l-2.427-2.427c3.263.069,6.527.186,9.825.367,3.295.154,6.611.33,10,.571l10.3.708Z" transform="translate(-615.438 -769.157)"/></g><g class="c" transform="translate(602.969 751.232)"><path class="b" d="M596.762,757.3a23.9,23.9,0,0,1,4.98-7.928,22.4,22.4,0,0,1,7.724-5.232,26.094,26.094,0,0,1,10.112-1.881,31.86,31.86,0,0,1,12.044,1.981,23.466,23.466,0,0,1,7.775,4.929,17.849,17.849,0,0,1,4.217,6.354,18.258,18.258,0,0,1,1.271,6.351,21.686,21.686,0,0,1-1.271,8.027,19.8,19.8,0,0,1-3.151,5.388,20.967,20.967,0,0,1-4.166,3.81q-2.288,1.577-4.319,3.15a20.281,20.281,0,0,0-3.608,3.608,10.353,10.353,0,0,0-1.982,5.082h0a3.86,3.86,0,0,1-3.86,3.86h-6a3.86,3.86,0,0,1-3.86-3.86v-.711a19.8,19.8,0,0,1,4.879-12.347,25.537,25.537,0,0,1,3.861-3.609q2.032-1.524,3.76-3.049a13.694,13.694,0,0,0,2.8-3.352,8.343,8.343,0,0,0,.965-4.574q0-4.673-2.286-6.912a8.706,8.706,0,0,0-6.351-2.235,9.847,9.847,0,0,0-4.726,1.066,9.432,9.432,0,0,0-3.252,2.846,12.341,12.341,0,0,0-1.88,4.167q-.215.841-.354,1.726a3.922,3.922,0,0,1-3.83,3.406h-7.161a3.9,3.9,0,0,1-3.8-4.575A27.014,27.014,0,0,1,596.762,757.3ZM627.2,804.764v7.929a3.86,3.86,0,0,1-3.861,3.86h-8.233a3.86,3.86,0,0,1-3.861-3.86v-7.929a3.861,3.861,0,0,1,3.861-3.86h8.233A3.861,3.861,0,0,1,627.2,804.764Z" transform="translate(-595.229 -742.263)"/></g></g></svg>