<svg xmlns="http://www.w3.org/2000/svg" width="175.061" height="199.303" viewBox="0 0 175.061 199.303"><defs><style>.a{mix-blend-mode:multiply;isolation:isolate;}.b{fill:#e4aa5c;}.c{fill:#aeb0b3;}.d{fill:#5d5d5d;}.e{fill:#fff;}</style></defs><g transform="translate(-287.71 -674.046)"><g class="a"><path class="b" d="M357.328,761.056a18.649,18.649,0,0,1,3.892-6.2,17.51,17.51,0,0,1,6.037-4.089,20.392,20.392,0,0,1,7.9-1.47,24.9,24.9,0,0,1,9.413,1.548,18.323,18.323,0,0,1,6.076,3.852,13.933,13.933,0,0,1,3.3,4.966,14.271,14.271,0,0,1,.993,4.964,16.951,16.951,0,0,1-.993,6.274,15.48,15.48,0,0,1-2.463,4.211,16.391,16.391,0,0,1-3.256,2.978q-1.788,1.233-3.376,2.462a15.845,15.845,0,0,0-2.82,2.82,8.092,8.092,0,0,0-1.549,3.972h0a3.017,3.017,0,0,1-3.017,3.017h-4.689a3.017,3.017,0,0,1-3.017-3.017v-.556a15.477,15.477,0,0,1,3.813-9.651,19.959,19.959,0,0,1,3.018-2.82q1.588-1.191,2.939-2.383a10.7,10.7,0,0,0,2.185-2.62,6.522,6.522,0,0,0,.754-3.575q0-3.652-1.787-5.4a6.8,6.8,0,0,0-4.964-1.747,7.685,7.685,0,0,0-3.694.833,7.362,7.362,0,0,0-2.542,2.224,9.648,9.648,0,0,0-1.469,3.257q-.168.657-.277,1.349a3.066,3.066,0,0,1-2.993,2.662h-5.6a3.044,3.044,0,0,1-2.973-3.576A21.091,21.091,0,0,1,357.328,761.056Zm23.79,37.094v6.2a3.018,3.018,0,0,1-3.018,3.017h-6.436a3.017,3.017,0,0,1-3.017-3.017v-6.2a3.017,3.017,0,0,1,3.017-3.017H378.1A3.017,3.017,0,0,1,381.118,798.15Z"/></g><path class="c" d="M348.806,796.808l-11.2,4.756c-3.73,1.595-7.432,3.256-11.15,4.881l-11.1,5-2.769,1.263a1.892,1.892,0,0,1-.559.174,1.766,1.766,0,0,1-1.731-.811,4.03,4.03,0,0,1-.223-.445l-.159-.346-.317-.692-2.54-5.533c-3.394-7.374-6.77-14.756-10.073-22.169L292.1,771.735l-2.378-5.6-1.189-2.8-.63-1.5a3.132,3.132,0,0,1,1.726-3.939l11.262-4.612c3.756-1.532,7.543-2.988,11.314-4.485s7.576-2.91,11.363-4.368l2.846-1.078.3-.1a2.488,2.488,0,0,1,.445-.088,2.362,2.362,0,0,1,2.274,1.153,2.305,2.305,0,0,1,.167.35l.067.178.134.356.268.712,2.142,5.7c2.847,7.6,5.712,15.2,8.654,22.761l4.481,11.315,2.3,5.632,1.152,2.815.574,1.41A1.01,1.01,0,0,1,348.806,796.808Zm0,0a1,1,0,0,0,.545-1.258l-.592-1.4-1.189-2.8-2.379-5.6L340.308,774.6c-3.3-7.413-6.68-14.794-10.076-22.167l-2.54-5.533-.318-.692-.159-.346-.079-.172c-.037-.078,0,.009,0,.009a.36.36,0,0,0,.195.179.383.383,0,0,0,.141.024.347.347,0,0,0,.073-.009.109.109,0,0,0,.027-.007l-.086.04-2.769,1.263c-3.7,1.663-7.387,3.364-11.1,5s-7.418,3.29-11.15,4.879l-11.2,4.753a1.123,1.123,0,0,0,.616-1.416l.536,1.313,1.152,2.816,2.3,5.631,4.481,11.316c2.94,7.564,5.808,15.157,8.657,22.759l2.143,5.7.493,1.314a.215.215,0,0,0,.118.119.233.233,0,0,0,.09.021c.056-.009.005.019.166-.044l2.846-1.078,11.363-4.368c3.771-1.5,7.557-2.958,11.315-4.484Z"/><path class="c" d="M357.834,872.42,356.778,860.3c-.362-4.041-.8-8.075-1.19-12.113l-1.315-12.1-.344-3.025a1.859,1.859,0,0,1,.008-.585,1.762,1.762,0,0,1,1.307-1.395,3.989,3.989,0,0,1,.492-.074l.378-.044.756-.088,6.047-.7c8.063-.945,16.127-1.87,24.2-2.717l12.112-1.194,6.062-.528,3.03-.264,1.619-.135a3.131,3.131,0,0,1,3.211,2.86l.9,12.136c.294,4.046.506,8.1.763,12.147s.422,8.1.636,12.157l.144,3.04.009.313a2.525,2.525,0,0,1-.054.45,2.362,2.362,0,0,1-1.8,1.806,2.432,2.432,0,0,1-.385.051l-.19.009-.38.017-.76.034-6.082.272c-8.11.355-16.219.728-24.321,1.185l-12.147.759-6.068.448-3.034.224-1.518.109A1.009,1.009,0,0,1,357.834,872.42Zm0,0a1,1,0,0,0,1.027.908l1.515-.13,3.031-.264,6.062-.528,12.112-1.193c8.071-.845,16.135-1.773,24.2-2.72l6.048-.7.756-.088.378-.044.189-.022c.085-.012-.009,0-.009,0a.361.361,0,0,0-.231.13.383.383,0,0,0-.066.127.367.367,0,0,0-.014.072.1.1,0,0,0,0,.028l-.011-.094-.344-3.025c-.436-4.034-.912-8.065-1.316-12.1s-.832-8.072-1.188-12.112l-1.053-12.124a1.124,1.124,0,0,0,1.156,1.025l-1.414.1-3.034.224-6.068.448-12.147.758c-8.1.455-16.211.832-24.321,1.187l-6.082.274-1.4.063a.222.222,0,0,0-.15.075.262.262,0,0,0-.047.079c-.008.056-.02,0-.01.171l.144,3.041.637,12.157c.256,4.049.473,8.1.762,12.147Z"/><path class="c" d="M385.347,745.107l-10.578-6.015c-3.532-2-7.1-3.93-10.646-5.9L353.414,727.4l-2.685-1.435a1.887,1.887,0,0,1-.477-.339,1.751,1.751,0,0,1-.373-.55,1.771,1.771,0,0,1-.033-1.318,4.008,4.008,0,0,1,.218-.447l.179-.336.357-.672,2.856-5.377q5.7-10.759,11.505-21.46l5.895-10.648,3.007-5.29,1.5-2.644.807-1.409a3.132,3.132,0,0,1,4.178-1.019l10.5,6.151c3.5,2.055,6.953,4.181,10.431,6.269s6.911,4.255,10.369,6.379l2.584,1.608.262.171a2.359,2.359,0,0,1,.628,3.152l-.1.162-.2.322-.4.645-3.23,5.162q-6.47,10.315-12.836,20.692L392.083,735.6l-3.077,5.25-1.539,2.624-.772,1.311A1.01,1.01,0,0,1,385.347,745.107Zm0,0a1,1,0,0,0,1.331-.331l.754-1.32,1.5-2.645,3.008-5.29,5.9-10.647q5.831-10.685,11.5-21.462l2.855-5.377.357-.672.178-.336.089-.168c.039-.077-.008.005-.008.005a.358.358,0,0,0-.024.263.38.38,0,0,0,.067.127.366.366,0,0,0,.052.052.118.118,0,0,0,.021.018l-.084-.045-2.684-1.434c-3.569-1.932-7.157-3.829-10.709-5.789s-7.117-3.9-10.645-5.9l-10.577-6.018a1.121,1.121,0,0,0,1.5-.37l-.717,1.224-1.539,2.624-3.077,5.249-6.274,10.429q-6.339,10.392-12.833,20.694l-3.228,5.162-.745,1.19a.217.217,0,0,0-.024.166.23.23,0,0,0,.039.084c.041.039-.013.016.135.1l2.585,1.608,10.368,6.379c3.478,2.088,6.937,4.21,10.431,6.27Z"/><path class="c" d="M461.841,815.866l-12.123,1.056c-4.04.362-8.075.8-12.112,1.19l-12.1,1.315-3.024.344a1.9,1.9,0,0,1-.586-.008,1.768,1.768,0,0,1-1.394-1.307,4.265,4.265,0,0,1-.075-.492l-.043-.378-.088-.756-.7-6.047c-.946-8.063-1.87-16.128-2.717-24.2l-1.194-12.112-.528-6.062-.264-3.031-.135-1.618a3.132,3.132,0,0,1,2.86-3.212l12.136-.9c4.046-.294,8.1-.506,12.147-.763s8.1-.422,12.157-.637l3.04-.144.313-.008a2.361,2.361,0,0,1,2.307,2.238l.008.19.017.381.034.76.273,6.082c.355,8.11.728,16.219,1.184,24.321l.76,12.147.447,6.068.224,3.034.11,1.518A1.009,1.009,0,0,1,461.841,815.866Zm0,0a1,1,0,0,0,.908-1.028l-.129-1.515-.264-3.03-.529-6.062-1.192-12.112c-.846-8.071-1.773-16.135-2.72-24.2l-.7-6.047-.087-.756-.044-.378-.022-.189c-.012-.085,0,.009,0,.009a.353.353,0,0,0,.13.23.362.362,0,0,0,.126.066.379.379,0,0,0,.073.015.175.175,0,0,0,.028,0l-.1.011-3.024.344c-4.034.436-8.065.912-12.1,1.315s-8.072.833-12.113,1.189l-12.123,1.053a1.123,1.123,0,0,0,1.024-1.156l.1,1.414.224,3.034.448,6.068.758,12.147c.455,8.1.831,16.211,1.187,24.321l.274,6.082.063,1.4a.22.22,0,0,0,.074.15.255.255,0,0,0,.08.047c.056.008,0,.02.171.01l3.041-.144,12.156-.637c4.049-.257,8.1-.474,12.147-.762Z"/><path class="d" d="M300.535,739.177c-.031-.214-2.936-21.51,10.89-31.326a40.649,40.649,0,0,1,20.859-7.423l.065,1A39.672,39.672,0,0,0,312,708.667c-13.324,9.46-10.508,30.159-10.479,30.367Z"/><path class="d" d="M330.766,706.014l8.727-4.837-8.552-5.14Z"/><path class="d" d="M442.171,742.08l-.99-.144a35.492,35.492,0,0,0-2.242-18.432c-5.49-13.512-24.06-15.307-24.247-15.323l.088-1c.193.016,19.364,1.86,25.086,15.942A36.5,36.5,0,0,1,442.171,742.08Z"/><path class="d" d="M437.032,739.391l2.836,9.566,6.867-7.238Z"/><path class="d" d="M430.906,854.931l-.022-1a35.5,35.5,0,0,0,17.81-5.251c12.431-7.652,11.128-26.257,11.114-26.444l1-.078c.014.194,1.358,19.406-11.587,27.373A36.488,36.488,0,0,1,430.906,854.931Z"/><path class="d" d="M432.71,849.419l-8.967,4.375,8.272,5.58Z"/><path class="d" d="M345.889,859.753c-6.144,0-17.676-1.286-23.9-10.194a36.5,36.5,0,0,1-6.452-17.968l1-.08a35.5,35.5,0,0,0,6.275,17.475c8.35,11.958,26.857,9.591,27.042,9.563l.136.992A34.859,34.859,0,0,1,345.889,859.753Z"/><path class="d" d="M321.149,833.072l-4.887-8.7-5.091,8.581Z"/><path class="c" d="M318.555,794.717l-7.076,2.95L300.158,770.51l5.449-2.272Z"/><path class="c" d="M329.316,790.232l-7.076,2.95-6.31-19.6,5.492-2.29Z"/><path class="c" d="M340.673,785.5l-7.076,2.95L324.029,765.5l6.984-.829Z"/><path class="e" d="M368.647,843.946l22.889-1.548-3.2,11.555H371.212Z"/><path class="c" d="M368.647,843.946c1.64-.322,3.37-.66,5.181-.985,1.8-.342,3.681-.659,5.6-.984,3.846-.648,7.913-1.184,11.973-1.571l2.742-.261-.683,2.786q-1.428,5.826-3.1,11.584l-.453,1.569-1.573-.028c-2.854-.05-5.709-.113-8.563-.255s-5.709-.3-8.563-.575l-1.079-.1-.154-.852c-.337-1.862-.58-3.715-.783-5.459Zm0,0c.337.924.684,1.815,1.016,2.668l1,2.475c.651,1.592,1.263,3.075,1.781,4.549l-1.232-.956c2.854-.277,5.708-.437,8.563-.575s5.709-.205,8.563-.255l-2.026,1.541q1.534-5.8,3.3-11.527l2.059,2.525c-3.569.129-7.133.109-10.917-.023Z"/><path class="c" d="M390.662,845.559a9.454,9.454,0,0,1-.511-2.6,12.519,12.519,0,0,1,.1-2.407,13.815,13.815,0,0,1,1.416-4.424l.79-1.527,1.05.186a12.366,12.366,0,0,1,2.327.642,10.621,10.621,0,0,1,1.164.54,7.845,7.845,0,0,1,1.163.751,7.845,7.845,0,0,1-1.163.751,10.621,10.621,0,0,1-1.164.54,12.366,12.366,0,0,1-2.327.642l1.84-1.341a13.817,13.817,0,0,1-1.428,4.419,12.49,12.49,0,0,1-1.323,2.014A9.485,9.485,0,0,1,390.662,845.559Z"/><path class="e" d="M453.2,792.987l-24.462,1.968-1.034-12.851,23.678-3.379Z"/><path class="c" d="M453.2,792.988l-5.648,1.053c-1.952.343-3.945.711-6,1.034-2.042.35-4.138.666-6.257.953-2.114.3-4.254.585-6.4.823a1.844,1.844,0,0,1-2.035-1.63l-.013-.113q-.728-6.408-1.255-12.832A2.124,2.124,0,0,1,427.406,780c3.947-.558,7.9-1.09,11.862-1.53,1.981-.225,3.963-.441,5.951-.62l5.966-.52.172-.015a1.31,1.31,0,0,1,1.419,1.191l0,.038c.149,2.565.28,5.11.314,7.537C453.16,788.52,453.162,790.829,453.2,792.988Zm0,0c-.567-2.6-1.171-5.041-1.71-7.359-.572-2.327-1.046-4.536-1.5-6.725l1.593,1.214-5.873,1.169c-1.958.384-3.922.732-5.887,1.07-3.929.687-7.871,1.281-11.816,1.85l1.816-2.272q.509,6.426.813,12.868l-2.047-1.742c1.928-.091,3.865-.139,5.828-.162,1.958-.041,3.939-.053,5.974-.031Z"/><path class="c" d="M388.338,853.954a27.426,27.426,0,0,1,3.125,1.985c.984.713,1.922,1.467,2.836,2.242l2.608,2.213-3.828.511a60.677,60.677,0,0,1-11.193.39,50.667,50.667,0,0,1-5.6-.617,31.764,31.764,0,0,1-5.6-1.408,31.768,31.768,0,0,1,5.6-1.409,50.667,50.667,0,0,1,5.6-.617,60.763,60.763,0,0,1,11.193.391l-1.221,2.723c-.666-1-1.308-2.015-1.9-3.073A27.362,27.362,0,0,1,388.338,853.954Z"/><path class="e" d="M428.183,781.1l22.522-2.374s-5.8,7.255-10.369,7.915S428.183,781.1,428.183,781.1Z"/><path class="c" d="M428.183,781.1c1.473-.319,3.107-.686,4.813-1.1s3.525-.871,5.439-1.3a109.212,109.212,0,0,1,12.048-2.068,2.1,2.1,0,0,1,1.879,3.4l-.011.013a33.385,33.385,0,0,1-2.375,2.663,28,28,0,0,1-2.641,2.4,19.059,19.059,0,0,1-3.072,2.066,9.8,9.8,0,0,1-3.918,1.221,8.641,8.641,0,0,1-3.953-.824,17.56,17.56,0,0,1-3.133-1.774A25.589,25.589,0,0,1,428.183,781.1Zm0,0c2.07.985,4.078,1.976,6.121,2.731a20.758,20.758,0,0,0,3.014.93,6.272,6.272,0,0,0,2.648.15,12.4,12.4,0,0,0,4.71-2.964,47.512,47.512,0,0,0,4.382-4.537l1.867,3.412a85.543,85.543,0,0,1-10.472.306l-5.821-.113C432.584,780.995,430.464,781.024,428.183,781.1Z"/><rect class="e" width="5.523" height="22.872" transform="translate(378.152 689.594) rotate(-60)"/><path class="c" d="M397.961,701.03c-1.565-.632-3.206-1.318-4.894-2.063-1.688-.713-3.422-1.534-5.186-2.324-1.756-.851-3.546-1.685-5.333-2.593s-3.572-1.848-5.34-2.821l-1.613-.887.922-1.693c.881-1.617,1.793-3.216,2.7-4.815l.968-1.7,1.7.984q4.949,2.863,9.77,5.949c1.6,1.032,3.184,2.111,4.776,3.165,1.561,1.108,3.144,2.179,4.675,3.339l.677.513-.392.552C400.214,698.306,398.953,699.76,397.961,701.03Zm0,0c.848-1.919,1.427-3.653,2.085-5.173l.286,1.066c-1.77-.746-3.489-1.582-5.229-2.379-1.709-.852-3.432-1.68-5.129-2.553q-5.088-2.624-10.037-5.488l2.669-.715c-.929,1.589-1.858,3.179-2.818,4.75l-.691-2.58c1.534.934,3.049,1.894,4.564,2.9s3.025,2.07,4.571,3.125c1.538,1.116,3.1,2.2,4.718,3.394Z"/><rect class="e" width="12.283" height="31.401" transform="translate(367.858 705.88) rotate(-60)"/><path class="c" d="M395.053,721.581c-4.385-2.072-9.023-4.294-13.753-6.666-2.371-1.162-4.75-2.427-7.149-3.658s-4.777-2.565-7.168-3.861l-1.491-.808.85-1.584c.969-1.8,1.985-3.581,2.995-5.362l3.027-5.343.939-1.656,1.641.965,6.768,3.978c2.265,1.309,4.482,2.7,6.721,4.059s4.453,2.753,6.665,4.156c2.222,1.385,4.406,2.835,6.6,4.27l.886.579-.517.8c-1.181,1.821-2.415,3.572-3.589,5.276Zm0,0c.964-1.993,1.86-3.924,2.715-5.781.874-1.841,1.687-3.636,2.553-5.36l.369,1.376c-2.339-1.182-4.687-2.349-7-3.581-2.321-1.213-4.642-2.426-6.932-3.694s-4.609-2.483-6.876-3.791l-6.829-3.872,2.579-.691-3.114,5.294c-1.037,1.765-2.068,3.533-3.146,5.274l-.641-2.391c2.142,1.321,4.3,2.612,6.429,3.989s4.287,2.737,6.448,4.193C385.945,715.407,390.373,718.418,395.053,721.581Z"/><rect class="e" width="12.283" height="14.908" transform="translate(357.712 720.339) rotate(-60)"/><path class="c" d="M370.623,727.793l-3.187-1.3-3.4-1.45-3.532-1.6c-1.189-.562-2.385-1.148-3.574-1.757l-1.306-.668.736-1.459c1.848-3.661,3.809-7.256,5.854-10.8l.945-1.637,1.636.946c4.3,2.488,8.534,5.1,12.665,7.878l1.229.827-.717,1.084c-.611.925-1.24,1.831-1.876,2.711s-1.248,1.765-1.887,2.584-1.238,1.652-1.846,2.414Zm0,0,2.551-6c.385-.953.8-1.839,1.184-2.734s.782-1.76,1.194-2.608l.512,1.911c-4.475-2.187-8.85-4.548-13.155-7.03l2.58-.691c-2.049,3.545-4.182,7.041-6.428,10.471l-.57-2.127c.962.633,1.918,1.29,2.881,1.97l2.924,2.128Z"/><rect class="e" width="12.283" height="11.586" transform="translate(376.323 731.084) rotate(-60)"/><path class="c" d="M386.357,736.877c-3.135-1.17-6.97-2.673-10.762-4.531l-1.213-.594.679-1.4q2.692-5.536,5.767-10.853l.946-1.64,1.635.949q2.505,1.454,4.972,2.975c1.638,1.025,3.269,2.061,4.872,3.147l1.318.893-.766,1.169c-1.222,1.867-2.541,3.637-3.8,5.317C388.719,733.952,387.5,735.523,386.357,736.877Zm0,0,2.493-6.072c.789-1.866,1.517-3.641,2.342-5.319l.552,2.061c-1.742-.845-3.455-1.74-5.162-2.646s-3.388-1.856-5.062-2.818l2.58-.692q-3.075,5.316-6.515,10.421l-.533-1.99C379.948,731.826,382.8,734.185,386.357,736.877Z"/></g></svg>