<svg xmlns="http://www.w3.org/2000/svg" width="139.326" height="112.01" viewBox="0 0 139.326 112.01"><defs><style>.a,.f{fill:none;}.b{fill:#141414;}.c{fill:#707070;}.d{fill:#fff;}.e{fill:#d60000;}.f{stroke:#fff;stroke-linecap:round;stroke-linejoin:round;}</style></defs><g transform="translate(-222.605 -295.889)"><path class="a" d="M293.385,377.1a2.174,2.174,0,0,0,.728-.125A2.379,2.379,0,0,1,293.385,377.1Z" transform="translate(26.284 30.113)"/><path class="a" d="M353.062,336.23a23.673,23.673,0,0,0-8.2-5.149,24.293,24.293,0,0,0-9.532-1.478l-.233.01-.051-.234a40.2,40.2,0,0,0-12.124-21.009A39.782,39.782,0,0,0,301.2,298.254a39.18,39.18,0,0,0-23.3,4.058,39.987,39.987,0,0,0-16.619,16.426l-.742,1.348-1.574-.233a25.183,25.183,0,0,0-5.415-.3c-.9.085-1.812.063-2.7.224s-1.788.258-2.66.481A28.274,28.274,0,0,0,226.8,342.155,28.545,28.545,0,0,0,253.1,376.2l5.858.095,7.614.122-.247-10.514-.2-14.975-.037-7.488-.015-3.781a4.35,4.35,0,0,1,4.34-4.279c9.983.03,19.967.086,29.952.266l14.975.339,1.872.045.935.023a5.859,5.859,0,0,1,.62.04,3.856,3.856,0,0,1,.693.165,3.654,3.654,0,0,1,2.073,1.814,3.615,3.615,0,0,1,.37,1.343l.01.341-.005.233-.011.468-.182,7.489-.691,29.336c6.662.1,13.324.177,19.987.2a24.129,24.129,0,0,0,7.723-2.918,24.2,24.2,0,0,0,4.327-38.339Z" transform="translate(1.346 0.743)"/><path class="b" d="M329.355,354.027a24.453,24.453,0,0,1-6.284,5.42,24.129,24.129,0,0,1-7.723,2.918c-6.663-.025-13.325-.106-19.987-.2l-.014.614-.005.411c6.677-.163,13.356-.311,20.031-.4h.023l.018,0a25.059,25.059,0,0,0,14.052-8.664,24.517,24.517,0,0,0,5.455-15.5A24.452,24.452,0,0,1,329.355,354.027Z" transform="translate(27.01 15.866)"/><path class="c" d="M260.307,377.041l-5.858-.095A28.349,28.349,0,0,1,249.534,321c.872-.224,1.775-.313,2.66-.481s1.8-.138,2.7-.224a25.183,25.183,0,0,1,5.415.3l1.574.233.742-1.348a39.987,39.987,0,0,1,16.619-16.426,39.18,39.18,0,0,1,23.3-4.058,39.782,39.782,0,0,1,21.718,10.115,40.2,40.2,0,0,1,12.124,21.009l.051.234.233-.01a24.293,24.293,0,0,1,9.532,1.478,23.673,23.673,0,0,1,8.2,5.149,24.258,24.258,0,0,1,7.523,17.507,24.346,24.346,0,0,0-7.407-17.627,25.369,25.369,0,0,0-8.208-5.322,24.723,24.723,0,0,0-9.432-1.737,42.776,42.776,0,0,0-11.626-21.726,41.756,41.756,0,0,0-22.339-11.525,42.184,42.184,0,0,0-25.229,3.352,42.625,42.625,0,0,0-18.114,16.085,27.272,27.272,0,0,0-4.789-.272c-1.048.063-2.105.026-3.147.181s-2.093.252-3.12.484a31.77,31.77,0,0,0-11.584,4.922,32.555,32.555,0,0,0,11.192,58.814c1.037.166,2.032.436,3.1.506,1.039.064,2.159.241,3.124.2l5.872-.152,7.776-.2-.077-3.294Z" transform="translate(0 0)"/><path class="d" d="M309.2,393.081l-.016-3.742-.037-7.488-.2-14.977-.706-29.95-.181-7.489-.012-.468-.005-.233-.012-.128a1.209,1.209,0,0,0-.152-.442,1.188,1.188,0,0,0-.71-.549,1.335,1.335,0,0,0-.219-.037h-.315l-.935.023-1.872.045-14.975.339c-9.985.18-19.968.236-29.952.266a.476.476,0,0,0-.483.455l-.021,3.708-.037,7.488-.2,14.975-.7,29.952-.18,7.488c0,.281-.023.693-.015.867a1.675,1.675,0,0,0,.158.617,1.7,1.7,0,0,0,.949.86,1.917,1.917,0,0,0,.706.108l.935.023,1.872.045,14.975.337,14.976.2,14.975.074a2.379,2.379,0,0,0,.728-.125A2.412,2.412,0,0,0,309.2,393.081Zm-21.3-23.425c-1.746-1.533-3.391-3.158-4.99-4.823l-11.292,12.575-2-1.794h0l-2-1.794,11.67-12.995c-1.615-1.9-3.176-3.855-4.621-5.911a50.415,50.415,0,0,1-5.052-8.774,50.354,50.354,0,0,1,8.181,5.964c1.747,1.533,3.391,3.157,4.993,4.82l11.294-12.577,2,1.792h0l2,1.794L286.41,360.928c1.617,1.9,3.179,3.852,4.624,5.908a49.75,49.75,0,0,1,5.047,8.778A49.679,49.679,0,0,1,287.894,369.656Z" transform="translate(12.866 11.768)"/><path class="e" d="M310.235,367.133l.691-29.336.182-7.489.011-.468.005-.233-.01-.341a3.615,3.615,0,0,0-.37-1.343,3.654,3.654,0,0,0-2.073-1.814,3.856,3.856,0,0,0-.693-.165,5.859,5.859,0,0,0-.62-.04l-.935-.023-1.872-.045-14.975-.339c-9.985-.18-19.968-.236-29.952-.266a4.35,4.35,0,0,0-4.34,4.279l.015,3.781.037,7.488.2,14.975.247,10.514.077,3.294.379,16.143.181,7.488c.014.343,0,.555.037,1.005a3.15,3.15,0,0,0,2.2,2.669A3.354,3.354,0,0,0,259.8,397l.935-.022,1.872-.045,14.975-.339,14.976-.2,14.975-.074-14.975-.074-14.976-.2-14.975-.337-1.872-.045-.935-.023a1.917,1.917,0,0,1-.706-.108,1.7,1.7,0,0,1-.949-.86,1.675,1.675,0,0,1-.158-.617c-.008-.174.011-.586.015-.867l.18-7.488.7-29.952.2-14.975.037-7.488.021-3.708a.476.476,0,0,1,.483-.455c9.983-.03,19.967-.086,29.952-.266l14.975-.339,1.872-.045.935-.023h.315a1.339,1.339,0,0,1,.219.037,1.188,1.188,0,0,1,.71.549,1.209,1.209,0,0,1,.152.442l.012.128.005.233.012.468.181,7.489.706,29.95.2,14.976.037,7.488.016,3.742a2.412,2.412,0,0,1-1.665,2.244,2.174,2.174,0,0,1-.728.125,2.432,2.432,0,0,0,2.43-2.367l.021-3.744.037-7.488.195-14.565.005-.411Z" transform="translate(12.135 10.896)"/><path class="e" d="M279.443,351.9c-1.6-1.663-3.246-3.287-4.993-4.82a50.354,50.354,0,0,0-8.181-5.964,50.415,50.415,0,0,0,5.052,8.774c1.445,2.056,3.006,4.007,4.621,5.911Z" transform="translate(16.214 16.795)"/><path class="e" d="M284.089,357.806c-1.445-2.056-3.007-4.007-4.624-5.908l-3.507,3.9c1.6,1.665,3.245,3.29,4.99,4.823a49.679,49.679,0,0,0,8.187,5.958A49.752,49.752,0,0,0,284.089,357.806Z" transform="translate(19.812 20.799)"/><line class="f" transform="translate(282.482 387.383)"/><line class="f" transform="translate(308.947 357.91)"/><path class="e" d="M283.6,356.388l11.668-12.994-2-1.793-2-1.793-11.294,12.578-3.5,3.9-11.67,13,2,1.793,2,1.793L280.1,360.292Z" transform="translate(15.673 16.309)"/></g></svg>