<svg xmlns="http://www.w3.org/2000/svg" xmlns:xlink="http://www.w3.org/1999/xlink" width="72.006" height="72.004" viewBox="0 0 72.006 72.004"><defs><clipPath id="a"><rect width="72.006" height="72.004" fill="none"/></clipPath></defs><g clip-path="url(#a)"><g transform="translate(-19.996 -613)"><path d="M-14171.994-20272a2,2,0,0,1,2-2,2,2,0,0,1,2,2,2.006,2.006,0,0,1-2,2.006A2,2,0,0,1-14171.994-20272Zm-24,0a2,2,0,0,1,2-2,2,2,0,0,1,2,2,2.006,2.006,0,0,1-2,2.006A2.005,2.005,0,0,1-14196-20272Zm-24,0a2,2,0,0,1,2-2,2.005,2.005,0,0,1,2,2,2.006,2.006,0,0,1-2,2.006A2,2,0,0,1-14220-20272Zm-24,0a2.005,2.005,0,0,1,2-2,2.005,2.005,0,0,1,2,2,2.006,2.006,0,0,1-2,2.006A2.006,2.006,0,0,1-14244-20272Zm72.008-24a1.993,1.993,0,0,1,2-2,2,2,0,0,1,2,2,2,2,0,0,1-2,2A2,2,0,0,1-14171.994-20296Zm-24,0a2,2,0,0,1,2-2,2,2,0,0,1,2,2,2,2,0,0,1-2,2A2,2,0,0,1-14196-20296Zm-24,0a1.993,1.993,0,0,1,2-2,2,2,0,0,1,2,2,2.005,2.005,0,0,1-2,2A2,2,0,0,1-14220-20296Zm-24,0a2,2,0,0,1,2-2,2,2,0,0,1,2,2,2.005,2.005,0,0,1-2,2A2.005,2.005,0,0,1-14244-20296Zm72.008-24a2,2,0,0,1,2-2,2,2,0,0,1,2,2,2,2,0,0,1-2,2A2,2,0,0,1-14171.994-20320Zm-24,0a2,2,0,0,1,2-2,2,2,0,0,1,2,2,2,2,0,0,1-2,2A2,2,0,0,1-14196-20320Zm-24,0a2,2,0,0,1,2-2,2.005,2.005,0,0,1,2,2,2,2,0,0,1-2,2A2,2,0,0,1-14220-20320Zm-24,0a2.005,2.005,0,0,1,2-2,2.005,2.005,0,0,1,2,2,2,2,0,0,1-2,2A2,2,0,0,1-14244-20320Zm72.008-24a2,2,0,0,1,2-2,2,2,0,0,1,2,2,2,2,0,0,1-2,2A2,2,0,0,1-14171.994-20344Zm-24,0a2,2,0,0,1,2-2,2,2,0,0,1,2,2,2,2,0,0,1-2,2A2,2,0,0,1-14196-20344Zm-24,0a2,2,0,0,1,2-2,2,2,0,0,1,2,2,2.005,2.005,0,0,1-2,2A2,2,0,0,1-14220-20344Zm-24,0a2,2,0,0,1,2-2,2,2,0,0,1,2,2,2.005,2.005,0,0,1-2,2A2.005,2.005,0,0,1-14244-20344Z" transform="translate(14263.998 20959)" fill="#e1e1e1"/></g></g></svg>