<svg xmlns="http://www.w3.org/2000/svg" width="2184.222" height="397.794"><path d="M113.52 203.497c19.305 0 38.165 6.585 53.227 18.636 5.817 4.227 13.889 3.275 18.865-2.32 2.503-3.057 3.644-6.957 3.125-10.7-.473-3.443-2.324-6.527-4.936-8.35-19.84-15.689-44.801-24.329-70.281-24.329C49.864 176.434 0 224.762 0 286.458c0 62.186 49.864 110.9 113.52 110.9 25.007 0 50.303-8.546 69.341-23.408 3.31-2.482 5.38-5.936 5.842-9.724.437-3.64-.663-7.28-3.178-10.346-4.889-5.49-12.956-6.45-18.854-2.163-15.159 11.7-34.031 18.14-53.151 18.14-48.237 0-86.021-36.635-86.021-83.399 0-45.745 38.59-82.96 86.021-82.96m270.499 83.4c0 45.742-34.664 82.958-77.27 82.958-42.61 0-77.276-37.216-77.276-82.959 0-45.988 34.666-83.4 77.276-83.4 41.884 0 77.27 38.19 77.27 83.4zm-77.27-110.464c-57.776 0-104.773 49.554-104.773 110.463 0 60.907 46.997 110.46 104.773 110.46 57.77 0 104.768-49.553 104.768-110.46 0-60.91-46.998-110.463-104.768-110.463m307.015 110.463c0 45.743-34.665 82.96-77.276 82.96-42.604 0-77.27-37.217-77.27-82.96 0-45.988 34.666-83.4 77.27-83.4 42.61 0 77.276 37.412 77.276 83.4zm13.75-110.463c-7.709 0-13.75 6.04-13.75 13.75v22.198c-19.675-22.66-47.933-35.948-77.276-35.948-57.77 0-104.768 49.554-104.768 110.463 0 60.907 46.999 110.46 104.768 110.46 29.187 0 57.452-13.444 77.276-36.368v22.62c0 7.452 6.296 13.748 13.75 13.748 7.451 0 13.747-6.296 13.747-13.748V190.184c0-7.71-6.037-13.75-13.746-13.75m149.886 27.063c19.304 0 38.166 6.585 53.238 18.632 5.817 4.236 13.896 3.284 18.86-2.32 2.502-3.059 3.638-6.96 3.125-10.7-.484-3.493-2.29-6.495-4.936-8.345-19.835-15.69-44.801-24.33-70.287-24.33-63.656 0-113.514 48.328-113.514 110.024 0 62.186 49.858 110.9 113.514 110.9 25.019 0 50.314-8.546 69.342-23.408 3.304-2.48 5.38-5.93 5.841-9.714.444-3.643-.652-7.283-3.17-10.354-4.886-5.504-12.975-6.456-18.85-2.165-15.17 11.696-34.048 18.14-53.163 18.14-48.237 0-86.022-36.635-86.022-83.399 0-45.745 38.592-82.96 86.022-82.96m199.382-27.064c-24.391 0-47.488 9.546-64.586 26.452v-104.6c0-7.582-6.36-13.749-14.184-13.749-7.454 0-13.752 6.296-13.752 13.75V383.61c0 1.453 0 2.707.6 4.54.543 1.597 1.102 2.712 2.139 4.264l.399.49c2.83 2.831 6.7 4.454 10.614 4.454h2.186c.992 0 1.81-.372 2.393-.752 3.505-1.147 6.112-3.287 7.761-6.368.472-.615.727-1.277 1.066-2.113l.341-.687v-.307c.19-.465.437-1.213.437-2.21V264.137c0-34.07 27.764-59.767 64.586-59.767 37.674 0 65.017 25.138 65.017 59.767V383.61c0 7.452 6.296 13.748 13.752 13.748 7.824 0 14.184-6.17 14.184-13.748V264.137c0-49.996-39.959-87.703-92.953-87.703m202.233-91.46c-20.307 0-35.693 5.504-45.8 16.458-9.853 11.568-14.267 27.096-14.773 51.993v19.51h-25.2c-7.45 0-13.746 6.297-13.746 13.75 0 7.823 6.164 14.185 13.746 14.185h25.2v183.174c0 7.582 6.36 13.75 14.186 13.75 7.454 0 13.747-6.297 13.747-13.75V200.87h26.947c7.96 0 14.186-6.229 14.186-14.186 0-7.583-6.36-13.75-14.186-13.75h-26.947v-19.509c0-20.353 4.293-29.316 8-33.367 4.067-4.876 11.893-7.144 24.64-7.144 7.453 0 13.76-6.297 13.76-13.752 0-7.824-6.173-14.188-13.76-14.188m196.613 201.923c0 45.743-34.666 82.96-77.28 82.96-42.6 0-77.266-37.217-77.266-82.96 0-45.21 35.386-83.4 77.266-83.4 42.614 0 77.28 37.412 77.28 83.4zm-77.28-110.463c-57.76 0-104.76 49.554-104.76 110.463 0 60.907 47 110.46 104.76 110.46 57.787 0 104.774-49.553 104.774-110.46 0-60.91-46.987-110.463-104.774-110.463m259.174 14.188c0-7.709-6.04-13.752-13.747-13.752-43.88 0-71.72 29.458-85.587 49.62v-35.868c0-7.582-5.973-13.752-13.306-13.752-8.094 0-14.187 5.912-14.187 13.752V383.61c0 7.836 6.093 13.748 14.187 13.748 7.333 0 13.306-6.17 13.306-13.748v-94.087c0-.652 0-.98.707-2.43 3.707-10.635 11.933-31.144 25.32-48.972 17.787-23.024 36.707-33.75 59.56-33.75 7.453 0 13.747-6.296 13.747-13.748m107.746 12.875c19.294 0 38.16 6.585 53.227 18.632 5.827 4.23 13.893 3.28 18.867-2.32 2.493-3.059 3.64-6.96 3.12-10.705-.48-3.49-2.294-6.492-4.934-8.34-19.853-15.69-44.813-24.33-70.28-24.33-63.666 0-113.533 48.328-113.533 110.024 0 62.186 49.867 110.9 113.533 110.9 25 0 50.294-8.546 69.334-23.408 3.306-2.48 5.386-5.933 5.84-9.717.44-3.64-.654-7.28-3.174-10.353-4.88-5.492-12.96-6.45-18.853-2.163-15.16 11.7-34.04 18.14-53.147 18.14-48.24 0-86.026-36.635-86.026-83.399 0-45.745 38.586-82.96 86.026-82.96m268.942 63.52h-154.378c8.93-37.34 40.414-63.083 77.811-63.083 36.802 0 68.421 26.303 76.567 63.083zm29.941 12.183c-4.573-58.587-50.372-102.768-106.508-102.768-59.22 0-107.4 49.75-107.4 110.9 0 60.668 48.18 110.022 107.4 110.022 36.315 0 69.72-18.727 89.447-50.18 3.775-6.49 1.935-14.539-4.64-19.307-3.058-1.837-6.847-2.373-10.392-1.463a13.005 13.005 0 0 0-8.05 6.082c-13.841 23.048-39.264 37.367-66.365 37.367-41.645 0-76.011-33.014-79.678-75.776h172.44c7.726 0 13.76-5.653 13.76-12.87l-.014-2.007m111.692 1.964c-12.917 0-25.834.04-38.75-.022-4.587-.02-8.055-3.042-8.984-7.517-.842-4.045 1.277-8.349 5.167-10.028a12.083 12.083 0 0 1 4.615-.96c25.485-.057 50.97-.06 76.456-.025 5.834.007 10.101 4.13 10 9.45-.116 5.265-4.253 9.09-10.015 9.102-12.83.026-25.66.01-38.489.01v-.01m.252-31.316c-12.832-.003-25.65.046-38.482-.025-6.663-.038-11.076-5.626-9.32-11.704 1.06-3.625 3.499-5.87 7.23-6.579 1.045-.197 2.119-.245 3.178-.245 24.939-.013 49.892-.022 74.83.02 1.583 0 3.223.156 4.704.651 4.079 1.382 6.648 5.745 6.01 9.83-.727 4.501-4.152 7.705-8.609 8.001-.958.065-1.945.05-2.917.05-12.194.002-24.416 0-36.624 0m-36.97 44.224h73.892c-2.788 10.44-20.48 21.655-34.866 22.132-16.567.546-34.678-9.682-39.026-22.132" fill="#fff"/><path d="M2076.101 185.581c-42.752-.005-77.468-34.73-77.453-77.496 0-42.763 34.731-77.48 77.482-77.475 42.767.008 77.483 34.736 77.483 77.496-.015 42.766-34.731 77.48-77.512 77.475zm.253-185.58c-59.686-.13-108.226 48.19-108.33 107.87-.104 59.77 48.272 108.28 108.032 108.317 59.685.042 108.106-48.306 108.166-108.023.06-59.61-48.228-108.033-107.868-108.165" fill="#1dcb9a"/><path d="M2076.122 116.417c-4.588 0-8.321-3.726-8.321-8.32 0-4.593 3.733-8.318 8.32-8.318 4.588 0 8.307 3.725 8.307 8.318 0 4.594-3.72 8.32-8.306 8.32zm.246-49.72c-22.923-.112-41.562 18.317-41.649 41.186-.1 22.913 18.335 41.538 41.229 41.616 22.893.08 41.518-18.384 41.561-41.265.073-22.84-18.335-41.425-41.141-41.536" fill="#1dcb9a"/></svg>