<svg xmlns="http://www.w3.org/2000/svg" height="397.8" width="2184.213"><path d="M113.52 203.5c19.305 0 38.165 6.585 53.225 18.637 5.819 4.226 13.891 3.275 18.867-2.321 2.503-3.056 3.644-6.956 3.125-10.699-.473-3.442-2.324-6.528-4.936-8.349-19.84-15.69-44.801-24.33-70.281-24.33C49.864 176.439 0 224.766 0 286.462c0 62.187 49.864 110.9 113.52 110.9 25.007 0 50.303-8.545 69.341-23.408 3.31-2.481 5.38-5.936 5.842-9.724.437-3.64-.663-7.28-3.178-10.345-4.889-5.49-12.956-6.45-18.854-2.163-15.159 11.699-34.03 18.139-53.151 18.139-48.238 0-86.022-36.635-86.022-83.399 0-45.744 38.592-82.961 86.022-82.961M384.019 286.9c0 45.744-34.664 82.96-77.27 82.96-42.61 0-77.276-37.216-77.276-82.96 0-45.987 34.666-83.4 77.276-83.4 41.883 0 77.27 38.192 77.27 83.4zm-77.27-110.461c-57.776 0-104.773 49.552-104.773 110.461 0 60.908 46.997 110.461 104.773 110.461 57.77 0 104.768-49.553 104.768-110.461 0-60.91-46.998-110.461-104.768-110.461M613.764 286.9c0 45.744-34.665 82.96-77.276 82.96-42.605 0-77.27-37.216-77.27-82.96 0-45.987 34.665-83.4 77.27-83.4 42.61 0 77.276 37.413 77.276 83.4zm13.75-110.461c-7.709 0-13.75 6.04-13.75 13.749v22.199c-19.675-22.662-47.933-35.948-77.276-35.948-57.77 0-104.768 49.552-104.768 110.461 0 60.908 46.999 110.461 104.768 110.461 29.187 0 57.452-13.444 77.276-36.368v22.619c0 7.452 6.296 13.75 13.75 13.75 7.451 0 13.747-6.298 13.747-13.75V190.188c0-7.71-6.037-13.75-13.746-13.75M777.401 203.5c19.304 0 38.166 6.585 53.238 18.633 5.817 4.235 13.896 3.284 18.86-2.32 2.502-3.06 3.638-6.96 3.125-10.702-.484-3.491-2.29-6.492-4.936-8.343-19.835-15.69-44.801-24.33-70.287-24.33-63.656 0-113.514 48.327-113.514 110.023 0 62.187 49.858 110.9 113.514 110.9 25.019 0 50.314-8.545 69.342-23.408 3.304-2.478 5.38-5.929 5.841-9.714.444-3.642-.652-7.283-3.172-10.353-4.884-5.503-12.973-6.455-18.848-2.165-15.17 11.696-34.048 18.139-53.163 18.139-48.238 0-86.022-36.635-86.022-83.399 0-45.744 38.592-82.961 86.022-82.961M976.783 176.439c-24.391 0-47.488 9.545-64.586 26.45V98.29c0-7.582-6.36-13.749-14.184-13.749-7.454 0-13.752 6.297-13.752 13.75v285.322c0 1.453 0 2.708.6 4.541.543 1.598 1.102 2.712 2.139 4.264l.399.49c2.83 2.83 6.7 4.454 10.614 4.454h2.186c.992 0 1.81-.372 2.393-.752 3.505-1.148 6.112-3.287 7.761-6.369.472-.614.726-1.278 1.066-2.113l.341-.686v-.306a5.77 5.77 0 0 0 .437-2.211V264.141c0-34.07 27.764-59.766 64.586-59.766 37.674 0 65.016 25.136 65.016 59.766v119.471c0 7.452 6.297 13.75 13.752 13.75 7.825 0 14.185-6.17 14.185-13.75v-119.47c0-49.997-39.959-87.703-92.953-87.703M1179.019 84.979c-20.315 0-35.692 5.504-45.8 16.456-9.855 11.569-14.276 27.097-14.779 51.994v19.51h-25.197c-7.45 0-13.746 6.296-13.746 13.749 0 7.824 6.163 14.187 13.746 14.187h25.197v183.173c0 7.581 6.365 13.75 14.19 13.75 7.45 0 13.746-6.298 13.746-13.75V200.875h26.95c7.958 0 14.185-6.231 14.185-14.187 0-7.583-6.36-13.75-14.184-13.75h-26.951V153.43c0-20.353 4.296-29.317 8.004-33.368 4.059-4.874 11.89-7.142 24.639-7.142 7.453 0 13.75-6.298 13.75-13.752 0-7.826-6.169-14.188-13.75-14.188M1375.627 286.9c0 45.744-34.667 82.96-77.272 82.96-42.604 0-77.27-37.216-77.27-82.96 0-45.208 35.386-83.4 77.27-83.4 42.605 0 77.272 37.413 77.272 83.4zm-77.272-110.461c-57.768 0-104.767 49.552-104.767 110.461 0 60.908 46.999 110.461 104.767 110.461 57.778 0 104.778-49.553 104.778-110.461 0-60.91-47-110.461-104.778-110.461M1557.52 190.625c0-7.708-6.04-13.752-13.747-13.752-43.88 0-71.72 29.459-85.586 49.62v-35.868c0-7.581-5.974-13.752-13.307-13.752-8.093 0-14.187 5.914-14.187 13.752v192.987c0 7.836 6.094 13.75 14.187 13.75 7.333 0 13.307-6.17 13.307-13.75v-94.085c0-.652 0-.98.706-2.431 3.707-10.636 11.934-31.145 25.32-48.973 17.787-23.024 36.707-33.748 59.56-33.748 7.454 0 13.747-6.296 13.747-13.75M1665.267 203.5c19.293 0 38.16 6.585 53.226 18.633 5.827 4.23 13.894 3.279 18.867-2.32 2.507-3.06 3.64-6.96 3.12-10.705-.48-3.49-2.28-6.492-4.933-8.34-19.84-15.69-44.8-24.33-70.28-24.33-63.667 0-113.52 48.327-113.52 110.023 0 62.187 49.853 110.9 113.52 110.9 25 0 50.293-8.545 69.346-23.408 3.294-2.478 5.374-5.932 5.827-9.717.453-3.639-.653-7.28-3.173-10.352-4.88-5.493-12.96-6.45-18.854-2.163-15.16 11.699-34.026 18.139-53.146 18.139-48.24 0-86.027-36.635-86.027-83.399 0-45.744 38.6-82.961 86.027-82.961M1934.213 267.024h-154.386c8.946-37.343 40.413-63.084 77.813-63.084 36.8 0 68.427 26.304 76.573 63.084zm29.934 12.181c-4.574-58.585-50.374-102.766-106.507-102.766-59.213 0-107.4 49.748-107.4 110.898 0 60.667 48.187 110.024 107.4 110.024 36.307 0 69.72-18.728 89.44-50.184 3.787-6.486 1.947-14.536-4.627-19.304-3.066-1.837-6.853-2.373-10.4-1.463a12.992 12.992 0 0 0-8.053 6.082c-13.84 23.05-39.267 37.368-66.36 37.368-41.64 0-76.013-33.016-79.68-75.776h172.44c7.72 0 13.76-5.653 13.76-12.872l-.013-2.007M2075.84 281.17c-12.92 0-25.84.04-38.76-.02-4.587-.022-8.053-3.042-8.987-7.52-.84-4.044 1.28-8.349 5.187-10.026a12.008 12.008 0 0 1 4.613-.96c25.48-.057 50.96-.061 76.44-.027 5.84.008 10.107 4.13 10 9.451-.093 5.265-4.253 9.092-10 9.103-12.84.026-25.666.008-38.493.008v-.008M2076.107 249.852c-12.84-.003-25.667.047-38.494-.023-6.666-.038-11.066-5.626-9.32-11.706 1.054-3.623 3.494-5.87 7.24-6.579 1.027-.196 2.107-.243 3.16-.244 24.947-.013 49.894-.021 74.854.017 1.56.003 3.213.158 4.68.655 4.093 1.38 6.653 5.745 6.013 9.83-.72 4.5-4.133 7.703-8.587 8-.973.066-1.946.05-2.92.05-12.213.003-24.426.001-36.626 0M2039.12 294.077h73.893c-2.786 10.437-20.48 21.654-34.853 22.13-16.573.548-34.693-9.679-39.04-22.13" fill="#161616"/><path d="M2076.124 185.585c-42.76-.004-77.481-34.733-77.481-77.496 0-42.764 34.734-77.48 77.494-77.475 42.761.007 77.481 34.734 77.481 77.495-.013 42.766-34.733 77.48-77.494 77.476zm.228-185.581c-59.686-.13-108.222 48.192-108.33 107.869-.106 59.77 48.27 108.282 108.035 108.32 59.685.038 108.1-48.308 108.155-108.024.067-59.612-48.228-108.034-107.86-108.165" fill="#1dcb9a"/><path d="M2076.12 116.419c-4.587 0-8.307-3.726-8.307-8.322 0-4.592 3.72-8.317 8.307-8.317 4.6 0 8.32 3.725 8.32 8.317a8.317 8.317 0 0 1-8.32 8.322zm.253-49.722c-22.92-.112-41.56 18.316-41.653 41.187-.093 22.913 18.36 41.537 41.227 41.616 22.906.081 41.52-18.385 41.573-41.264.067-22.843-18.333-41.427-41.147-41.539" fill="#1dcb9a"/></svg>