<svg xmlns="http://www.w3.org/2000/svg" width="81.683" height="119.497" viewBox="0 0 81.683 119.497"><g transform="translate(-679.058 -233.426)"><g transform="translate(696.547 329.225)"><g transform="translate(5.15 3.435)"><path d="M131.622,426.542c-4.87,0-9.764.024-14.633,0a3.476,3.476,0,0,1-1.444-6.632,4.7,4.7,0,0,1,1.737-.367c9.617-.024,19.258-.024,28.875,0a3.521,3.521,0,1,1-.024,7.023c-4.821-.024-9.666-.024-14.511-.024Z" transform="translate(-113.519 -419.525)" fill="#1d1d1b"/></g></g><g transform="translate(696.546 317.396)"><g transform="translate(5.148 3.414)"><path d="M131.711,378.123c-4.845,0-9.69.024-14.535,0a3.465,3.465,0,0,1-3.524-4.429,3.324,3.324,0,0,1,2.741-2.5,6.609,6.609,0,0,1,1.2-.1h28.288a5.3,5.3,0,0,1,1.762.245,3.483,3.483,0,0,1-.979,6.754c-.367.025-.734.025-1.1.025Z" transform="translate(-113.506 -371.1)" fill="#1d1d1b"/></g></g><g transform="translate(700.782 341.121)"><g transform="translate(5.144 3.425)"><path d="M130.8,468.1h27.921c-1.052,3.94-7.733,8.173-13.165,8.369C139.291,476.665,132.44,472.8,130.8,468.1Z" transform="translate(-130.8 -468.1)" fill="#1d1d1b"/></g></g><g transform="translate(679.057 233.426)"><path d="M61.939,14a40.854,40.854,0,1,0,40.743,40.89A40.855,40.855,0,0,0,61.939,14Zm-.1,70.133A29.279,29.279,0,1,1,91.132,54.865,29.289,29.289,0,0,1,61.841,84.132Z" transform="translate(-21 -14)" fill="#1dcb9a"/><path d="M139.734,117a15.649,15.649,0,1,0,15.563,15.71A15.624,15.624,0,0,0,139.734,117Zm-.1,18.793a3.132,3.132,0,1,1,3.132-3.132A3.138,3.138,0,0,1,139.636,135.793Z" transform="translate(-98.794 -91.794)" fill="#1dcb9a"/></g></g></svg>