<svg xmlns="http://www.w3.org/2000/svg" width="25.807" height="20.942" viewBox="0 0 25.807 20.942">
  <g id="paint-board-and-brush" transform="translate(0 -40.723)">
    <path id="Path_596" data-name="Path 596" d="M25.286,41.386a.358.358,0,0,0-.625-.076A3.163,3.163,0,0,1,22.925,42.4a6.488,6.488,0,0,0-1.75.847,2.23,2.23,0,0,0-1.079,2.3l-.021.027a11.774,11.774,0,0,0-1.186-1.462,11.081,11.081,0,0,0-7.546-3.387c-.125,0-.251-.007-.376-.007a10.946,10.946,0,0,0-8.291,3.872A10.9,10.9,0,0,0,.123,53.338c.04.26.09.522.149.78A9.735,9.735,0,0,0,5.712,61.25a5.15,5.15,0,0,0,1.981.414,4.409,4.409,0,0,0,3.892-2.383A5.155,5.155,0,0,0,12.2,57.51a4.276,4.276,0,0,0-.018-1.049,3.948,3.948,0,0,1-.015-1.021,1.368,1.368,0,0,1,1.437-1.228,2.216,2.216,0,0,1,.673.108c-.264.484-.5.947-.714,1.376a13.972,13.972,0,0,0-.911,2.237c-.1.355-.362,1.3.279,1.742a.958.958,0,0,0,.73.141c.242-.045.978-.182,3.069-2.563.561-.639,1.166-1.378,1.8-2.2a4.871,4.871,0,0,0,3.22-3.47,5.114,5.114,0,0,0,.1-1.243c.608-.939,1.141-1.815,1.677-2.757.01-.018.02-.038.03-.057a2.956,2.956,0,0,0,1.843-1.666A5.7,5.7,0,0,0,25.286,41.386Zm-8.774,5.855a1.528,1.528,0,1,1,.2-1.153A1.522,1.522,0,0,1,16.512,47.241ZM18.5,50.011c.773-1.138,1.59-2.27,2.366-3.277a4.19,4.19,0,0,0,.419.33,3.22,3.22,0,0,0,.786.4c-.655,1.121-1.36,2.231-2.213,3.487a57.364,57.364,0,0,1-4.1,5.4,15.825,15.825,0,0,1-1.773,1.783,15.993,15.993,0,0,1,1.008-2.315A57.542,57.542,0,0,1,18.5,50.011ZM4.929,50a1.528,1.528,0,1,1,1.295-.714A1.523,1.523,0,0,1,4.929,50Zm-1.6,3.366a1.528,1.528,0,1,1-.2,1.153A1.522,1.522,0,0,1,3.327,53.366Zm4.895-9.077a1.529,1.529,0,1,1-.2,1.153A1.522,1.522,0,0,1,8.222,44.289Z" transform="translate(0)" fill="#0b8b8c"/>
  </g>
</svg>
