<svg xmlns="http://www.w3.org/2000/svg" width="84" height="38" viewBox="0 0 84 38">
  <g id="Group_2041" data-name="Group 2041" transform="translate(-36 -245)">
    <rect id="Rectangle_2727" data-name="Rectangle 2727" width="40" height="3" rx="1.5" transform="translate(80 245)" fill="#b0b5c3"/>
    <rect id="Rectangle_2732" data-name="Rectangle 2732" width="40" height="3" rx="1.5" transform="translate(36 245)" fill="#b0b5c3"/>
    <rect id="Rectangle_2729" data-name="Rectangle 2729" width="40" height="3" rx="1.5" transform="translate(80 252)" fill="#b0b5c3"/>
    <rect id="Rectangle_2733" data-name="Rectangle 2733" width="40" height="3" rx="1.5" transform="translate(36 252)" fill="#b0b5c3"/>
    <rect id="Rectangle_2730" data-name="Rectangle 2730" width="40" height="3" rx="1.5" transform="translate(80 259)" fill="#b0b5c3"/>
    <rect id="Rectangle_2734" data-name="Rectangle 2734" width="40" height="3" rx="1.5" transform="translate(36 259)" fill="#b0b5c3"/>
    <rect id="Rectangle_2731" data-name="Rectangle 2731" width="40" height="3" rx="1.5" transform="translate(80 266)" fill="#b0b5c3"/>
    <rect id="Rectangle_2735" data-name="Rectangle 2735" width="40" height="3" rx="1.5" transform="translate(36 266)" fill="#b0b5c3"/>
    <rect id="Rectangle_2736" data-name="Rectangle 2736" width="40" height="3" rx="1.5" transform="translate(36 273)" fill="#b0b5c3"/>
    <rect id="Rectangle_2738" data-name="Rectangle 2738" width="40" height="3" rx="1.5" transform="translate(80 273)" fill="#b0b5c3"/>
    <rect id="Rectangle_2737" data-name="Rectangle 2737" width="40" height="3" rx="1.5" transform="translate(36 280)" fill="#b0b5c3"/>
    <rect id="Rectangle_2739" data-name="Rectangle 2739" width="40" height="3" rx="1.5" transform="translate(80 280)" fill="#b0b5c3"/>
  </g>
</svg>
