<svg xmlns="http://www.w3.org/2000/svg" width="30.042" height="28.626" viewBox="0 0 30.042 28.626">
  <g id="Group_2055" data-name="Group 2055" transform="translate(-341 -564)">
    <path id="Path_110" data-name="Path 110" d="M12.431.11S23.419-1.568,25.8,8.177,21.108,13.641,13.637,13.2-1.1,19.024.14,10.2,12.431.11,12.431.11Z" transform="matrix(0.809, 0.588, -0.588, 0.809, 349.787, 564)" fill="#0b8b8c"/>
    <path id="form" d="M5.3,17.849a.726.726,0,0,1-.726.726H2.9a2.906,2.906,0,0,1-2.9-2.9V2.9A2.906,2.906,0,0,1,2.9,0h8.921a2.906,2.906,0,0,1,2.9,2.9V7.22a.726.726,0,1,1-1.451,0V2.9a1.453,1.453,0,0,0-1.451-1.451H2.9A1.453,1.453,0,0,0,1.451,2.9v12.77A1.453,1.453,0,0,0,2.9,17.124H4.571A.726.726,0,0,1,5.3,17.849Zm6.526-12.77a.726.726,0,0,0-.726-.726H3.624a.726.726,0,0,0,0,1.451H11.1A.726.726,0,0,0,11.823,5.079Zm-2.9,2.9A.726.726,0,0,0,8.2,7.256H3.624a.726.726,0,0,0,0,1.451H8.2A.726.726,0,0,0,8.925,7.981Zm-5.3,2.177a.726.726,0,0,0,0,1.451H6.639a.726.726,0,1,0,0-1.451Zm12.659,7.877a1.453,1.453,0,0,1-1.13.54H8.067a1.467,1.467,0,0,1-1.433-1.768,5.088,5.088,0,0,1,2.852-3.586,2.83,2.83,0,1,1,4.247,0,5.056,5.056,0,0,1,1.1.692,5.114,5.114,0,0,1,1.733,2.825c.006.019.01.038.015.058A1.479,1.479,0,0,1,16.282,18.035Zm-6.052-6.681a1.379,1.379,0,1,0,1.379-1.379A1.38,1.38,0,0,0,10.231,11.354ZM15.164,17.1h0a3.63,3.63,0,0,0-7.109,0,.019.019,0,0,0,.008.022h7.089A.035.035,0,0,0,15.164,17.1Zm0,0" transform="translate(347.527 574.051)"/>
  </g>
</svg>
