<svg xmlns="http://www.w3.org/2000/svg" width="81.208" height="72.055" viewBox="0 0 81.208 72.055">
  <g id="Group_1959" data-name="Group 1959" transform="translate(-1128.464 -541.74)">
    <path id="Path_1637" data-name="Path 1637" d="M1209.669,600.542l-.01-1.066-.313-17.051-.48-17.051-.292-8.525-.163-4.3a11.516,11.516,0,0,0-1.29-4.715,11.274,11.274,0,0,0-7.37-5.781,8.475,8.475,0,0,0-1.17-.215,7.784,7.784,0,0,0-1.18-.088c-.825-.032-1.456.033-2.191.046l-4.262.14c-5.684.155-11.368.362-17.051.476l-17.051.308c-5.684.072-11.368.09-17.051.1,5.683.015,11.367.033,17.051.1l17.051.308c5.683.114,11.367.32,17.051.476l4.262.14a13.433,13.433,0,0,1,3.918.473,8.618,8.618,0,0,1,5.331,4.8,8.409,8.409,0,0,1,.7,3.5l-.138,4.224-.048,1.385L1130.3,555.35V561.3l74.667-2.882-.239,6.96-.48,17.051-.312,17.051-.011,1.066,0,.266-.014.2-.025.38a7.5,7.5,0,0,1-.292,1.481,7.17,7.17,0,0,1-6.791,4.988c-5.684.011-11.368.028-17.051.1s-11.368.207-17.051.307-11.368.321-17.051.477l-4.263.14-1.066.038-.53.018-.433-.005a5.131,5.131,0,0,1-.867-.055,5.569,5.569,0,0,1-.859-.146,8.3,8.3,0,0,1-5.48-4.207,8.556,8.556,0,0,1-.995-3.49c-.073-1.357-.107-2.824-.162-4.231l-.294-8.526c-.158-5.683-.362-11.367-.481-17.051l-.312-17.05a13.23,13.23,0,0,1,.379-4.2,9.58,9.58,0,0,1,2.013-3.7,10.023,10.023,0,0,1,7.5-3.447,10.132,10.132,0,0,0-9.636,7.108,13.408,13.408,0,0,0-.47,4.24l-.311,17.05c-.119,5.684-.324,11.368-.482,17.051l-.293,8.526c-.045,1.435-.113,2.811-.139,4.294a11.4,11.4,0,0,0,.99,4.729,11.6,11.6,0,0,0,7.221,6.37,9.194,9.194,0,0,0,1.222.3,8.517,8.517,0,0,0,1.25.171l.631.049.535.019,1.066.038,4.263.14c5.683.156,11.367.367,17.051.477s11.367.245,17.051.307,11.367.089,17.051.1a13,13,0,0,0,9.739-4.462,12.582,12.582,0,0,0,2.621-4.8,13.4,13.4,0,0,0,.477-2.7l.029-.684.011-.338Z" fill="#707070"/>
    <circle id="Ellipse_235" data-name="Ellipse 235" cx="4" cy="4" r="4" transform="translate(1137.795 546.823)" fill="#b0b5c3"/>
    <circle id="Ellipse_236" data-name="Ellipse 236" cx="4" cy="4" r="4" transform="translate(1148.795 546.823)" fill="#b0b5c3"/>
    <circle id="Ellipse_237" data-name="Ellipse 237" cx="4" cy="4" r="4" transform="translate(1159.795 546.823)" fill="#b0b5c3"/>
    <g id="Group_1961" data-name="Group 1961" transform="translate(2)">
      <path id="Path_1640" data-name="Path 1640" d="M1148.464,564.9c-3.919.067-7.838.084-11.757.1,3.919.014,7.838.031,11.757.1Z" fill="#eccb95"/>
      <path id="Path_1641" data-name="Path 1641" d="M1171.977,565.832v-1.664l-5.878.235c-1.96.074-3.919.171-5.878.21v.774c1.959.039,3.918.136,5.878.21Z" fill="#eccb95"/>
      <path id="Path_1642" data-name="Path 1642" d="M1192.552,566.806l1.375.066a.6.6,0,0,1-.062-.008.67.67,0,0,1-.155-.052l3.1-2.243a3.948,3.948,0,0,0-1.066-.985,3.123,3.123,0,0,0-.84-.363,2.958,2.958,0,0,0-.493-.088,2.729,2.729,0,0,0-.391-.01l-1.469.071-2.94.14-5.878.281v2.77l5.878.281Z" fill="#eccb95"/>
      <path id="Path_1644" data-name="Path 1644" d="M1193.456,583.2c-.044,1.959-.119,3.919-.138,5.878h5.364c-.019-1.959-.094-3.919-.138-5.878l-.155-5.878h-4.778Z" fill="#eccb95"/>
      <path id="Path_1645" data-name="Path 1645" d="M1194.087,597.217c-3.919.011-7.837.027-11.756.094v5.378c3.919.067,7.837.083,11.756.094Z" fill="#eccb95"/>
      <path id="Path_1646" data-name="Path 1646" d="M1170.574,602.4v-4.8c-1.959.039-3.919.133-5.878.209l-5.879.237v3.91l5.879.237C1166.655,602.268,1168.615,602.362,1170.574,602.4Z" fill="#eccb95"/>
      <path id="Path_1647" data-name="Path 1647" d="M1135.609,600.539a2.128,2.128,0,0,0,.558.271,2.2,2.2,0,0,0,.606.094l1.47.071,2.939.141,5.879.283v-2.8l-5.879.283-2.939.141-1.47.071c-.13.005-.067.011-.12.009a.262.262,0,0,1-.107-.034,1.029,1.029,0,0,1-.309-.27l-1.363.986A2.791,2.791,0,0,0,1135.609,600.539Z" fill="#eccb95"/>
      <path id="Path_1648" data-name="Path 1648" d="M1135.03,581.8c-.044-1.959-.122-3.919-.136-5.878h-.2c-.015,1.959-.093,3.919-.137,5.878l-.155,5.878h.781Z" fill="#eccb95"/>
    </g>
  </g>
</svg>
