<svg xmlns="http://www.w3.org/2000/svg" width="23.875" height="24" viewBox="0 0 23.875 24">
  <g id="text-tool" transform="translate(-0.83)">
    <g id="Group_1666" data-name="Group 1666" transform="translate(0.83)">
      <path id="Path_609" data-name="Path 609" d="M24.7.742A.751.751,0,0,0,23.951,0H1.581A.751.751,0,0,0,.83.751v4.13a.751.751,0,0,0,.751.751h1.7a.751.751,0,0,0,.586-.282l1.276-1.6h5.376V23.249a.751.751,0,0,0,.751.751h3a.751.751,0,0,0,.751-.751V3.754h5.37l1.282,1.6a.751.751,0,0,0,.586.281h1.7a.751.751,0,0,0,.751-.754Z" transform="translate(-0.83)" fill="#0b8b8c"/>
    </g>
  </g>
</svg>
