<svg xmlns="http://www.w3.org/2000/svg" width="19.998" height="20" viewBox="0 0 19.998 20">
  <g id="ic_facebook" transform="translate(-0.001)">
    <path id="Subtraction_9" data-name="Subtraction 9" d="M3362,8721a10,10,0,1,1,10-10A10.012,10.012,0,0,1,3362,8721Zm-2.263-11.021a.182.182,0,0,0-.182.182v1.457a.181.181,0,0,0,.182.18h1.158v3.69a.18.18,0,0,0,.182.179h1.512a.179.179,0,0,0,.179-.179v-3.69h1.355a.181.181,0,0,0,.182-.18v-1.462a.181.181,0,0,0-.182-.18h-1.353v-.855c0-.412.1-.621.633-.621h.775a.181.181,0,0,0,.182-.18v-1.359a.183.183,0,0,0-.182-.182h-1.151l-.115,0a2.023,2.023,0,0,0-2.017,2.191v1.012Z" transform="translate(-3352 -8701)"/>
  </g>
</svg>
