<svg xmlns="http://www.w3.org/2000/svg" width="20" height="20" viewBox="0 0 20 20">
  <g id="ic_twitter" transform="translate(0)">
    <path id="Subtraction_10" data-name="Subtraction 10" d="M3302,8721a10,10,0,1,1,10-10A10.012,10.012,0,0,1,3302,8721Zm-4.223-7.428h0a5.126,5.126,0,0,0,2.772.813h.033a5.112,5.112,0,0,0,5.115-5.147l-.007-.234a3.6,3.6,0,0,0,.908-.935,3.6,3.6,0,0,1-1.039.285,1.806,1.806,0,0,0,.8-1,3.576,3.576,0,0,1-1.149.44,1.812,1.812,0,0,0-3.084,1.65,5.132,5.132,0,0,1-3.727-1.892,1.816,1.816,0,0,0,.558,2.417,1.848,1.848,0,0,1-.819-.228v.021a1.816,1.816,0,0,0,1.451,1.775,1.873,1.873,0,0,1-.477.063,1.8,1.8,0,0,1-.341-.035,1.8,1.8,0,0,0,1.69,1.256,3.635,3.635,0,0,1-2.237.775h-.009A3.6,3.6,0,0,1,3297.777,8713.572Z" transform="translate(-3292 -8701)"/>
  </g>
</svg>
