<svg xmlns="http://www.w3.org/2000/svg" width="20" height="20" viewBox="0 0 20 20">
  <g id="pinterest_wt" transform="translate(-0.001 -0.003)">
    <path id="Subtraction_11" data-name="Subtraction 11" d="M3332,8721a10,10,0,1,1,10-10A10.012,10.012,0,0,1,3332,8721Zm-.678-12.895a1.246,1.246,0,0,0-1.064.721,2.557,2.557,0,0,0-.066,2.386c-.11.544-.257,1.088-.4,1.614a11.791,11.791,0,0,0-.554,4.972c1.177-.854,1.571-2.474,1.9-4.2a3.371,3.371,0,0,0,1.666.792l0,0c.1.007.191.011.279.011a3.281,3.281,0,0,0,2.525-1.18,5.655,5.655,0,0,0,1.164-4.386,3.682,3.682,0,0,0-1.577-2.559,5.4,5.4,0,0,0-3.082-.9,6.7,6.7,0,0,0-.743.042,4.654,4.654,0,0,0-4.2,4.285c-.062,1.647.509,2.582,1.747,2.856a1.149,1.149,0,0,0-.035-1.4,1.784,1.784,0,0,1-.282-.661,3.234,3.234,0,0,1,.758-2.645,3.876,3.876,0,0,1,2.866-1.348,2.977,2.977,0,0,1,2.168.9c.9.912.868,2.875.325,4.17a2.183,2.183,0,0,1-1.881,1.58,1.736,1.736,0,0,1-.344-.035.985.985,0,0,1-.7-.433c-.286-.487-.03-1.289.217-2.064.324-1.02.659-2.072-.226-2.421A1.246,1.246,0,0,0,3331.323,8708.108Z" transform="translate(-3322 -8701)" fill="#fff"/>
  </g>
</svg>
