<svg xmlns="http://www.w3.org/2000/svg" width="16" height="16" viewBox="0 0 16 16">
  <g id="Group_2075" data-name="Group 2075" transform="translate(-78.5 -492)">
    <rect id="Rectangle_2091" data-name="Rectangle 2091" width="16" height="16" transform="translate(78.5 492)" fill="#fff"/>
    <path id="Path_569" data-name="Path 569" d="M206.042,110.943,200.583,116l1.721,1.8,4.826-5.726Z" transform="translate(-115.76 384.333)" fill="#717171"/>
    <path id="Path_570" data-name="Path 570" d="M1.483,403.981.134,405.4a.5.5,0,0,0-.125.434.476.476,0,0,0,.275.35l2.188.945a.438.438,0,0,0,.175.036.448.448,0,0,0,.324-.141l.705-.74Z" transform="translate(78.594 100.838)" fill="#717171"/>
    <path id="Path_571" data-name="Path 571" d="M72.6,13.474l-2.471-2.592a1.643,1.643,0,0,0-2.324-.075L59.8,18.232l0,0-.026.027-.007.008c-.009.011-.018.021-.026.033l0,.006-.02.031,0,.009q-.01.018-.019.038l0,.007c0,.011-.009.023-.013.034l0,.01c0,.013-.008.027-.012.041v.007c0,.008,0,.015,0,.023l-.619,3.679,2.79,2.926,3.508-.649.023-.005h.006l.04-.012.009,0,.034-.014.006,0,.036-.02.008-.005.03-.021.006,0,.032-.027.007-.007.026-.028,0,0,7.079-8.4A1.847,1.847,0,0,0,72.6,13.474Zm-1.654,1.6-5.435,6.448a.45.45,0,0,1-.33.162H65.17a.448.448,0,0,1-.324-.141l-2.411-2.528a.5.5,0,0,1,.021-.7l6.148-5.7a.443.443,0,0,1,.628.02l1.7,1.781A.5.5,0,0,1,70.949,15.077Z" transform="translate(21.394 481.638)" fill="#717171"/>
  </g>
</svg>
