<svg xmlns="http://www.w3.org/2000/svg" width="24" height="24" viewBox="0 0 24 24">
  <g id="ic_txtstripe" transform="translate(1854 2723)">
    <rect id="Rectangle_2799" data-name="Rectangle 2799" width="24" height="24" rx="4" transform="translate(-1854 -2723)" fill="none"/>
    <path id="Union_6" data-name="Union 6" d="M2,9.748V8.2a7.587,7.587,0,0,0,1.453.506,6.2,6.2,0,0,0,1.433.184,2.28,2.28,0,0,0,1.432-.369,1.2,1.2,0,0,0,.461-.992,1.246,1.246,0,0,0-.423-.95A6.41,6.41,0,0,0,4.6,5.66,7.039,7.039,0,0,1,3.55,5.138H0v-1H2.5a2.741,2.741,0,0,1-.381-1.451A2.39,2.39,0,0,1,3.005.718,3.685,3.685,0,0,1,5.391,0,7,7,0,0,1,8.248.629L7.728,1.962A6.244,6.244,0,0,0,5.35,1.4a1.826,1.826,0,0,0-1.2.346,1.132,1.132,0,0,0-.41.913,1.28,1.28,0,0,0,.165.666,1.664,1.664,0,0,0,.54.523,4.7,4.7,0,0,0,.533.289H11v1H7.094a3.678,3.678,0,0,1,.313.214,2.518,2.518,0,0,1,.752.9A2.7,2.7,0,0,1,8.4,7.424a2.515,2.515,0,0,1-.964,2.092,4.2,4.2,0,0,1-2.66.759A6.344,6.344,0,0,1,2,9.748Z" transform="translate(-1847 -2716.138)" fill="#363636"/>
  </g>
</svg>
