<svg xmlns="http://www.w3.org/2000/svg" width="24" height="24" viewBox="0 0 24 24">
  <g id="ic_txtbold" transform="translate(2173 2723)">
    <rect id="Rectangle_2777" data-name="Rectangle 2777" width="24" height="24" rx="4" transform="translate(-2173 -2723)" fill="none"/>
    <path id="Path_1670" data-name="Path 1670" d="M1.258-9.994h3.11a5.994,5.994,0,0,1,3.086.6,2.106,2.106,0,0,1,.96,1.924A2.425,2.425,0,0,1,7.995-6a1.679,1.679,0,0,1-1.118.69v.068a2.2,2.2,0,0,1,1.371.793A2.58,2.58,0,0,1,8.668-2.9,2.546,2.546,0,0,1,7.68-.766,4.272,4.272,0,0,1,5,0H1.258ZM3.377-6.036h1.23A2.25,2.25,0,0,0,5.855-6.3a.994.994,0,0,0,.386-.882.882.882,0,0,0-.42-.824,2.7,2.7,0,0,0-1.33-.25H3.377Zm0,1.682v2.6H4.758A2.048,2.048,0,0,0,6.05-2.085,1.236,1.236,0,0,0,6.467-3.11q0-1.244-1.777-1.244Z" transform="translate(-2166 -2706)" fill="#363636"/>
  </g>
</svg>
