<svg xmlns="http://www.w3.org/2000/svg" width="24" height="24" viewBox="0 0 24 24">
  <g id="ic_txtunlink_hover" transform="translate(-165 -488)">
    <g id="Group_2096" data-name="Group 2096" transform="translate(2222 3211)">
      <rect id="Rectangle_2784" data-name="Rectangle 2784" width="24" height="24" rx="4" transform="translate(-2057 -2723)" fill="#e3e3e3"/>
    </g>
    <g id="Group_2097" data-name="Group 2097" transform="translate(-0.5)">
      <path id="Path_564" data-name="Path 564" d="M21.279,2.78,19.489.967A2.026,2.026,0,0,0,16.616.958L14.629,2.941a2.048,2.048,0,0,0-.009,2.886l1.135-1.116a1.06,1.06,0,0,1,.308-1.044l1.264-1.261a1.013,1.013,0,0,1,1.438,0L19.84,3.5a1.025,1.025,0,0,1,0,1.444L18.572,6.2a1.158,1.158,0,0,1-1.047.319L16.413,7.64a2.024,2.024,0,0,0,2.873.009l1.984-1.981A2.047,2.047,0,0,0,21.279,2.78Z" transform="translate(162.629 492.635)" fill="#363636"/>
      <path id="Path_565" data-name="Path 565" d="M6.135,17.494a1.188,1.188,0,0,1-.33,1.07l-1.18,1.18a1.031,1.031,0,0,1-1.463-.005l-1.1-1.106a1.046,1.046,0,0,1,.005-1.471l1.181-1.18a1.066,1.066,0,0,1,1.062-.31l1.139-1.155a2.065,2.065,0,0,0-2.927-.009L.61,16.422A2.089,2.089,0,0,0,.6,19.364l1.824,1.845a2.066,2.066,0,0,0,2.927.008L7.267,19.3a2.09,2.09,0,0,0,.009-2.941Z" transform="translate(170.5 485.179)" fill="#363636"/>
      <path id="Path_566" data-name="Path 566" d="M10.882,15.157a.683.683,0,0,0,.981,0l3.273-3.332a.72.72,0,0,0,0-1,.682.682,0,0,0-.979,0l-3.274,3.331A.721.721,0,0,0,10.882,15.157Z" transform="translate(164.508 486.989)" fill="#363636"/>
    </g>
    <path id="Path_1687" data-name="Path 1687" d="M1.719-2.191.23-4.281H.969L2.1-2.641,3.223-4.281h.73L2.465-2.191,4.031,0H3.3L2.1-1.734.887,0H.152Z" transform="translate(179 507)" fill="#363636"/>
  </g>
</svg>
