<svg xmlns="http://www.w3.org/2000/svg" width="24" height="24" viewBox="0 0 24 24">
  <g id="ic_txtnumber_hover" transform="translate(1974 2723)">
    <rect id="Rectangle_2789" data-name="Rectangle 2789" width="24" height="24" rx="4" transform="translate(-1974 -2723)" fill="#e3e3e3"/>
    <path id="Union_4" data-name="Union 4" d="M0,15.425v-.642a2.339,2.339,0,0,0,.456.171,1.956,1.956,0,0,0,.493.066.959.959,0,0,0,.552-.127.466.466,0,0,0,.178-.408.369.369,0,0,0-.205-.356,1.51,1.51,0,0,0-.654-.105H.549v-.579H.825a1.29,1.29,0,0,0,.607-.108.394.394,0,0,0,.192-.373q0-.405-.508-.4a1.147,1.147,0,0,0-.358.058,1.741,1.741,0,0,0-.4.2L0,12.3a1.943,1.943,0,0,1,1.165-.352,1.507,1.507,0,0,1,.876.225.72.72,0,0,1,.321.625.835.835,0,0,1-.2.569,1.051,1.051,0,0,1-.569.323V13.7a1.14,1.14,0,0,1,.654.262.735.735,0,0,1,.222.563.954.954,0,0,1-.373.8,1.725,1.725,0,0,1-1.067.287A2.589,2.589,0,0,1,0,15.425Zm4.81-.856v-2h11v2Zm-4.8-5V9.044l.9-.905q.4-.408.52-.565A1.251,1.251,0,0,0,1.6,7.282.76.76,0,0,0,1.655,7a.408.408,0,0,0-.118-.32.459.459,0,0,0-.317-.1.913.913,0,0,0-.4.095,2.088,2.088,0,0,0-.408.271L0,6.459a2.628,2.628,0,0,1,.437-.318A1.581,1.581,0,0,1,.815,6a1.945,1.945,0,0,1,.459-.049,1.359,1.359,0,0,1,.59.122.947.947,0,0,1,.4.342.908.908,0,0,1,.141.5,1.233,1.233,0,0,1-.086.463,1.79,1.79,0,0,1-.269.443,6.4,6.4,0,0,1-.641.647L.95,8.9v.034H2.5V9.57Zm4.8-1v-2h11v2Zm-3.689-5V1.5l.007-.339L1.14.794C1.015.919.928,1,.879,1.04l-.41.329L.105.915,1.255,0h.62V3.569Zm3.689-1v-2h11v2Z" transform="translate(-1969.81 -2718.569)" fill="#363636"/>
  </g>
</svg>
