<svg xmlns="http://www.w3.org/2000/svg" width="16" height="16" viewBox="0 0 16 16">
  <g id="Group_2077" data-name="Group 2077" transform="translate(-16.5 -492)">
    <rect id="Rectangle_2092" data-name="Rectangle 2092" width="16" height="16" transform="translate(16.5 492)" fill="#fff"/>
    <path id="U" d="M7.283-5.727H8.629V-.046a6.518,6.518,0,0,1-.347,2.354A2.9,2.9,0,0,1,7.03,3.727a4.557,4.557,0,0,1-2.376.547A5.026,5.026,0,0,1,2.315,3.8a2.754,2.754,0,0,1-1.3-1.378A6.369,6.369,0,0,1,.629-.046V-5.727H1.975V-.053a5.36,5.36,0,0,0,.246,1.888,1.828,1.828,0,0,0,.846.936A3.019,3.019,0,0,0,4.535,3.1a2.866,2.866,0,0,0,2.116-.651,3.655,3.655,0,0,0,.631-2.5Z" transform="translate(19.871 498.727)" fill="#717171"/>
    <rect id="Rectangle-181" width="16" height="2" transform="translate(16.5 505)" fill="#fff"/>
    <rect id="Rectangle-181-2" data-name="Rectangle-181" width="10" height="2" transform="translate(19.5 505)" fill="#717171"/>
  </g>
</svg>
