<svg xmlns="http://www.w3.org/2000/svg" width="87.442" height="97.36" viewBox="0 0 87.442 97.36"><g transform="translate(-443.684 -455)"><path d="M1055.483-5525.985s65.822,5.572,70.911,1.883,13.232-13.3,13.232-13.3v16.468s.5,6.663-4.691,7.428-74.742,0-74.742,0-3.473-1.461-3.921-2.662S1055.483-5525.985,1055.483-5525.985Z" transform="translate(-610 6065)" fill="#b0b5c3"/><g transform="translate(-379.212 305.126)"><path d="M908.314,238.7l-.014-10.731-.027-21.462-.054-42.923-.012-5.366a5.007,5.007,0,0,0-.237-2.115,3.351,3.351,0,0,0-1.131-1.475,3.558,3.558,0,0,0-1.753-.688c-.177-.01-.283-.02-.519-.022l-.693,0-1.386,0-5.545.012-22.178.049-44.357.1a3.379,3.379,0,0,0-2.972,1.75,2.9,2.9,0,0,0-.362,1.271l-.014.233v.335l-.007,2.682-.024,10.731-.05,21.462-.1,42.923-.006,5.366a5.039,5.039,0,0,0,.229,2.125,3.386,3.386,0,0,0,1.135,1.494,3.6,3.6,0,0,0,1.771.705c.178.011.288.022.524.024h.693l1.386,0,5.545.006,22.178.026,44.357.052a3.676,3.676,0,0,0,3.227-1.918,3.636,3.636,0,0,0,.328-.9,3.757,3.757,0,0,0,.058-.478l.013-.25v-.335Zm-38.865-51.15c.074.971.133,1.944.184,2.915q4.083.117,8.167.237l6.431.147,1.608.037a5.734,5.734,0,0,1,1.824.238,4.5,4.5,0,0,1,2.723,2.484,4.352,4.352,0,0,1,.322,1.785l-.021,1.556-.033,3.111a5.81,5.81,0,0,1-.165,1.706,4.086,4.086,0,0,1-.876,1.592,4.415,4.415,0,0,1-3.3,1.468c-4.287.012-8.574.031-12.861.1l-3.828.084q-.07,1.284-.167,2.567a81.241,81.241,0,0,1-1.108,8.708l8.36.13,6.185.106,3.093.053.386.006a4.313,4.313,0,0,1,.523.04,3.411,3.411,0,0,1,1.036.318,3.369,3.369,0,0,1,1.872,2.409,4.258,4.258,0,0,1,.046.927l-.062,1.5-.115,2.993-.046,1.5-.026.764a2.951,2.951,0,0,1-.182.93,3.218,3.218,0,0,1-3,2.065c-8.247.1-16.493.482-24.74.767l-6.185.173-3.093.06-.386.008A4.924,4.924,0,0,1,851.4,231a4.24,4.24,0,0,1-3.14-2.047,4.174,4.174,0,0,1-.449-1.19,5.112,5.112,0,0,1-.078-1.077l.036-1.5.088-2.993.053-1.5.029-.784a3.711,3.711,0,0,1,.235-1.176,3.993,3.993,0,0,1,3.789-2.549c.129-.161.258-.127.387-.125l.386.005.773.01,1.546.02,3.093.042,6.185.082,3.511.054a81.312,81.312,0,0,1-1.106-8.7q-.095-1.25-.165-2.5l-5.99.131-6.431.19-1.608.047-.4.012c-.132,0-.345,0-.514-.009a5.468,5.468,0,0,1-1.065-.181,5.03,5.03,0,0,1-3.192-2.709,5.09,5.09,0,0,1-.332-1.022,4.409,4.409,0,0,1-.078-.532c-.014-.174-.028-.378-.028-.485l-.042-1.556-.084-3.111-.01-.389,0-.195.007-.274a4.637,4.637,0,0,1,.161-1.1,5.011,5.011,0,0,1,1.035-1.98,5.49,5.49,0,0,1,4.077-1.911q7.245.171,14.49.373c.05-.942.108-1.884.18-2.826a80.98,80.98,0,0,1,1.164-9.024c-.069.037-.137.075-.207.112l-.691.368-.63-.323c-3.27-1.673-6.568-3.421-9.79-5.22l-9.438-5.355c2.911-1.611,5.873-3.29,8.922-4.946s6.165-3.26,9.25-4.788l.43-.213.53.134c3.519.9,7.017,1.861,10.507,2.847,3.5.963,6.963,2.026,10.447,3.033l3.57,1.033-3.181,1.961c-1.629,1-3.293,1.955-4.939,2.935l-4.955,2.909-4.992,2.85c-1.5.828-2.988,1.664-4.494,2.477A80.148,80.148,0,0,1,869.449,187.553Z" transform="translate(-0.853 -0.869)" fill="none"/><path d="M910.311,155.883a6.143,6.143,0,0,0-.4-1.7,6.366,6.366,0,0,0-2.112-2.787,6.705,6.705,0,0,0-3.306-1.315c-.283-.027-.638-.043-.863-.044l-.691,0-1.383,0-5.532-.012-22.128-.049-44.256-.1a6.823,6.823,0,0,0-6.005,3.574,6.61,6.61,0,0,0-.611,1.692,6.906,6.906,0,0,0-.113.89l-.018.437v.335l.006,2.682.024,10.731.05,21.462.1,42.923.006,5.366c.007.468-.015.828.03,1.467a6.107,6.107,0,0,0,.4,1.7,6.334,6.334,0,0,0,2.108,2.767,6.669,6.669,0,0,0,3.288,1.3c.281.026.632.041.858.041h.691l1.383,0,5.532-.006L859.5,247.2l44.256-.052a6.528,6.528,0,0,0,5.75-3.4,6.307,6.307,0,0,0,.589-1.619,6.478,6.478,0,0,0,.11-.852l.019-.42v-.335l0-2.682.014-10.731.027-21.462.054-42.923.012-5.366C910.331,156.884,910.355,156.525,910.311,155.883ZM907.363,241.1a3.8,3.8,0,0,1-.058.478,3.646,3.646,0,0,1-.327.9c-.6,1.155-1.886,3.242-3.22,3.237l-44.256-1.37-22.128-.026-5.532-.006-1.383,0h-.691c-.236,0-.346-.013-.523-.024a3.589,3.589,0,0,1-1.767-.705,3.385,3.385,0,0,1-1.133-1.494,5.05,5.05,0,0,1-.228-2.125l.006-5.366.1-42.923.05-21.462.024-10.731.006-2.682v-.335l.014-.233a2.915,2.915,0,0,1,.361-1.271,3.37,3.37,0,0,1,2.965-1.75l44.256-.1,22.128-.049,5.532-.012,1.383,0,.691,0c.236,0,.342.012.518.022a3.544,3.544,0,0,1,1.749.688,3.348,3.348,0,0,1,1.129,1.475,5.016,5.016,0,0,1,.237,2.115l.012,5.366.054,42.923.027,21.462.014,10.731,0,2.682v.335Z" transform="translate(0)" fill="#707070"/><path d="M1080.326-5592.042l17.355-5.317,14.467,4.635-15.574,9.17Z" transform="translate(-230.788 5759.874)" fill="#e6ba73"/><path d="M1081.55-5557.143a5.91,5.91,0,0,1-2.559-5.889c.673-3.908,8.018-2.715,8.018-2.715s27.207-1.287,28.728,0,1.791,8.6,1.791,8.6l-1.261.779H1093.5Z" transform="translate(-230.788 5759.874)" fill="#e6ba73"/><path d="M1080.68-5531.253l-.46-6.966s-.584-1.577,6.282-1.73,27.867-.826,29.328,0a10.136,10.136,0,0,1,2.291,1.73v5.086l-.326.943-.958.937H1080.68Z" transform="translate(-230.788 5759.874)" fill="#e6ba73"/><path d="M881.365,174.177l4.795-2.909c1.592-.979,3.2-1.93,4.779-2.935l3.078-1.961-3.455-1.033c-3.371-1.007-6.725-2.071-10.109-3.033-3.377-.986-6.762-1.951-10.168-2.847l-.513-.134-.416.213c-2.986,1.529-6,3.131-8.951,4.788s-5.816,3.335-8.634,4.946l9.133,5.355c3.118,1.8,6.31,3.548,9.474,5.22l.609.323.668-.368c.068-.037.133-.075.2-.112a83.55,83.55,0,0,0-1.126,9.024c-.07.942-.126,1.884-.174,2.826q-7.011-.2-14.022-.373a5.245,5.245,0,0,0-3.945,1.911,5.069,5.069,0,0,0-1,1.98,4.787,4.787,0,0,0-.156,1.1l-.006.274,0,.195.01.389.082,3.111.041,1.556c0,.108.013.312.027.485a4.54,4.54,0,0,0,.075.532,5.211,5.211,0,0,0,.321,1.022,4.914,4.914,0,0,0,3.088,2.709,5.131,5.131,0,0,0,1.03.181c.164,0,.37.013.5.009l.389-.012,1.556-.047,6.223-.19,5.8-.131q.067,1.25.159,2.5a83.923,83.923,0,0,0,1.07,8.7l-3.4-.054-5.985-.082-2.993-.042-1.5-.02-.748-.01-.374-.005c-.125,0-.25-.036-.375.125a3.867,3.867,0,0,0-3.666,2.549,3.821,3.821,0,0,0-.228,1.176l-.028.784-.051,1.5-.086,2.993-.035,1.5a5.292,5.292,0,0,0,.075,1.077,4.262,4.262,0,0,0,.435,1.19,4.086,4.086,0,0,0,1.827,1.7,3.9,3.9,0,0,0,1.212.352,4.609,4.609,0,0,0,.594.031l.374-.008,2.993-.06,5.985-.173c7.981-.285,15.96-.663,23.941-.767a3.119,3.119,0,0,0,2.9-2.065,3.036,3.036,0,0,0,.176-.93l.025-.764.045-1.5.112-2.993.06-1.5a4.411,4.411,0,0,0-.045-.927,3.52,3.52,0,0,0-.339-.975,3.386,3.386,0,0,0-1.472-1.434,3.224,3.224,0,0,0-1-.318,4.037,4.037,0,0,0-.506-.04l-.374-.006-2.993-.053-5.985-.106-8.09-.13a83.809,83.809,0,0,0,1.072-8.708q.094-1.284.162-2.567l3.7-.084c4.148-.065,8.3-.085,12.446-.1a4.212,4.212,0,0,0,3.2-1.468,4.123,4.123,0,0,0,.848-1.592,5.992,5.992,0,0,0,.16-1.706l.032-3.111.02-1.556a4.479,4.479,0,0,0-.312-1.785,4.41,4.41,0,0,0-2.635-2.484,5.381,5.381,0,0,0-1.765-.238l-1.556-.037-6.223-.147q-3.952-.126-7.9-.237c-.049-.971-.107-1.944-.178-2.915a82.706,82.706,0,0,0-1.161-9.21c1.457-.813,2.9-1.649,4.349-2.477Zm4.989,45.641,2.993-.053.374-.006a1.953,1.953,0,0,1,.24.009,1.382,1.382,0,0,1,.425.105,1.466,1.466,0,0,1,.678.577,1.658,1.658,0,0,1,.18.422,2.54,2.54,0,0,1,.052.565l.059,1.5.112,2.993.046,1.5.019.732a1.721,1.721,0,0,1-.089.536,1.745,1.745,0,0,1-1.671,1.19c-7.98-.1-15.96-.482-23.941-.767l-5.985-.173-2.993-.06-.374-.008a.781.781,0,0,1-.152-.017.714.714,0,0,1-.216-.071.766.766,0,0,1-.324-.316.932.932,0,0,1-.083-.208,1.969,1.969,0,0,1-.02-.414l-.035-1.5-.086-2.993-.05-1.5-.022-.711a.9.9,0,0,1,.036-.29.994.994,0,0,1,.9-.706c.125.161.25.127.375.125l.374-.005.748-.01,1.5-.02,2.993-.042,5.985-.082,11.971-.192Zm1.3-26.158,1.556-.037a3.866,3.866,0,0,1,1.313.1,2.864,2.864,0,0,1,1.819,1.584,3.1,3.1,0,0,1,.244,1.253l.02,1.556.033,3.111a4.856,4.856,0,0,1-.1,1.382,2.918,2.918,0,0,1-.593,1.136,3.015,3.015,0,0,1-2.276,1.069c-4.149-.012-8.3-.031-12.446-.1l-12.446-.282-6.223-.19-1.556-.047-.389-.012c-.132,0-.184-.018-.28-.024a2.6,2.6,0,0,1-.492-.121,2.356,2.356,0,0,1-1.366-1.359,2.482,2.482,0,0,1-.115-.468,1.729,1.729,0,0,1-.019-.24c0-.086-.005-.141,0-.291l.04-1.556.082-3.111.01-.389.005-.195.013-.115a1.747,1.747,0,0,1,.09-.434,1.958,1.958,0,0,1,.439-.748,1.979,1.979,0,0,1,1.524-.627q12.447-.3,24.893-.7Zm-25.192-28.067c2.546-1.149,5.033-2.352,7.54-3.614,3.164,1.139,6.346,2.219,9.534,3.278,2.191.744,4.394,1.446,6.6,2.147-.565.355-1.131.711-1.7,1.062l-4.751,2.981-4.714,3.039c-1.362.905-2.729,1.8-4.083,2.72-2.611-1.337-5.207-2.62-7.864-3.853l-8.9-4.068Z" transform="translate(-4.73 -2.03)" fill="#707070"/></g></g></svg>