<svg xmlns="http://www.w3.org/2000/svg" width="20" height="18" viewBox="0 0 20 18"><g transform="translate(0 -22.5)"><path d="M19.681,22.5H.319A.318.318,0,0,0,0,22.818V40.182a.318.318,0,0,0,.319.318H19.681A.318.318,0,0,0,20,40.182V36.794a.319.319,0,0,0-.638,0v3.071H.638V25.676H19.362v9.847a.319.319,0,0,0,.638,0V22.818A.318.318,0,0,0,19.681,22.5ZM.638,23.135H12.447v1.906H.638Zm12.447,1.906V23.135h6.277v1.906Z" transform="translate(0 0)" fill="#175d7a"/><path d="M373.84,52a.339.339,0,1,0,.34.339A.34.34,0,0,0,373.84,52Z" transform="translate(-357.606 -28.251)" fill="#175d7a"/><path d="M332.84,52a.339.339,0,1,0,.34.339A.34.34,0,0,0,332.84,52Z" transform="translate(-318.351 -28.251)" fill="#175d7a"/><path d="M414.84,52a.339.339,0,1,0,.34.339A.34.34,0,0,0,414.84,52Z" transform="translate(-396.862 -28.251)" fill="#175d7a"/><g transform="translate(-17827 10851)" fill="#fff"><path d="M 17837.5234375 -10814.0224609375 L 17833.76171875 -10816.01953125 L 17837.326171875 -10818.1806640625 L 17837.525390625 -10818.2998046875 L 17837.658203125 -10818.220703125 L 17841.291015625 -10816.01953125 L 17837.5234375 -10814.0224609375 Z M 17837.4765625 -10818.8759765625 L 17837.474609375 -10818.8759765625 L 17837.474609375 -10820.498046875 L 17837.474609375 -10820.873046875 L 17837.099609375 -10820.873046875 L 17834.501953125 -10820.873046875 C 17833.880859375 -10820.873046875 17833.376953125 -10821.3779296875 17833.376953125 -10821.998046875 C 17833.376953125 -10822.6181640625 17833.880859375 -10823.123046875 17834.501953125 -10823.123046875 L 17840.515625 -10823.123046875 C 17841.13671875 -10823.123046875 17841.640625 -10822.6181640625 17841.640625 -10821.998046875 C 17841.640625 -10821.3779296875 17841.13671875 -10820.873046875 17840.515625 -10820.873046875 L 17837.8515625 -10820.873046875 L 17837.4765625 -10820.873046875 L 17837.4765625 -10820.498046875 L 17837.4765625 -10818.8759765625 Z" stroke="none"/><path d="M 17837.5234375 -10814.4462890625 L 17840.53125 -10816.041015625 L 17837.525390625 -10817.8623046875 L 17837.521484375 -10817.859375 L 17834.51953125 -10816.041015625 L 17837.5234375 -10814.4462890625 M 17840.515625 -10821.248046875 C 17840.9296875 -10821.248046875 17841.265625 -10821.5849609375 17841.265625 -10821.998046875 C 17841.265625 -10822.4111328125 17840.9296875 -10822.748046875 17840.515625 -10822.748046875 L 17834.501953125 -10822.748046875 C 17834.087890625 -10822.748046875 17833.751953125 -10822.4111328125 17833.751953125 -10821.998046875 C 17833.751953125 -10821.5849609375 17834.087890625 -10821.248046875 17834.501953125 -10821.248046875 L 17837.099609375 -10821.248046875 L 17837.8515625 -10821.248046875 L 17840.515625 -10821.248046875 M 17837.5234375 -10813.59765625 L 17833.001953125 -10815.998046875 L 17837.1328125 -10818.5009765625 L 17837.099609375 -10818.5009765625 L 17837.099609375 -10820.498046875 L 17837.8515625 -10820.498046875 L 17837.8515625 -10818.541015625 L 17842.05078125 -10815.998046875 L 17837.5234375 -10813.59765625 Z M 17840.515625 -10820.498046875 L 17837.8515625 -10820.498046875 L 17837.099609375 -10820.498046875 L 17834.501953125 -10820.498046875 C 17833.673828125 -10820.498046875 17833.001953125 -10821.169921875 17833.001953125 -10821.998046875 C 17833.001953125 -10822.8271484375 17833.673828125 -10823.498046875 17834.501953125 -10823.498046875 L 17840.515625 -10823.498046875 C 17841.34375 -10823.498046875 17842.015625 -10822.8271484375 17842.015625 -10821.998046875 C 17842.015625 -10821.169921875 17841.34375 -10820.498046875 17840.515625 -10820.498046875 Z" stroke="none" fill="#175d7a"/></g></g></svg>