<svg xmlns="http://www.w3.org/2000/svg" width="18.004" height="18.004" viewBox="0 0 18.004 18.004"><g transform="translate(-371.748 -111.248)"><path d="M394.915,119.752H380.677a.425.425,0,0,0-.425.425v14.238a.425.425,0,0,0,.425.425h14.238a.425.425,0,0,0,.425-.425V120.177A.425.425,0,0,0,394.915,119.752Zm-9.648,12.159a.4.4,0,0,1-.4.4h-1.729a.4.4,0,0,1-.4-.4V126.8a.4.4,0,0,1,.4-.4h1.729a.4.4,0,0,1,.4.4Zm3.794-.184a.584.584,0,0,1-.585.585h-1.36a.584.584,0,0,1-.585-.585v-8.261a.584.584,0,0,1,.585-.585h1.36a.584.584,0,0,1,.585.585Zm3.794.1a.481.481,0,0,1-.481.481h-1.568a.481.481,0,0,1-.481-.481V125.44a.481.481,0,0,1,.481-.481h1.568a.481.481,0,0,1,.481.481Z" transform="translate(-7.046 -7.046)" fill="none"/><path d="M387.869,111.248H373.631a1.885,1.885,0,0,0-1.883,1.883v14.238a1.885,1.885,0,0,0,1.883,1.883h14.238a1.885,1.885,0,0,0,1.883-1.883V113.131A1.885,1.885,0,0,0,387.869,111.248Zm.425,16.121a.425.425,0,0,1-.425.425H373.631a.425.425,0,0,1-.425-.425V113.131a.425.425,0,0,1,.425-.425h14.238a.425.425,0,0,1,.425.425Z" fill="#b0b5c3"/><rect width="2.529" height="5.914" rx="1.265" transform="translate(375.692 119.351)" fill="#828793"/><rect width="2.529" height="9.43" rx="1.265" transform="translate(379.485 115.835)" fill="#828793"/><rect width="2.529" height="7.352" rx="1.265" transform="translate(383.279 117.913)" fill="#828793"/></g></svg>