<svg xmlns="http://www.w3.org/2000/svg" width="15.981" height="16.299" viewBox="0 0 15.981 16.299">
<g transform="translate(-49.248 -219.248)">
<rect width="4.85" height="4.85" rx="0.967" transform="translate(49.642 230.303)" fill="none"/>
<rect width="4.85" height="4.85" rx="0.967" transform="translate(49.642 220.601)" fill="none"/>
<rect width="4.85" height="4.85" rx="0.967" transform="translate(49.642 220.601)" fill="none"/>
<rect width="4.85" height="4.85" rx="0.967" transform="translate(59.026 230.303)" fill="none"/>
<path d="M54.3,219.248H49.754a1.508,1.508,0,0,0-1.506,1.506V225.3a1.508,1.508,0,0,0,1.506,1.506H54.3A1.508,1.508,0,0,0,55.8,225.3v-4.543A1.508,1.508,0,0,0,54.3,219.248Zm.154,6.049a.154.154,0,0,1-.154.154H49.754a.154.154,0,0,1-.154-.154v-4.543a.154.154,0,0,1,.154-.154H54.3a.154.154,0,0,1,.154.154Z" transform="translate(1)" fill="#828793"/><path d="M54.3,280.248H49.754a1.508,1.508,0,0,0-1.506,1.506V286.3a1.508,1.508,0,0,0,1.506,1.506H54.3A1.508,1.508,0,0,0,55.8,286.3v-4.543A1.508,1.508,0,0,0,54.3,280.248Zm.154,6.049a.154.154,0,0,1-.154.154H49.754a.154.154,0,0,1-.154-.154v-4.543a.154.154,0,0,1,.154-.154H54.3a.154.154,0,0,1,.154.154Z" transform="translate(1 -52.257)" fill="#828793"/><path d="M111.026,226.8a3.778,3.778,0,1,0-3.778-3.778A3.782,3.782,0,0,0,111.026,226.8Zm0-6.2a2.425,2.425,0,1,1-2.425,2.425A2.428,2.428,0,0,1,111.026,220.6Z" transform="translate(-49.575)" fill="#b0b5c3"/><path d="M113.3,280.248h-4.543a1.508,1.508,0,0,0-1.506,1.506V286.3a1.508,1.508,0,0,0,1.506,1.506H113.3A1.508,1.508,0,0,0,114.8,286.3v-4.543A1.508,1.508,0,0,0,113.3,280.248Zm.154,6.049a.154.154,0,0,1-.154.154h-4.543a.154.154,0,0,1-.154-.154v-4.543a.154.154,0,0,1,.154-.154H113.3a.154.154,0,0,1,.154.154Z" transform="translate(-49.575 -52.257)" fill="#828793"/></g></svg>