<svg id="Layer_1" data-name="Layer 1" xmlns="http://www.w3.org/2000/svg" xmlns:xlink="http://www.w3.org/1999/xlink" viewBox="0 0 800 800"><defs><style>.cls-1{fill:none;}.cls-2{fill:#fff;}.cls-3{clip-path:url(#clip-path);}.cls-4{fill:#fed1d7;}.cls-5{fill:#f74f65;}</style><clipPath id="clip-path"><rect class="cls-1" width="800" height="800"/></clipPath></defs><title>Artboard 1 copy 2</title><rect class="cls-2" width="800" height="800"/><g class="cls-3"><path class="cls-4" d="M-10.51,28C-1.3,14.55,10.93,5.49,27.25,2.7c7.94-1.36,15.82-1.19,23.44,2,6.78,2.86,11.66,7.72,15.26,14a50.35,50.35,0,0,1,6.31,19.36,39.85,39.85,0,0,1-3.13,19.74c-2,4.94-5.17,9.28-6.93,14.32-.17.48-.48.91-.64,1.39-.49,1.49-.22,1.92,1.38,2.25,3.3.69,6.63,1.3,9.54,3.13a24.71,24.71,0,0,1,9.87,11.74,41.42,41.42,0,0,1,3.52,14.16c.07,1.31.51,2.1,1.92,2.28s1.4,1.22.91,2.07c-1.19,2.06-3.38,3.21-4.9,5a1.3,1.3,0,0,1-1.15.1c-1.69-.73-3.44-.4-5.16-.38a39.44,39.44,0,0,1-20.4-5.52l-.82-.43c-2-1-2.13-.94-2.86,1-.25.67-.38,1.39-.67,2A23.07,23.07,0,0,1,42,122.24c-2.85,1.48-5.38.69-7.6-1.33-1.5-1.37-2.89-2.87-4.72-4.71-1,3.24-3.81,4.87-4.69,7.9-.35,1.22-1.54,1.51-2.79,1.14a17.34,17.34,0,0,1-5.89-3.16c-2.74-2.18-5.31-4.42-6.88-7.66-1-2.16-1.37-2.12-2.85-.36a32.26,32.26,0,0,1-13.86,9.71,68.6,68.6,0,0,1-13.07,2.87,2.71,2.71,0,0,1-2.47-.9,10.37,10.37,0,0,1-2.48-4.52,27.53,27.53,0,0,1,1.1-19.13A32.81,32.81,0,0,1-5.59,83.66c2.22-.9,2.36-1.38.66-3.22-6.07-6.59-9.27-14.54-11-23.18a20.84,20.84,0,0,1-.15-2.75,50.34,50.34,0,0,1,8-.16,9.77,9.77,0,0,0,0,1.53A42.36,42.36,0,0,0,5.07,80.55c.82.77,1.93,1.16,2.58,2.14.88,1.32,1,2.63-.26,3.54-1.68,1.25-3.21,2.62-5.46,3.19a25.63,25.63,0,0,0-16,11.43c-3.55,5.7-4.59,12.13-4.95,18.71,0,.66-.27,1.45.54,2,8.91-1.9,15.65-7.09,21.05-14.19A15.28,15.28,0,0,0,6.11,97.15c-.14-2.91,1.52-3.78,4.13-2.41a6.25,6.25,0,0,1,3.2,4.94,47.75,47.75,0,0,0,5.72,16.38c.29.5.43,1.27,1.21,1.2s.94-.72,1.17-1.28a36.67,36.67,0,0,0,2.34-8.21c.39-2.62.78-5.23,1.3-7.82s2.18-3.7,5.17-3.87C32,96,33.2,97.18,34,99.62c.12.39.23.78.33,1.18.63,2.57,1.26,5.14,1.87,7.72a19.26,19.26,0,0,0,3.26,6.87c.77,1.07,1.53,1.2,2.41,0a17.29,17.29,0,0,0,2.48-4.17A20.87,20.87,0,0,0,45,99a5.64,5.64,0,0,1,2-6c1.95-1.64,3-1.52,4.5.56a24.66,24.66,0,0,0,5.94,5.68c5.91,4.2,12.74,5.83,19.65,7.22,1.83.36,2.37-.38,1.78-2.33a68,68,0,0,0-4.69-11.3c-3.3-6.45-8.57-9.62-15.78-9.64-1.33,0-2.66,0-4,0-2.46-.06-2.82-.46-3.71-2.81s-.07-4.2.76-6.19c2.37-5.77,5.06-11.38,7.81-17,2.16-4.4,3.85-9,3.91-14a39.32,39.32,0,0,0-5.88-20.65,21.6,21.6,0,0,0-13.87-10.4,38.45,38.45,0,0,0-20.24.87,49.77,49.77,0,0,0-24.55,17A3.64,3.64,0,0,1-3.5,31.6C-6.3,31.31-8.26,29.39-10.51,28Z"/><path class="cls-5" d="M-8,54.35a50.34,50.34,0,0,0-8,.16c-5.31-.38-10.63,0-15.94-.12-3.68-.07-7.37-.07-11-.18a4.91,4.91,0,0,1-4.58-2.53c-1.75-3.18-1.72-4.69.76-7.48,5-5.66,9.84-11.49,14.32-17.6.19-.25.38-.49.55-.74,1.39-2,1.44-2-.35-3.81A63.41,63.41,0,0,1-43.92,6.26c-6.22-11.84-8-24.21-5.7-37.46,2.71-15.85,10.42-28.89,21-40.54a25,25,0,0,1,3.89-3.45c1.85-1.33,2.71-1.06,3.6,1.1a2.86,2.86,0,0,0,1.45,1.44c5.63,3.18,9.11,8,11.17,14.07,6.73,19.73,6.21,39.39-.4,59a92.93,92.93,0,0,1-9.32,19.63c-.91,1.45-.83,2.27.58,3.23,2.36,1.61,4.52,3.51,7.15,4.72,2.25,1.36,4.21,3.28,7,3.57.79,1.48,2.37,1.84,3.68,2.56,5,2.73,10.23,5,15,8.2a7.17,7.17,0,0,1,2,10.13,7.25,7.25,0,0,1-4.2,1.3c-2.9.06-5.79.29-8.69.44ZM-8.65,45a53.81,53.81,0,0,0,10.29-.28c-3-1.59-5.82-3.53-9.08-4.58A65.14,65.14,0,0,0-14.85,36c-2.58-1.82-5.23-3.57-7.74-5.48-1.31-1-2-.79-2.94.49-3.12,4.43-6.56,8.61-10,12.77-.42.51-1.1.94-.95,1.95,2.4,0,4.82.08,7.22,0,4.18-.17,8.37.28,12.53-.4Zm-3.13-75.56A90.66,90.66,0,0,0-16-57.36a27.56,27.56,0,0,0-6.94-11c-.83-.83-1.49-1-2.21.06-.35.51-.76,1-1.12,1.47A111.06,111.06,0,0,0-37.9-46a61.19,61.19,0,0,0-5,23.23c-.31,14.69,5.79,26.92,15.64,37.46,1.47,1.57,1.63,1.49,2.81-.53A95.46,95.46,0,0,0-11.78-30.53Z"/><path class="cls-4" d="M17.14,52.49c0,2.75,0,5.47-1.26,8.06A5.64,5.64,0,0,1,10.57,64c-2.47,0-4.14-1.68-5-3.85a14.26,14.26,0,0,1-1.28-5.92c2.9-.15,5.79-.38,8.69-.44A7.25,7.25,0,0,0,17.14,52.49Z"/><path class="cls-4" d="M36.82,73.93c0,5.32-2.28,8.42-6.14,10.28-5.09,2.45-11.56-.9-12.64-6.88-.88-4.83-.06-9.55,4.08-13a7.2,7.2,0,0,1,9-.48C34.71,66.54,36.94,70.07,36.82,73.93ZM26.2,70.44c-1.08.11-2.42,2.12-2.12,3.19.48,1.7,2,3,3.18,2.68,1.37-.36,1.74-2.15.83-4.14a5.72,5.72,0,0,0-.83-1.24A1.22,1.22,0,0,0,26.2,70.44Z"/><path class="cls-4" d="M32.45,47c.28-2.72.47-5.48,2.78-7.45,2.13-1.81,3.58-1.61,5.27.66,1.26,1.7,2.82,3.16,3.32,5.38A8.7,8.7,0,0,1,41.62,54a4.89,4.89,0,0,1-8.19-1.65A11.77,11.77,0,0,1,32.45,47Z"/><path class="cls-4" d="M789.49,28C798.7,14.55,810.93,5.49,827.25,2.7c7.94-1.36,15.82-1.19,23.44,2,6.78,2.86,11.66,7.72,15.26,14a50.35,50.35,0,0,1,6.31,19.36,39.85,39.85,0,0,1-3.13,19.74c-2,4.94-5.17,9.28-6.93,14.32-.17.48-.48.91-.64,1.39-.49,1.49-.22,1.92,1.38,2.25,3.3.69,6.63,1.3,9.54,3.13a24.71,24.71,0,0,1,9.87,11.74,41.42,41.42,0,0,1,3.52,14.16c.07,1.31.51,2.1,1.92,2.28s1.4,1.22.91,2.07c-1.19,2.06-3.38,3.21-4.9,5a1.3,1.3,0,0,1-1.15.1c-1.69-.73-3.44-.4-5.16-.38a39.44,39.44,0,0,1-20.4-5.52l-.82-.43c-2-1-2.13-.94-2.86,1-.25.67-.38,1.39-.67,2A23.07,23.07,0,0,1,842,122.24c-2.85,1.48-5.38.69-7.6-1.33-1.5-1.37-2.89-2.87-4.72-4.71-1,3.24-3.81,4.87-4.69,7.9-.35,1.22-1.54,1.51-2.79,1.14a17.34,17.34,0,0,1-5.89-3.16c-2.74-2.18-5.31-4.42-6.88-7.66-1-2.16-1.37-2.12-2.85-.36a32.26,32.26,0,0,1-13.86,9.71,68.6,68.6,0,0,1-13.07,2.87,2.71,2.71,0,0,1-2.47-.9,10.37,10.37,0,0,1-2.48-4.52,27.53,27.53,0,0,1,1.1-19.13,32.81,32.81,0,0,1,18.64-18.43c2.22-.9,2.36-1.38.66-3.22-6.07-6.59-9.27-14.54-11-23.18a20.84,20.84,0,0,1-.15-2.75,50.34,50.34,0,0,1,8.05-.16,9.77,9.77,0,0,0,0,1.53,42.36,42.36,0,0,0,13.1,24.67c.82.77,1.93,1.16,2.58,2.14.88,1.32,1,2.63-.26,3.54-1.68,1.25-3.21,2.62-5.46,3.19a25.63,25.63,0,0,0-16,11.43c-3.55,5.7-4.59,12.13-4.95,18.71,0,.66-.27,1.45.54,2,8.91-1.9,15.65-7.09,21-14.19a15.28,15.28,0,0,0,3.58-10.19c-.14-2.91,1.52-3.78,4.13-2.41a6.25,6.25,0,0,1,3.2,4.94,47.75,47.75,0,0,0,5.72,16.38c.29.5.43,1.27,1.21,1.2s.94-.72,1.17-1.28a36.67,36.67,0,0,0,2.34-8.21c.39-2.62.78-5.23,1.3-7.82s2.18-3.7,5.17-3.87c1.62-.1,2.85,1.1,3.62,3.54.12.39.23.78.33,1.18.63,2.57,1.26,5.14,1.87,7.72a19.26,19.26,0,0,0,3.26,6.87c.77,1.07,1.53,1.2,2.41,0a17.29,17.29,0,0,0,2.48-4.17A20.87,20.87,0,0,0,845,99a5.64,5.64,0,0,1,2-6c1.95-1.64,3-1.52,4.5.56a24.66,24.66,0,0,0,5.94,5.68c5.91,4.2,12.74,5.83,19.65,7.22,1.83.36,2.37-.38,1.78-2.33a68,68,0,0,0-4.69-11.3c-3.3-6.45-8.57-9.62-15.78-9.64-1.33,0-2.66,0-4,0-2.46-.06-2.82-.46-3.71-2.81s-.07-4.2.76-6.19c2.37-5.77,5.06-11.38,7.81-17,2.16-4.4,3.85-9,3.91-14a39.32,39.32,0,0,0-5.88-20.65,21.6,21.6,0,0,0-13.87-10.4,38.45,38.45,0,0,0-20.24.87,49.77,49.77,0,0,0-24.55,17,3.64,3.64,0,0,1-2.1,1.67C793.7,31.31,791.74,29.39,789.49,28Z"/><path class="cls-5" d="M792,54.35a50.34,50.34,0,0,0-8.05.16c-5.31-.38-10.63,0-15.94-.12-3.68-.07-7.37-.07-11.05-.18a4.91,4.91,0,0,1-4.58-2.53c-1.75-3.18-1.72-4.69.76-7.48,5-5.66,9.84-11.49,14.32-17.6.19-.25.38-.49.55-.74,1.39-2,1.44-2-.35-3.81A63.41,63.41,0,0,1,756.08,6.26c-6.22-11.84-8-24.21-5.7-37.46,2.71-15.85,10.42-28.89,21-40.54a25,25,0,0,1,3.89-3.45c1.85-1.33,2.71-1.06,3.6,1.1a2.86,2.86,0,0,0,1.45,1.44c5.63,3.18,9.11,8,11.17,14.07,6.73,19.73,6.21,39.39-.4,59a92.93,92.93,0,0,1-9.32,19.63c-.91,1.45-.83,2.27.58,3.23,2.36,1.61,4.52,3.51,7.15,4.72,2.25,1.36,4.21,3.28,7,3.57.79,1.48,2.37,1.84,3.68,2.56,5,2.73,10.23,5,15,8.2a7.17,7.17,0,0,1,2,10.13,7.25,7.25,0,0,1-4.2,1.3c-2.9.06-5.79.29-8.69.44ZM791.35,45a53.81,53.81,0,0,0,10.29-.28c-3-1.59-5.82-3.53-9.08-4.58A65.14,65.14,0,0,0,785.15,36c-2.58-1.82-5.23-3.57-7.74-5.48-1.31-1-2-.79-2.94.49-3.12,4.43-6.56,8.61-10,12.77-.42.51-1.1.94-1,1.95,2.4,0,4.82.08,7.22,0,4.18-.17,8.37.28,12.53-.4Zm-3.13-75.56A90.66,90.66,0,0,0,784-57.36a27.56,27.56,0,0,0-6.94-11c-.83-.83-1.49-1-2.21.06-.35.51-.76,1-1.12,1.47A111.06,111.06,0,0,0,762.1-46a61.19,61.19,0,0,0-5,23.23c-.31,14.69,5.79,26.92,15.64,37.46,1.47,1.57,1.63,1.49,2.81-.53A95.46,95.46,0,0,0,788.22-30.53Z"/><path class="cls-4" d="M783.24,45.27c.18-3.2,1.6-6.14,1.91-9.31a65.14,65.14,0,0,1,7.41,4.21L791.35,45Z"/><path class="cls-5" d="M-8,854.35a50.34,50.34,0,0,0-8,.16c-5.31-.38-10.63,0-15.94-.12-3.68-.07-7.37-.07-11-.18a4.91,4.91,0,0,1-4.58-2.53c-1.75-3.18-1.72-4.69.76-7.48,5-5.66,9.84-11.49,14.32-17.6.19-.25.38-.49.55-.74,1.39-2,1.44-2-.35-3.81a63.41,63.41,0,0,1-11.55-15.79c-6.22-11.84-8-24.21-5.7-37.46,2.71-15.85,10.42-28.89,21-40.54a25,25,0,0,1,3.89-3.45c1.85-1.33,2.71-1.06,3.6,1.1a2.86,2.86,0,0,0,1.45,1.44c5.63,3.18,9.11,8,11.17,14.07,6.73,19.73,6.21,39.39-.4,59a92.93,92.93,0,0,1-9.32,19.63c-.91,1.45-.83,2.27.58,3.23,2.36,1.61,4.52,3.51,7.15,4.72,2.25,1.36,4.21,3.28,7,3.57.79,1.48,2.37,1.84,3.68,2.56,5,2.73,10.23,5,15,8.2a7.17,7.17,0,0,1,2,10.13,7.25,7.25,0,0,1-4.2,1.3c-2.9.06-5.79.29-8.69.44ZM-8.65,845a53.81,53.81,0,0,0,10.29-.28c-3-1.59-5.82-3.53-9.08-4.58A65.14,65.14,0,0,0-14.85,836c-2.58-1.82-5.23-3.57-7.74-5.48-1.31-1-2-.79-2.94.49-3.12,4.43-6.56,8.61-10,12.77-.42.51-1.1.94-.95,2,2.4,0,4.82.08,7.22,0,4.18-.17,8.37.28,12.53-.4Zm-3.13-75.56A90.66,90.66,0,0,0-16,742.64a27.56,27.56,0,0,0-6.94-11c-.83-.83-1.49-1-2.21.06-.35.51-.76,1-1.12,1.47A111.06,111.06,0,0,0-37.9,754a61.19,61.19,0,0,0-5,23.23c-.31,14.69,5.79,26.92,15.64,37.46,1.47,1.57,1.63,1.49,2.81-.53A95.46,95.46,0,0,0-11.78,769.47Z"/><path class="cls-4" d="M239.49,614c9.21-13.48,21.44-22.54,37.76-25.33,7.94-1.36,15.82-1.19,23.44,2,6.78,2.86,11.66,7.72,15.26,14a50.35,50.35,0,0,1,6.31,19.36,39.85,39.85,0,0,1-3.13,19.74c-2,4.94-5.17,9.28-6.93,14.32-.17.48-.48.91-.64,1.39-.49,1.49-.22,1.92,1.38,2.25,3.3.69,6.63,1.3,9.54,3.13a24.71,24.71,0,0,1,9.87,11.74,41.42,41.42,0,0,1,3.52,14.16c.07,1.31.51,2.1,1.92,2.28s1.4,1.22.91,2.07c-1.19,2.06-3.38,3.21-4.9,5a1.3,1.3,0,0,1-1.15.1c-1.69-.73-3.44-.4-5.16-.38a39.44,39.44,0,0,1-20.4-5.52l-.82-.43c-2-1-2.13-.94-2.86,1-.25.67-.38,1.39-.67,2A23.07,23.07,0,0,1,292,708.24c-2.85,1.48-5.38.69-7.6-1.33-1.5-1.37-2.89-2.87-4.72-4.71-1,3.24-3.81,4.87-4.69,7.9-.35,1.22-1.54,1.51-2.79,1.14a17.34,17.34,0,0,1-5.89-3.16c-2.74-2.18-5.31-4.42-6.88-7.66-1-2.16-1.37-2.12-2.85-.36a32.26,32.26,0,0,1-13.86,9.71,68.6,68.6,0,0,1-13.07,2.87,2.71,2.71,0,0,1-2.47-.9,10.37,10.37,0,0,1-2.48-4.52,27.53,27.53,0,0,1,1.1-19.13,32.81,32.81,0,0,1,18.64-18.43c2.22-.9,2.36-1.38.66-3.22-6.07-6.59-9.27-14.54-11-23.18a20.84,20.84,0,0,1-.15-2.75,50.34,50.34,0,0,1,8.05-.16,9.77,9.77,0,0,0,0,1.53,42.36,42.36,0,0,0,13.1,24.67c.82.77,1.93,1.16,2.58,2.14.88,1.32,1,2.63-.26,3.54-1.68,1.25-3.21,2.62-5.46,3.19a25.63,25.63,0,0,0-16,11.43c-3.55,5.7-4.59,12.13-4.95,18.71,0,.66-.27,1.45.54,2,8.91-1.9,15.65-7.09,21.05-14.19a15.28,15.28,0,0,0,3.58-10.19c-.14-2.91,1.52-3.78,4.13-2.41a6.25,6.25,0,0,1,3.2,4.94,47.75,47.75,0,0,0,5.72,16.38c.29.5.43,1.27,1.21,1.2s.94-.72,1.17-1.28a36.67,36.67,0,0,0,2.34-8.21c.39-2.62.78-5.23,1.3-7.82s2.18-3.7,5.17-3.87c1.62-.1,2.85,1.1,3.62,3.54.12.39.23.78.33,1.18.63,2.57,1.26,5.14,1.87,7.72a19.26,19.26,0,0,0,3.26,6.87c.77,1.07,1.53,1.2,2.41,0a17.29,17.29,0,0,0,2.48-4.17A20.87,20.87,0,0,0,295,685a5.64,5.64,0,0,1,2-6c2-1.64,3-1.52,4.5.56a24.66,24.66,0,0,0,5.94,5.68c5.91,4.2,12.74,5.83,19.65,7.22,1.83.36,2.37-.38,1.78-2.33a68,68,0,0,0-4.69-11.3c-3.3-6.45-8.57-9.62-15.78-9.64-1.33,0-2.66,0-4,0-2.46-.06-2.82-.46-3.71-2.81s-.07-4.2.76-6.19c2.37-5.77,5.06-11.38,7.81-17,2.16-4.4,3.85-9,3.91-14a39.32,39.32,0,0,0-5.88-20.65,21.6,21.6,0,0,0-13.87-10.4,38.45,38.45,0,0,0-20.24.87,49.77,49.77,0,0,0-24.55,17,3.64,3.64,0,0,1-2.1,1.67C243.7,617.31,241.74,615.39,239.49,614Z"/><path class="cls-5" d="M242,640.35a50.34,50.34,0,0,0-8.05.16c-5.31-.38-10.63,0-15.94-.12-3.68-.07-7.37-.07-11-.18a4.91,4.91,0,0,1-4.58-2.53c-1.75-3.18-1.72-4.69.76-7.48,5-5.66,9.84-11.49,14.32-17.6.19-.25.38-.49.55-.74,1.39-2,1.44-2-.35-3.81a63.41,63.41,0,0,1-11.55-15.79c-6.22-11.84-8-24.21-5.7-37.46,2.71-15.85,10.42-28.89,21-40.54a25,25,0,0,1,3.89-3.45c1.85-1.33,2.71-1.06,3.6,1.1a2.86,2.86,0,0,0,1.45,1.44c5.63,3.18,9.11,8,11.17,14.07,6.73,19.73,6.21,39.39-.4,59a92.93,92.93,0,0,1-9.32,19.63c-.91,1.45-.83,2.27.58,3.23,2.36,1.61,4.52,3.51,7.15,4.72,2.25,1.36,4.21,3.28,7,3.57.79,1.48,2.37,1.84,3.68,2.56,5,2.73,10.23,5,15,8.2a7.17,7.17,0,0,1,2,10.13,7.25,7.25,0,0,1-4.2,1.3c-2.9.06-5.79.29-8.69.44Zm-.62-9.32a53.81,53.81,0,0,0,10.29-.28c-3-1.59-5.82-3.53-9.08-4.58a65.14,65.14,0,0,0-7.41-4.21c-2.58-1.82-5.23-3.57-7.74-5.48-1.31-1-2-.79-2.94.49-3.12,4.43-6.56,8.61-10,12.77-.42.51-1.1.94-.95,2,2.4,0,4.82.08,7.22,0,4.18-.17,8.37.28,12.53-.4Zm-3.13-75.56A90.66,90.66,0,0,0,234,528.64a27.56,27.56,0,0,0-6.94-11c-.83-.83-1.49-1-2.21.06-.35.51-.76,1-1.12,1.47A111.06,111.06,0,0,0,212.1,540a61.19,61.19,0,0,0-5,23.23c-.31,14.69,5.79,26.92,15.64,37.46,1.47,1.57,1.63,1.49,2.81-.53A95.46,95.46,0,0,0,238.22,555.47Z"/><path class="cls-4" d="M267.14,638.49c0,2.75,0,5.47-1.26,8.06a5.64,5.64,0,0,1-5.31,3.45c-2.47,0-4.14-1.68-5-3.85a14.26,14.26,0,0,1-1.28-5.92c2.9-.15,5.79-.38,8.69-.44A7.25,7.25,0,0,0,267.14,638.49Z"/><path class="cls-4" d="M233.24,631.27c.18-3.2,1.6-6.14,1.91-9.31a65.14,65.14,0,0,1,7.41,4.21L241.35,631Z"/><path class="cls-4" d="M286.82,659.93c0,5.32-2.28,8.42-6.14,10.28-5.09,2.45-11.56-.9-12.64-6.88-.88-4.83-.06-9.55,4.08-13a7.2,7.2,0,0,1,9-.48C284.71,652.54,286.94,656.07,286.82,659.93Zm-10.62-3.49c-1.08.11-2.42,2.12-2.12,3.19.48,1.7,2,3,3.18,2.68,1.37-.36,1.74-2.15.83-4.14a5.72,5.72,0,0,0-.83-1.24A1.22,1.22,0,0,0,276.2,656.44Z"/><path class="cls-4" d="M282.45,633c.28-2.72.47-5.48,2.78-7.45,2.13-1.81,3.58-1.61,5.27.66,1.26,1.7,2.82,3.16,3.32,5.38a8.7,8.7,0,0,1-2.2,8.42,4.89,4.89,0,0,1-8.19-1.65A11.77,11.77,0,0,1,282.45,633Z"/><path class="cls-5" d="M225.62,548.53a4.7,4.7,0,0,1-4.43-4.6,4.42,4.42,0,0,1,4.41-4.23c2.56,0,4.56,1.73,4.61,4A5,5,0,0,1,225.62,548.53Z"/><path class="cls-4" d="M406.49,227c9.21-13.48,21.44-22.54,37.76-25.33,7.94-1.36,15.82-1.19,23.44,2,6.78,2.86,11.66,7.72,15.26,14a50.35,50.35,0,0,1,6.31,19.36,39.85,39.85,0,0,1-3.13,19.74c-2,4.94-5.17,9.28-6.93,14.32-.17.48-.48.91-.64,1.39-.49,1.49-.22,1.92,1.38,2.25,3.3.69,6.63,1.3,9.54,3.13a24.71,24.71,0,0,1,9.87,11.74,41.42,41.42,0,0,1,3.52,14.16c.07,1.31.51,2.1,1.92,2.28s1.4,1.22.91,2.07c-1.19,2.06-3.38,3.21-4.9,5a1.3,1.3,0,0,1-1.15.1c-1.69-.73-3.44-.4-5.16-.38a39.44,39.44,0,0,1-20.4-5.52l-.82-.43c-2-1-2.13-.94-2.86,1-.25.67-.38,1.39-.67,2A23.07,23.07,0,0,1,459,321.24c-2.85,1.48-5.38.69-7.6-1.33-1.5-1.37-2.89-2.87-4.72-4.71-1,3.24-3.81,4.87-4.69,7.9-.35,1.22-1.54,1.51-2.79,1.14a17.34,17.34,0,0,1-5.89-3.16c-2.74-2.18-5.31-4.42-6.88-7.66-1-2.16-1.37-2.12-2.85-.36a32.26,32.26,0,0,1-13.86,9.71,68.6,68.6,0,0,1-13.07,2.87,2.71,2.71,0,0,1-2.47-.9,10.37,10.37,0,0,1-2.48-4.52,27.53,27.53,0,0,1,1.1-19.13,32.81,32.81,0,0,1,18.64-18.43c2.22-.9,2.36-1.38.66-3.22-6.07-6.59-9.27-14.54-11-23.18a20.84,20.84,0,0,1-.15-2.75,50.34,50.34,0,0,1,8.05-.16,9.77,9.77,0,0,0,0,1.53,42.36,42.36,0,0,0,13.1,24.67c.82.77,1.93,1.16,2.58,2.14.88,1.32,1,2.63-.26,3.54-1.68,1.25-3.21,2.62-5.46,3.19a25.63,25.63,0,0,0-16,11.43c-3.55,5.7-4.59,12.13-4.95,18.71,0,.66-.27,1.45.54,2,8.91-1.9,15.65-7.09,21-14.19a15.28,15.28,0,0,0,3.58-10.19c-.14-2.91,1.52-3.78,4.13-2.41a6.25,6.25,0,0,1,3.2,4.94,47.75,47.75,0,0,0,5.72,16.38c.29.5.43,1.27,1.21,1.2s.94-.72,1.17-1.28a36.67,36.67,0,0,0,2.34-8.21c.39-2.62.78-5.23,1.3-7.82s2.18-3.7,5.17-3.87c1.62-.1,2.85,1.1,3.62,3.54.12.39.23.78.33,1.18.63,2.57,1.26,5.14,1.87,7.72a19.26,19.26,0,0,0,3.26,6.87c.77,1.07,1.53,1.2,2.41,0a17.29,17.29,0,0,0,2.48-4.17A20.87,20.87,0,0,0,462,298a5.64,5.64,0,0,1,2-6c2-1.64,3-1.52,4.5.56a24.66,24.66,0,0,0,5.94,5.68c5.91,4.2,12.74,5.83,19.65,7.22,1.83.36,2.37-.38,1.78-2.33a68,68,0,0,0-4.69-11.3c-3.3-6.45-8.57-9.62-15.78-9.64-1.33,0-2.66,0-4,0-2.46-.06-2.82-.46-3.71-2.81s-.07-4.2.76-6.19c2.37-5.77,5.06-11.38,7.81-17,2.16-4.4,3.85-9,3.91-14a39.32,39.32,0,0,0-5.88-20.65,21.6,21.6,0,0,0-13.87-10.4,38.45,38.45,0,0,0-20.24.87,49.77,49.77,0,0,0-24.55,17,3.64,3.64,0,0,1-2.1,1.67C410.7,230.31,408.74,228.39,406.49,227Z"/><path class="cls-5" d="M409,253.35a50.34,50.34,0,0,0-8.05.16c-5.31-.38-10.63,0-15.94-.12-3.68-.07-7.37-.07-11.05-.18a4.91,4.91,0,0,1-4.58-2.53c-1.75-3.18-1.72-4.69.76-7.48,5-5.66,9.84-11.49,14.32-17.6.19-.25.38-.49.55-.74,1.39-2,1.44-2-.35-3.81a63.41,63.41,0,0,1-11.55-15.79c-6.22-11.84-8-24.21-5.7-37.46,2.71-15.85,10.42-28.89,21-40.54a25,25,0,0,1,3.89-3.45c1.85-1.33,2.71-1.06,3.6,1.1a2.86,2.86,0,0,0,1.45,1.44c5.63,3.18,9.11,8,11.17,14.07,6.73,19.73,6.21,39.39-.4,59a92.93,92.93,0,0,1-9.32,19.63c-.91,1.45-.83,2.27.58,3.23,2.36,1.61,4.52,3.51,7.15,4.72,2.25,1.36,4.21,3.28,7,3.57.79,1.48,2.37,1.84,3.68,2.56,5,2.73,10.23,5,15,8.2a7.17,7.17,0,0,1,2,10.13,7.25,7.25,0,0,1-4.2,1.3c-2.9.06-5.79.29-8.69.44Zm-.62-9.32a53.81,53.81,0,0,0,10.29-.28c-3-1.59-5.82-3.53-9.08-4.58a65.14,65.14,0,0,0-7.41-4.21c-2.58-1.82-5.23-3.57-7.74-5.48-1.31-1-2-.79-2.94.49-3.12,4.43-6.56,8.61-10,12.77-.42.51-1.1.94-.95,1.95,2.4,0,4.82.08,7.22,0,4.18-.17,8.37.28,12.53-.4Zm-3.13-75.56A90.66,90.66,0,0,0,401,141.64a27.56,27.56,0,0,0-6.94-11c-.83-.83-1.49-1-2.21.06-.35.51-.76,1-1.12,1.47A111.06,111.06,0,0,0,379.1,153a61.19,61.19,0,0,0-5,23.23c-.31,14.69,5.79,26.92,15.64,37.46,1.47,1.57,1.63,1.49,2.81-.53A95.46,95.46,0,0,0,405.22,168.47Z"/><path class="cls-4" d="M434.14,251.49c0,2.75,0,5.47-1.26,8.06a5.64,5.64,0,0,1-5.31,3.45c-2.47,0-4.14-1.68-5-3.85a14.26,14.26,0,0,1-1.28-5.92c2.9-.15,5.79-.38,8.69-.44A7.25,7.25,0,0,0,434.14,251.49Z"/><path class="cls-4" d="M400.24,244.27c.18-3.2,1.6-6.14,1.91-9.31a65.14,65.14,0,0,1,7.41,4.21L408.35,244Z"/><path class="cls-4" d="M453.82,272.93c0,5.32-2.28,8.42-6.14,10.28-5.09,2.45-11.56-.9-12.64-6.88-.88-4.83-.06-9.55,4.08-13a7.2,7.2,0,0,1,9-.48C451.71,265.54,453.94,269.07,453.82,272.93Zm-10.62-3.49c-1.08.11-2.42,2.12-2.12,3.19.48,1.7,2,3,3.18,2.68,1.37-.36,1.74-2.15.83-4.14a5.72,5.72,0,0,0-.83-1.24A1.22,1.22,0,0,0,443.2,269.44Z"/><path class="cls-4" d="M449.45,246c.28-2.72.47-5.48,2.78-7.45,2.13-1.81,3.58-1.61,5.27.66,1.26,1.7,2.82,3.16,3.32,5.38a8.7,8.7,0,0,1-2.2,8.42,4.89,4.89,0,0,1-8.19-1.65A11.77,11.77,0,0,1,449.45,246Z"/><path class="cls-5" d="M392.62,161.53a4.7,4.7,0,0,1-4.43-4.6,4.42,4.42,0,0,1,4.41-4.23c2.56,0,4.56,1.73,4.61,4A5,5,0,0,1,392.62,161.53Z"/><path class="cls-5" d="M792,854.35a50.34,50.34,0,0,0-8.05.16c-5.31-.38-10.63,0-15.94-.12-3.68-.07-7.37-.07-11.05-.18a4.91,4.91,0,0,1-4.58-2.53c-1.75-3.18-1.72-4.69.76-7.48,5-5.66,9.84-11.49,14.32-17.6.19-.25.38-.49.55-.74,1.39-2,1.44-2-.35-3.81a63.41,63.41,0,0,1-11.55-15.79c-6.22-11.84-8-24.21-5.7-37.46,2.71-15.85,10.42-28.89,21-40.54a25,25,0,0,1,3.89-3.45c1.85-1.33,2.71-1.06,3.6,1.1a2.86,2.86,0,0,0,1.45,1.44c5.63,3.18,9.11,8,11.17,14.07,6.73,19.73,6.21,39.39-.4,59a92.93,92.93,0,0,1-9.32,19.63c-.91,1.45-.83,2.27.58,3.23,2.36,1.61,4.52,3.51,7.15,4.72,2.25,1.36,4.21,3.28,7,3.57.79,1.48,2.37,1.84,3.68,2.56,5,2.73,10.23,5,15,8.2a7.17,7.17,0,0,1,2,10.13,7.25,7.25,0,0,1-4.2,1.3c-2.9.06-5.79.29-8.69.44Zm-.62-9.32a53.81,53.81,0,0,0,10.29-.28c-3-1.59-5.82-3.53-9.08-4.58a65.14,65.14,0,0,0-7.41-4.21c-2.58-1.82-5.23-3.57-7.74-5.48-1.31-1-2-.79-2.94.49-3.12,4.43-6.56,8.61-10,12.77-.42.51-1.1.94-1,2,2.4,0,4.82.08,7.22,0,4.18-.17,8.37.28,12.53-.4Zm-3.13-75.56A90.66,90.66,0,0,0,784,742.64a27.56,27.56,0,0,0-6.94-11c-.83-.83-1.49-1-2.21.06-.35.51-.76,1-1.12,1.47A111.06,111.06,0,0,0,762.1,754a61.19,61.19,0,0,0-5,23.23c-.31,14.69,5.79,26.92,15.64,37.46,1.47,1.57,1.63,1.49,2.81-.53A95.46,95.46,0,0,0,788.22,769.47Z"/><path class="cls-5" d="M775.62,762.53a4.7,4.7,0,0,1-4.43-4.6,4.42,4.42,0,0,1,4.41-4.23c2.56,0,4.56,1.73,4.61,4A5,5,0,0,1,775.62,762.53Z"/></g></svg>