<svg id="Layer_1" data-name="Layer 1" xmlns="http://www.w3.org/2000/svg" viewBox="0 0 800 800"><defs><style>.cls-1{fill:#e0e6fe;}.cls-2{fill:#3857dc;}</style></defs><title>Artboard 1 copy 3</title><rect class="cls-1" y="1" width="800" height="800"/><path class="cls-2" d="M344,420.64l-29.55-1.84-51.79-3.18q-14.51-.9-29-1.76c-5.87-.36-11.75-.72-17.62-1.12a9.87,9.87,0,0,1-2.64-.56,6.1,6.1,0,0,1-4-7.61c1-4,2.95-7.59,4.65-11.28q28.69-62.46,57.43-124.89c.95-2.06,1.85-4.14,2.84-6.17a13,13,0,0,1,1.68-2.78,6.27,6.27,0,0,1,10.08.18,22.51,22.51,0,0,1,2.36,4.27l30.9,65q18.9,39.75,37.81,79.49a23.92,23.92,0,0,1,1.61,4c1.25,4.68-1.51,8.39-6.35,8.54-2.8.08-5.61,0-8.41,0ZM224.57,400.56c5.87.74,116.09,7.31,117.84,7.06-.7-2.94-60.18-127.7-61.66-129.22C262.05,319.05,243.38,359.66,224.57,400.56Z"/><path class="cls-2" d="M568.81,436.41c-.15-1.76.66-3.32,1-5s-1.59-2.88-1.75-4.66a7.16,7.16,0,0,1,3.48-6.86,11.12,11.12,0,0,1,4.29-1.28q33.86-4.74,67.7-9.48c6.66-.93,13.31-1.88,20-2.66,6-.71,9,1.45,10.22,7.51,2.33,11.82,4.52,23.66,6.74,35.5q5.12,27.23,10.19,54.46a15.83,15.83,0,0,1,.32,2.38c.16,4.25-2.23,7.31-6.72,8.33-3.81.87-7.67,1.52-11.52,2.26l-81.3,15.67a21.77,21.77,0,0,1-3,.41c-4.76.24-7.86-2.22-8.62-6.95-.49-3.07-.82-6.17-1.19-9.26q-3.45-28.24-6.88-56.5c-.87-7.17-1.81-14.33-2.71-21.5C568.94,438,568.88,437.21,568.81,436.41Zm26,81.29.81-.18,26-5q25.55-4.92,51.1-9.87c4.09-.8,3.31-.59,2.68-4-2.18-11.83-4.42-23.66-6.64-35.48q-3.7-19.81-7.43-39.62c-.5-2.68-.55-2.65-3.33-2.26q-13.85,1.95-27.71,3.86-22.33,3.12-44.69,6.25c-3.49.49-3.4.54-2.93,4.1.9,6.86,1.69,13.73,2.54,20.6q2.94,23.88,5.89,47.77c.52,4.18,1.07,8.35,1.6,12.53C592.85,517.27,593,518.05,594.85,517.7Z"/><path class="cls-2" d="M135,729.33c-23.28,0-40.36-13.83-43.6-33.51-2.77-16.76,3.34-30.4,16.52-40.85a41.57,41.57,0,0,1,20-8.34c13.49-2.09,25.3,1.3,35.22,10.49a40.09,40.09,0,0,1,6.57,51C161,722.05,148.16,728.73,135,729.33Zm-31-40.59a26.61,26.61,0,0,0,14.79,24.18c16.53,8.4,37.29-.61,42.7-18.54A26.73,26.73,0,0,0,150,663.63,28.59,28.59,0,0,0,124.11,661C112.12,665.37,104,676.53,104,688.74Z"/><path class="cls-2" d="M642.48,138.29a5.42,5.42,0,0,1-4.42,5.32c-2.34.59-4.73,1-7.11,1.35l-41.48,6.6a23,23,0,0,1-2.32.29,5.5,5.5,0,0,1-5.49-2.83,5,5,0,0,1,.7-5.87,2.51,2.51,0,0,0,.83-1.61,11.45,11.45,0,0,1,1.5-4.87q11.5-24.76,23-49.53a11.94,11.94,0,0,1,1.81-3,5.29,5.29,0,0,1,8.48.27,13.84,13.84,0,0,1,1.51,2.62q11,23.6,21.92,47.21A8.69,8.69,0,0,1,642.48,138.29Zm-13-4.12c-5.26-11.36-10.39-22.44-15.6-33.67-1.77,2.33-17.8,37.15-18,39.07Z"/><path class="cls-2" d="M432.19,705.47c5.37,0,8.92.72,12.27,2.39a84.19,84.19,0,0,1,9.62,5.85c.94.63,1.87,1.28,2.84,1.87,1.74,1.08,1.92,1.1,3.36-.33,2.53-2.54,5.21-4.91,7.91-7.26a31.59,31.59,0,0,1,11.28-6.47c8.6-2.71,16.22-.86,22.73,5.29,2.27,2.14,4.2,4.66,6.28,7,1.3,1.47,1.31,1.51,3,.43a34.87,34.87,0,0,1,13.18-5.55,32,32,0,0,1,13.5.55c4.67,1.21,8.18,4.28,11.32,7.71a5.79,5.79,0,0,1,.26,7.49,6,6,0,0,1-7.38,1.49,11.55,11.55,0,0,1-3.46-2.34c-3.08-3.09-6.89-3.46-10.93-3.06a20.4,20.4,0,0,0-8.76,3.25c-1.48.92-2.92,1.92-4.47,2.73-4.78,2.5-9.1,1.87-12.88-2-2.67-2.75-5.16-5.69-7.72-8.55a9.91,9.91,0,0,0-4.81-3,9.76,9.76,0,0,0-6.4.26,22.53,22.53,0,0,0-6.94,4.14c-2.41,2.15-4.91,4.19-7.14,6.54a18.37,18.37,0,0,1-3.19,2.71c-4.32,2.9-8.74,3.3-13.27.51-2.08-1.29-4.1-2.66-6.15-4-1.77-1.14-3.54-2.25-5.31-3.37-4.28-2.72-8.75-2.62-13.3-.86a35.76,35.76,0,0,0-8.25,4.51,15.42,15.42,0,0,1-3.11,1.94c-2.51,1.06-4.93.75-6.55-1-1.86-1.94-1.86-4.23-1-6.59a7.07,7.07,0,0,1,2.25-3.18C417.67,709.35,425.06,705.67,432.19,705.47Z"/><path class="cls-2" d="M145,87.29c1.92.14,4.57.22,7.18.57a4.19,4.19,0,0,0,4.53-2.2,43.12,43.12,0,0,1,8.76-10.06,21.92,21.92,0,0,1,10.3-4.79c2.51-.43,5-.7,7.59-.93a9.72,9.72,0,0,1,5.32,1c3.91,2,4.49,6.29,1.26,9.24a9.44,9.44,0,0,1-3.83,2,15.44,15.44,0,0,1-4.05.6c-5.58.09-9.65,2.85-12.82,7.22q-1.68,2.32-3.34,4.67c-3.11,4.34-7.25,6.53-12.66,6.08-2.73-.22-5.46-.34-8.18-.6-5.13-.49-9,1.77-12.17,5.52a37.4,37.4,0,0,0-6.74,12.12,81.43,81.43,0,0,1-2.91,7.66,17.67,17.67,0,0,1-13.11,10.52c-2.5.51-5,1-7.52,1.43-1,.19-2,.39-2.94.62-8.23,2-11.89,6.16-12.78,14.58-.18,1.63-.29,3.27-.47,4.9a12.21,12.21,0,0,1-1.19,4.19,4.87,4.87,0,0,1-7.39,1.92A8.61,8.61,0,0,1,74,156.29c-.25-12.19,4.35-24.84,19-29.67a67.56,67.56,0,0,1,12.54-2.7,7.65,7.65,0,0,0,6.91-5.66c.91-2.77,1.88-5.53,3-8.22a44.78,44.78,0,0,1,10.44-15.55C131.15,89.55,137.18,87.19,145,87.29Z"/></svg>