<svg id="Layer_1" data-name="Layer 1" xmlns="http://www.w3.org/2000/svg" xmlns:xlink="http://www.w3.org/1999/xlink" viewBox="0 0 800 800"><defs><style>.cls-1{fill:none;}.cls-2{fill:#baedff;}.cls-3{clip-path:url(#clip-path);}.cls-4{fill:#2fcafc;}</style><clipPath id="clip-path"><rect class="cls-1" width="800" height="800"/></clipPath></defs><title>Artboard 1 copy 6</title><rect class="cls-2" width="800" height="800"/><g class="cls-3"><path class="cls-4" d="M-13.19,69.09c-5.88-7.24-9-15.14-11.43-23.33C-28.81,31.49-31.64,17-30.84,2A71.44,71.44,0,0,1-16-38.68,38.25,38.25,0,0,1-8.16-46a35.24,35.24,0,0,1-6.34-5.36,19.81,19.81,0,0,1-5.77-16c.12-1.36-.18-2.15-1.4-2.61-2.84-1.09-5.49-2.83-8.73-2.64a7.78,7.78,0,0,1-1.67-.12c-2.72-.44-4.52-1.79-4.61-3.58-.12-2.24,1.57-3.1,3.22-3.92a38.06,38.06,0,0,1,7.34-3.06c2.68-.7,4-2.22,4.63-5.14,2.07-9.33,6.17-17.75,13.54-24.07,7.64-6.56,16.58-9.23,26.52-6.87,7.56,1.79,12.47,7.2,16.16,13.68,6.08,10.67,7.19,22.2,5.12,34.1-1.22,7-1.5,14.21-4.63,20.78-.84,1.76.32,2.85,1.39,4,4.16,4.52,8.47,8.9,12.28,13.74C57.8-21.74,63.32-8.9,66.4,5.08a21.93,21.93,0,0,1,.33,7.08c-.2,1.91-.75,3.56.82,5.44C68.9,19.23,67,22.22,64.4,23a18.18,18.18,0,0,1-8.7.59l-10-2c1.09,15.39-.2,30.25-6.39,44.7,3.2,1.07,6.27,1,9.21,1.47,4.27.71,8.57,1.2,12.87,1.72,2,.24,3.58,1,4,3.07s-.89,3.39-2.61,4.32a29.88,29.88,0,0,1-6.67,2.47A176.6,176.6,0,0,1,24.3,84.54c-12.72,1-25.41.69-38.12.65A49.78,49.78,0,0,1-25,83.42c-2.81-.66-5.43-1.06-8.12.26-1,.49-2.2,1-3-.24s.08-2.16.77-3c4.45-5.39,10.44-8.25,17-10.16C-16.91,69.86-15.4,69.59-13.19,69.09Zm61.89,5c-4.52-1.56-8.48-1.63-12.24-2.63s-4.1-1.52-2.64-5.07c.27-.64.47-1.32.71-2,3.14-8.48,4-17.4,4.88-26.28a85.52,85.52,0,0,0,0-15.92c-.22-2.59-.48-5.09-3.12-6.88C24.55,7.4,16.65-3.9,9.8-16a9.62,9.62,0,0,1-1-2.29c-.36-1.38-1.77-3.08,0-4.15s2.73.79,3.62,1.93c3.78,4.85,7.49,9.75,11.23,14.63a69.29,69.29,0,0,0,23.73,20.2,28.9,28.9,0,0,0,13.36,3c1.16,0,2.39-.09,2-1.8C60.34,3.83,57.25-7.62,51.38-18.09,46-27.68,38.81-35.88,30.91-43.44c-2.9-2.79-3.82-5.69-2-9.37a27.94,27.94,0,0,0,2.39-8.85C32-66.78,33-71.86,33.43-77a42.39,42.39,0,0,0-5.81-26.57c-8-13.14-21.94-11.68-31.42-4.16-4.58,3.63-7.52,8.56-9.68,14a57.34,57.34,0,0,0-3,10,4.85,4.85,0,0,1-3.76,4c-1.67.53-3.68.27-5.19,2,1.62.69,3.13,1.36,4.66,2,2.52,1,3.65,2.59,4.27,5.5,1,4.83,2.28,9.84,5.83,13.7,1.52,1.64,3.17,3.15,4.7,4.79,3.23,3.44,3.39,6.23.54,10.06-.83,1.12-1.86,2.09-2.78,3.14a56.49,56.49,0,0,0-7.63,11c-.88,1.66-.94,2.65.93,3.66a28.37,28.37,0,0,1,7.37,6.12C-.79-10.45,2.89-1.72,4.57,8c3.3,19.23,1,37.28-11,53.38-2,2.71-1.94,2.78.41,5.16,1.86,1.89,3.87,3.66,5.57,5.69,1.43,1.7.92,3.07-1.13,3.87a6.06,6.06,0,0,1-4.08.41,29.78,29.78,0,0,0-4.51-.91,13.75,13.75,0,0,0-10,2.45C2.67,78.93,25.44,79.42,48.7,74.12ZM-12.06,57.51C-9.14,54.8-7.45,51.33-6,47.76A67.07,67.07,0,0,0-1.72,12.1C-3.49.43-7.82-9.89-16.93-17.81c-2.45-2.12-2.9-2.07-3.93,1A66.08,66.08,0,0,0-24.2,2.05c-.65,17.69,3.09,34.61,9.43,51C-14.19,54.6-13.75,56.28-12.06,57.51Z"/><path class="cls-4" d="M235.81,69.09c-5.88-7.24-9-15.14-11.43-23.33-4.19-14.27-7-28.76-6.22-43.75A71.44,71.44,0,0,1,233-38.68,38.25,38.25,0,0,1,240.84-46a35.24,35.24,0,0,1-6.34-5.36,19.81,19.81,0,0,1-5.77-16c.12-1.36-.18-2.15-1.4-2.61-2.84-1.09-5.49-2.83-8.73-2.64a7.78,7.78,0,0,1-1.67-.12c-2.72-.44-4.52-1.79-4.61-3.58-.12-2.24,1.57-3.1,3.22-3.92a38.06,38.06,0,0,1,7.34-3.06c2.68-.7,4-2.22,4.63-5.14,2.07-9.33,6.17-17.75,13.54-24.07,7.64-6.56,16.58-9.23,26.52-6.87,7.56,1.79,12.47,7.2,16.16,13.68,6.08,10.67,7.19,22.2,5.12,34.1-1.22,7-1.5,14.21-4.63,20.78-.84,1.76.32,2.85,1.39,4,4.16,4.52,8.47,8.9,12.28,13.74C306.8-21.74,312.32-8.9,315.4,5.08a21.93,21.93,0,0,1,.33,7.08c-.2,1.91-.75,3.56.82,5.44,1.35,1.63-.51,4.62-3.15,5.37a18.18,18.18,0,0,1-8.7.59l-10-2c1.09,15.39-.2,30.25-6.39,44.7,3.2,1.07,6.27,1,9.21,1.47,4.27.71,8.57,1.2,12.87,1.72,2,.24,3.58,1,4,3.07s-.89,3.39-2.61,4.32a29.88,29.88,0,0,1-6.67,2.47,176.6,176.6,0,0,1-31.76,5.23c-12.72,1-25.41.69-38.12.65A49.78,49.78,0,0,1,224,83.42c-2.81-.66-5.43-1.06-8.12.26-1,.49-2.2,1-3-.24s.08-2.16.77-3c4.45-5.39,10.44-8.25,17-10.16C232.09,69.86,233.6,69.59,235.81,69.09Zm61.89,5c-4.52-1.56-8.48-1.63-12.24-2.63s-4.1-1.52-2.64-5.07c.27-.64.47-1.32.71-2,3.14-8.48,4-17.4,4.88-26.28a85.52,85.52,0,0,0,0-15.92c-.22-2.59-.48-5.09-3.12-6.88C273.55,7.4,265.65-3.9,258.8-16a9.62,9.62,0,0,1-1-2.29c-.36-1.38-1.77-3.08,0-4.15s2.73.79,3.62,1.93c3.78,4.85,7.49,9.75,11.23,14.63a69.29,69.29,0,0,0,23.73,20.2,28.9,28.9,0,0,0,13.36,3c1.16,0,2.39-.09,2-1.8-2.4-11.67-5.49-23.12-11.36-33.59-5.38-9.59-12.57-17.79-20.47-25.35-2.9-2.79-3.82-5.69-2-9.37a27.94,27.94,0,0,0,2.39-8.85C281-66.78,282-71.86,282.43-77a42.39,42.39,0,0,0-5.81-26.57c-8-13.14-21.94-11.68-31.42-4.16-4.58,3.63-7.52,8.56-9.68,14a57.34,57.34,0,0,0-3,10,4.85,4.85,0,0,1-3.76,4c-1.67.53-3.68.27-5.19,2,1.62.69,3.13,1.36,4.66,2,2.52,1,3.65,2.59,4.27,5.5,1,4.83,2.28,9.84,5.83,13.7,1.52,1.64,3.17,3.15,4.7,4.79,3.23,3.44,3.39,6.23.54,10.06-.83,1.12-1.86,2.09-2.78,3.14a56.49,56.49,0,0,0-7.63,11c-.88,1.66-.94,2.65.93,3.66a28.37,28.37,0,0,1,7.37,6.12c6.74,7.37,10.42,16.1,12.1,25.81,3.3,19.23,1,37.28-11,53.38-2,2.71-1.94,2.78.41,5.16,1.86,1.89,3.87,3.66,5.57,5.69,1.43,1.7.92,3.07-1.13,3.87a6.06,6.06,0,0,1-4.08.41,29.78,29.78,0,0,0-4.51-.91,13.75,13.75,0,0,0-10,2.45C251.67,78.93,274.44,79.42,297.7,74.12ZM236.94,57.51c2.92-2.71,4.61-6.18,6.05-9.75a67.07,67.07,0,0,0,4.29-35.66c-1.77-11.67-6.1-22-15.21-29.91-2.45-2.12-2.9-2.07-3.93,1A66.08,66.08,0,0,0,224.8,2.05c-.65,17.69,3.09,34.61,9.43,51C234.81,54.6,235.25,56.28,236.94,57.51Z"/><path class="cls-4" d="M484.81,69.09c-5.88-7.24-9-15.14-11.43-23.33-4.19-14.27-7-28.76-6.22-43.75A71.44,71.44,0,0,1,482-38.68,38.25,38.25,0,0,1,489.84-46a35.24,35.24,0,0,1-6.34-5.36,19.81,19.81,0,0,1-5.77-16c.12-1.36-.18-2.15-1.4-2.61-2.84-1.09-5.49-2.83-8.73-2.64a7.78,7.78,0,0,1-1.67-.12c-2.72-.44-4.52-1.79-4.61-3.58-.12-2.24,1.57-3.1,3.22-3.92a38.06,38.06,0,0,1,7.34-3.06c2.68-.7,4-2.22,4.63-5.14,2.07-9.33,6.17-17.75,13.54-24.07,7.64-6.56,16.58-9.23,26.52-6.87,7.56,1.79,12.47,7.2,16.16,13.68,6.08,10.67,7.19,22.2,5.12,34.1-1.22,7-1.5,14.21-4.63,20.78-.84,1.76.32,2.85,1.39,4,4.16,4.52,8.47,8.9,12.28,13.74C555.8-21.74,561.32-8.9,564.4,5.08a21.93,21.93,0,0,1,.33,7.08c-.2,1.91-.75,3.56.82,5.44,1.35,1.63-.51,4.62-3.15,5.37a18.18,18.18,0,0,1-8.7.59l-10-2c1.09,15.39-.2,30.25-6.39,44.7,3.2,1.07,6.27,1,9.21,1.47,4.27.71,8.57,1.2,12.87,1.72,2,.24,3.58,1,4,3.07s-.89,3.39-2.61,4.32a29.88,29.88,0,0,1-6.67,2.47,176.6,176.6,0,0,1-31.76,5.23c-12.72,1-25.41.69-38.12.65A49.78,49.78,0,0,1,473,83.42c-2.81-.66-5.43-1.06-8.12.26-1,.49-2.2,1-3-.24s.08-2.16.77-3c4.45-5.39,10.44-8.25,17-10.16C481.09,69.86,482.6,69.59,484.81,69.09Zm61.89,5c-4.52-1.56-8.48-1.63-12.24-2.63s-4.1-1.52-2.64-5.07c.27-.64.47-1.32.71-2,3.14-8.48,4-17.4,4.88-26.28a85.52,85.52,0,0,0,0-15.92c-.22-2.59-.48-5.09-3.12-6.88C522.55,7.4,514.65-3.9,507.8-16a9.62,9.62,0,0,1-1-2.29c-.36-1.38-1.77-3.08,0-4.15s2.73.79,3.62,1.93c3.78,4.85,7.49,9.75,11.23,14.63a69.29,69.29,0,0,0,23.73,20.2,28.9,28.9,0,0,0,13.36,3c1.16,0,2.39-.09,2-1.8-2.4-11.67-5.49-23.12-11.36-33.59-5.38-9.59-12.57-17.79-20.47-25.35-2.9-2.79-3.82-5.69-2-9.37a27.94,27.94,0,0,0,2.39-8.85C530-66.78,531-71.86,531.43-77a42.39,42.39,0,0,0-5.81-26.57c-8-13.14-21.94-11.68-31.42-4.16-4.58,3.63-7.52,8.56-9.68,14a57.34,57.34,0,0,0-3,10,4.85,4.85,0,0,1-3.76,4c-1.67.53-3.68.27-5.19,2,1.62.69,3.13,1.36,4.66,2,2.52,1,3.65,2.59,4.27,5.5,1,4.83,2.28,9.84,5.83,13.7,1.52,1.64,3.17,3.15,4.7,4.79,3.23,3.44,3.39,6.23.54,10.06-.83,1.12-1.86,2.09-2.78,3.14a56.49,56.49,0,0,0-7.63,11c-.88,1.66-.94,2.65.93,3.66a28.37,28.37,0,0,1,7.37,6.12c6.74,7.37,10.42,16.1,12.1,25.81,3.3,19.23,1,37.28-11,53.38-2,2.71-1.94,2.78.41,5.16,1.86,1.89,3.87,3.66,5.57,5.69,1.43,1.7.92,3.07-1.13,3.87a6.06,6.06,0,0,1-4.08.41,29.78,29.78,0,0,0-4.51-.91,13.75,13.75,0,0,0-10,2.45C500.67,78.93,523.44,79.42,546.7,74.12ZM485.94,57.51c2.92-2.71,4.61-6.18,6.05-9.75a67.07,67.07,0,0,0,4.29-35.66c-1.77-11.67-6.1-22-15.21-29.91-2.45-2.12-2.9-2.07-3.93,1A66.08,66.08,0,0,0,473.8,2.05c-.65,17.69,3.09,34.61,9.43,51C483.81,54.6,484.25,56.28,485.94,57.51Z"/><path class="cls-4" d="M265.81,352.09c-5.88-7.24-9-15.14-11.43-23.33-4.19-14.27-7-28.76-6.22-43.75A71.44,71.44,0,0,1,263,244.32a38.25,38.25,0,0,1,7.83-7.32,35.24,35.24,0,0,1-6.34-5.36,19.81,19.81,0,0,1-5.77-16c.12-1.36-.18-2.15-1.4-2.61-2.84-1.09-5.49-2.83-8.73-2.64a7.78,7.78,0,0,1-1.67-.12c-2.72-.44-4.52-1.79-4.61-3.58-.12-2.24,1.57-3.1,3.22-3.92a38.06,38.06,0,0,1,7.34-3.06c2.68-.7,4-2.22,4.63-5.14,2.07-9.33,6.17-17.75,13.54-24.07,7.64-6.56,16.58-9.23,26.52-6.87,7.56,1.79,12.47,7.2,16.16,13.68,6.08,10.67,7.19,22.2,5.12,34.1-1.22,7-1.5,14.21-4.63,20.78-.84,1.76.32,2.85,1.39,4,4.16,4.52,8.47,8.9,12.28,13.74,8.91,11.31,14.43,24.15,17.51,38.13a21.93,21.93,0,0,1,.33,7.08c-.2,1.91-.75,3.56.82,5.44,1.35,1.63-.51,4.62-3.15,5.37a18.18,18.18,0,0,1-8.7.59l-10-2c1.09,15.39-.2,30.25-6.39,44.7,3.2,1.07,6.27,1,9.21,1.47,4.27.71,8.57,1.2,12.87,1.72,2,.24,3.58,1,4,3.07s-.89,3.39-2.61,4.32a29.88,29.88,0,0,1-6.67,2.47,176.6,176.6,0,0,1-31.76,5.23c-12.72,1-25.41.69-38.12.65A49.78,49.78,0,0,1,254,366.42c-2.81-.66-5.43-1.06-8.12.26-1,.49-2.2,1-3-.24s.08-2.16.77-3c4.45-5.39,10.44-8.25,17-10.16C262.09,352.86,263.6,352.59,265.81,352.09Zm61.89,5c-4.52-1.56-8.48-1.63-12.24-2.63s-4.1-1.52-2.64-5.07c.27-.64.47-1.32.71-2,3.14-8.48,4-17.4,4.88-26.28a85.52,85.52,0,0,0,0-15.92c-.22-2.59-.48-5.09-3.12-6.88-11.75-8-19.65-19.27-26.5-31.41a9.62,9.62,0,0,1-1-2.29c-.36-1.38-1.77-3.08,0-4.15s2.73.79,3.62,1.93c3.78,4.85,7.49,9.75,11.23,14.63a69.29,69.29,0,0,0,23.73,20.2,28.9,28.9,0,0,0,13.36,3c1.16,0,2.39-.09,2-1.8-2.4-11.67-5.49-23.12-11.36-33.59-5.38-9.59-12.57-17.79-20.47-25.35-2.9-2.79-3.82-5.69-2-9.37a27.94,27.94,0,0,0,2.39-8.85c.66-5.12,1.66-10.2,2.14-15.33a42.39,42.39,0,0,0-5.81-26.57c-8-13.14-21.94-11.68-31.42-4.16-4.58,3.63-7.52,8.56-9.68,14a57.34,57.34,0,0,0-3,10,4.85,4.85,0,0,1-3.76,4c-1.67.53-3.68.27-5.19,2,1.62.69,3.13,1.36,4.66,2,2.52,1,3.65,2.59,4.27,5.5,1,4.83,2.28,9.84,5.83,13.7,1.52,1.64,3.17,3.15,4.7,4.79,3.23,3.44,3.39,6.23.54,10.06-.83,1.12-1.86,2.09-2.78,3.14a56.49,56.49,0,0,0-7.63,11c-.88,1.66-.94,2.65.93,3.66a28.37,28.37,0,0,1,7.37,6.12c6.74,7.37,10.42,16.1,12.1,25.81,3.3,19.23,1,37.28-11,53.38-2,2.71-1.94,2.78.41,5.16,1.86,1.89,3.87,3.66,5.57,5.69,1.43,1.7.92,3.07-1.13,3.87a6.06,6.06,0,0,1-4.08.41,29.78,29.78,0,0,0-4.51-.91,13.75,13.75,0,0,0-10,2.45C281.67,361.93,304.44,362.42,327.7,357.12Zm-60.76-16.61c2.92-2.71,4.61-6.18,6.05-9.75a67.07,67.07,0,0,0,4.29-35.66c-1.77-11.67-6.1-22-15.21-29.91-2.45-2.12-2.9-2.07-3.93,1a66.08,66.08,0,0,0-3.34,18.88c-.65,17.69,3.09,34.61,9.43,51C264.81,337.6,265.25,339.28,266.94,340.51Z"/><path class="cls-4" d="M283,198a6.42,6.42,0,0,1-6.42-6.74c.09-3.65,3.29-7.51,6.1-7.35,3,.17,6.78,4,6.87,6.85C289.71,194.5,286.58,198,283,198Zm-.13-6c1-.29,1.15-1,1-1.91-.11-.71-.49-1.45-1.22-1.37-1,.11-1,1.08-1,1.91A1.26,1.26,0,0,0,282.91,192Z"/><path class="cls-4" d="M560.81,476.09c-5.88-7.24-9-15.14-11.43-23.33-4.19-14.27-7-28.76-6.22-43.75A71.44,71.44,0,0,1,558,368.32a38.25,38.25,0,0,1,7.83-7.32,35.24,35.24,0,0,1-6.34-5.36,19.81,19.81,0,0,1-5.77-16c.12-1.36-.18-2.15-1.4-2.61-2.84-1.09-5.49-2.83-8.73-2.64a7.78,7.78,0,0,1-1.67-.12c-2.72-.44-4.52-1.79-4.61-3.58-.12-2.24,1.57-3.1,3.22-3.92a38.06,38.06,0,0,1,7.34-3.06c2.68-.7,4-2.22,4.63-5.14,2.07-9.33,6.17-17.75,13.54-24.07,7.64-6.56,16.58-9.23,26.52-6.87,7.56,1.79,12.47,7.2,16.16,13.68,6.08,10.67,7.19,22.2,5.12,34.1-1.22,7-1.5,14.21-4.63,20.78-.84,1.76.32,2.85,1.39,4,4.16,4.52,8.47,8.9,12.28,13.74,8.91,11.31,14.43,24.15,17.51,38.13a21.93,21.93,0,0,1,.33,7.08c-.2,1.91-.75,3.56.82,5.44,1.35,1.63-.51,4.62-3.15,5.37a18.18,18.18,0,0,1-8.7.59l-10-2c1.09,15.39-.2,30.25-6.39,44.7,3.2,1.07,6.27,1,9.21,1.47,4.27.71,8.57,1.2,12.87,1.72,2,.24,3.58,1,4,3.07s-.89,3.39-2.61,4.32a29.88,29.88,0,0,1-6.67,2.47,176.6,176.6,0,0,1-31.76,5.23c-12.72,1-25.41.69-38.12.65A49.78,49.78,0,0,1,549,490.42c-2.81-.66-5.43-1.06-8.12.26-1,.49-2.2,1-3-.24s.08-2.16.77-3c4.45-5.39,10.44-8.25,17-10.16C557.09,476.86,558.6,476.59,560.81,476.09Zm61.89,5c-4.52-1.56-8.48-1.63-12.24-2.63s-4.1-1.52-2.64-5.07c.27-.64.47-1.32.71-2,3.14-8.48,4-17.4,4.88-26.28a85.52,85.52,0,0,0,0-15.92c-.22-2.59-.48-5.09-3.12-6.88-11.75-8-19.65-19.27-26.5-31.41a9.62,9.62,0,0,1-1-2.29c-.36-1.38-1.77-3.08,0-4.15s2.73.79,3.62,1.93c3.78,4.85,7.49,9.75,11.23,14.63a69.29,69.29,0,0,0,23.73,20.2,28.9,28.9,0,0,0,13.36,3c1.16,0,2.39-.09,2-1.8-2.4-11.67-5.49-23.12-11.36-33.59-5.38-9.59-12.57-17.79-20.47-25.35-2.9-2.79-3.82-5.69-2-9.37a27.94,27.94,0,0,0,2.39-8.85c.66-5.12,1.66-10.2,2.14-15.33a42.39,42.39,0,0,0-5.81-26.57c-8-13.14-21.94-11.68-31.42-4.16-4.58,3.63-7.52,8.56-9.68,14a57.34,57.34,0,0,0-3,10,4.85,4.85,0,0,1-3.76,4c-1.67.53-3.68.27-5.19,2,1.62.69,3.13,1.36,4.66,2,2.52,1,3.65,2.59,4.27,5.5,1,4.83,2.28,9.84,5.83,13.7,1.52,1.64,3.17,3.15,4.7,4.79,3.23,3.44,3.39,6.23.54,10.06-.83,1.12-1.86,2.09-2.78,3.14a56.49,56.49,0,0,0-7.63,11c-.88,1.66-.94,2.65.93,3.66a28.37,28.37,0,0,1,7.37,6.12c6.74,7.37,10.42,16.1,12.1,25.81,3.3,19.23,1,37.28-11,53.38-2,2.71-1.94,2.78.41,5.16,1.86,1.89,3.87,3.66,5.57,5.69,1.43,1.7.92,3.07-1.13,3.87a6.06,6.06,0,0,1-4.08.41,29.78,29.78,0,0,0-4.51-.91,13.75,13.75,0,0,0-10,2.45C576.67,485.93,599.44,486.42,622.7,481.12Zm-60.76-16.61c2.92-2.71,4.61-6.18,6-9.75a67.07,67.07,0,0,0,4.29-35.66c-1.77-11.67-6.1-22-15.21-29.91-2.45-2.12-2.9-2.07-3.93,1a66.08,66.08,0,0,0-3.34,18.88c-.65,17.69,3.09,34.61,9.43,51C559.81,461.6,560.25,463.28,561.94,464.51Z"/><path class="cls-4" d="M578,322a6.42,6.42,0,0,1-6.42-6.74c.09-3.65,3.29-7.51,6.1-7.35,3,.17,6.78,4,6.87,6.85C584.71,318.5,581.58,322,578,322Zm-.13-6c1-.29,1.15-1,1-1.91-.11-.71-.49-1.45-1.22-1.37-1,.11-1,1.08-1,1.91A1.26,1.26,0,0,0,577.91,316Z"/><path class="cls-4" d="M342.81,624.09c-5.88-7.24-9-15.14-11.43-23.33-4.19-14.27-7-28.76-6.22-43.75A71.44,71.44,0,0,1,340,516.32a38.25,38.25,0,0,1,7.83-7.32,35.24,35.24,0,0,1-6.34-5.36,19.81,19.81,0,0,1-5.77-16c.12-1.36-.18-2.15-1.4-2.61-2.84-1.09-5.49-2.83-8.73-2.64a7.78,7.78,0,0,1-1.67-.12c-2.72-.44-4.52-1.79-4.61-3.58-.12-2.24,1.57-3.1,3.22-3.92a38.06,38.06,0,0,1,7.34-3.06c2.68-.7,4-2.22,4.63-5.14,2.07-9.33,6.17-17.75,13.54-24.07,7.64-6.56,16.58-9.23,26.52-6.87,7.56,1.79,12.47,7.2,16.16,13.68,6.08,10.67,7.19,22.2,5.12,34.1-1.22,7-1.5,14.21-4.63,20.78-.84,1.76.32,2.85,1.39,4,4.16,4.52,8.47,8.9,12.28,13.74,8.91,11.31,14.43,24.15,17.51,38.13a21.93,21.93,0,0,1,.33,7.08c-.2,1.91-.75,3.56.82,5.44,1.35,1.63-.51,4.62-3.15,5.37a18.18,18.18,0,0,1-8.7.59l-10-2c1.09,15.39-.2,30.25-6.39,44.7,3.2,1.07,6.27,1,9.21,1.47,4.27.71,8.57,1.2,12.87,1.72,2,.24,3.58,1,4,3.07s-.89,3.39-2.61,4.32a29.88,29.88,0,0,1-6.67,2.47,176.6,176.6,0,0,1-31.76,5.23c-12.72,1.05-25.41.69-38.12.65A49.78,49.78,0,0,1,331,638.42c-2.81-.66-5.43-1.06-8.12.26-1,.49-2.2,1-3-.24s.08-2.16.77-3c4.45-5.39,10.44-8.25,17-10.16C339.09,624.86,340.6,624.59,342.81,624.09Zm61.89,5c-4.52-1.56-8.48-1.63-12.24-2.63s-4.1-1.52-2.64-5.07c.27-.64.47-1.32.71-2,3.14-8.48,4-17.4,4.88-26.28a85.52,85.52,0,0,0,0-15.92c-.22-2.59-.48-5.09-3.12-6.88-11.75-8-19.65-19.27-26.5-31.41a9.62,9.62,0,0,1-1-2.29c-.36-1.38-1.77-3.08,0-4.15s2.73.79,3.62,1.93c3.78,4.85,7.49,9.75,11.23,14.63a69.29,69.29,0,0,0,23.73,20.2,28.9,28.9,0,0,0,13.36,3c1.16,0,2.39-.09,2-1.8-2.4-11.67-5.49-23.12-11.36-33.59-5.38-9.59-12.57-17.79-20.47-25.35-2.9-2.79-3.82-5.69-2-9.37a27.94,27.94,0,0,0,2.39-8.85c.66-5.12,1.66-10.2,2.14-15.33a42.39,42.39,0,0,0-5.81-26.57c-8-13.14-21.94-11.68-31.42-4.16-4.58,3.63-7.52,8.56-9.68,14a57.34,57.34,0,0,0-3,10,4.85,4.85,0,0,1-3.76,4c-1.67.53-3.68.27-5.19,2,1.62.69,3.13,1.36,4.66,2,2.52,1,3.65,2.59,4.27,5.5,1,4.83,2.28,9.84,5.83,13.7,1.52,1.64,3.17,3.15,4.7,4.79,3.23,3.44,3.39,6.23.54,10.06-.83,1.12-1.86,2.09-2.78,3.14a56.49,56.49,0,0,0-7.63,11c-.88,1.66-.94,2.65.93,3.66a28.37,28.37,0,0,1,7.37,6.12c6.74,7.37,10.42,16.1,12.1,25.81,3.3,19.23,1,37.28-11,53.38-2,2.71-1.94,2.78.41,5.16,1.86,1.89,3.87,3.66,5.57,5.69,1.43,1.7.92,3.07-1.13,3.87a6.06,6.06,0,0,1-4.08.41,29.78,29.78,0,0,0-4.51-.91,13.75,13.75,0,0,0-10,2.45C358.67,633.93,381.44,634.42,404.7,629.12Zm-60.76-16.61c2.92-2.71,4.61-6.18,6.05-9.75a67.07,67.07,0,0,0,4.29-35.66c-1.77-11.67-6.1-22-15.21-29.91-2.45-2.12-2.9-2.07-3.93,1a66.08,66.08,0,0,0-3.34,18.88c-.65,17.69,3.09,34.61,9.43,51C341.81,609.6,342.25,611.28,343.94,612.51Z"/><path class="cls-4" d="M360,470a6.42,6.42,0,0,1-6.42-6.74c.09-3.65,3.29-7.51,6.1-7.35,3,.17,6.78,4,6.87,6.85C366.71,466.5,363.58,470,360,470Zm-.13-6c1-.29,1.15-1,1-1.91-.11-.71-.49-1.45-1.22-1.37-1,.11-1,1.08-1,1.91A1.26,1.26,0,0,0,359.91,464Z"/><path class="cls-4" d="M786.81,69.09c-5.88-7.24-9-15.14-11.43-23.33-4.19-14.27-7-28.76-6.22-43.75A71.44,71.44,0,0,1,784-38.68,38.25,38.25,0,0,1,791.84-46a35.24,35.24,0,0,1-6.34-5.36,19.81,19.81,0,0,1-5.77-16c.12-1.36-.18-2.15-1.4-2.61-2.84-1.09-5.49-2.83-8.73-2.64a7.78,7.78,0,0,1-1.67-.12c-2.72-.44-4.52-1.79-4.61-3.58-.12-2.24,1.57-3.1,3.22-3.92a38.06,38.06,0,0,1,7.34-3.06c2.68-.7,4-2.22,4.63-5.14,2.07-9.33,6.17-17.75,13.54-24.07,7.64-6.56,16.58-9.23,26.52-6.87,7.56,1.79,12.47,7.2,16.16,13.68,6.08,10.67,7.19,22.2,5.12,34.1-1.22,7-1.5,14.21-4.63,20.78-.84,1.76.32,2.85,1.39,4,4.16,4.52,8.47,8.9,12.28,13.74C857.8-21.74,863.32-8.9,866.4,5.08a21.93,21.93,0,0,1,.33,7.08c-.2,1.91-.75,3.56.82,5.44,1.35,1.63-.51,4.62-3.15,5.37a18.18,18.18,0,0,1-8.7.59l-10-2c1.09,15.39-.2,30.25-6.39,44.7,3.2,1.07,6.27,1,9.21,1.47,4.27.71,8.57,1.2,12.87,1.72,2,.24,3.58,1,4,3.07s-.89,3.39-2.61,4.32a29.88,29.88,0,0,1-6.67,2.47,176.6,176.6,0,0,1-31.76,5.23c-12.72,1-25.41.69-38.12.65A49.78,49.78,0,0,1,775,83.42c-2.81-.66-5.43-1.06-8.12.26-1,.49-2.2,1-3-.24s.08-2.16.77-3c4.45-5.39,10.44-8.25,17-10.16C783.09,69.86,784.6,69.59,786.81,69.09Zm61.89,5c-4.52-1.56-8.48-1.63-12.24-2.63s-4.1-1.52-2.64-5.07c.27-.64.47-1.32.71-2,3.14-8.48,4-17.4,4.88-26.28a85.52,85.52,0,0,0,0-15.92c-.22-2.59-.48-5.09-3.12-6.88C824.55,7.4,816.65-3.9,809.8-16a9.62,9.62,0,0,1-1-2.29c-.36-1.38-1.77-3.08,0-4.15s2.73.79,3.62,1.93c3.78,4.85,7.49,9.75,11.23,14.63a69.29,69.29,0,0,0,23.73,20.2,28.9,28.9,0,0,0,13.36,3c1.16,0,2.39-.09,2-1.8-2.4-11.67-5.49-23.12-11.36-33.59-5.38-9.59-12.57-17.79-20.47-25.35-2.9-2.79-3.82-5.69-2-9.37a27.94,27.94,0,0,0,2.39-8.85C832-66.78,833-71.86,833.43-77a42.39,42.39,0,0,0-5.81-26.57c-8-13.14-21.94-11.68-31.42-4.16-4.58,3.63-7.52,8.56-9.68,14a57.34,57.34,0,0,0-3,10,4.85,4.85,0,0,1-3.76,4c-1.67.53-3.68.27-5.19,2,1.62.69,3.13,1.36,4.66,2,2.52,1,3.65,2.59,4.27,5.5,1,4.83,2.28,9.84,5.83,13.7,1.52,1.64,3.17,3.15,4.7,4.79,3.23,3.44,3.39,6.23.54,10.06-.83,1.12-1.86,2.09-2.78,3.14a56.49,56.49,0,0,0-7.63,11c-.88,1.66-.94,2.65.93,3.66a28.37,28.37,0,0,1,7.37,6.12c6.74,7.37,10.42,16.1,12.1,25.81,3.3,19.23,1,37.28-11,53.38-2,2.71-1.94,2.78.41,5.16,1.86,1.89,3.87,3.66,5.57,5.69,1.43,1.7.92,3.07-1.13,3.87a6.06,6.06,0,0,1-4.08.41,29.78,29.78,0,0,0-4.51-.91,13.75,13.75,0,0,0-10,2.45C802.67,78.93,825.44,79.42,848.7,74.12ZM787.94,57.51c2.92-2.71,4.61-6.18,6-9.75a67.07,67.07,0,0,0,4.29-35.66c-1.77-11.67-6.1-22-15.21-29.91-2.45-2.12-2.9-2.07-3.93,1A66.08,66.08,0,0,0,775.8,2.05c-.65,17.69,3.09,34.61,9.43,51C785.81,54.6,786.25,56.28,787.94,57.51Z"/><path class="cls-4" d="M786.81,467.09c-5.88-7.24-9-15.14-11.43-23.33-4.19-14.27-7-28.76-6.22-43.75A71.44,71.44,0,0,1,784,359.32a38.25,38.25,0,0,1,7.83-7.32,35.24,35.24,0,0,1-6.34-5.36,19.81,19.81,0,0,1-5.77-16c.12-1.36-.18-2.15-1.4-2.61-2.84-1.09-5.49-2.83-8.73-2.64a7.78,7.78,0,0,1-1.67-.12c-2.72-.44-4.52-1.79-4.61-3.58-.12-2.24,1.57-3.1,3.22-3.92a38.06,38.06,0,0,1,7.34-3.06c2.68-.7,4-2.22,4.63-5.14,2.07-9.33,6.17-17.75,13.54-24.07,7.64-6.56,16.58-9.23,26.52-6.87,7.56,1.79,12.47,7.2,16.16,13.68,6.08,10.67,7.19,22.2,5.12,34.1-1.22,7-1.5,14.21-4.63,20.78-.84,1.76.32,2.85,1.39,4,4.16,4.52,8.47,8.9,12.28,13.74,8.91,11.31,14.43,24.15,17.51,38.13a21.93,21.93,0,0,1,.33,7.08c-.2,1.91-.75,3.56.82,5.44,1.35,1.63-.51,4.62-3.15,5.37a18.18,18.18,0,0,1-8.7.59l-10-2c1.09,15.39-.2,30.25-6.39,44.7,3.2,1.07,6.27,1,9.21,1.47,4.27.71,8.57,1.2,12.87,1.72,2,.24,3.58,1,4,3.07s-.89,3.39-2.61,4.32a29.88,29.88,0,0,1-6.67,2.47,176.6,176.6,0,0,1-31.76,5.23c-12.72,1-25.41.69-38.12.65A49.78,49.78,0,0,1,775,481.42c-2.81-.66-5.43-1.06-8.12.26-1,.49-2.2,1-3-.24s.08-2.16.77-3c4.45-5.39,10.44-8.25,17-10.16C783.09,467.86,784.6,467.59,786.81,467.09Zm61.89,5c-4.52-1.56-8.48-1.63-12.24-2.63s-4.1-1.52-2.64-5.07c.27-.64.47-1.32.71-2,3.14-8.48,4-17.4,4.88-26.28a85.52,85.52,0,0,0,0-15.92c-.22-2.59-.48-5.09-3.12-6.88-11.75-8-19.65-19.27-26.5-31.41a9.62,9.62,0,0,1-1-2.29c-.36-1.38-1.77-3.08,0-4.15s2.73.79,3.62,1.93c3.78,4.85,7.49,9.75,11.23,14.63a69.29,69.29,0,0,0,23.73,20.2,28.9,28.9,0,0,0,13.36,3c1.16,0,2.39-.09,2-1.8-2.4-11.67-5.49-23.12-11.36-33.59-5.38-9.59-12.57-17.79-20.47-25.35-2.9-2.79-3.82-5.69-2-9.37a27.94,27.94,0,0,0,2.39-8.85c.66-5.12,1.66-10.2,2.14-15.33a42.39,42.39,0,0,0-5.81-26.57c-8-13.14-21.94-11.68-31.42-4.16-4.58,3.63-7.52,8.56-9.68,14a57.34,57.34,0,0,0-3,10,4.85,4.85,0,0,1-3.76,4c-1.67.53-3.68.27-5.19,2,1.62.69,3.13,1.36,4.66,2,2.52,1,3.65,2.59,4.27,5.5,1,4.83,2.28,9.84,5.83,13.7,1.52,1.64,3.17,3.15,4.7,4.79,3.23,3.44,3.39,6.23.54,10.06-.83,1.12-1.86,2.09-2.78,3.14a56.49,56.49,0,0,0-7.63,11c-.88,1.66-.94,2.65.93,3.66a28.37,28.37,0,0,1,7.37,6.12c6.74,7.37,10.42,16.1,12.1,25.81,3.3,19.23,1,37.28-11,53.38-2,2.71-1.94,2.78.41,5.16,1.86,1.89,3.87,3.66,5.57,5.69,1.43,1.7.92,3.07-1.13,3.87a6.06,6.06,0,0,1-4.08.41,29.78,29.78,0,0,0-4.51-.91,13.75,13.75,0,0,0-10,2.45C802.67,476.93,825.44,477.42,848.7,472.12Zm-60.76-16.61c2.92-2.71,4.61-6.18,6-9.75a67.07,67.07,0,0,0,4.29-35.66c-1.77-11.67-6.1-22-15.21-29.91-2.45-2.12-2.9-2.07-3.93,1a66.08,66.08,0,0,0-3.34,18.88c-.65,17.69,3.09,34.61,9.43,51C785.81,452.6,786.25,454.28,787.94,455.51Z"/><path class="cls-4" d="M804,313a6.42,6.42,0,0,1-6.42-6.74c.09-3.65,3.29-7.51,6.1-7.35,3,.17,6.78,4,6.87,6.85C810.71,309.5,807.58,313,804,313Zm-.13-6c1-.29,1.15-1,1-1.91-.11-.71-.49-1.45-1.22-1.37-1,.11-1,1.08-1,1.91A1.26,1.26,0,0,0,803.91,307Z"/><path class="cls-4" d="M-13.19,869.09c-5.88-7.24-9-15.14-11.43-23.33-4.19-14.27-7-28.76-6.22-43.75A71.44,71.44,0,0,1-16,761.32,38.25,38.25,0,0,1-8.16,754a35.24,35.24,0,0,1-6.34-5.36,19.81,19.81,0,0,1-5.77-16c.12-1.36-.18-2.15-1.4-2.61-2.84-1.09-5.49-2.83-8.73-2.64a7.78,7.78,0,0,1-1.67-.12c-2.72-.44-4.52-1.79-4.61-3.58-.12-2.24,1.57-3.1,3.22-3.92a38.06,38.06,0,0,1,7.34-3.06c2.68-.7,4-2.22,4.63-5.14,2.07-9.33,6.17-17.75,13.54-24.07,7.64-6.56,16.58-9.23,26.52-6.87,7.56,1.79,12.47,7.2,16.16,13.68,6.08,10.67,7.19,22.2,5.12,34.1-1.22,7-1.5,14.21-4.63,20.78-.84,1.76.32,2.85,1.39,4,4.16,4.52,8.47,8.9,12.28,13.74,8.91,11.31,14.43,24.15,17.51,38.13a21.93,21.93,0,0,1,.33,7.08c-.2,1.91-.75,3.56.82,5.44,1.35,1.63-.51,4.62-3.15,5.37a18.18,18.18,0,0,1-8.7.59l-10-2c1.09,15.39-.2,30.25-6.39,44.7,3.2,1.07,6.27,1,9.21,1.47,4.27.71,8.57,1.2,12.87,1.72,2,.24,3.58,1,4,3.07s-.89,3.39-2.61,4.32a29.88,29.88,0,0,1-6.67,2.47,176.6,176.6,0,0,1-31.76,5.23c-12.72,1.05-25.41.69-38.12.65A49.78,49.78,0,0,1-25,883.42c-2.81-.66-5.43-1.06-8.12.26-1,.49-2.2,1-3-.24s.08-2.16.77-3c4.45-5.39,10.44-8.25,17-10.16C-16.91,869.86-15.4,869.59-13.19,869.09Zm61.89,5c-4.52-1.56-8.48-1.63-12.24-2.63s-4.1-1.52-2.64-5.07c.27-.64.47-1.32.71-2,3.14-8.48,4-17.4,4.88-26.28a85.52,85.52,0,0,0,0-15.92c-.22-2.59-.48-5.09-3.12-6.88C24.55,807.4,16.65,796.1,9.8,784a9.62,9.62,0,0,1-1-2.29c-.36-1.38-1.77-3.08,0-4.15s2.73.79,3.62,1.93c3.78,4.85,7.49,9.75,11.23,14.63a69.29,69.29,0,0,0,23.73,20.2,28.9,28.9,0,0,0,13.36,3c1.16,0,2.39-.09,2-1.8-2.4-11.67-5.49-23.12-11.36-33.59-5.38-9.59-12.57-17.79-20.47-25.35-2.9-2.79-3.82-5.69-2-9.37a27.94,27.94,0,0,0,2.39-8.85C32,733.22,33,728.14,33.43,723a42.39,42.39,0,0,0-5.81-26.57c-8-13.14-21.94-11.68-31.42-4.16-4.58,3.63-7.52,8.56-9.68,14a57.34,57.34,0,0,0-3,10,4.85,4.85,0,0,1-3.76,4c-1.67.53-3.68.27-5.19,2,1.62.69,3.13,1.36,4.66,2,2.52,1,3.65,2.59,4.27,5.5,1,4.83,2.28,9.84,5.83,13.7,1.52,1.64,3.17,3.15,4.7,4.79,3.23,3.44,3.39,6.23.54,10.06-.83,1.12-1.86,2.09-2.78,3.14a56.49,56.49,0,0,0-7.63,11c-.88,1.66-.94,2.65.93,3.66a28.37,28.37,0,0,1,7.37,6.12c6.74,7.37,10.42,16.1,12.1,25.81,3.3,19.23,1,37.28-11,53.38-2,2.71-1.94,2.78.41,5.16,1.86,1.89,3.87,3.66,5.57,5.69,1.43,1.7.92,3.07-1.13,3.87a6.06,6.06,0,0,1-4.08.41,29.78,29.78,0,0,0-4.51-.91,13.75,13.75,0,0,0-10,2.45C2.67,878.93,25.44,879.42,48.7,874.12Zm-60.76-16.61c2.92-2.71,4.61-6.18,6.05-9.75A67.07,67.07,0,0,0-1.72,812.1c-1.77-11.67-6.1-22-15.21-29.91-2.45-2.12-2.9-2.07-3.93,1a66.08,66.08,0,0,0-3.34,18.88c-.65,17.69,3.09,34.61,9.43,51C-14.19,854.6-13.75,856.28-12.06,857.51Z"/><path class="cls-4" d="M4,715a6.42,6.42,0,0,1-6.42-6.74c.09-3.65,3.29-7.51,6.1-7.35,3,.17,6.78,4,6.87,6.85C10.71,711.5,7.58,715,4,715Zm-.13-6c1-.29,1.15-1,1-1.91-.11-.71-.49-1.45-1.22-1.37-1,.11-1,1.08-1,1.91A1.26,1.26,0,0,0,3.91,709Z"/><path class="cls-4" d="M-13.19,469.09c-5.88-7.24-9-15.14-11.43-23.33-4.19-14.27-7-28.76-6.22-43.75A71.44,71.44,0,0,1-16,361.32,38.25,38.25,0,0,1-8.16,354a35.24,35.24,0,0,1-6.34-5.36,19.81,19.81,0,0,1-5.77-16c.12-1.36-.18-2.15-1.4-2.61-2.84-1.09-5.49-2.83-8.73-2.64a7.78,7.78,0,0,1-1.67-.12c-2.72-.44-4.52-1.79-4.61-3.58-.12-2.24,1.57-3.1,3.22-3.92a38.06,38.06,0,0,1,7.34-3.06c2.68-.7,4-2.22,4.63-5.14,2.07-9.33,6.17-17.75,13.54-24.07,7.64-6.56,16.58-9.23,26.52-6.87,7.56,1.79,12.47,7.2,16.16,13.68,6.08,10.67,7.19,22.2,5.12,34.1-1.22,7-1.5,14.21-4.63,20.78-.84,1.76.32,2.85,1.39,4,4.16,4.52,8.47,8.9,12.28,13.74,8.91,11.31,14.43,24.15,17.51,38.13a21.93,21.93,0,0,1,.33,7.08c-.2,1.91-.75,3.56.82,5.44,1.35,1.63-.51,4.62-3.15,5.37a18.18,18.18,0,0,1-8.7.59l-10-2c1.09,15.39-.2,30.25-6.39,44.7,3.2,1.07,6.27,1,9.21,1.47,4.27.71,8.57,1.2,12.87,1.72,2,.24,3.58,1,4,3.07s-.89,3.39-2.61,4.32a29.88,29.88,0,0,1-6.67,2.47,176.6,176.6,0,0,1-31.76,5.23c-12.72,1-25.41.69-38.12.65A49.78,49.78,0,0,1-25,483.42c-2.81-.66-5.43-1.06-8.12.26-1,.49-2.2,1-3-.24s.08-2.16.77-3c4.45-5.39,10.44-8.25,17-10.16C-16.91,469.86-15.4,469.59-13.19,469.09Zm61.89,5c-4.52-1.56-8.48-1.63-12.24-2.63s-4.1-1.52-2.64-5.07c.27-.64.47-1.32.71-2,3.14-8.48,4-17.4,4.88-26.28a85.52,85.52,0,0,0,0-15.92c-.22-2.59-.48-5.09-3.12-6.88C24.55,407.4,16.65,396.1,9.8,384a9.62,9.62,0,0,1-1-2.29c-.36-1.38-1.77-3.08,0-4.15s2.73.79,3.62,1.93c3.78,4.85,7.49,9.75,11.23,14.63a69.29,69.29,0,0,0,23.73,20.2,28.9,28.9,0,0,0,13.36,3c1.16,0,2.39-.09,2-1.8-2.4-11.67-5.49-23.12-11.36-33.59-5.38-9.59-12.57-17.79-20.47-25.35-2.9-2.79-3.82-5.69-2-9.37a27.94,27.94,0,0,0,2.39-8.85C32,333.22,33,328.14,33.43,323a42.39,42.39,0,0,0-5.81-26.57c-8-13.14-21.94-11.68-31.42-4.16-4.58,3.63-7.52,8.56-9.68,14a57.34,57.34,0,0,0-3,10,4.85,4.85,0,0,1-3.76,4c-1.67.53-3.68.27-5.19,2,1.62.69,3.13,1.36,4.66,2,2.52,1,3.65,2.59,4.27,5.5,1,4.83,2.28,9.84,5.83,13.7,1.52,1.64,3.17,3.15,4.7,4.79,3.23,3.44,3.39,6.23.54,10.06-.83,1.12-1.86,2.09-2.78,3.14a56.49,56.49,0,0,0-7.63,11c-.88,1.66-.94,2.65.93,3.66a28.37,28.37,0,0,1,7.37,6.12c6.74,7.37,10.42,16.1,12.1,25.81,3.3,19.23,1,37.28-11,53.38-2,2.71-1.94,2.78.41,5.16,1.86,1.89,3.87,3.66,5.57,5.69,1.43,1.7.92,3.07-1.13,3.87a6.06,6.06,0,0,1-4.08.41,29.78,29.78,0,0,0-4.51-.91,13.75,13.75,0,0,0-10,2.45C2.67,478.93,25.44,479.42,48.7,474.12Zm-60.76-16.61c2.92-2.71,4.61-6.18,6.05-9.75A67.07,67.07,0,0,0-1.72,412.1c-1.77-11.67-6.1-22-15.21-29.91-2.45-2.12-2.9-2.07-3.93,1a66.08,66.08,0,0,0-3.34,18.88c-.65,17.69,3.09,34.61,9.43,51C-14.19,454.6-13.75,456.28-12.06,457.51Z"/><path class="cls-4" d="M4,315a6.42,6.42,0,0,1-6.42-6.74c.09-3.65,3.29-7.51,6.1-7.35,3,.17,6.78,4,6.87,6.85C10.71,311.5,7.58,315,4,315Zm-.13-6c1-.29,1.15-1,1-1.91-.11-.71-.49-1.45-1.22-1.37-1,.11-1,1.08-1,1.91A1.26,1.26,0,0,0,3.91,309Z"/><path class="cls-4" d="M235.81,869.09c-5.88-7.24-9-15.14-11.43-23.33-4.19-14.27-7-28.76-6.22-43.75A71.44,71.44,0,0,1,233,761.32a38.25,38.25,0,0,1,7.83-7.32,35.24,35.24,0,0,1-6.34-5.36,19.81,19.81,0,0,1-5.77-16c.12-1.36-.18-2.15-1.4-2.61-2.84-1.09-5.49-2.83-8.73-2.64a7.78,7.78,0,0,1-1.67-.12c-2.72-.44-4.52-1.79-4.61-3.58-.12-2.24,1.57-3.1,3.22-3.92a38.06,38.06,0,0,1,7.34-3.06c2.68-.7,4-2.22,4.63-5.14,2.07-9.33,6.17-17.75,13.54-24.07,7.64-6.56,16.58-9.23,26.52-6.87,7.56,1.79,12.47,7.2,16.16,13.68,6.08,10.67,7.19,22.2,5.12,34.1-1.22,7-1.5,14.21-4.63,20.78-.84,1.76.32,2.85,1.39,4,4.16,4.52,8.47,8.9,12.28,13.74,8.91,11.31,14.43,24.15,17.51,38.13a21.93,21.93,0,0,1,.33,7.08c-.2,1.91-.75,3.56.82,5.44,1.35,1.63-.51,4.62-3.15,5.37a18.18,18.18,0,0,1-8.7.59l-10-2c1.09,15.39-.2,30.25-6.39,44.7,3.2,1.07,6.27,1,9.21,1.47,4.27.71,8.57,1.2,12.87,1.72,2,.24,3.58,1,4,3.07s-.89,3.39-2.61,4.32a29.88,29.88,0,0,1-6.67,2.47,176.6,176.6,0,0,1-31.76,5.23c-12.72,1.05-25.41.69-38.12.65A49.78,49.78,0,0,1,224,883.42c-2.81-.66-5.43-1.06-8.12.26-1,.49-2.2,1-3-.24s.08-2.16.77-3c4.45-5.39,10.44-8.25,17-10.16C232.09,869.86,233.6,869.59,235.81,869.09Zm61.89,5c-4.52-1.56-8.48-1.63-12.24-2.63s-4.1-1.52-2.64-5.07c.27-.64.47-1.32.71-2,3.14-8.48,4-17.4,4.88-26.28a85.52,85.52,0,0,0,0-15.92c-.22-2.59-.48-5.09-3.12-6.88-11.75-8-19.65-19.27-26.5-31.41a9.62,9.62,0,0,1-1-2.29c-.36-1.38-1.77-3.08,0-4.15s2.73.79,3.62,1.93c3.78,4.85,7.49,9.75,11.23,14.63a69.29,69.29,0,0,0,23.73,20.2,28.9,28.9,0,0,0,13.36,3c1.16,0,2.39-.09,2-1.8-2.4-11.67-5.49-23.12-11.36-33.59-5.38-9.59-12.57-17.79-20.47-25.35-2.9-2.79-3.82-5.69-2-9.37a27.94,27.94,0,0,0,2.39-8.85c.66-5.12,1.66-10.2,2.14-15.33a42.39,42.39,0,0,0-5.81-26.57c-8-13.14-21.94-11.68-31.42-4.16-4.58,3.63-7.52,8.56-9.68,14a57.34,57.34,0,0,0-3,10,4.85,4.85,0,0,1-3.76,4c-1.67.53-3.68.27-5.19,2,1.62.69,3.13,1.36,4.66,2,2.52,1,3.65,2.59,4.27,5.5,1,4.83,2.28,9.84,5.83,13.7,1.52,1.64,3.17,3.15,4.7,4.79,3.23,3.44,3.39,6.23.54,10.06-.83,1.12-1.86,2.09-2.78,3.14a56.49,56.49,0,0,0-7.63,11c-.88,1.66-.94,2.65.93,3.66a28.37,28.37,0,0,1,7.37,6.12c6.74,7.37,10.42,16.1,12.1,25.81,3.3,19.23,1,37.28-11,53.38-2,2.71-1.94,2.78.41,5.16,1.86,1.89,3.87,3.66,5.57,5.69,1.43,1.7.92,3.07-1.13,3.87a6.06,6.06,0,0,1-4.08.41,29.78,29.78,0,0,0-4.51-.91,13.75,13.75,0,0,0-10,2.45C251.67,878.93,274.44,879.42,297.7,874.12Zm-60.76-16.61c2.92-2.71,4.61-6.18,6.05-9.75a67.07,67.07,0,0,0,4.29-35.66c-1.77-11.67-6.1-22-15.21-29.91-2.45-2.12-2.9-2.07-3.93,1a66.08,66.08,0,0,0-3.34,18.88c-.65,17.69,3.09,34.61,9.43,51C234.81,854.6,235.25,856.28,236.94,857.51Z"/><path class="cls-4" d="M253,715a6.42,6.42,0,0,1-6.42-6.74c.09-3.65,3.29-7.51,6.1-7.35,3,.17,6.78,4,6.87,6.85C259.71,711.5,256.58,715,253,715Zm-.13-6c1-.29,1.15-1,1-1.91-.11-.71-.49-1.45-1.22-1.37-1,.11-1,1.08-1,1.91A1.26,1.26,0,0,0,252.91,709Z"/><path class="cls-4" d="M484.81,869.09c-5.88-7.24-9-15.14-11.43-23.33-4.19-14.27-7-28.76-6.22-43.75A71.44,71.44,0,0,1,482,761.32a38.25,38.25,0,0,1,7.83-7.32,35.24,35.24,0,0,1-6.34-5.36,19.81,19.81,0,0,1-5.77-16c.12-1.36-.18-2.15-1.4-2.61-2.84-1.09-5.49-2.83-8.73-2.64a7.78,7.78,0,0,1-1.67-.12c-2.72-.44-4.52-1.79-4.61-3.58-.12-2.24,1.57-3.1,3.22-3.92a38.06,38.06,0,0,1,7.34-3.06c2.68-.7,4-2.22,4.63-5.14,2.07-9.33,6.17-17.75,13.54-24.07,7.64-6.56,16.58-9.23,26.52-6.87,7.56,1.79,12.47,7.2,16.16,13.68,6.08,10.67,7.19,22.2,5.12,34.1-1.22,7-1.5,14.21-4.63,20.78-.84,1.76.32,2.85,1.39,4,4.16,4.52,8.47,8.9,12.28,13.74,8.91,11.31,14.43,24.15,17.51,38.13a21.93,21.93,0,0,1,.33,7.08c-.2,1.91-.75,3.56.82,5.44,1.35,1.63-.51,4.62-3.15,5.37a18.18,18.18,0,0,1-8.7.59l-10-2c1.09,15.39-.2,30.25-6.39,44.7,3.2,1.07,6.27,1,9.21,1.47,4.27.71,8.57,1.2,12.87,1.72,2,.24,3.58,1,4,3.07s-.89,3.39-2.61,4.32a29.88,29.88,0,0,1-6.67,2.47,176.6,176.6,0,0,1-31.76,5.23c-12.72,1.05-25.41.69-38.12.65A49.78,49.78,0,0,1,473,883.42c-2.81-.66-5.43-1.06-8.12.26-1,.49-2.2,1-3-.24s.08-2.16.77-3c4.45-5.39,10.44-8.25,17-10.16C481.09,869.86,482.6,869.59,484.81,869.09Zm61.89,5c-4.52-1.56-8.48-1.63-12.24-2.63s-4.1-1.52-2.64-5.07c.27-.64.47-1.32.71-2,3.14-8.48,4-17.4,4.88-26.28a85.52,85.52,0,0,0,0-15.92c-.22-2.59-.48-5.09-3.12-6.88-11.75-8-19.65-19.27-26.5-31.41a9.62,9.62,0,0,1-1-2.29c-.36-1.38-1.77-3.08,0-4.15s2.73.79,3.62,1.93c3.78,4.85,7.49,9.75,11.23,14.63a69.29,69.29,0,0,0,23.73,20.2,28.9,28.9,0,0,0,13.36,3c1.16,0,2.39-.09,2-1.8-2.4-11.67-5.49-23.12-11.36-33.59-5.38-9.59-12.57-17.79-20.47-25.35-2.9-2.79-3.82-5.69-2-9.37a27.94,27.94,0,0,0,2.39-8.85c.66-5.12,1.66-10.2,2.14-15.33a42.39,42.39,0,0,0-5.81-26.57c-8-13.14-21.94-11.68-31.42-4.16-4.58,3.63-7.52,8.56-9.68,14a57.34,57.34,0,0,0-3,10,4.85,4.85,0,0,1-3.76,4c-1.67.53-3.68.27-5.19,2,1.62.69,3.13,1.36,4.66,2,2.52,1,3.65,2.59,4.27,5.5,1,4.83,2.28,9.84,5.83,13.7,1.52,1.64,3.17,3.15,4.7,4.79,3.23,3.44,3.39,6.23.54,10.06-.83,1.12-1.86,2.09-2.78,3.14a56.49,56.49,0,0,0-7.63,11c-.88,1.66-.94,2.65.93,3.66a28.37,28.37,0,0,1,7.37,6.12c6.74,7.37,10.42,16.1,12.1,25.81,3.3,19.23,1,37.28-11,53.38-2,2.71-1.94,2.78.41,5.16,1.86,1.89,3.87,3.66,5.57,5.69,1.43,1.7.92,3.07-1.13,3.87a6.06,6.06,0,0,1-4.08.41,29.78,29.78,0,0,0-4.51-.91,13.75,13.75,0,0,0-10,2.45C500.67,878.93,523.44,879.42,546.7,874.12Zm-60.76-16.61c2.92-2.71,4.61-6.18,6.05-9.75a67.07,67.07,0,0,0,4.29-35.66c-1.77-11.67-6.1-22-15.21-29.91-2.45-2.12-2.9-2.07-3.93,1a66.08,66.08,0,0,0-3.34,18.88c-.65,17.69,3.09,34.61,9.43,51C483.81,854.6,484.25,856.28,485.94,857.51Z"/><path class="cls-4" d="M502,715a6.42,6.42,0,0,1-6.42-6.74c.09-3.65,3.29-7.51,6.1-7.35,3,.17,6.78,4,6.87,6.85C508.71,711.5,505.58,715,502,715Zm-.13-6c1-.29,1.15-1,1-1.91-.11-.71-.49-1.45-1.22-1.37-1,.11-1,1.08-1,1.91A1.26,1.26,0,0,0,501.91,709Z"/><path class="cls-4" d="M786.81,869.09c-5.88-7.24-9-15.14-11.43-23.33-4.19-14.27-7-28.76-6.22-43.75A71.44,71.44,0,0,1,784,761.32a38.25,38.25,0,0,1,7.83-7.32,35.24,35.24,0,0,1-6.34-5.36,19.81,19.81,0,0,1-5.77-16c.12-1.36-.18-2.15-1.4-2.61-2.84-1.09-5.49-2.83-8.73-2.64a7.78,7.78,0,0,1-1.67-.12c-2.72-.44-4.52-1.79-4.61-3.58-.12-2.24,1.57-3.1,3.22-3.92a38.06,38.06,0,0,1,7.34-3.06c2.68-.7,4-2.22,4.63-5.14,2.07-9.33,6.17-17.75,13.54-24.07,7.64-6.56,16.58-9.23,26.52-6.87,7.56,1.79,12.47,7.2,16.16,13.68,6.08,10.67,7.19,22.2,5.12,34.1-1.22,7-1.5,14.21-4.63,20.78-.84,1.76.32,2.85,1.39,4,4.16,4.52,8.47,8.9,12.28,13.74,8.91,11.31,14.43,24.15,17.51,38.13a21.93,21.93,0,0,1,.33,7.08c-.2,1.91-.75,3.56.82,5.44,1.35,1.63-.51,4.62-3.15,5.37a18.18,18.18,0,0,1-8.7.59l-10-2c1.09,15.39-.2,30.25-6.39,44.7,3.2,1.07,6.27,1,9.21,1.47,4.27.71,8.57,1.2,12.87,1.72,2,.24,3.58,1,4,3.07s-.89,3.39-2.61,4.32a29.88,29.88,0,0,1-6.67,2.47,176.6,176.6,0,0,1-31.76,5.23c-12.72,1.05-25.41.69-38.12.65A49.78,49.78,0,0,1,775,883.42c-2.81-.66-5.43-1.06-8.12.26-1,.49-2.2,1-3-.24s.08-2.16.77-3c4.45-5.39,10.44-8.25,17-10.16C783.09,869.86,784.6,869.59,786.81,869.09Zm61.89,5c-4.52-1.56-8.48-1.63-12.24-2.63s-4.1-1.52-2.64-5.07c.27-.64.47-1.32.71-2,3.14-8.48,4-17.4,4.88-26.28a85.52,85.52,0,0,0,0-15.92c-.22-2.59-.48-5.09-3.12-6.88-11.75-8-19.65-19.27-26.5-31.41a9.62,9.62,0,0,1-1-2.29c-.36-1.38-1.77-3.08,0-4.15s2.73.79,3.62,1.93c3.78,4.85,7.49,9.75,11.23,14.63a69.29,69.29,0,0,0,23.73,20.2,28.9,28.9,0,0,0,13.36,3c1.16,0,2.39-.09,2-1.8-2.4-11.67-5.49-23.12-11.36-33.59-5.38-9.59-12.57-17.79-20.47-25.35-2.9-2.79-3.82-5.69-2-9.37a27.94,27.94,0,0,0,2.39-8.85c.66-5.12,1.66-10.2,2.14-15.33a42.39,42.39,0,0,0-5.81-26.57c-8-13.14-21.94-11.68-31.42-4.16-4.58,3.63-7.52,8.56-9.68,14a57.34,57.34,0,0,0-3,10,4.85,4.85,0,0,1-3.76,4c-1.67.53-3.68.27-5.19,2,1.62.69,3.13,1.36,4.66,2,2.52,1,3.65,2.59,4.27,5.5,1,4.83,2.28,9.84,5.83,13.7,1.52,1.64,3.17,3.15,4.7,4.79,3.23,3.44,3.39,6.23.54,10.06-.83,1.12-1.86,2.09-2.78,3.14a56.49,56.49,0,0,0-7.63,11c-.88,1.66-.94,2.65.93,3.66a28.37,28.37,0,0,1,7.37,6.12c6.74,7.37,10.42,16.1,12.1,25.81,3.3,19.23,1,37.28-11,53.38-2,2.71-1.94,2.78.41,5.16,1.86,1.89,3.87,3.66,5.57,5.69,1.43,1.7.92,3.07-1.13,3.87a6.06,6.06,0,0,1-4.08.41,29.78,29.78,0,0,0-4.51-.91,13.75,13.75,0,0,0-10,2.45C802.67,878.93,825.44,879.42,848.7,874.12Zm-60.76-16.61c2.92-2.71,4.61-6.18,6-9.75a67.07,67.07,0,0,0,4.29-35.66c-1.77-11.67-6.1-22-15.21-29.91-2.45-2.12-2.9-2.07-3.93,1a66.08,66.08,0,0,0-3.34,18.88c-.65,17.69,3.09,34.61,9.43,51C785.81,854.6,786.25,856.28,787.94,857.51Z"/><path class="cls-4" d="M804,715a6.42,6.42,0,0,1-6.42-6.74c.09-3.65,3.29-7.51,6.1-7.35,3,.17,6.78,4,6.87,6.85C810.71,711.5,807.58,715,804,715Zm-.13-6c1-.29,1.15-1,1-1.91-.11-.71-.49-1.45-1.22-1.37-1,.11-1,1.08-1,1.91A1.26,1.26,0,0,0,803.91,709Z"/></g></svg>