<svg id="Layer_1" data-name="Layer 1" xmlns="http://www.w3.org/2000/svg" xmlns:xlink="http://www.w3.org/1999/xlink" viewBox="0 0 800 800"><defs><style>.cls-1{fill:none;}.cls-2{fill:#ffe1fb;}.cls-3{clip-path:url(#clip-path);}.cls-4{opacity:0.25;}.cls-5{fill:#a117ef;}</style><clipPath id="clip-path"><rect class="cls-1" width="800" height="800"/></clipPath></defs><title>Artboard 1 copy</title><rect class="cls-2" width="800" height="800"/><g class="cls-3"><g class="cls-4"><path class="cls-5" d="M-34.54-12.7c0-2.35-.09-4.6,0-6.83a21.61,21.61,0,0,1,7.31-15.61c6.88-6.2,15.19-5,20,2.91.86,1.4,1.61,2.86,2.56,4.57A38.78,38.78,0,0,1-.83-29.28c2.88-.88,5.76-2.13,8.7-2.35,9.3-.71,16.41,7.41,14.86,16.8a74.51,74.51,0,0,1-2.49,8.62c1.27.79,2.66,1.62,4,2.5C31.5,1,33.35,7.88,29.41,15.56A21.75,21.75,0,0,1,16.22,26.67l-6.5,2.15c3.25,3.5,6.2,6.47,8.9,9.66s5.06,6.42,7.47,9.72S31,55.1,33.34,58.65s4.29,7,6.35,10.49,4.08,7.23,6.53,11.6a24.81,24.81,0,0,0,1-3c4.26-26.25,18.81-45.1,41.65-58,6-3.36,11.4-.39,13.32,6.5,6.61,23.68,1,44.91-12.51,64.61a148.26,148.26,0,0,1-9.44,12.21c-5.13,6-10.9,11.34-18.59,14.44.38,1.45.58,2.61,1,3.7,1.28,3.4,2.76,6.73,3.9,10.18a17.33,17.33,0,0,1,.88,5.76,4.71,4.71,0,0,1-3.37,4.42,4.32,4.32,0,0,1-5-1.34,26.74,26.74,0,0,1-3.83-6.08c-2.82-6.36-5.41-12.83-8.1-19.25-2-4.66-2-4.67-7-4.6-22.74.33-43.34-6-61.42-19.94-7.54-5.79-13.7-12.83-17.43-21.74-2-4.69-3-9.54-2.18-14.63s2.74-7,7.85-7.92c4.18-.74,8.34-1.55,12.53-2.21,6.57-1.05,13-.06,19.25,1.95C3.12,47.18,7.39,48.62,12,49.7A101.12,101.12,0,0,0-1.82,33.25,14.77,14.77,0,0,0-3.6,34.54c-8.23,8.71-18.53,10.24-29.68,8.33C-40.37,41.65-45.21,36-46,28.72a37.81,37.81,0,0,1,0-4.13,10.88,10.88,0,0,0-1.77-.84c-6.58-1.61-11.73-7.7-10.3-16.9,1.33-8.62,5.67-15.36,14.35-18.27C-41.08-12.31-38.12-12.23-34.54-12.7Zm61.2,108c-.74-.49-1.48-1-2.24-1.47L-7.3,74.39A17.18,17.18,0,0,1-11,71.76c-.7-.75-.83-2-1.21-3.07,1.08-.3,2.22-1,3.24-.81a19.28,19.28,0,0,1,5.16,1.64c11.52,5.37,23,10.81,34.5,16.22,1.28.6,2.58,1.16,3.87,1.73l.66-.78c-1.55-2.55-2.75-5.42-4.72-7.58-6.26-6.88-13.27-12.94-22.1-16.29C2.49,60.56-3.59,58.66-9.71,57c-6.71-1.83-13.34-.61-20.42,1,.75,2.09,1,3.8,1.91,5.12,2.48,3.77,4.78,7.8,7.91,11C-7.5,87.2,8.75,93.2,26.66,95.34ZM58.81,83.78Q64.44,71.39,70.06,59a22.45,22.45,0,0,1,1.81-3.64,6.14,6.14,0,0,1,11,5.25,19.66,19.66,0,0,1-1.3,2.89Q73.77,80.15,66,96.81a27,27,0,0,0-.8,2.91c1.35-1.22,1.94-1.66,2.43-2.2A113.38,113.38,0,0,0,87,69.13c4.83-10.37,7.22-21.19,4.84-32.65a25.22,25.22,0,0,0-1.33-3.55C71,44.75,60.73,61.73,58.81,83.78ZM-29.53,2.4c-1.09-.72-2.11-1.34-3.08-2-7-5-13-.5-14.87,6.15-1.23,4.29.91,6.71,5.16,5.54,3.14-.87,6-2.84,9.09-3.85C-30.41,7.28-29.36,5.61-29.53,2.4ZM-18.19-27C-25-23.31-26.09-14.87-21-8.49c1.92-.6,4.28-.78,4.94-3.19A18.13,18.13,0,0,0-18.19-27ZM-6.36,11.93C-6.57,7.64-7.75,4.78-10.72,3c-3.42-2.06-6.77-.28-7.13,3.69A9,9,0,0,0-15,14.45c1.65,1.54,3.74,2.67,5.71,1.38C-7.79,14.88-7,12.89-6.36,11.93ZM.76-4.65c7-4,9.84-8.57,8.73-13.6C4.18-19.17-1.22-15.18-3.81-8.16Zm-19,33.59-9.56-9a9.08,9.08,0,0,0-5.52,6c-.87,2.8.13,4.62,3,4.86C-26.36,31.06-22.29,31.11-18.27,28.94ZM6.88,17.56c2.37-1,4.59-1.88,6.67-3,3.6-1.91,5.72-5,4.87-6.79s-4.79-2.72-8.3-2.14c-2.34.38-3.39,1.54-3.27,4S6.88,14.36,6.88,17.56Z"/><path class="cls-5" d="M765.46-12.7c0-2.35-.09-4.6,0-6.83a21.61,21.61,0,0,1,7.31-15.61c6.88-6.2,15.19-5,20,2.91.86,1.4,1.61,2.86,2.56,4.57a38.78,38.78,0,0,1,3.82-1.62c2.88-.88,5.76-2.13,8.7-2.35,9.3-.71,16.41,7.41,14.86,16.8a74.51,74.51,0,0,1-2.49,8.62c1.27.79,2.66,1.62,4,2.5,7.25,4.72,9.1,11.59,5.16,19.27a21.75,21.75,0,0,1-13.19,11.11l-6.5,2.15c3.25,3.5,6.2,6.47,8.9,9.66s5.06,6.42,7.47,9.72,4.94,6.9,7.25,10.45,4.29,7,6.35,10.49,4.08,7.23,6.53,11.6a24.81,24.81,0,0,0,1-3c4.26-26.25,18.81-45.1,41.65-58,6-3.36,11.4-.39,13.32,6.5,6.61,23.68,1,44.91-12.51,64.61a148.26,148.26,0,0,1-9.44,12.21c-5.13,6-10.9,11.34-18.59,14.44.38,1.45.58,2.61,1,3.7,1.28,3.4,2.76,6.73,3.9,10.18a17.33,17.33,0,0,1,.88,5.76,4.71,4.71,0,0,1-3.37,4.42,4.32,4.32,0,0,1-5-1.34,26.74,26.74,0,0,1-3.83-6.08c-2.82-6.36-5.41-12.83-8.1-19.25-2-4.66-2-4.67-7-4.6-22.74.33-43.34-6-61.42-19.94-7.54-5.79-13.7-12.83-17.43-21.74-2-4.69-3-9.54-2.18-14.63s2.74-7,7.85-7.92c4.18-.74,8.34-1.55,12.53-2.21,6.57-1.05,13-.06,19.25,1.95,4.29,1.38,8.56,2.82,13.13,3.9a101.12,101.12,0,0,0-13.78-16.45,14.77,14.77,0,0,0-1.78,1.29c-8.23,8.71-18.53,10.24-29.68,8.33C759.63,41.65,754.79,36,754,28.72a37.81,37.81,0,0,1,0-4.13,10.88,10.88,0,0,0-1.77-.84c-6.58-1.61-11.73-7.7-10.3-16.9,1.33-8.62,5.67-15.36,14.35-18.27C758.92-12.31,761.88-12.23,765.46-12.7Zm61.2,108c-.74-.49-1.48-1-2.24-1.47L792.7,74.39A17.18,17.18,0,0,1,789,71.76c-.7-.75-.83-2-1.21-3.07,1.08-.3,2.22-1,3.24-.81a19.28,19.28,0,0,1,5.16,1.64c11.52,5.37,23,10.81,34.5,16.22,1.28.6,2.58,1.16,3.87,1.73l.66-.78c-1.55-2.55-2.75-5.42-4.72-7.58-6.26-6.88-13.27-12.94-22.1-16.29-5.93-2.26-12-4.16-18.13-5.83-6.71-1.83-13.34-.61-20.42,1,.75,2.09,1,3.8,1.91,5.12,2.48,3.77,4.78,7.8,7.91,11C792.5,87.2,808.75,93.2,826.66,95.34Zm32.15-11.56Q864.44,71.39,870.06,59a22.45,22.45,0,0,1,1.81-3.64,6.14,6.14,0,0,1,11,5.25,19.66,19.66,0,0,1-1.3,2.89q-7.8,16.65-15.6,33.31a27,27,0,0,0-.8,2.91c1.35-1.22,1.94-1.66,2.43-2.2A113.38,113.38,0,0,0,887,69.13c4.83-10.37,7.22-21.19,4.84-32.65a25.22,25.22,0,0,0-1.33-3.55C871,44.75,860.73,61.73,858.81,83.78ZM770.47,2.4c-1.09-.72-2.11-1.34-3.08-2-7-5-13-.5-14.87,6.15-1.23,4.29.91,6.71,5.16,5.54,3.14-.87,6-2.84,9.09-3.85C769.59,7.28,770.64,5.61,770.47,2.4ZM781.81-27C775-23.31,773.91-14.87,779-8.49c1.92-.6,4.28-.78,4.94-3.19A18.13,18.13,0,0,0,781.81-27Zm11.83,38.91c-.21-4.29-1.39-7.15-4.36-8.95-3.42-2.06-6.77-.28-7.13,3.69A9,9,0,0,0,785,14.45c1.65,1.54,3.74,2.67,5.71,1.38C792.21,14.88,793,12.89,793.64,11.93Zm7.12-16.58c7-4,9.84-8.57,8.73-13.6-5.31-.92-10.71,3.07-13.3,10.09Zm-19,33.59-9.56-9a9.08,9.08,0,0,0-5.52,6c-.87,2.8.13,4.62,3,4.86C773.64,31.06,777.71,31.11,781.73,28.94Zm25.15-11.38c2.37-1,4.59-1.88,6.67-3,3.6-1.91,5.72-5,4.87-6.79s-4.79-2.72-8.3-2.14c-2.34.38-3.39,1.54-3.27,4S806.88,14.36,806.88,17.56Z"/><path class="cls-5" d="M-34.54,787.3c0-2.35-.09-4.6,0-6.83a21.61,21.61,0,0,1,7.31-15.61c6.88-6.2,15.19-5,20,2.91.86,1.4,1.61,2.86,2.56,4.57a38.78,38.78,0,0,1,3.82-1.62c2.88-.88,5.76-2.13,8.7-2.35,9.3-.71,16.41,7.41,14.86,16.8a74.51,74.51,0,0,1-2.49,8.62c1.27.79,2.66,1.62,4,2.5,7.25,4.72,9.1,11.59,5.16,19.27a21.75,21.75,0,0,1-13.19,11.11l-6.5,2.15c3.25,3.5,6.2,6.47,8.9,9.66s5.06,6.42,7.47,9.72,4.94,6.9,7.25,10.45,4.29,7,6.35,10.49,4.08,7.23,6.53,11.6a24.81,24.81,0,0,0,1-3c4.26-26.25,18.81-45.1,41.65-58,6-3.36,11.4-.39,13.32,6.5,6.61,23.68,1,44.91-12.51,64.61a148.26,148.26,0,0,1-9.44,12.21c-5.13,6-10.9,11.34-18.59,14.44.38,1.45.58,2.61,1,3.7,1.28,3.4,2.76,6.73,3.9,10.18a17.33,17.33,0,0,1,.88,5.76,4.71,4.71,0,0,1-3.37,4.42,4.32,4.32,0,0,1-5-1.34,26.74,26.74,0,0,1-3.83-6.08c-2.82-6.36-5.41-12.83-8.1-19.25-2-4.66-2-4.67-7-4.6-22.74.33-43.34-6-61.42-19.94-7.54-5.79-13.7-12.83-17.43-21.74-2-4.69-3-9.54-2.18-14.63s2.74-7,7.85-7.92c4.18-.74,8.34-1.55,12.53-2.21,6.57-1.05,13-.06,19.25,1.95,4.29,1.38,8.56,2.82,13.13,3.9A101.12,101.12,0,0,0-1.82,833.25a14.77,14.77,0,0,0-1.78,1.29c-8.23,8.71-18.53,10.24-29.68,8.33-7.09-1.22-11.93-6.83-12.7-14.15a37.81,37.81,0,0,1,0-4.13,10.88,10.88,0,0,0-1.77-.84c-6.58-1.61-11.73-7.7-10.3-16.9,1.33-8.62,5.67-15.36,14.35-18.27C-41.08,787.69-38.12,787.77-34.54,787.3Zm61.2,108c-.74-.49-1.48-1-2.24-1.47L-7.3,874.39A17.18,17.18,0,0,1-11,871.76c-.7-.75-.83-2-1.21-3.07,1.08-.3,2.22-1,3.24-.81a19.28,19.28,0,0,1,5.16,1.64c11.52,5.37,23,10.81,34.5,16.22,1.28.6,2.58,1.16,3.87,1.73l.66-.78c-1.55-2.55-2.75-5.42-4.72-7.58-6.26-6.88-13.27-12.94-22.1-16.29-5.93-2.26-12-4.16-18.13-5.83-6.71-1.83-13.34-.61-20.42,1,.75,2.09,1,3.8,1.91,5.12,2.48,3.77,4.78,7.8,7.91,11C-7.5,887.2,8.75,893.2,26.66,895.34Zm32.15-11.56Q64.44,871.39,70.06,859a22.45,22.45,0,0,1,1.81-3.64,6.14,6.14,0,0,1,11,5.25,19.66,19.66,0,0,1-1.3,2.89q-7.8,16.65-15.6,33.31a27,27,0,0,0-.8,2.91c1.35-1.22,1.94-1.66,2.43-2.2A113.38,113.38,0,0,0,87,869.13c4.83-10.37,7.22-21.19,4.84-32.65a25.22,25.22,0,0,0-1.33-3.55C71,844.75,60.73,861.73,58.81,883.78ZM-29.53,802.4c-1.09-.72-2.11-1.34-3.08-2-7-5-13-.5-14.87,6.15-1.23,4.29.91,6.71,5.16,5.54,3.14-.87,6-2.84,9.09-3.85C-30.41,807.28-29.36,805.61-29.53,802.4ZM-18.19,773c-6.77,3.67-7.9,12.11-2.86,18.49,1.92-.6,4.28-.78,4.94-3.19A18.13,18.13,0,0,0-18.19,773Zm11.83,38.91c-.21-4.29-1.39-7.15-4.36-8.95-3.42-2.06-6.77-.28-7.13,3.69A9,9,0,0,0-15,814.45c1.65,1.54,3.74,2.67,5.71,1.38C-7.79,814.88-7,812.89-6.36,811.93ZM.76,795.35c7-4,9.84-8.57,8.73-13.6-5.31-.92-10.71,3.07-13.3,10.09Zm-19,33.59-9.56-9.05a9.08,9.08,0,0,0-5.52,6c-.87,2.8.13,4.62,3,4.86C-26.36,831.06-22.29,831.11-18.27,828.94ZM6.88,817.56c2.37-1,4.59-1.88,6.67-3,3.6-1.91,5.72-5,4.87-6.79s-4.79-2.72-8.3-2.14c-2.34.38-3.39,1.54-3.27,4S6.88,814.36,6.88,817.56Z"/><path class="cls-5" d="M765.46,787.3c0-2.35-.09-4.6,0-6.83a21.61,21.61,0,0,1,7.31-15.61c6.88-6.2,15.19-5,20,2.91.86,1.4,1.61,2.86,2.56,4.57a38.78,38.78,0,0,1,3.82-1.62c2.88-.88,5.76-2.13,8.7-2.35,9.3-.71,16.41,7.41,14.86,16.8a74.51,74.51,0,0,1-2.49,8.62c1.27.79,2.66,1.62,4,2.5,7.25,4.72,9.1,11.59,5.16,19.27a21.75,21.75,0,0,1-13.19,11.11l-6.5,2.15c3.25,3.5,6.2,6.47,8.9,9.66s5.06,6.42,7.47,9.72,4.94,6.9,7.25,10.45,4.29,7,6.35,10.49,4.08,7.23,6.53,11.6a24.81,24.81,0,0,0,1-3c4.26-26.25,18.81-45.1,41.65-58,6-3.36,11.4-.39,13.32,6.5,6.61,23.68,1,44.91-12.51,64.61a148.26,148.26,0,0,1-9.44,12.21c-5.13,6-10.9,11.34-18.59,14.44.38,1.45.58,2.61,1,3.7,1.28,3.4,2.76,6.73,3.9,10.18a17.33,17.33,0,0,1,.88,5.76,4.71,4.71,0,0,1-3.37,4.42,4.32,4.32,0,0,1-5-1.34,26.74,26.74,0,0,1-3.83-6.08c-2.82-6.36-5.41-12.83-8.1-19.25-2-4.66-2-4.67-7-4.6-22.74.33-43.34-6-61.42-19.94-7.54-5.79-13.7-12.83-17.43-21.74-2-4.69-3-9.54-2.18-14.63s2.74-7,7.85-7.92c4.18-.74,8.34-1.55,12.53-2.21,6.57-1.05,13-.06,19.25,1.95,4.29,1.38,8.56,2.82,13.13,3.9a101.12,101.12,0,0,0-13.78-16.45,14.77,14.77,0,0,0-1.78,1.29c-8.23,8.71-18.53,10.24-29.68,8.33-7.09-1.22-11.93-6.83-12.7-14.15a37.81,37.81,0,0,1,0-4.13,10.88,10.88,0,0,0-1.77-.84c-6.58-1.61-11.73-7.7-10.3-16.9,1.33-8.62,5.67-15.36,14.35-18.27C758.92,787.69,761.88,787.77,765.46,787.3Zm61.2,108c-.74-.49-1.48-1-2.24-1.47L792.7,874.39a17.18,17.18,0,0,1-3.68-2.63c-.7-.75-.83-2-1.21-3.07,1.08-.3,2.22-1,3.24-.81a19.28,19.28,0,0,1,5.16,1.64c11.52,5.37,23,10.81,34.5,16.22,1.28.6,2.58,1.16,3.87,1.73l.66-.78c-1.55-2.55-2.75-5.42-4.72-7.58-6.26-6.88-13.27-12.94-22.1-16.29-5.93-2.26-12-4.16-18.13-5.83-6.71-1.83-13.34-.61-20.42,1,.75,2.09,1,3.8,1.91,5.12,2.48,3.77,4.78,7.8,7.91,11C792.5,887.2,808.75,893.2,826.66,895.34Zm32.15-11.56q5.63-12.39,11.25-24.78a22.45,22.45,0,0,1,1.81-3.64,6.14,6.14,0,0,1,11,5.25,19.66,19.66,0,0,1-1.3,2.89q-7.8,16.65-15.6,33.31a27,27,0,0,0-.8,2.91c1.35-1.22,1.94-1.66,2.43-2.2A113.38,113.38,0,0,0,887,869.13c4.83-10.37,7.22-21.19,4.84-32.65a25.22,25.22,0,0,0-1.33-3.55C871,844.75,860.73,861.73,858.81,883.78ZM770.47,802.4c-1.09-.72-2.11-1.34-3.08-2-7-5-13-.5-14.87,6.15-1.23,4.29.91,6.71,5.16,5.54,3.14-.87,6-2.84,9.09-3.85C769.59,807.28,770.64,805.61,770.47,802.4ZM781.81,773c-6.77,3.67-7.9,12.11-2.86,18.49,1.92-.6,4.28-.78,4.94-3.19A18.13,18.13,0,0,0,781.81,773Zm11.83,38.91c-.21-4.29-1.39-7.15-4.36-8.95-3.42-2.06-6.77-.28-7.13,3.69a9,9,0,0,0,2.89,7.78c1.65,1.54,3.74,2.67,5.71,1.38C792.21,814.88,793,812.89,793.64,811.93Zm7.12-16.58c7-4,9.84-8.57,8.73-13.6-5.31-.92-10.71,3.07-13.3,10.09Zm-19,33.59-9.56-9.05a9.08,9.08,0,0,0-5.52,6c-.87,2.8.13,4.62,3,4.86C773.64,831.06,777.71,831.11,781.73,828.94Zm25.15-11.38c2.37-1,4.59-1.88,6.67-3,3.6-1.91,5.72-5,4.87-6.79s-4.79-2.72-8.3-2.14c-2.34.38-3.39,1.54-3.27,4S806.88,814.36,806.88,817.56Z"/><path class="cls-5" d="M-34.54,335.92c0-2.36-.09-4.6,0-6.84a21.63,21.63,0,0,1,7.31-15.61c6.88-6.2,15.19-5,20,2.91.86,1.4,1.61,2.86,2.56,4.57a41.35,41.35,0,0,1,3.82-1.62c2.88-.88,5.76-2.13,8.7-2.35,9.3-.7,16.41,7.41,14.86,16.8a75.22,75.22,0,0,1-2.49,8.63c1.27.79,2.66,1.62,4,2.5,7.25,4.72,9.1,11.59,5.16,19.26a21.73,21.73,0,0,1-13.19,11.12c-2,.63-3.92,1.3-6.5,2.15,3.25,3.5,6.2,6.47,8.9,9.66s5.06,6.41,7.47,9.71,4.94,6.9,7.25,10.46,4.29,7,6.35,10.49,4.08,7.22,6.53,11.6a24.76,24.76,0,0,0,1-3c4.26-26.24,18.81-45.09,41.65-58,6-3.36,11.4-.4,13.32,6.5,6.61,23.67,1,44.9-12.51,64.6a146.59,146.59,0,0,1-9.44,12.21c-5.13,6-10.9,11.35-18.59,14.45.38,1.44.58,2.61,1,3.69,1.28,3.41,2.76,6.74,3.9,10.18a17.37,17.37,0,0,1,.88,5.76,4.72,4.72,0,0,1-3.37,4.43,4.35,4.35,0,0,1-5-1.34,27,27,0,0,1-3.83-6.08c-2.82-6.37-5.41-12.83-8.1-19.26-2-4.65-2-4.67-7-4.59-22.74.33-43.34-6-61.42-20-7.54-5.79-13.7-12.83-17.43-21.74-2-4.69-3-9.53-2.18-14.63s2.74-7,7.85-7.92c4.18-.74,8.34-1.54,12.53-2.21,6.57-1,13-.06,19.25,2,4.29,1.37,8.56,2.82,13.13,3.89-3.89-6.09-8.7-11.3-13.78-16.44a14.93,14.93,0,0,0-1.78,1.28c-8.23,8.71-18.53,10.25-29.68,8.33-7.09-1.21-11.93-6.82-12.7-14.15a37.8,37.8,0,0,1,0-4.13,10.88,10.88,0,0,0-1.77-.84c-6.58-1.61-11.73-7.69-10.3-16.9,1.33-8.62,5.67-15.36,14.35-18.27C-41.08,336.31-38.12,336.38-34.54,335.92Zm61.2,108c-.74-.5-1.48-1-2.24-1.48Q8.56,432.75-7.3,423A17.18,17.18,0,0,1-11,420.37c-.7-.75-.83-2-1.21-3.07,1.08-.29,2.22-1,3.24-.81a19.3,19.3,0,0,1,5.16,1.65c11.52,5.36,23,10.8,34.5,16.21,1.28.6,2.58,1.16,3.87,1.74l.66-.79c-1.55-2.55-2.75-5.41-4.72-7.58-6.26-6.87-13.27-12.94-22.1-16.29-5.93-2.25-12-4.15-18.13-5.82-6.71-1.84-13.34-.61-20.42,1,.75,2.1,1,3.8,1.91,5.12,2.48,3.77,4.78,7.8,7.91,11C-7.5,435.81,8.75,441.81,26.66,444Zm32.15-11.57Q64.44,420,70.06,407.62A22.15,22.15,0,0,1,71.87,404a6.15,6.15,0,0,1,11,5.26,20.65,20.65,0,0,1-1.3,2.89q-7.8,16.65-15.6,33.3a26.7,26.7,0,0,0-.8,2.92c1.35-1.22,1.94-1.67,2.43-2.2A113.74,113.74,0,0,0,87,417.75c4.83-10.38,7.22-21.19,4.84-32.66a25.69,25.69,0,0,0-1.33-3.55C71,393.37,60.73,410.35,58.81,432.39ZM-29.53,351c-1.09-.72-2.11-1.34-3.08-2-7-5-13-.51-14.87,6.14-1.23,4.3.91,6.72,5.16,5.54,3.14-.86,6-2.84,9.09-3.85C-30.41,355.89-29.36,354.22-29.53,351Zm11.34-29.37c-6.77,3.66-7.9,12.11-2.86,18.48,1.92-.59,4.28-.78,4.94-3.18A18.12,18.12,0,0,0-18.19,321.64Zm11.83,38.91c-.21-4.3-1.39-7.16-4.36-8.95-3.42-2.07-6.77-.28-7.13,3.69A9,9,0,0,0-15,363.06c1.65,1.55,3.74,2.67,5.71,1.39C-7.79,363.5-7,361.5-6.36,360.55ZM.76,344c7-4,9.84-8.56,8.73-13.59-5.31-.92-10.71,3.06-13.3,10.09Zm-19,33.59-9.56-9a9.06,9.06,0,0,0-5.52,6c-.87,2.8.13,4.61,3,4.85C-26.36,379.67-22.29,379.73-18.27,377.55ZM6.88,366.18c2.37-1.05,4.59-1.88,6.67-3,3.6-1.92,5.72-5,4.87-6.8s-4.79-2.71-8.3-2.14c-2.34.39-3.39,1.54-3.27,4S6.88,363,6.88,366.18Z"/><path class="cls-5" d="M765.46,335.92c0-2.36-.09-4.6,0-6.84a21.63,21.63,0,0,1,7.31-15.61c6.88-6.2,15.19-5,20,2.91.86,1.4,1.61,2.86,2.56,4.57a41.35,41.35,0,0,1,3.82-1.62c2.88-.88,5.76-2.13,8.7-2.35,9.3-.7,16.41,7.41,14.86,16.8a75.22,75.22,0,0,1-2.49,8.63c1.27.79,2.66,1.62,4,2.5,7.25,4.72,9.1,11.59,5.16,19.26a21.73,21.73,0,0,1-13.19,11.12c-2,.63-3.92,1.3-6.5,2.15,3.25,3.5,6.2,6.47,8.9,9.66s5.06,6.41,7.47,9.71,4.94,6.9,7.25,10.46,4.29,7,6.35,10.49,4.08,7.22,6.53,11.6a24.76,24.76,0,0,0,1-3c4.26-26.24,18.81-45.09,41.65-58,6-3.36,11.4-.4,13.32,6.5,6.61,23.67,1,44.9-12.51,64.6a146.59,146.59,0,0,1-9.44,12.21c-5.13,6-10.9,11.35-18.59,14.45.38,1.44.58,2.61,1,3.69,1.28,3.41,2.76,6.74,3.9,10.18a17.37,17.37,0,0,1,.88,5.76,4.72,4.72,0,0,1-3.37,4.43,4.35,4.35,0,0,1-5-1.34,27,27,0,0,1-3.83-6.08c-2.82-6.37-5.41-12.83-8.1-19.26-2-4.65-2-4.67-7-4.59-22.74.33-43.34-6-61.42-20-7.54-5.79-13.7-12.83-17.43-21.74-2-4.69-3-9.53-2.18-14.63s2.74-7,7.85-7.92c4.18-.74,8.34-1.54,12.53-2.21,6.57-1,13-.06,19.25,2,4.29,1.37,8.56,2.82,13.13,3.89-3.89-6.09-8.7-11.3-13.78-16.44a14.93,14.93,0,0,0-1.78,1.28c-8.23,8.71-18.53,10.25-29.68,8.33-7.09-1.21-11.93-6.82-12.7-14.15a37.8,37.8,0,0,1,0-4.13,10.88,10.88,0,0,0-1.77-.84c-6.58-1.61-11.73-7.69-10.3-16.9,1.33-8.62,5.67-15.36,14.35-18.27C758.92,336.31,761.88,336.38,765.46,335.92Zm61.2,108c-.74-.5-1.48-1-2.24-1.48Q808.57,432.75,792.7,423a17.18,17.18,0,0,1-3.68-2.63c-.7-.75-.83-2-1.21-3.07,1.08-.29,2.22-1,3.24-.81a19.3,19.3,0,0,1,5.16,1.65c11.52,5.36,23,10.8,34.5,16.21,1.28.6,2.58,1.16,3.87,1.74l.66-.79c-1.55-2.55-2.75-5.41-4.72-7.58-6.26-6.87-13.27-12.94-22.1-16.29-5.93-2.25-12-4.15-18.13-5.82-6.71-1.84-13.34-.61-20.42,1,.75,2.1,1,3.8,1.91,5.12,2.48,3.77,4.78,7.8,7.91,11C792.5,435.81,808.75,441.81,826.66,444Zm32.15-11.57q5.63-12.39,11.25-24.77a22.15,22.15,0,0,1,1.81-3.65,6.15,6.15,0,0,1,11,5.26,20.65,20.65,0,0,1-1.3,2.89q-7.8,16.65-15.6,33.3a26.7,26.7,0,0,0-.8,2.92c1.35-1.22,1.94-1.67,2.43-2.2A113.74,113.74,0,0,0,887,417.75c4.83-10.38,7.22-21.19,4.84-32.66a25.69,25.69,0,0,0-1.33-3.55C871,393.37,860.73,410.35,858.81,432.39ZM770.47,351c-1.09-.72-2.11-1.34-3.08-2-7-5-13-.51-14.87,6.14-1.23,4.3.91,6.72,5.16,5.54,3.14-.86,6-2.84,9.09-3.85C769.59,355.89,770.64,354.22,770.47,351Zm11.34-29.37c-6.77,3.66-7.9,12.11-2.86,18.48,1.92-.59,4.28-.78,4.94-3.18A18.12,18.12,0,0,0,781.81,321.64Zm11.83,38.91c-.21-4.3-1.39-7.16-4.36-8.95-3.42-2.07-6.77-.28-7.13,3.69a9,9,0,0,0,2.89,7.77c1.65,1.55,3.74,2.67,5.71,1.39C792.21,363.5,793,361.5,793.64,360.55ZM800.76,344c7-4,9.84-8.56,8.73-13.59-5.31-.92-10.71,3.06-13.3,10.09Zm-19,33.59-9.56-9a9.06,9.06,0,0,0-5.52,6c-.87,2.8.13,4.61,3,4.85C773.64,379.67,777.71,379.73,781.73,377.55Zm25.15-11.37c2.37-1.05,4.59-1.88,6.67-3,3.6-1.92,5.72-5,4.87-6.8s-4.79-2.71-8.3-2.14c-2.34.39-3.39,1.54-3.27,4S806.88,363,806.88,366.18Z"/><path class="cls-5" d="M449,276.2c0-2.36-.09-4.6,0-6.84a21.62,21.62,0,0,1,7.3-15.61c6.88-6.2,15.19-5,20,2.91.86,1.4,1.61,2.86,2.57,4.57a37.67,37.67,0,0,1,3.81-1.62c2.88-.88,5.76-2.13,8.7-2.35,9.3-.7,16.41,7.41,14.86,16.8a77.14,77.14,0,0,1-2.48,8.63c1.27.79,2.65,1.62,4,2.5,7.25,4.72,9.1,11.59,5.16,19.26a21.74,21.74,0,0,1-13.18,11.12c-2,.63-3.93,1.29-6.5,2.15,3.24,3.5,6.19,6.46,8.89,9.65s5.06,6.42,7.47,9.72,4.94,6.9,7.25,10.46,4.29,6.95,6.35,10.48,4.08,7.23,6.54,11.61a24.12,24.12,0,0,0,1-3c4.27-26.24,18.81-45.09,41.66-58,6-3.37,11.39-.4,13.32,6.5,6.6,23.67,1,44.9-12.51,64.6A148.87,148.87,0,0,1,563.77,392c-5.12,6-10.9,11.35-18.59,14.45.38,1.44.59,2.6,1,3.69,1.28,3.4,2.76,6.73,3.9,10.18A17.38,17.38,0,0,1,551,426a4.73,4.73,0,0,1-3.38,4.43,4.35,4.35,0,0,1-5-1.34,27,27,0,0,1-3.83-6.08c-2.82-6.37-5.41-12.83-8.1-19.26-2-4.65-2-4.67-7-4.59-22.74.33-43.34-6-61.42-19.95-7.54-5.79-13.69-12.83-17.43-21.74-2-4.69-3-9.53-2.18-14.63s2.74-7,7.86-7.92c4.17-.74,8.33-1.54,12.52-2.21,6.58-1.05,13-.06,19.25,2,4.3,1.37,8.57,2.82,13.14,3.89a101.56,101.56,0,0,0-13.78-16.44,13.41,13.41,0,0,0-1.78,1.28c-8.24,8.71-18.54,10.25-29.68,8.33-7.09-1.21-11.93-6.82-12.71-14.15a40.49,40.49,0,0,1,0-4.13,10.88,10.88,0,0,0-1.77-.84c-6.57-1.61-11.72-7.69-10.3-16.9,1.34-8.62,5.67-15.36,14.35-18.27C442.41,276.59,445.38,276.66,449,276.2Zm61.21,108c-.75-.5-1.48-1-2.24-1.48q-15.87-9.74-31.73-19.48a17.18,17.18,0,0,1-3.68-2.63c-.7-.75-.83-2-1.21-3.07,1.08-.3,2.23-1,3.24-.81a19.37,19.37,0,0,1,5.17,1.65c11.52,5.36,23,10.8,34.5,16.21,1.27.6,2.57,1.16,3.86,1.74l.66-.79C517.18,373,516,370.17,514,368c-6.26-6.87-13.27-12.94-22.09-16.29-5.93-2.25-12-4.15-18.14-5.82-6.71-1.84-13.34-.61-20.42,1,.75,2.09,1,3.8,1.91,5.12,2.49,3.77,4.79,7.8,7.91,11C476,376.09,492.24,382.09,510.16,384.24Zm32.14-11.57,11.25-24.77a22.15,22.15,0,0,1,1.81-3.65,6.15,6.15,0,0,1,11,5.26,20.65,20.65,0,0,1-1.3,2.89q-7.8,16.65-15.59,33.3a22.82,22.82,0,0,0-.8,2.91c1.35-1.21,1.93-1.66,2.42-2.19A113.74,113.74,0,0,0,570.5,358c4.83-10.38,7.22-21.19,4.85-32.66a27.29,27.29,0,0,0-1.34-3.55C554.46,333.65,544.22,350.63,542.3,372.67ZM454,291.29c-1.09-.72-2.11-1.34-3.08-2-7-5-13-.51-14.87,6.14-1.23,4.3.92,6.72,5.16,5.54,3.15-.86,6-2.84,9.09-3.85C453.08,296.17,454.13,294.5,454,291.29Zm11.35-29.37c-6.78,3.66-7.9,12.11-2.86,18.48,1.91-.59,4.27-.78,4.93-3.18C468.81,272,468.49,266.9,465.31,261.92Zm11.82,38.91c-.21-4.3-1.39-7.16-4.36-8.95-3.42-2.07-6.77-.28-7.13,3.69a9,9,0,0,0,2.89,7.77c1.66,1.55,3.74,2.67,5.72,1.39C475.7,303.78,476.47,301.78,477.13,300.83Zm7.13-16.59c7-4,9.84-8.57,8.72-13.6-5.31-.91-10.71,3.07-13.3,10.1Zm-19,33.59c-3.37-3.18-6.4-6-9.56-9a9.07,9.07,0,0,0-5.53,6c-.86,2.8.14,4.61,3,4.85C457.13,320,461.21,320,465.23,317.83Zm25.14-11.37c2.37-1,4.6-1.88,6.68-3,3.6-1.92,5.72-5,4.87-6.8s-4.79-2.71-8.3-2.14c-2.35.38-3.4,1.54-3.27,4S490.37,303.26,490.37,306.46Z"/><path class="cls-5" d="M209,488.2c0-2.36-.09-4.6,0-6.84a21.62,21.62,0,0,1,7.3-15.61c6.88-6.2,15.19-5,20,2.91.86,1.4,1.61,2.86,2.57,4.57a37.67,37.67,0,0,1,3.81-1.62c2.88-.88,5.76-2.13,8.7-2.35,9.3-.7,16.41,7.41,14.86,16.8a77.14,77.14,0,0,1-2.48,8.63c1.27.79,2.65,1.62,4,2.5,7.25,4.72,9.1,11.59,5.16,19.26a21.74,21.74,0,0,1-13.18,11.12c-2,.63-3.93,1.29-6.5,2.15,3.24,3.5,6.19,6.46,8.89,9.65s5.06,6.42,7.47,9.72,4.94,6.9,7.25,10.46,4.29,7,6.35,10.48,4.08,7.23,6.54,11.61a24.12,24.12,0,0,0,1-3c4.27-26.24,18.81-45.09,41.66-58,6-3.37,11.39-.4,13.32,6.5,6.6,23.67,1,44.9-12.51,64.6A148.87,148.87,0,0,1,323.77,604c-5.12,6-10.9,11.35-18.59,14.45.38,1.44.59,2.6,1,3.69,1.28,3.4,2.76,6.73,3.9,10.18A17.38,17.38,0,0,1,311,638a4.73,4.73,0,0,1-3.38,4.43,4.35,4.35,0,0,1-5-1.34,27,27,0,0,1-3.83-6.08c-2.82-6.37-5.41-12.83-8.1-19.26-1.95-4.65-1.95-4.67-7-4.59-22.74.33-43.34-6-61.42-20-7.54-5.79-13.69-12.83-17.43-21.74-2-4.69-3-9.53-2.18-14.63s2.74-7,7.86-7.92c4.17-.74,8.33-1.54,12.52-2.21,6.58-1,13-.06,19.25,2,4.3,1.37,8.57,2.82,13.14,3.89a101.56,101.56,0,0,0-13.78-16.44,13.41,13.41,0,0,0-1.78,1.28c-8.24,8.71-18.54,10.25-29.68,8.33-7.09-1.21-11.93-6.82-12.71-14.15a40.49,40.49,0,0,1,0-4.13,10.88,10.88,0,0,0-1.77-.84c-6.57-1.61-11.72-7.69-10.3-16.9,1.34-8.62,5.67-15.36,14.35-18.27C202.41,488.59,205.38,488.66,209,488.2Zm61.21,108c-.75-.5-1.48-1-2.24-1.48Q252,585,236.19,575.28a17.18,17.18,0,0,1-3.68-2.63c-.7-.75-.83-2-1.21-3.07,1.08-.3,2.23-1,3.24-.81a19.37,19.37,0,0,1,5.17,1.65c11.52,5.36,23,10.8,34.5,16.21,1.27.6,2.57,1.16,3.86,1.74l.66-.79C277.18,585,276,582.17,274,580c-6.26-6.87-13.27-12.94-22.09-16.29-5.93-2.25-12-4.15-18.14-5.82-6.71-1.84-13.34-.61-20.42,1,.75,2.09,1,3.8,1.91,5.12,2.49,3.77,4.79,7.8,7.91,11C236,588.09,252.24,594.09,270.16,596.24Zm32.14-11.57,11.25-24.77a22.15,22.15,0,0,1,1.81-3.65,6.15,6.15,0,0,1,11,5.26,20.65,20.65,0,0,1-1.3,2.89q-7.8,16.65-15.59,33.3a22.82,22.82,0,0,0-.8,2.91c1.35-1.21,1.93-1.66,2.42-2.19A113.74,113.74,0,0,0,330.5,570c4.83-10.38,7.22-21.19,4.85-32.66a27.29,27.29,0,0,0-1.34-3.55C314.46,545.65,304.22,562.63,302.3,584.67ZM214,503.29c-1.09-.72-2.11-1.34-3.08-2-7-5-13-.51-14.87,6.14-1.23,4.3.92,6.72,5.16,5.54,3.15-.86,6-2.84,9.09-3.85C213.08,508.17,214.13,506.5,214,503.29Zm11.35-29.37c-6.78,3.66-7.9,12.11-2.86,18.48,1.91-.59,4.27-.78,4.93-3.18C228.81,484,228.49,478.9,225.31,473.92Zm11.82,38.91c-.21-4.3-1.39-7.16-4.36-9-3.42-2.07-6.77-.28-7.13,3.69a9,9,0,0,0,2.89,7.77c1.66,1.55,3.74,2.67,5.72,1.39C235.7,515.78,236.47,513.78,237.13,512.83Zm7.13-16.59c7-4,9.84-8.57,8.72-13.6-5.31-.91-10.71,3.07-13.3,10.1Zm-19,33.59c-3.37-3.18-6.4-6-9.56-9a9.07,9.07,0,0,0-5.53,6c-.86,2.8.14,4.61,3,4.85C217.13,532,221.21,532,225.23,529.83Zm25.14-11.37c2.37-1.05,4.6-1.88,6.68-3,3.6-1.92,5.72-5,4.87-6.8s-4.79-2.71-8.3-2.14c-2.35.38-3.4,1.54-3.27,4S250.37,515.26,250.37,518.46Z"/></g></g></svg>