<svg id="Layer_1" data-name="Layer 1" xmlns="http://www.w3.org/2000/svg" xmlns:xlink="http://www.w3.org/1999/xlink" viewBox="0 0 800 800"><defs><style>.cls-1{fill:none;}.cls-2{fill:#e2c9b5;}.cls-3{clip-path:url(#clip-path);}.cls-4{fill:#7c5b45;}</style><clipPath id="clip-path"><rect class="cls-1" width="800" height="800"/></clipPath></defs><title>Artboard 1 copy 7</title><rect class="cls-2" width="800" height="800"/><g class="cls-3"><path class="cls-4" d="M425.29,50.3c14.62-4.67,24.26-14.83,30.78-28.31,1.86-3.86.91-7.4-1.74-10.63-6.09-7.42-15.92-10-25.69-6.85-2.35.77-4.46,2.36-7.32,2.39-.47-1.9-.85-3.67-1.34-5.4-2.06-7.3-6-13.19-12.86-16.83a14.46,14.46,0,0,0-14.57.13c-6.82,3.73-10.71,9.64-12.7,17-.48,1.73-.42,3.63-1.76,5.16-2.56-.24-4.71-1.74-7.11-2.5-9.39-3-17.61-1.09-24.49,6-4.29,4.4-4.65,7.81-1.87,13.35a54.33,54.33,0,0,0,18,20.81c10.29,7,21.58,9.35,33.74,6.15a13.33,13.33,0,0,1,7.41.09A36.65,36.65,0,0,0,425.29,50.3Zm-18.61-5.95a45.23,45.23,0,0,0-12.46-.09c-17.43,2.7-30.3-4.77-40.57-18.07-1.22-1.58-2.27-3.29-3.34-5-2.24-3.54-2.15-4.49,1-7.39,4.38-4,9.6-5,15.25-3.76a30.06,30.06,0,0,1,15.37,8.81,15.19,15.19,0,0,0,9.47,4.76c-2-2.67-3.65-4.4-4.64-6.46-4.45-9.27-.15-22,8.83-27.1a8,8,0,0,1,8.69,0A20.91,20.91,0,0,1,409.9,21.5a16.2,16.2,0,0,0-1.14,2.05A14.5,14.5,0,0,0,418,18.83a29.77,29.77,0,0,1,15.39-8.77c6.28-1.31,11.91,0,16.36,5a4,4,0,0,1,.45,5.36A56.82,56.82,0,0,1,431.4,39.81C423.79,44.5,415.38,45.39,406.68,44.35Z"/><path class="cls-4" d="M373.07,56.57c-13.61-3.54-25.12-10.38-33.4-22-1-1.43-1.91-3.39-4.22-2.59-2,.69-2.35,2.62-2.7,4.42a28.65,28.65,0,0,0,1.93,18.1,68,68,0,0,0,10.42,15.9,155.42,155.42,0,0,0,18.6,17.59,61.66,61.66,0,0,1,15.82,19.24c1.49,2.9,2.93,5.86,4.7,8.6,2.47,3.84,6.28,3.62,8.6-.34a11.35,11.35,0,0,0,1.37-5.23c.16-3.08.31-6.17.4-8,.18-13.45-2.11-25.06-8.45-35.71A20.61,20.61,0,0,0,373.07,56.57ZM388,106.2c0,.27-.41.53-.73.91-1.81-.81-2.23-2.71-3-4.21a63.84,63.84,0,0,0-14.73-18.05c-6.48-5.56-13-11.08-18.71-17.47a57.86,57.86,0,0,1-10.87-16.86c-1.13-2.8-2.3-5.68-1.4-8.75a1.31,1.31,0,0,1,1.61.6c7.19,9.57,17.22,15.21,28.27,18.48,9.79,2.9,14.62,9.31,17.38,18.35C388.46,88.06,388.51,97.1,388,106.2Z"/><path class="cls-4" d="M464.34,31.89c-2-.64-2.88,1-3.87,2.28-.77,1-1.66,1.93-2.42,2.95a47.42,47.42,0,0,1-17.11,14.05,71.89,71.89,0,0,1-14.74,5.62,19.28,19.28,0,0,0-11.91,8.87c-6.72,10.69-9.07,22.44-8.89,35.43.28,3.78-.24,8.19.89,12.45.62,2.38,2,4.42,4.6,4.89,2.86.52,4.24-1.52,5.42-3.66q.53-1,1-2a74.67,74.67,0,0,1,21.85-27.46,113.87,113.87,0,0,0,16.43-15.91,61.74,61.74,0,0,0,10.3-16.61A27.8,27.8,0,0,0,467,35.72C466.63,34.07,466.08,32.44,464.34,31.89ZM460,50.64a55.66,55.66,0,0,1-9.82,15.61,140.21,140.21,0,0,1-16.52,15.81c-7.64,6.33-14.29,13.43-18.78,22.39-.47.94-.87,2-2.4,2.4-1.59-3.8-.85-7.81-.76-11.66.22-8.8,1.83-17.31,6.46-25a16.6,16.6,0,0,1,9.92-8,63,63,0,0,0,11.68-4.51c7.95-4.1,15.66-8.5,21.32-17.36C462.27,44.91,461.11,47.81,460,50.64Z"/><path class="cls-4" d="M331.51,18.32a31.41,31.41,0,0,0-2.42-2.17c-6.12-5.88-11-12.56-13.16-20.91-1.54-5.94-1.22-6.54,4.2-9.63,6.36-3.63,8.78-12,5.53-19-2.89-6.27-9.37-8.82-16.51-6.5a19.06,19.06,0,0,0-10.4,7.48A31.77,31.77,0,0,0,293-15.73c-.13,17.8,13.3,34.39,29.57,37.69a20.11,20.11,0,0,0,7.57.26C332.52,21.8,333.06,20.18,331.51,18.32Zm-12.27-4c-1.35,1-2.44,0-3.45-.6C307.34,8.75,301.25,2,298.74-7.8c-2-7.81-.17-14.69,4.12-21.15a14.24,14.24,0,0,1,8.84-5.9c4.7-1.15,8.7,1.88,9.21,6.74s-3.17,9.71-7.32,9.93c-1.89.1-2.64-1.07-2.62-2.71,0-2.09.28-4.18.52-7.4-5.53,5.63-6.05,9.17-2.69,14.16A6.11,6.11,0,0,1,310-10.65c0,8.7,3.18,16.25,8.5,23a7.18,7.18,0,0,1,.72,1.44A1.53,1.53,0,0,1,319.24,14.32Z"/><path class="cls-4" d="M500.47-33.43A19.72,19.72,0,0,0,488-40.63a12.48,12.48,0,0,0-14.42,8.79c-2.46,7.51.44,14.84,7.75,18.09,3.05,1.35,3.64,3.13,3.12,5.89a40.5,40.5,0,0,1-1.17,5.29c-2.38,7.24-6.79,13.17-12.19,18.42-.65.63-1.38,1.18-2.06,1.78-1,.87-2,1.89-1.35,3.25s2,1.44,3.28,1.5a26,26,0,0,0,7-.56c15.86-3.63,28.84-19.73,29-36A34.23,34.23,0,0,0,500.47-33.43ZM485.17,13.1a22.59,22.59,0,0,1-3.41,1.61c-.26.11-.66-.16-1-.26-.47-1.49.8-2.25,1.48-3.18C486.88,5,489.72-1.94,489.8-9.84a8,8,0,0,1,1.82-4.91c3-4.15,1.9-9-2.72-12.6-1.15,2,.27,3.87.14,5.75-.24,3.3-1.55,4.16-4.62,2.82a9,9,0,0,1-4.84-11.79c1.76-4.15,6.14-5.54,11-3.47,7.89,3.33,12.92,14.65,11,24.5C499.55.51,493.74,7.81,485.17,13.1Z"/><path class="cls-4" d="M344,5.73a10.17,10.17,0,0,0,1.49-2.26c4.55-8.65,12.63-10.76,21-11.74,3.13.66,5.67.69,6.57-2.61,2-7.45,7.24-12.37,13-17,4.07-3.28,4.12-5.65.58-9.34a13.14,13.14,0,0,0-6.6-3.59,26.43,26.43,0,0,0-19.51,2.54A41.93,41.93,0,0,0,347.86-28c-6.33,7.77-10.69,16.38-10.75,26.72a9.92,9.92,0,0,0,2.64,6.93C341.12,7.2,342.59,7.17,344,5.73Zm0-13.84c3.5-10.54,9.51-19,19.69-24.14a21.84,21.84,0,0,1,14.8-1.59c1,.21,2.25.58,2.51,1.78.3,1.35-1,1.76-1.87,2.32a27.5,27.5,0,0,0-9.89,12,4.24,4.24,0,0,1-3.5,2.94,38.44,38.44,0,0,0-20.52,9.16c-.22.2-.68.12-1,.17A3,3,0,0,1,344-8.11Z"/><path class="cls-4" d="M415.3-38.78c-5.54,3.5-5.81,7.42-.82,11.4C420-23,424.8-18.23,426.79-11.22c.77,2.73,2.59,3.27,5.38,3.27,9.36,0,17.53,2.67,22.36,11.6a9.58,9.58,0,0,0,1.17,1.82c1.49,1.66,3,1.81,4.58,0a9.52,9.52,0,0,0,2.46-7.14c.09-8.66-4.33-19.42-11.2-26.93-5.73-6.26-12.29-11.34-21-12.71C425.21-42.11,420-41.72,415.3-38.78ZM456.21-6.41A6.52,6.52,0,0,1,456-4.49h0a37.5,37.5,0,0,0-21.16-10.25,4.65,4.65,0,0,1-4.08-3,28,28,0,0,0-10.33-12.33c-2.21-1.49-2-2.84.58-3.6a20.63,20.63,0,0,1,11.29-.12C443.07-30.93,454.7-17.61,456.21-6.41Z"/><path class="cls-4" d="M25,452.6c14.61-4.66,24.26-14.83,30.77-28.31,1.87-3.86.92-7.39-1.74-10.63-6.08-7.42-15.91-10-25.69-6.84-2.34.76-4.45,2.36-7.31,2.38-.47-1.9-.85-3.66-1.34-5.39-2.07-7.3-6-13.19-12.86-16.83a14.48,14.48,0,0,0-14.58.12c-6.81,3.73-10.7,9.64-12.7,17-.47,1.73-.41,3.64-1.75,5.16-2.56-.23-4.71-1.74-7.11-2.5-9.39-3-17.61-1.09-24.5,6-4.28,4.39-4.65,7.81-1.86,13.35a54.23,54.23,0,0,0,18,20.8C-27.33,453.89-16,456.2-3.89,453a13.28,13.28,0,0,1,7.42.09A36.73,36.73,0,0,0,25,452.6Zm-18.61-6A45.22,45.22,0,0,0-6,446.57c-17.43,2.7-30.3-4.78-40.57-18.08-1.22-1.58-2.27-3.29-3.34-5-2.25-3.54-2.15-4.48,1-7.38,4.38-4,9.6-5,15.24-3.76a30.1,30.1,0,0,1,15.38,8.8,15.25,15.25,0,0,0,9.47,4.77c-2-2.67-3.65-4.4-4.64-6.47-4.45-9.26-.15-22,8.83-27.09a8,8,0,0,1,8.69,0A20.9,20.9,0,0,1,9.64,423.8a17,17,0,0,0-1.14,2.05,14.47,14.47,0,0,0,9.22-4.71,29.79,29.79,0,0,1,15.39-8.78c6.28-1.3,11.91,0,16.35,5a4,4,0,0,1,.46,5.36,56.85,56.85,0,0,1-18.78,19.42C23.53,446.8,15.11,447.7,6.42,446.65Z"/><path class="cls-4" d="M-39.66,356.66c11-5.88,21.49-4.17,31.26,2.66,5.74,4,10.73,3.74,16.35-.13,9.46-6.52,19.6-8.28,30.32-2.94,3.95,2,5.35,1.29,6.28-3.07a17.51,17.51,0,0,0,.29-3.24c.37-13.21-8.52-24.94-22-29-2.25-.69-5.05-.74-6.62-2.16-2-1.77-.12-4.83-.61-7A42.87,42.87,0,0,0,10.37,290a33.22,33.22,0,0,0-6.12-8.29c-3.57-3.44-5.67-3.44-9.24.13a31.76,31.76,0,0,0-3.8,4.62,43.15,43.15,0,0,0-7.54,24.07c-.05,2.69,1.25,5.81-.36,8s-5,1.72-7.54,2.56c-12.8,4.19-21.47,15.74-21.21,28.55a18.62,18.62,0,0,0,.64,4.83C-43.83,357.72-42.65,358.26-39.66,356.66Zm.33-10c2.26-10.95,9.93-18,21.72-20,.72-.12,1.45-.15,2.17-.25,5.83-.79,6.8-2.15,5.68-7.89-2.33-11.91,1.49-25.82,9.8-34.38,7.59,10.11,11,20.82,9.42,33-.09.71-.37,1.4-.49,2.12-.79,4.75.32,6.47,5,7a41.12,41.12,0,0,1,9.51,2.22c9.76,3.62,14.08,11.23,15.83,21.25-2.52.72-4.36-.3-6.07-1-11.6-4.58-21.76-1.1-31.18,5.66C0,356-1,355.78-2.89,354.28c-4.77-3.76-10.42-5.82-16.27-7.31a15.2,15.2,0,0,0-7.55.09c-4,1-8,2.07-12,3.09C-40.26,349.14-39.57,347.82-39.33,346.67Z"/><path class="cls-4" d="M64.07,434.19c-2-.63-2.88,1-3.87,2.28-.76,1-1.65,1.94-2.41,3a47.42,47.42,0,0,1-17.11,14.05,71.89,71.89,0,0,1-14.74,5.62A19.21,19.21,0,0,0,14,468C7.31,478.66,5,490.41,5.13,503.4c.29,3.78-.23,8.19.89,12.45.63,2.37,2,4.42,4.61,4.89,2.86.51,4.24-1.52,5.42-3.67.35-.63.68-1.28,1-1.94a74.78,74.78,0,0,1,21.85-27.47,112.77,112.77,0,0,0,16.42-15.91,61.47,61.47,0,0,0,10.31-16.6A27.81,27.81,0,0,0,66.74,438C66.37,436.37,65.82,434.75,64.07,434.19ZM59.7,452.94a55.69,55.69,0,0,1-9.83,15.61,139.52,139.52,0,0,1-16.52,15.82c-7.64,6.32-14.28,13.43-18.77,22.38-.47.95-.87,2-2.41,2.4-1.59-3.79-.85-7.8-.75-11.65.21-8.8,1.82-17.31,6.46-25a16.64,16.64,0,0,1,9.92-8A63.19,63.19,0,0,0,39.48,460c7.94-4.1,15.65-8.5,21.31-17.37C62,447.21,60.85,450.12,59.7,452.94Z"/><path class="cls-4" d="M100.2,368.87a19.68,19.68,0,0,0-12.44-7.19c-6.61-1.17-12.33,2.43-14.41,8.79-2.46,7.5.44,14.83,7.75,18.09,3.05,1.35,3.64,3.12,3.12,5.89A40.89,40.89,0,0,1,83,399.74c-2.37,7.24-6.78,13.17-12.18,18.42-.65.63-1.38,1.17-2.06,1.77-1,.87-2,1.89-1.36,3.26s2,1.44,3.29,1.5a25.9,25.9,0,0,0,7-.56c15.86-3.64,28.85-19.73,29-36A34.27,34.27,0,0,0,100.2,368.87ZM84.91,415.4A23.27,23.27,0,0,1,81.49,417c-.25.1-.65-.16-1-.27-.47-1.49.8-2.25,1.48-3.17,4.66-6.29,7.51-13.21,7.59-21.12a8.09,8.09,0,0,1,1.81-4.91c3-4.15,1.91-9-2.71-12.6-1.16,2,.27,3.88.13,5.75-.24,3.3-1.54,4.17-4.61,2.82a9,9,0,0,1-4.84-11.78c1.75-4.16,6.14-5.54,11-3.48,7.89,3.33,12.92,14.65,11,24.5C99.28,402.82,93.48,410.12,84.91,415.4Z"/><path class="cls-4" d="M15,363.53c-5.53,3.5-5.8,7.42-.81,11.4,5.48,4.38,10.32,9.14,12.31,16.15.77,2.74,2.59,3.28,5.37,3.28,9.36,0,17.54,2.67,22.37,11.59a9.65,9.65,0,0,0,1.17,1.83c1.49,1.66,3,1.81,4.58,0a9.48,9.48,0,0,0,2.46-7.13c.08-8.66-4.33-19.42-11.2-26.93-5.73-6.26-12.3-11.34-21-12.72C24.94,360.19,19.68,360.59,15,363.53ZM56,395.89a6.14,6.14,0,0,1-.27,1.92h0a37.63,37.63,0,0,0-21.16-10.25,4.66,4.66,0,0,1-4.09-3A27.85,27.85,0,0,0,20.1,372.24c-2.2-1.5-2-2.85.59-3.61A20.69,20.69,0,0,1,32,368.51C42.81,371.37,54.44,384.69,56,395.89Z"/><path class="cls-4" d="M825,452.6c14.61-4.66,24.26-14.83,30.77-28.31,1.87-3.86.92-7.39-1.74-10.63-6.08-7.42-15.91-10-25.69-6.84-2.34.76-4.45,2.36-7.31,2.38-.47-1.9-.85-3.66-1.34-5.39-2.07-7.3-6-13.19-12.86-16.83a14.48,14.48,0,0,0-14.58.12c-6.81,3.73-10.7,9.64-12.7,17-.47,1.73-.41,3.64-1.75,5.16-2.56-.23-4.71-1.74-7.11-2.5-9.39-3-17.61-1.09-24.5,6-4.28,4.39-4.65,7.81-1.86,13.35a54.23,54.23,0,0,0,18,20.8c10.29,7.05,21.58,9.36,33.73,6.16a13.28,13.28,0,0,1,7.42.09A36.73,36.73,0,0,0,825,452.6Zm-18.61-6a45.22,45.22,0,0,0-12.46-.08c-17.43,2.7-30.3-4.78-40.57-18.08-1.22-1.58-2.27-3.29-3.34-5-2.25-3.54-2.15-4.48,1-7.38,4.38-4,9.6-5,15.24-3.76a30.1,30.1,0,0,1,15.38,8.8,15.25,15.25,0,0,0,9.47,4.77c-1.95-2.67-3.65-4.4-4.64-6.47-4.45-9.26-.15-22,8.83-27.09a8,8,0,0,1,8.69,0,20.9,20.9,0,0,1,5.61,31.43,17,17,0,0,0-1.14,2.05,14.47,14.47,0,0,0,9.22-4.71,29.79,29.79,0,0,1,15.39-8.78c6.28-1.3,11.91,0,16.35,5a4,4,0,0,1,.46,5.36,56.85,56.85,0,0,1-18.78,19.42C823.53,446.8,815.11,447.7,806.42,446.65Z"/><path class="cls-4" d="M760.34,356.66c11-5.88,21.49-4.17,31.26,2.66,5.74,4,10.73,3.74,16.35-.13,9.46-6.52,19.6-8.28,30.32-2.94,4,2,5.35,1.29,6.28-3.07a17.51,17.51,0,0,0,.29-3.24c.37-13.21-8.52-24.94-22-29-2.25-.69-5.05-.74-6.62-2.16-2-1.77-.12-4.83-.61-7A42.87,42.87,0,0,0,810.37,290a33.22,33.22,0,0,0-6.12-8.29c-3.57-3.44-5.67-3.44-9.24.13a31.76,31.76,0,0,0-3.8,4.62,43.15,43.15,0,0,0-7.54,24.07c0,2.69,1.25,5.81-.36,8s-5,1.72-7.54,2.56c-12.8,4.19-21.47,15.74-21.21,28.55a18.62,18.62,0,0,0,.64,4.83C756.17,357.72,757.35,358.26,760.34,356.66Zm.33-10c2.26-10.95,9.93-18,21.72-20,.72-.12,1.45-.15,2.17-.25,5.83-.79,6.8-2.15,5.68-7.89-2.33-11.91,1.49-25.82,9.8-34.38,7.59,10.11,11,20.82,9.42,33-.09.71-.37,1.4-.49,2.12-.79,4.75.32,6.47,5,7a41.12,41.12,0,0,1,9.51,2.22c9.76,3.62,14.08,11.23,15.83,21.25-2.52.72-4.36-.3-6.07-1-11.6-4.58-21.76-1.1-31.18,5.66-2.13,1.53-3.09,1.33-5-.17-4.77-3.76-10.42-5.82-16.27-7.31a15.2,15.2,0,0,0-7.55.09c-4,1-8,2.07-12,3.09C759.74,349.14,760.43,347.82,760.67,346.67Z"/><path class="cls-4" d="M772.8,458.88c-13.61-3.55-25.11-10.39-33.4-22.06-1-1.43-1.9-3.39-4.22-2.58-2,.69-2.35,2.62-2.7,4.41a28.75,28.75,0,0,0,1.94,18.11,68.2,68.2,0,0,0,10.42,15.9,156.22,156.22,0,0,0,18.6,17.59,61.45,61.45,0,0,1,15.81,19.23c1.5,2.91,2.94,5.87,4.7,8.61,2.48,3.84,6.29,3.61,8.6-.35a11.2,11.2,0,0,0,1.38-5.22c.16-3.09.3-6.17.39-8,.18-13.46-2.1-25.06-8.44-35.71A20.57,20.57,0,0,0,772.8,458.88Zm14.9,49.62c0,.28-.42.53-.73.91-1.81-.81-2.23-2.71-3-4.2a63.43,63.43,0,0,0-14.74-18c-6.47-5.56-13-11.09-18.71-17.47a58,58,0,0,1-10.86-16.87c-1.13-2.79-2.3-5.68-1.4-8.74a1.3,1.3,0,0,1,1.6.59c7.2,9.57,17.23,15.22,28.28,18.49,9.79,2.89,14.62,9.3,17.38,18.35C788.19,490.37,788.25,499.4,787.7,508.5Z"/><path class="cls-4" d="M731.25,420.63a31.52,31.52,0,0,0-2.42-2.18c-6.12-5.87-11-12.56-13.16-20.9-1.54-5.94-1.22-6.54,4.2-9.63,6.35-3.63,8.78-12,5.52-19.05-2.88-6.28-9.36-8.82-16.5-6.51a19.16,19.16,0,0,0-10.4,7.48,31.93,31.93,0,0,0-5.79,16.74c-.12,17.79,13.31,34.39,29.58,37.69a20.32,20.32,0,0,0,7.57.25C732.26,424.1,732.79,422.49,731.25,420.63Zm-12.27-4c-1.35,1-2.44,0-3.45-.6-8.45-5-14.54-11.75-17-21.52-2-7.81-.18-14.69,4.11-21.15a14.26,14.26,0,0,1,8.85-5.91c4.7-1.14,8.69,1.88,9.21,6.75s-3.17,9.71-7.32,9.93c-1.89.1-2.64-1.08-2.62-2.71,0-2.09.28-4.18.52-7.4-5.53,5.62-6.06,9.17-2.7,14.16a5.94,5.94,0,0,1,1.21,3.48c0,8.69,3.19,16.25,8.5,23a6.42,6.42,0,0,1,.73,1.43A1.6,1.6,0,0,1,719,416.63Z"/><path class="cls-4" d="M743.69,408a9.87,9.87,0,0,0,1.5-2.26c4.55-8.66,12.63-10.77,21-11.74,3.12.65,5.67.68,6.56-2.61,2-7.45,7.25-12.37,13-17,4.08-3.27,4.12-5.65.58-9.34a13.22,13.22,0,0,0-6.59-3.59,26.42,26.42,0,0,0-19.51,2.55,41.94,41.94,0,0,0-12.59,10.26c-6.32,7.78-10.68,16.39-10.74,26.73a9.94,9.94,0,0,0,2.64,6.93C740.86,409.51,742.32,409.47,743.69,408Zm0-13.85c3.5-10.54,9.5-19,19.69-24.14a22,22,0,0,1,14.8-1.59c1,.22,2.25.58,2.51,1.79s-1,1.75-1.88,2.31a27.45,27.45,0,0,0-9.88,12,4.25,4.25,0,0,1-3.51,2.93,38.46,38.46,0,0,0-20.51,9.17c-.22.19-.68.11-1,.16A3,3,0,0,1,743.69,394.19Z"/><path class="cls-4" d="M425.29,452.6c14.62-4.66,24.26-14.83,30.78-28.31,1.86-3.86.91-7.39-1.74-10.63-6.09-7.42-15.92-10-25.69-6.84-2.35.76-4.46,2.36-7.32,2.38-.47-1.9-.85-3.66-1.34-5.39-2.06-7.3-6-13.19-12.86-16.83a14.46,14.46,0,0,0-14.57.12c-6.82,3.73-10.71,9.64-12.7,17-.48,1.73-.42,3.64-1.76,5.16-2.56-.23-4.71-1.74-7.11-2.5-9.39-3-17.61-1.09-24.49,6-4.29,4.39-4.65,7.81-1.87,13.35a54.23,54.23,0,0,0,18,20.8c10.29,7.05,21.58,9.36,33.74,6.16a13.24,13.24,0,0,1,7.41.09A36.73,36.73,0,0,0,425.29,452.6Zm-18.61-6a45.22,45.22,0,0,0-12.46-.08c-17.43,2.7-30.3-4.78-40.57-18.08-1.22-1.58-2.27-3.29-3.34-5-2.24-3.54-2.15-4.48,1-7.38,4.38-4,9.6-5,15.25-3.76a30.11,30.11,0,0,1,15.37,8.8,15.25,15.25,0,0,0,9.47,4.77c-2-2.67-3.65-4.4-4.64-6.47-4.45-9.26-.15-22,8.83-27.09a8,8,0,0,1,8.69,0,20.9,20.9,0,0,1,5.61,31.43,17,17,0,0,0-1.14,2.05,14.45,14.45,0,0,0,9.22-4.71,29.79,29.79,0,0,1,15.39-8.78c6.28-1.3,11.91,0,16.36,5a4,4,0,0,1,.45,5.36,56.76,56.76,0,0,1-18.78,19.42C423.79,446.8,415.38,447.7,406.68,446.65Z"/><path class="cls-4" d="M360.61,356.66c11-5.88,21.48-4.17,31.26,2.66,5.73,4,10.73,3.74,16.34-.13,9.46-6.52,19.6-8.28,30.32-2.94,4,2,5.35,1.29,6.28-3.07a17.52,17.52,0,0,0,.3-3.24c.36-13.21-8.53-24.94-22-29-2.25-.69-5.05-.74-6.62-2.16-2-1.77-.12-4.83-.6-7A43,43,0,0,0,410.63,290a33.22,33.22,0,0,0-6.12-8.29c-3.57-3.44-5.67-3.44-9.24.13a32.42,32.42,0,0,0-3.8,4.62,43.06,43.06,0,0,0-7.53,24.07c-.06,2.69,1.24,5.81-.37,8s-5,1.72-7.54,2.56c-12.8,4.19-21.47,15.74-21.21,28.55a18.62,18.62,0,0,0,.65,4.83C356.43,357.72,357.61,358.26,360.61,356.66Zm.32-10c2.26-10.95,9.93-18,21.73-20,.71-.12,1.44-.15,2.16-.25,5.83-.79,6.8-2.15,5.68-7.89-2.32-11.91,1.49-25.82,9.8-34.38,7.6,10.11,11,20.82,9.43,33-.1.71-.38,1.4-.5,2.12-.79,4.75.32,6.47,5,7a41,41,0,0,1,9.51,2.22c9.77,3.62,14.08,11.23,15.83,21.25-2.52.72-4.36-.3-6.07-1-11.6-4.58-21.75-1.1-31.18,5.66-2.13,1.53-3.09,1.33-5-.17-4.78-3.76-10.43-5.82-16.27-7.31a15.2,15.2,0,0,0-7.55.09c-4,1-8.06,2.07-12,3.09C360,349.14,360.69,347.82,360.93,346.67Z"/><path class="cls-4" d="M373.07,458.88c-13.61-3.55-25.12-10.39-33.4-22.06-1-1.43-1.91-3.39-4.22-2.58-2,.69-2.35,2.62-2.7,4.41a28.68,28.68,0,0,0,1.93,18.11,68.2,68.2,0,0,0,10.42,15.9,156.22,156.22,0,0,0,18.6,17.59,61.62,61.62,0,0,1,15.82,19.23,98.08,98.08,0,0,0,4.7,8.61c2.47,3.84,6.28,3.61,8.6-.35a11.31,11.31,0,0,0,1.37-5.22c.16-3.09.31-6.17.4-8,.18-13.46-2.11-25.06-8.45-35.71A20.57,20.57,0,0,0,373.07,458.88ZM388,508.5c0,.28-.41.53-.73.91-1.81-.81-2.23-2.71-3-4.2a63.56,63.56,0,0,0-14.73-18c-6.48-5.56-13-11.09-18.71-17.47a57.78,57.78,0,0,1-10.87-16.87c-1.13-2.79-2.3-5.68-1.4-8.74a1.32,1.32,0,0,1,1.61.59c7.19,9.57,17.22,15.22,28.27,18.49,9.79,2.89,14.62,9.3,17.38,18.35C388.46,490.37,388.51,499.4,388,508.5Z"/><path class="cls-4" d="M464.34,434.19c-2-.63-2.88,1-3.87,2.28-.77,1-1.66,1.94-2.42,3a47.42,47.42,0,0,1-17.11,14.05,71.89,71.89,0,0,1-14.74,5.62A19.24,19.24,0,0,0,414.29,468c-6.72,10.69-9.07,22.44-8.89,35.43.28,3.78-.24,8.19.89,12.45.62,2.37,2,4.42,4.6,4.89,2.86.51,4.24-1.52,5.42-3.67.35-.63.68-1.28,1-1.94a74.78,74.78,0,0,1,21.85-27.47,113.35,113.35,0,0,0,16.43-15.91,61.68,61.68,0,0,0,10.3-16.6A27.81,27.81,0,0,0,467,438C466.63,436.37,466.08,434.75,464.34,434.19ZM460,452.94a55.66,55.66,0,0,1-9.82,15.61,140.29,140.29,0,0,1-16.52,15.82c-7.64,6.32-14.29,13.43-18.78,22.38-.47.95-.87,2-2.4,2.4-1.59-3.79-.85-7.8-.76-11.65.22-8.8,1.83-17.31,6.46-25a16.67,16.67,0,0,1,9.92-8,62.92,62.92,0,0,0,11.68-4.5c7.95-4.1,15.66-8.5,21.32-17.37C462.27,447.21,461.11,450.12,460,452.94Z"/><path class="cls-4" d="M331.51,420.63a31.52,31.52,0,0,0-2.42-2.18c-6.12-5.87-11-12.56-13.16-20.9-1.54-5.94-1.22-6.54,4.2-9.63,6.36-3.63,8.78-12,5.53-19.05-2.89-6.28-9.37-8.82-16.51-6.51a19.16,19.16,0,0,0-10.4,7.48A31.83,31.83,0,0,0,293,386.58c-.13,17.79,13.3,34.39,29.57,37.69a20.32,20.32,0,0,0,7.57.25C332.52,424.1,333.06,422.49,331.51,420.63Zm-12.27-4c-1.35,1-2.44,0-3.45-.6-8.45-5-14.54-11.75-17.05-21.52-2-7.81-.17-14.69,4.12-21.15a14.22,14.22,0,0,1,8.84-5.91c4.7-1.14,8.7,1.88,9.21,6.75s-3.17,9.71-7.32,9.93c-1.89.1-2.64-1.08-2.62-2.71,0-2.09.28-4.18.52-7.4-5.53,5.62-6.05,9.17-2.69,14.16a6.08,6.08,0,0,1,1.21,3.48c0,8.69,3.18,16.25,8.5,23a6.84,6.84,0,0,1,.72,1.43A1.6,1.6,0,0,1,319.24,416.63Z"/><path class="cls-4" d="M500.47,368.87A19.71,19.71,0,0,0,488,361.68a12.47,12.47,0,0,0-14.42,8.79c-2.46,7.5.44,14.83,7.75,18.09,3.05,1.35,3.64,3.12,3.12,5.89a40.87,40.87,0,0,1-1.17,5.29c-2.38,7.24-6.79,13.17-12.19,18.42-.65.63-1.38,1.17-2.06,1.77-1,.87-2,1.89-1.35,3.26s2,1.44,3.28,1.5a26,26,0,0,0,7-.56c15.86-3.64,28.84-19.73,29-36A34.26,34.26,0,0,0,500.47,368.87Zm-15.3,46.53a23.65,23.65,0,0,1-3.41,1.62c-.26.1-.66-.16-1-.27-.47-1.49.8-2.25,1.48-3.17,4.67-6.29,7.51-13.21,7.59-21.12a8,8,0,0,1,1.82-4.91c3-4.15,1.9-9-2.72-12.6-1.15,2,.27,3.88.14,5.75-.24,3.3-1.55,4.17-4.62,2.82a9,9,0,0,1-4.84-11.78c1.76-4.16,6.14-5.54,11-3.48,7.89,3.33,12.92,14.65,11,24.5C499.55,402.82,493.74,410.12,485.17,415.4Z"/><path class="cls-4" d="M344,408a10.17,10.17,0,0,0,1.49-2.26c4.55-8.66,12.63-10.77,21-11.74,3.13.65,5.67.68,6.57-2.61,2-7.45,7.24-12.37,13-17,4.07-3.27,4.12-5.65.58-9.34a13.29,13.29,0,0,0-6.6-3.59,26.43,26.43,0,0,0-19.51,2.55,41.9,41.9,0,0,0-12.58,10.26c-6.33,7.78-10.69,16.39-10.75,26.73a9.94,9.94,0,0,0,2.64,6.93C341.12,409.51,342.59,409.47,344,408Zm0-13.85c3.5-10.54,9.51-19,19.69-24.14a22,22,0,0,1,14.8-1.59c1,.22,2.25.58,2.51,1.79s-1,1.75-1.87,2.31a27.47,27.47,0,0,0-9.89,12c-.72,1.61-1.63,2.68-3.5,2.93a38.45,38.45,0,0,0-20.52,9.17c-.22.19-.68.11-1,.16A3,3,0,0,1,344,394.19Z"/><path class="cls-4" d="M415.3,363.53c-5.54,3.5-5.81,7.42-.82,11.4,5.48,4.38,10.32,9.14,12.31,16.15.77,2.74,2.59,3.28,5.38,3.28,9.36,0,17.53,2.67,22.36,11.59a9.65,9.65,0,0,0,1.17,1.83c1.49,1.66,3,1.81,4.58,0a9.48,9.48,0,0,0,2.46-7.13c.09-8.66-4.33-19.42-11.2-26.93-5.73-6.26-12.29-11.34-21-12.72C425.21,360.19,420,360.59,415.3,363.53Zm40.91,32.36a6.44,6.44,0,0,1-.26,1.92h0a37.63,37.63,0,0,0-21.16-10.25,4.64,4.64,0,0,1-4.08-3,28,28,0,0,0-10.33-12.33c-2.21-1.5-2-2.85.58-3.61a20.72,20.72,0,0,1,11.29-.12C443.07,371.37,454.7,384.69,456.21,395.89Z"/><path class="cls-4" d="M425.29,850.3c14.62-4.67,24.26-14.83,30.78-28.31,1.86-3.86.91-7.4-1.74-10.63-6.09-7.42-15.92-10-25.69-6.85-2.35.77-4.46,2.36-7.32,2.39-.47-1.9-.85-3.67-1.34-5.4-2.06-7.3-6-13.19-12.86-16.83a14.46,14.46,0,0,0-14.57.13c-6.82,3.73-10.71,9.64-12.7,17-.48,1.73-.42,3.63-1.76,5.16-2.56-.24-4.71-1.74-7.11-2.5-9.39-3-17.61-1.09-24.49,6-4.29,4.4-4.65,7.81-1.87,13.35a54.33,54.33,0,0,0,18,20.81c10.29,7,21.58,9.35,33.74,6.15a13.33,13.33,0,0,1,7.41.09A36.65,36.65,0,0,0,425.29,850.3Zm-18.61-5.95a45.23,45.23,0,0,0-12.46-.09c-17.43,2.7-30.3-4.77-40.57-18.07-1.22-1.58-2.27-3.29-3.34-5-2.24-3.54-2.15-4.49,1-7.39,4.38-4,9.6-5,15.25-3.76a30.06,30.06,0,0,1,15.37,8.81,15.19,15.19,0,0,0,9.47,4.76c-2-2.67-3.65-4.4-4.64-6.46-4.45-9.27-.15-22,8.83-27.1a8,8,0,0,1,8.69,0,20.91,20.91,0,0,1,5.61,31.44,16.2,16.2,0,0,0-1.14,2,14.5,14.5,0,0,0,9.22-4.72,29.77,29.77,0,0,1,15.39-8.77c6.28-1.31,11.91,0,16.36,5a4,4,0,0,1,.45,5.36,56.82,56.82,0,0,1-18.78,19.41C423.79,844.5,415.38,845.39,406.68,844.35Z"/><path class="cls-4" d="M360.61,754.35c11-5.88,21.48-4.17,31.26,2.67,5.73,4,10.73,3.74,16.34-.13,9.46-6.52,19.6-8.29,30.32-2.94,4,2,5.35,1.28,6.28-3.07a17.62,17.62,0,0,0,.3-3.25c.36-13.2-8.53-24.94-22-29-2.25-.68-5.05-.73-6.62-2.15-2-1.78-.12-4.84-.6-7a42.92,42.92,0,0,0-5.27-21.76,33.09,33.09,0,0,0-6.12-8.3c-3.57-3.44-5.67-3.43-9.24.14a32.34,32.34,0,0,0-3.8,4.61,43.11,43.11,0,0,0-7.53,24.07c-.06,2.69,1.24,5.82-.37,8s-5,1.72-7.54,2.55c-12.8,4.19-21.47,15.75-21.21,28.56a18.62,18.62,0,0,0,.65,4.83C356.43,755.41,357.61,756,360.61,754.35Zm.32-10c2.26-10.94,9.93-18,21.73-20,.71-.13,1.44-.16,2.16-.25,5.83-.8,6.8-2.15,5.68-7.9-2.32-11.91,1.49-25.81,9.8-34.38,7.6,10.12,11,20.82,9.43,33-.1.72-.38,1.41-.5,2.12-.79,4.75.32,6.47,5,7a41.53,41.53,0,0,1,9.51,2.23c9.77,3.62,14.08,11.23,15.83,21.24-2.52.72-4.36-.29-6.07-1-11.6-4.57-21.75-1.09-31.18,5.66-2.13,1.53-3.09,1.33-5-.16-4.78-3.76-10.43-5.82-16.27-7.32a15.2,15.2,0,0,0-7.55.09c-4,1-8.06,2.07-12,3.1C360,746.84,360.69,745.52,360.93,744.36Z"/><path class="cls-4" d="M331.51,818.32a31.41,31.41,0,0,0-2.42-2.17c-6.12-5.88-11-12.56-13.16-20.91-1.54-5.94-1.22-6.54,4.2-9.63,6.36-3.63,8.78-12,5.53-19.05-2.89-6.27-9.37-8.82-16.51-6.5a19.06,19.06,0,0,0-10.4,7.48A31.77,31.77,0,0,0,293,784.27c-.13,17.8,13.3,34.39,29.57,37.69a20.11,20.11,0,0,0,7.57.26C332.52,821.8,333.06,820.18,331.51,818.32Zm-12.27-4c-1.35,1-2.44,0-3.45-.6-8.45-5-14.54-11.74-17.05-21.52-2-7.81-.17-14.69,4.12-21.15a14.24,14.24,0,0,1,8.84-5.9c4.7-1.15,8.7,1.88,9.21,6.74s-3.17,9.71-7.32,9.93c-1.89.1-2.64-1.07-2.62-2.71,0-2.09.28-4.18.52-7.4-5.53,5.63-6.05,9.17-2.69,14.16a6.11,6.11,0,0,1,1.21,3.48c0,8.7,3.18,16.25,8.5,23a7.18,7.18,0,0,1,.72,1.44A1.53,1.53,0,0,1,319.24,814.32Z"/><path class="cls-4" d="M500.47,766.57a19.72,19.72,0,0,0-12.44-7.2,12.48,12.48,0,0,0-14.42,8.79c-2.46,7.51.44,14.84,7.75,18.09,3.05,1.35,3.64,3.13,3.12,5.89a40.5,40.5,0,0,1-1.17,5.29c-2.38,7.24-6.79,13.17-12.19,18.42-.65.63-1.38,1.18-2.06,1.78-1,.87-2,1.89-1.35,3.25s2,1.44,3.28,1.5a26,26,0,0,0,7-.56c15.86-3.63,28.84-19.73,29-36A34.23,34.23,0,0,0,500.47,766.57Zm-15.3,46.53a22.59,22.59,0,0,1-3.41,1.61c-.26.11-.66-.16-1-.26-.47-1.49.8-2.25,1.48-3.18,4.67-6.28,7.51-13.21,7.59-21.11a8,8,0,0,1,1.82-4.91c3-4.15,1.9-9-2.72-12.6-1.15,2,.27,3.87.14,5.75-.24,3.3-1.55,4.16-4.62,2.82a9,9,0,0,1-4.84-11.79c1.76-4.15,6.14-5.54,11-3.47,7.89,3.33,12.92,14.65,11,24.5C499.55,800.51,493.74,807.81,485.17,813.1Z"/><path class="cls-4" d="M344,805.73a10.17,10.17,0,0,0,1.49-2.26c4.55-8.65,12.63-10.76,21-11.74,3.13.66,5.67.69,6.57-2.61,2-7.45,7.24-12.37,13-17,4.07-3.28,4.12-5.65.58-9.34a13.14,13.14,0,0,0-6.6-3.59,26.43,26.43,0,0,0-19.51,2.54A41.93,41.93,0,0,0,347.86,772c-6.33,7.77-10.69,16.38-10.75,26.72a9.92,9.92,0,0,0,2.64,6.93C341.12,807.2,342.59,807.17,344,805.73Zm0-13.84c3.5-10.54,9.51-19,19.69-24.14a21.84,21.84,0,0,1,14.8-1.59c1,.21,2.25.58,2.51,1.78s-1,1.76-1.87,2.32a27.5,27.5,0,0,0-9.89,12,4.24,4.24,0,0,1-3.5,2.94,38.44,38.44,0,0,0-20.52,9.16c-.22.2-.68.12-1,.17A3,3,0,0,1,344,791.89Z"/><path class="cls-4" d="M415.3,761.22c-5.54,3.5-5.81,7.42-.82,11.4,5.48,4.38,10.32,9.15,12.31,16.16.77,2.73,2.59,3.27,5.38,3.27,9.36,0,17.53,2.67,22.36,11.6a9.58,9.58,0,0,0,1.17,1.82c1.49,1.66,3,1.81,4.58,0a9.52,9.52,0,0,0,2.46-7.14c.09-8.66-4.33-19.42-11.2-26.93-5.73-6.26-12.29-11.34-21-12.71C425.21,757.89,420,758.28,415.3,761.22Zm40.91,32.37a6.52,6.52,0,0,1-.26,1.92h0a37.5,37.5,0,0,0-21.16-10.25,4.65,4.65,0,0,1-4.08-3,28,28,0,0,0-10.33-12.33c-2.21-1.49-2-2.84.58-3.6a20.63,20.63,0,0,1,11.29-.12C443.07,769.07,454.7,782.39,456.21,793.59Z"/></g></svg>