<svg id="Layer_1" data-name="Layer 1" xmlns="http://www.w3.org/2000/svg" xmlns:xlink="http://www.w3.org/1999/xlink" viewBox="0 0 800 800"><defs><style>.cls-1{fill:none;}.cls-2{fill:#fff0cf;}.cls-3{opacity:0.6;}.cls-4{clip-path:url(#clip-path);}.cls-5{fill:#fdbe34;}.cls-6{fill:#6b3101;}.cls-7{fill:#35347c;}</style><clipPath id="clip-path"><rect class="cls-1" width="800" height="800"/></clipPath></defs><title>Artboard 1 copy 5</title><rect class="cls-2" width="800" height="800"/><g class="cls-3"><g class="cls-4"><path class="cls-5" d="M-35.18,44.67A49.21,49.21,0,0,0-46,44.83c-4.5.44-9,1-13.52-.31C-68.49,42-71.91,33.57-67,25.79c3.54-5.58,4.88-12.08,7.85-17.89,2.31-4.52,4.44-9.13,6.88-13.59a335.5,335.5,0,0,0,15.67-34.1c.62-1.51,1.26-3,2-4.47,5.4-10.38,16.8-11.43,23.74-2,5.05,6.86,9.66,14,14.52,21.06C5-23.43,5.8-21.35,7.62-20a8.18,8.18,0,0,0,.7,2C16.45-6.18,23.44,6.38,32.43,17.59A27.54,27.54,0,0,1,36,23c3.72,8.06-.1,16-8.72,18.21a29.34,29.34,0,0,1-5.91.84c-10,.48-19.94.86-29.91,1.31Q-21.87,44-35.18,44.67Z"/><path class="cls-6" d="M-35.18,44.67Q-21.87,44-8.55,43.39c10-.45,20-.83,29.91-1.31a29.34,29.34,0,0,0,5.91-.84C35.89,39,39.71,31.09,36,23a27.54,27.54,0,0,0-3.56-5.44C23.44,6.38,16.45-6.18,8.32-18a8.18,8.18,0,0,1-.7-2c10.81-1.78,21.73-3.06,32.08,1.63,19,8.61,28.22,24.3,28.87,44.53C69.32,49,59.85,67.6,40.71,80.35,8.44,101.84-30.44,83.38-35.18,44.67Z"/><path class="cls-5" d="M764.82,44.67a49.21,49.21,0,0,0-10.85.16c-4.5.44-9,1-13.52-.31-8.94-2.53-12.36-11-7.41-18.73,3.54-5.58,4.88-12.08,7.85-17.89,2.31-4.52,4.44-9.13,6.88-13.59a335.5,335.5,0,0,0,15.67-34.1c.62-1.51,1.26-3,2-4.47,5.4-10.38,16.8-11.43,23.74-2,5,6.86,9.66,14,14.52,21.06,1.23,1.77,2.08,3.85,3.9,5.18a8.18,8.18,0,0,0,.7,2c8.13,11.8,15.12,24.36,24.11,35.57A27.54,27.54,0,0,1,836,23c3.72,8.06-.1,16-8.72,18.21a29.34,29.34,0,0,1-5.91.84c-10,.48-19.94.86-29.91,1.31Q778.13,44,764.82,44.67Z"/><path class="cls-6" d="M764.82,44.67q13.3-.64,26.63-1.28c10-.45,19.95-.83,29.91-1.31a29.34,29.34,0,0,0,5.91-.84C835.89,39,839.71,31.09,836,23a27.54,27.54,0,0,0-3.56-5.44c-9-11.21-16-23.77-24.11-35.57a8.18,8.18,0,0,1-.7-2c10.81-1.78,21.73-3.06,32.08,1.63,19,8.61,28.22,24.3,28.87,44.53.75,22.89-8.72,41.46-27.86,54.21C808.44,101.84,769.56,83.38,764.82,44.67Z"/><path class="cls-5" d="M-35.18,844.67a49.21,49.21,0,0,0-10.85.16c-4.5.44-9,1-13.52-.31C-68.49,842-71.91,833.57-67,825.79c3.54-5.58,4.88-12.08,7.85-17.89,2.31-4.52,4.44-9.13,6.88-13.59a335.5,335.5,0,0,0,15.67-34.1c.62-1.51,1.26-3,2-4.47,5.4-10.38,16.8-11.43,23.74-2,5.05,6.86,9.66,14,14.52,21.06C5,776.57,5.8,778.65,7.62,780a8.18,8.18,0,0,0,.7,2c8.13,11.8,15.12,24.36,24.11,35.57A27.54,27.54,0,0,1,36,823c3.72,8.06-.1,16-8.72,18.21a29.34,29.34,0,0,1-5.91.84c-10,.48-19.94.86-29.91,1.31Q-21.87,844-35.18,844.67Z"/><path class="cls-6" d="M-35.18,844.67q13.31-.64,26.63-1.28c10-.45,20-.83,29.91-1.31a29.34,29.34,0,0,0,5.91-.84C35.89,839,39.71,831.09,36,823a27.54,27.54,0,0,0-3.56-5.44c-9-11.21-16-23.77-24.11-35.57a8.18,8.18,0,0,1-.7-2c10.81-1.78,21.73-3.06,32.08,1.63,19,8.61,28.22,24.3,28.87,44.53.75,22.89-8.72,41.46-27.86,54.21C8.44,901.84-30.44,883.38-35.18,844.67Z"/><path class="cls-5" d="M156.13,561.67a49.21,49.21,0,0,0-10.85.16c-4.5.44-9,1-13.52-.31-8.94-2.53-12.36-10.95-7.41-18.73,3.54-5.58,4.88-12.08,7.85-17.89,2.31-4.52,4.44-9.13,6.88-13.59a335.5,335.5,0,0,0,15.67-34.1c.62-1.51,1.26-3,2-4.47,5.4-10.38,16.8-11.43,23.74-2,5.05,6.86,9.66,14.05,14.52,21.06,1.23,1.77,2.08,3.85,3.9,5.18a8.18,8.18,0,0,0,.7,2c8.13,11.8,15.12,24.36,24.11,35.57A27.54,27.54,0,0,1,227.3,540c3.72,8.06-.1,16-8.72,18.21a29.34,29.34,0,0,1-5.91.84c-10,.48-19.94.86-29.91,1.31Q169.44,561,156.13,561.67Z"/><path class="cls-6" d="M156.13,561.67q13.31-.64,26.63-1.28c10-.45,20-.83,29.91-1.31a29.34,29.34,0,0,0,5.91-.84C227.2,556,231,548.09,227.3,540a27.54,27.54,0,0,0-3.56-5.44c-9-11.21-16-23.77-24.11-35.57a8.18,8.18,0,0,1-.7-2c10.81-1.78,21.73-3.06,32.08,1.63,19,8.61,28.22,24.3,28.87,44.53.75,22.89-8.72,41.46-27.86,54.21C199.75,618.84,160.87,600.38,156.13,561.67Z"/><path class="cls-5" d="M339.13,200.67a49.21,49.21,0,0,0-10.85.16c-4.5.44-9,1-13.52-.31-8.94-2.53-12.36-11-7.41-18.73,3.54-5.58,4.88-12.08,7.85-17.89,2.31-4.52,4.44-9.13,6.88-13.59a335.5,335.5,0,0,0,15.67-34.1c.62-1.51,1.26-3,2-4.47,5.4-10.38,16.8-11.43,23.74-2,5.05,6.86,9.66,14.05,14.52,21.06,1.23,1.77,2.08,3.85,3.9,5.18a8.18,8.18,0,0,0,.7,2c8.13,11.8,15.12,24.36,24.11,35.57A27.54,27.54,0,0,1,410.3,179c3.72,8.06-.1,16-8.72,18.21a29.34,29.34,0,0,1-5.91.84c-10,.48-19.94.86-29.91,1.31Q352.44,200,339.13,200.67Z"/><path class="cls-6" d="M339.13,200.67q13.31-.64,26.63-1.28c10-.45,19.95-.83,29.91-1.31a29.34,29.34,0,0,0,5.91-.84C410.2,195,414,187.09,410.3,179a27.54,27.54,0,0,0-3.56-5.44c-9-11.21-16-23.77-24.11-35.57a8.18,8.18,0,0,1-.7-2c10.81-1.78,21.73-3.06,32.08,1.63,19,8.61,28.22,24.3,28.87,44.53.75,22.89-8.72,41.46-27.86,54.21C382.75,257.84,343.87,239.38,339.13,200.67Z"/><path class="cls-5" d="M579.13,461.67a49.21,49.21,0,0,0-10.85.16c-4.5.44-9,1-13.52-.31-8.94-2.53-12.36-10.95-7.41-18.73,3.54-5.58,4.88-12.08,7.85-17.89,2.31-4.52,4.44-9.13,6.88-13.59a335.5,335.5,0,0,0,15.67-34.1c.62-1.51,1.26-3,2-4.47,5.4-10.38,16.8-11.43,23.74-2,5,6.86,9.66,14.05,14.52,21.06,1.23,1.77,2.08,3.85,3.9,5.18a8.18,8.18,0,0,0,.7,2c8.13,11.8,15.12,24.36,24.11,35.57A27.54,27.54,0,0,1,650.3,440c3.72,8.06-.1,16-8.72,18.21a29.34,29.34,0,0,1-5.91.84c-10,.48-19.94.86-29.91,1.31Q592.44,461,579.13,461.67Z"/><path class="cls-6" d="M579.13,461.67q13.3-.65,26.63-1.28c10-.45,20-.83,29.91-1.31a29.34,29.34,0,0,0,5.91-.84C650.2,456,654,448.09,650.3,440a27.54,27.54,0,0,0-3.56-5.44c-9-11.21-16-23.77-24.11-35.57a8.18,8.18,0,0,1-.7-2c10.81-1.78,21.73-3.06,32.08,1.63,19,8.61,28.22,24.3,28.87,44.53.75,22.89-8.72,41.46-27.86,54.21C622.75,518.84,583.87,500.38,579.13,461.67Z"/><path class="cls-5" d="M764.82,844.67a49.21,49.21,0,0,0-10.85.16c-4.5.44-9,1-13.52-.31-8.94-2.53-12.36-10.95-7.41-18.73,3.54-5.58,4.88-12.08,7.85-17.89,2.31-4.52,4.44-9.13,6.88-13.59a335.5,335.5,0,0,0,15.67-34.1c.62-1.51,1.26-3,2-4.47,5.4-10.38,16.8-11.43,23.74-2,5,6.86,9.66,14,14.52,21.06,1.23,1.77,2.08,3.85,3.9,5.18a8.18,8.18,0,0,0,.7,2c8.13,11.8,15.12,24.36,24.11,35.57A27.54,27.54,0,0,1,836,823c3.72,8.06-.1,16-8.72,18.21a29.34,29.34,0,0,1-5.91.84c-10,.48-19.94.86-29.91,1.31Q778.13,844,764.82,844.67Z"/><path class="cls-7" d="M764.82,844.67q13.3-.64,26.63-1.28c10-.45,19.95-.83,29.91-1.31a29.34,29.34,0,0,0,5.91-.84C835.89,839,839.71,831.09,836,823a27.54,27.54,0,0,0-3.56-5.44c-9-11.21-16-23.77-24.11-35.57a8.18,8.18,0,0,1-.7-2c10.81-1.78,21.73-3.06,32.08,1.63,19,8.61,28.22,24.3,28.87,44.53.75,22.89-8.72,41.46-27.86,54.21C808.44,901.84,769.56,883.38,764.82,844.67Z"/></g></g></svg>