<svg id="Layer_1" data-name="Layer 1" xmlns="http://www.w3.org/2000/svg" viewBox="0 0 800 800"><defs><style>.cls-1{fill:#f3fffa;}.cls-2{opacity:0.3;}.cls-3{fill:#239130;}.cls-4{fill:#4ac75a;}</style></defs><title>Artboard 1 copy 8</title><rect class="cls-1" width="800" height="800"/><g class="cls-2"><path class="cls-3" d="M689.16,687.37c1.72,6.74,3.41,13.5,5.15,20.24.8,3.08.83,3.1,4,3.24,9.91.45,19.82.73,29.66,2.16a57.56,57.56,0,0,1,12.9,2.92,9.45,9.45,0,0,1,4.41,2.77c-.21.87-.65.82-1,.8-28-1.56-56-1.9-84,0a173.7,173.7,0,0,0-23.47,3.29,13.19,13.19,0,0,0-4.89,1.65,11.51,11.51,0,0,1-3.81,1.15,3.43,3.43,0,0,1-4.08-1.79c-.92-1.67-.32-3.13.86-4.38a12,12,0,0,1,6.34-3.29c2.73-.6,3.87-2.18,4.63-4.76,3.62-12.3,5.11-24.91,6.07-37.62q1.26-16.65,1-33.34a14.13,14.13,0,0,1,.25-3.19,3.93,3.93,0,0,1,3.09-3.33,4.28,4.28,0,0,1,4.33,1.47,15.16,15.16,0,0,1,2.62,4.94c4,9.85,6.46,20.14,8.83,30.45,1.41,6.14,2.69,12.3,4,18.45a4.64,4.64,0,0,0,1.11,2.82,5.29,5.29,0,0,0,1.19-2.64c2.71-9.26,5.18-18.57,7.22-28a10.34,10.34,0,0,1,.62-2.31,3.53,3.53,0,0,1,6.42-.36,7.79,7.79,0,0,1,1,2.61c.91,4.59,1.75,9.21,2.61,13.81a6.82,6.82,0,0,1-.48,5c-.9,2.19-1.69,4.42-2.48,6.66-.32.89-.49,1.89.39,2.54a2.47,2.47,0,0,0,2.64.13A23.94,23.94,0,0,0,689.16,687.37Zm-45.59,25.52c5.3-.57,10.18-1.13,15.07-1.63,3.28-.33,3.33-.3,2.78-3.55-2.62-15.43-6.6-30.55-10.1-45.79-.11-.45-.27-1.07-1.13-1C649.78,678.27,648.61,695.56,643.57,712.89Zm43.2-2.45c-2.86-10.59-5.49-20.88-8.06-31.22-2.72,10.38-5.74,20.57-8,31.22Z"/><path class="cls-3" d="M368.84,395c-.14-7.43,1.26-14.65,3-21.82a10.24,10.24,0,0,1,1.81-4,4.46,4.46,0,0,1,7-.38,14.34,14.34,0,0,1,2.65,4.47q4.14,9.36,8.22,18.72c1.3,0,1.88-1,2.62-1.76a84.81,84.81,0,0,1,22.68-15.76c4.35-2.09,8.68-4.2,13-6.28a9.86,9.86,0,0,1,2.24-.86c3.5-.75,6.07,1.83,5.38,5.38a13.09,13.09,0,0,1-2.5,5c-3.83,5.49-7.74,10.94-11.59,16.42-5.37,7.65-9.56,15.82-10.85,25.23-1,7.12-.3,14.19.84,21.22.33,2.07-.28,4.91,1.49,6s4-.49,6.08-1c15.41-3.61,30.91-6.66,46.77-7.43a85.47,85.47,0,0,1,11.65.2c1.43.12,2.88.12,4.14,1.09-1,1-2.25,1-3.43,1.16a525.57,525.57,0,0,0-98.34,25c-8.18,3-16.18,6.45-23.39,11.49-2.14,1.5-3.76,1.4-5.05,0s-1.23-3.31.11-5.17c1.61-2.23,4-3.55,6.18-5.07,1.29-.89,3-1.2,3.74-2.86,2.45,0,4.29-1.61,6.39-2.52,4.23-1.62,8.44-3.29,12.68-4.87A224.89,224.89,0,0,1,404.27,450c2-.51,2.64-1.39,2.23-3.36-.48-2.36-.78-4.75-1.18-7.13-2.57-15-1-29.31,6.77-42.68a144.56,144.56,0,0,1,9.3-14c.74-.53,1.76-1.16.86-2.08-.56-.58-1.39.18-1.92.77-1.15.66-2.29,1.34-3.45,2A76.39,76.39,0,0,0,385.43,416c-.59,1.17-1.45,2.28-.86,3.73a3.79,3.79,0,0,0-.75.21c-1.6.76-3.31,1.36-4.74-.09a4.55,4.55,0,0,1-1-5.09c.53-1.47.8-3,1.19-4.54,2-3.15,3.89-6.34,5.93-9.45.81-1.24.34-2.21-.14-3.35-1.85-4.43-3.62-8.9-5.45-13.34-.43-1-.58-2.25-1.87-3-1.09,5.22-2.18,10.3-2.76,15.48-.3,2.62-1.23,5.22-.37,7.91a2.26,2.26,0,0,0-.62.47c-1.61,2.29-2.94,2.31-4.11-.09a9.69,9.69,0,0,1-1.12-4.63C368.83,398.49,368.82,396.76,368.84,395Z"/><path class="cls-3" d="M101.37,729.19a58.93,58.93,0,0,1,4.54-12.43c1.64-3.56,4.59-4,7.41-1.27,2.22,2.18,3.64,5,5.26,7.58.82,1.34,1.38,2.88,2.56,3.93,1.39-.46,1-1.54,1.15-2.38,1.23-9.61-.4-19-2.72-28.24-4.12-16.43-9.65-32.34-17.65-47.33a33.18,33.18,0,0,1-2-4.35,3,3,0,0,1,4.73-3.41,29.44,29.44,0,0,1,3.34,3.45,154.27,154.27,0,0,1,32.84,65.92c1.12,5,2.27,9.92,3.37,14.89.63,2.89.59,3,3.65,2.85,14.74-.53,29.48-.78,44.22-.07a153.8,153.8,0,0,1,15.6,1.45c.52.08,1,.13,1.36.66-.13,1.15-1.11.95-1.83,1.07-8,1.3-16,1.74-24,2.34q-17.64,1.3-35.3,2.38c-1.84.12-3,.5-3.31,2.55a2.84,2.84,0,0,1-2.07,2.51c-.79-.43-.34-1-.34-1.46,0-3-.15-3.16-3.18-3-2.41.13-4.82.34-7.23.45s-4.32.23-5.72,2.74a3.07,3.07,0,0,1-5.17.26c-1.59-1.93-3.33-1.81-5.36-1.62a251.71,251.71,0,0,0-44.28,7.5,29.24,29.24,0,0,1-4.71,1c-2.1.23-4-.17-4.61-2.66,0-.53.09-1.06.13-1.59a9.62,9.62,0,0,1,4.26-2.82c2.78-.92,5.47-2.13,8.29-2.83a3.78,3.78,0,0,0,3.14-3.48,55.84,55.84,0,0,1,4.88-14.3c2.08-4.18,3-4.55,7.52-3.33,1.22,4,2.77,7.93,2.41,12.24-2-1.7-2.76-4.56-5.34-6.07A43.64,43.64,0,0,0,83,734.75l11-1.81A10.55,10.55,0,0,0,101.37,729.19Zm19.21-52.42c.33,1,.67,2,1,3.05,5,15.57,10.09,31.13,7.45,47.88-.21,1.32.52,1.68,1.61,1.58,2.88-.24,5.82.05,8.56-.56a3.75,3.75,0,0,0-.17-2.6c-2.1-7.32-4.1-14.68-6.4-21.94-3.13-9.82-6.69-19.48-12-28.4a2,2,0,0,0-1.41-2.53A3.81,3.81,0,0,0,120.58,676.77Zm-5.89,53.6c-2-2.8-2.85-5.41-5-7.5a26.87,26.87,0,0,0-2.65,7.9C109.5,731.05,111.69,730.67,114.69,730.37Z"/><path class="cls-3" d="M463.61,115.17c1.31.83,2.86.64,4.26,1.07a22.41,22.41,0,0,1,3,1.13,1.51,1.51,0,0,1,.84,2c-.32.83-1,1.05-1.94,1-34.43-.07-68.86-.49-103.26,1.41-3.83.21-7.71.16-11.47,1.57-2,.74-4.25,0-6.33-.43a3,3,0,0,1-2.31-2.54,3.22,3.22,0,0,1,1.66-3.4c1.86-1.18,4-1.44,6.12-1.82a195.57,195.57,0,0,1,24.39-2.42c2.28-.12,4.56-.23,6.84-.26,1.65,0,2.44-.7,2.39-2.43s.08-3.48.08-5.23q0-11.06-.05-22.12c0-1,.28-2.12-.45-3.09-1.53-.11-1.95,1.25-2.61,2.13-4.17,5.59-8.25,11.23-12.39,16.85a26.88,26.88,0,0,1-2.77,3.42,3.49,3.49,0,0,1-4.73.53c-1.39-1-1.67-2.74-.74-4.72a13,13,0,0,1,1.06-1.7c6.28-9.54,13.57-18.3,20.79-27.11,1.34-1.64,3-2.82,5.22-2.2,2.46.67,3.15,2.67,3.49,4.9.62,4.13.4,8.3.46,12.45.05,2.9,0,5.81,0,8.79,1.29-.27,1.3-1.21,1.54-1.9,4.11-12.2,5.39-24.56,2.11-37.19-.58-2.2-1-4.44-1.43-6.67a3.39,3.39,0,0,1,1.83-4.06c1.71-.8,3.15-.08,4.34,1.15,1.82,1.87,2.76,4.26,3.7,6.63a296,296,0,0,1,11.18,34.79,12.15,12.15,0,0,1-.81,6.19,56.35,56.35,0,0,0-2.07,5.56c-.34,1.21-.78,2.77.51,3.66s2.53.44,3.66-.47c.3-.25.59-.53.88-.79.51,4.25-.7,8.39-1.05,12.75l17.39.82,6.54.09,17.63,1.56Zm-67.41-2.89c5.73.11,10.91.19,16.09.31,1.52,0,1.72-.93,1.81-2.08A49,49,0,0,0,414,99.29c-1.17-7.85-3.47-15.4-5.8-23-.3-1-.28-2.11-1.54-2.74-.05,6.75-1.68,13.08-3.45,19.4A149.31,149.31,0,0,1,396.2,112.28Z"/><path class="cls-3" d="M675.17,195.6q7.27-12,14.54-24.06a9.69,9.69,0,0,1,1.43-1.92,3.45,3.45,0,0,1,4-.94,3.61,3.61,0,0,1,2.29,3.87,18.43,18.43,0,0,1-1,3.89c-4.79,14.87-4.79,30-2.85,45.32,0,.21.23.39.62,1,1-2.4,1.9-4.58,2.91-6.68s1.72-4.38,4.54-4.53,4.31,1.9,5.57,4c2.31,3.76,4.66,7.52,6.64,11.46,1.32,2.62,3,3.54,5.92,3.6a116.91,116.91,0,0,1,19.57,1.93c2.1.4,4.17,1,6.22,1.56,1,.28,2.09.56,2.37,2.16l-28.16,1c-.46,2,1.23,3.24.78,5.18-1.87-.47-2.66-2.09-3.68-3.31a4.55,4.55,0,0,0-4.17-1.79c-4.94.32-9.89.7-14.84.7-2.31,0-3.35,2.11-5.37,2.38s-3.52-1.55-5.75-1.2c-11.69,1.85-23.11,4.57-34,9.2-1.11.47-2.22.94-3.37,1.31a2.74,2.74,0,0,1-3.46-1.24,2.83,2.83,0,0,1,.37-3.37,13,13,0,0,1,4.31-3.55,53.55,53.55,0,0,1,9.14-4.11,3.06,3.06,0,0,0,2.46-3.08c.61-10.87,4.06-21,8.74-30.68.65,0,1.31,0,1.95-.11,3.39-.37,4.23-1.75,2.93-5A6.9,6.9,0,0,1,675.17,195.6Zm-6.27,38.8c5.46-1.24,10.28-2.33,15.18-3,3.22-.42,3.2-.52,2.68-3.79a148.75,148.75,0,0,1-2.06-30.83c0-.67.5-1.57-.64-2.16A114.6,114.6,0,0,0,668.9,234.4Zm29.21-4.4h11.31L702,219.11A35,35,0,0,0,698.11,230Z"/><path class="cls-3" d="M106.57,201c3.61-.32,5.89,1.77,7.9,4.36.54,2.15-.37,4.15-.63,6.22-.17,1.29-.33,2.77,1.15,3.49a2.52,2.52,0,0,0,3.43-1.06,2.32,2.32,0,0,1,1.6-1c1.15,1.08,1.52,2.83,3,3.62.89-1.11,1-2.46,1.49-3.69.82-2.25,1.49-4.58,2.5-6.74,1.51-3.24,4.15-3.71,6.72-1.25,2.32,2.23,4,5,5.83,7.61.68.94.9,2.27,2.25,2.63.72,2.51.82,5.46,4.32,5.94,2.31,4.82,2.81,5.11,7.7,4.9,16.05-.7,32.1-1.67,48.16-.12,5.34.51,10.65,1.15,15.71,3.09.84.32,1.66.73,2.43,1.08-.21,1.44-1.16,1.15-1.87,1.15-27.48.07-54.85,2.17-82.21,4.44-17.08,1.42-34,4-51,6.66a41.92,41.92,0,0,1-5.6.38,2.54,2.54,0,0,1-2.7-2,2.81,2.81,0,0,1,1.09-2.85,9.51,9.51,0,0,1,3.92-2c3.62-1,7.25-1.89,10.88-2.81A5.43,5.43,0,0,0,95.55,232c-2.25-3.06-.49-6.21,0-9.38a6.65,6.65,0,0,1,2.46-1.7c2.15-.67,2.53-1.91,1.57-3.85a16.3,16.3,0,0,0-1.3-1.93q1.84-4.68,3.68-9.35c1.66,0,3.1.79,4.65,1.17s3,.75,4.63-.31C110.21,204.1,107.67,203.12,106.57,201Zm15.18,27.35c-4.32-6.85-8.68-12.8-13.38-19.18-3.94,7.5-6,15-9.12,22.46Zm9.9-15a51.83,51.83,0,0,0-3.17,14.15,63.3,63.3,0,0,0,12.31-.83Z"/><path class="cls-4" d="M120,213a2.32,2.32,0,0,0-1.6,1A2.52,2.52,0,0,1,115,215c-1.48-.72-1.32-2.2-1.15-3.49.26-2.07,1.17-4.07.63-6.22,1.45-.7,1.38-2.21,1.68-3.44a334.1,334.1,0,0,0,7.4-43.54c.29-2.67.47-5.34.8-8s1.48-4.06,3.48-4.23,3.3.88,4.26,3.5a14.65,14.65,0,0,1,.56,1.93c2.77,13.14,7.23,25.79,11.29,38.55,1.28,4.05,2.29,8.19,3.5,12.57a3.32,3.32,0,0,0,1.68-2.22c1.34-3.21,2.66-6.43,4-9.64.65-1.54,1.46-2.91,3.45-2.84s2.82,1.38,3.39,3c2.57,7.19,4.85,14.48,6.71,21.89.42,1.69.78,3.39,1.18,5.08a12.59,12.59,0,0,1,.45,2c.09,1.55.71,3.54-1.22,4.24s-2.72-1.19-3.5-2.56a19.61,19.61,0,0,1-1.1-2.58A164.93,164.93,0,0,1,156.9,203c-.31-1.09-.25-2.43-1.64-3.42a34.2,34.2,0,0,0-1.44,3.54c-1.41,5-3.8,9.73-4.4,15a3.09,3.09,0,0,1-3.24,2.93c-3.5-.48-3.6-3.43-4.32-5.94-2.19-15.46-7.76-30-12.62-45.41-1.18,3.8-1.18,7-1.68,10.16-1.64,10.15-3.15,20.33-7.06,30A5.69,5.69,0,0,0,120,213Z"/><path class="cls-4" d="M689.16,687.37a23.94,23.94,0,0,1-2.85,2.09,2.47,2.47,0,0,1-2.64-.13c-.88-.65-.71-1.65-.39-2.54.79-2.24,1.58-4.47,2.48-6.66a6.82,6.82,0,0,0,.48-5c2.12.25,1.85-1.65,2.22-2.7a154.94,154.94,0,0,0,5.83-21.69c2.19-10.89,4.31-21.79,6.48-32.69a52.59,52.59,0,0,1,1.37-5.43,4,4,0,0,1,3.89-2.94c1.83-.05,3.33,1.24,3.93,3.41a13,13,0,0,1,.39,3.17c.55,24.49,1.45,49,.85,73.48a68.08,68.08,0,0,1-1,10.78c-.3,1.64-.42,3.43-1.87,4.82-1.6-1.38-1.7-3.17-2.06-4.83-1.75-8.17-1.64-16.5-2.08-24.78-.46-8.54-.72-17.1-1.09-26.19a9.7,9.7,0,0,0-1.63,4.45A144.48,144.48,0,0,1,695,676.38,68.76,68.76,0,0,1,689.16,687.37Z"/><path class="cls-4" d="M101.37,729.19A10.55,10.55,0,0,1,94,732.94c.93-1.33-.82-2.17-.62-3.37l-.86-1.29,0,.12c.36-4.31-1.19-8.24-2.41-12.24-2.9-12-6.65-23.06-8.56-25-.37,2.16-.74,4.27-1.09,6.38-1.78,10.71-5.15,21.05-7.37,31.67-.74,3.56-4.22,4.39-6.7,1.74a25.06,25.06,0,0,1-2.68-4c-1-1.53-1.54-3.31-3.24-4.54a100.28,100.28,0,0,0,.35,13.45c.25,2.35-.12,4.87,1.2,7,0,.53-.09,1.06-.13,1.59-2.79-.83-3.75-3.29-4.76-5.57a44.29,44.29,0,0,1-3.18-13.23c-.38-3.46-.77-6.92-1.07-10.38a19.8,19.8,0,0,1,0-4c.22-2,1-3.64,3.09-4.28s3.67.4,4.86,2c1.69,2.24,3.22,4.6,4.87,6.88.77,1.06,1.16,2.42,2.37,3.17,1.14-.65,1-1.82,1.19-2.82,2.69-12.57,4.59-25.28,6.31-38a10.42,10.42,0,0,1,1.06-3.85c1.72-3.06,5.2-3.16,7.12-.22a5.7,5.7,0,0,1,.55,1.07c4.69,12.54,9.77,24.94,13,38A67.52,67.52,0,0,1,99.73,727C99.77,728.13,99.77,729.28,101.37,729.19Z"/><path class="cls-4" d="M443.48,113.56l-6.54-.09a7,7,0,0,0,.05-1.58q-3-16.5-6.07-33c-.25-1.33-.47-2.65-.7-4-2.52,8.74-5.28,17.17-9.62,25-.29.26-.58.54-.88.79-1.13.91-2.48,1.29-3.66.47s-.85-2.45-.51-3.66a56.35,56.35,0,0,1,2.07-5.56,12.15,12.15,0,0,0,.81-6.19c1.89-.71,1.71-2.59,2.1-4A264.81,264.81,0,0,0,425.88,55c.3-1.85.54-3.72,1-5.54.59-2.39,1.9-3.47,3.82-3.43s3.35,1.18,3.76,3.52c.95,5.41,1.68,10.85,2.54,16.28q2.5,15.87,5.08,31.74a18.35,18.35,0,0,0,.66,2.27c1.75-.06,2.24-1.51,3-2.49,2-2.49,3.94-5.08,5.87-7.65,1.14-1.52,2.21-3.16,4.49-2.73s2.86,2.28,3.25,4.14q1.78,8.44,3.38,16.94a33.94,33.94,0,0,1,.85,7.17l-2.5,0c-1-3.91-3.15-7.37-4.34-11.2-.74-2.38-1.57-4.73-2.4-7.2C450.94,99.75,445.08,108.89,443.48,113.56Z"/><path class="cls-4" d="M379.28,410.22c-.39,1.52-.66,3.07-1.19,4.54a4.55,4.55,0,0,0,1,5.09c1.43,1.45,3.14.85,4.74.09a3.79,3.79,0,0,1,.75-.21c4,6.35,6.67,13.34,9.65,20.18a6.69,6.69,0,0,1,.33,2.76,3.41,3.41,0,0,1-2.12,3.14,3.33,3.33,0,0,1-3.69-.75,10.35,10.35,0,0,1-2.57-4c-2.62-5.55-5.18-11.15-8-16.62a86,86,0,0,0-10.76-16.24c.72,2.69,1.22,4.63,1.74,6.56,2.89,10.74,5.25,21.53,3.82,32.81a107.11,107.11,0,0,1-3.26,14c-2.1.91-3.94,2.49-6.39,2.52-1.82-1.2-1.49-2.93-1.17-4.66.62-3.28,1.31-6.55,1.85-9.85,1.23-7.47.72-14.91-.46-22.34a228.22,228.22,0,0,0-5.24-25.1c-1-3.47-1.93-7-4.42-9.77a1.94,1.94,0,0,1-.23-.33c-1.23-2.07-1.2-3.91.08-5.14s3.18-1.22,5.11.2a54.82,54.82,0,0,1,7.37,6.76c.67.72,1.23,1.92,2.61,1.16,0,1.74,0,3.47-.07,5.21a9.69,9.69,0,0,0,1.12,4.63c1.17,2.4,2.5,2.38,4.11.09a2.26,2.26,0,0,1,.62-.47C376.76,405.92,377.71,408.32,379.28,410.22Z"/><path class="cls-4" d="M106.57,201c1.1,2.15,3.64,3.13,4.68,5.64-1.59,1.06-3.12.67-4.63.31s-3-1.21-4.65-1.17c-1.2-.59-2.39-1.19-3.61-1.75-5.61-2.58-11.12-5.32-15.8-9.47a36.55,36.55,0,0,0-3.13-2.26,1.24,1.24,0,0,0-.13,1.62c4.51,7.15,9.07,14.27,15.91,19.52.94.72,1.72,1.75,3.08,1.69a16.3,16.3,0,0,1,1.3,1.93c1,1.94.58,3.18-1.57,3.85a6.65,6.65,0,0,0-2.46,1.7,1.88,1.88,0,0,0-1.19-1.48c-5.81-2.86-10-7.47-13.69-12.65a109.5,109.5,0,0,1-12.57-23.22c-1.7-4.35-3.35-8.73-5-13.11a13.42,13.42,0,0,1-.74-2.69,2.88,2.88,0,0,1,1.52-3,3.14,3.14,0,0,1,3.43.09,12,12,0,0,1,2.89,3.29c9,11.94,19.27,22.56,32.69,29.68A9.05,9.05,0,0,0,106.57,201Z"/><path class="cls-4" d="M675.17,195.6a6.9,6.9,0,0,0,.69,3c1.3,3.22.46,4.6-2.93,5-.64.07-1.3.08-1.95.11-4.09-3.84-6.28-9-9.12-13.63-1-1.67-1.82-3.48-3.57-4.77.84,11.67,3.79,23,4.69,34.6-1.61.24-1.82-.88-2.26-1.61a49.76,49.76,0,0,1-4.41-9.89,158.22,158.22,0,0,1-7.12-30.46,14.36,14.36,0,0,1,.32-6c1.12-3.63,4.68-4.68,7.62-2.25a17.39,17.39,0,0,1,2.13,2.39c5.11,6.24,9.17,13.19,13.3,20.09C673.29,193.41,673.68,194.94,675.17,195.6Z"/><path class="cls-4" d="M509.23,642c0-.47,0-.94,0-1.4A3.7,3.7,0,0,1,512.6,642C511.39,642.86,510.31,642.4,509.23,642Z"/><path class="cls-4" d="M421.39,382.81a1.7,1.7,0,0,0-1.06-1.31c.53-.59,1.36-1.35,1.92-.77C423.15,381.65,422.13,382.28,421.39,382.81Z"/><path class="cls-4" d="M120.64,675.78l-.06,1a3.81,3.81,0,0,1-1.35-3.52A2,2,0,0,1,120.64,675.78Z"/><path class="cls-3" d="M93.33,729.57a1.4,1.4,0,0,1-.86-1.29Z"/></g></svg>