<svg id="Layer_1" data-name="Layer 1" xmlns="http://www.w3.org/2000/svg" xmlns:xlink="http://www.w3.org/1999/xlink" viewBox="0 0 800 800"><defs><style>.cls-1{fill:none;}.cls-2{fill:#efefef;}.cls-3{clip-path:url(#clip-path);}</style><clipPath id="clip-path"><rect class="cls-1" width="800" height="800"/></clipPath></defs><title>Artboard 1</title><rect class="cls-2" width="800" height="800"/><g class="cls-3"><path d="M-10.29,25.32a12.8,12.8,0,0,0-10.54,4.24C-28,37.41-35,45.33-41.67,53.57a19.74,19.74,0,0,0-3.61,9.2c-1,6.71,4.33,12.43,12.53,12.51,3.42,0,6.81-2.77,9.86-6.39,6.13-7.27,12.44-14.4,18.58-21.67A22.71,22.71,0,0,0-.45,41.36,11.47,11.47,0,0,0-10.29,25.32Z"/><path d="M52.89-20.83a17.31,17.31,0,0,0-4.44,1.26C35.82-14.2,27.44-4.35,20.76,7.17c-1.14,2-1.4,4.44-2.07,6.68.42,7.1,6.42,11.89,13.12,9.94A16.71,16.71,0,0,0,38.61,20C44.12,14.6,49.72,9.2,54.44,3.15A50,50,0,0,0,61.59-10.8C63.65-16.57,59-21.62,52.89-20.83Z"/><path d="M33.44,37.54a14.56,14.56,0,0,0-6.41-2c-8.39-.65-13.84,6.68-11,14.6A15,15,0,0,0,19,55.35a124.35,124.35,0,0,0,11.63,11c3.32,2.66,7.27,4.45,10.72,4.6,6,0,10-3.22,10.33-8a15,15,0,0,0-1.1-6.6C47.09,48.11,40.87,42.19,33.44,37.54Z"/><path d="M-7-18.23a12.6,12.6,0,0,0-3.54-1.38c-7.76-2-14,4-11.74,11.61a37.93,37.93,0,0,0,15,20.86c2.22,1.52,5.13,2,7.73,3C9.19,15.34,14,8.25,10.35.43,6.61-7.65.42-13.58-7-18.23Z"/><path d="M406.71,25.32a12.8,12.8,0,0,0-10.54,4.24c-7.13,7.85-14.19,15.77-20.84,24a19.74,19.74,0,0,0-3.61,9.2c-1,6.71,4.33,12.43,12.53,12.51,3.42,0,6.81-2.77,9.86-6.39,6.13-7.27,12.44-14.4,18.58-21.67a22.71,22.71,0,0,0,3.86-5.86A11.47,11.47,0,0,0,406.71,25.32Z"/><path d="M469.89-20.83a17.31,17.31,0,0,0-4.44,1.26c-12.63,5.37-21,15.22-27.69,26.74-1.14,2-1.4,4.44-2.07,6.68.42,7.1,6.42,11.89,13.12,9.94a16.71,16.71,0,0,0,6.8-3.81c5.51-5.38,11.11-10.78,15.83-16.83a50,50,0,0,0,7.15-13.95C480.65-16.57,476-21.62,469.89-20.83Z"/><path d="M450.44,37.54a14.56,14.56,0,0,0-6.41-2c-8.39-.65-13.84,6.68-10.95,14.6A15,15,0,0,0,436,55.35a124.35,124.35,0,0,0,11.63,11c3.32,2.66,7.27,4.45,10.72,4.6,6,0,10.05-3.22,10.33-8a15,15,0,0,0-1.1-6.6C464.09,48.11,457.87,42.19,450.44,37.54Z"/><path d="M410-18.23a12.6,12.6,0,0,0-3.54-1.38c-7.76-2-14,4-11.74,11.61a37.93,37.93,0,0,0,14.95,20.86c2.22,1.52,5.13,2,7.73,3,8.84-.52,13.6-7.61,10-15.43C423.61-7.65,417.42-13.58,410-18.23Z"/><path d="M789.71,25.32a12.8,12.8,0,0,0-10.54,4.24c-7.13,7.85-14.19,15.77-20.84,24a19.74,19.74,0,0,0-3.61,9.2c-1,6.71,4.33,12.43,12.53,12.51,3.42,0,6.81-2.77,9.86-6.39,6.13-7.27,12.44-14.4,18.58-21.67a22.71,22.71,0,0,0,3.86-5.86A11.47,11.47,0,0,0,789.71,25.32Z"/><path d="M793-18.23a12.6,12.6,0,0,0-3.54-1.38c-7.76-2-14,4-11.74,11.61a37.93,37.93,0,0,0,15,20.86c2.22,1.52,5.13,2,7.73,3,8.84-.52,13.6-7.61,10-15.43C806.61-7.65,800.42-13.58,793-18.23Z"/><path d="M52.89,779.17a17.31,17.31,0,0,0-4.44,1.26c-12.63,5.37-21,15.22-27.69,26.74-1.14,2-1.4,4.44-2.07,6.68.42,7.1,6.42,11.89,13.12,9.94a16.71,16.71,0,0,0,6.8-3.81c5.51-5.38,11.11-10.78,15.83-16.83a50,50,0,0,0,7.15-13.95C63.65,783.43,59,778.38,52.89,779.17Z"/><path d="M-7,781.77a12.6,12.6,0,0,0-3.54-1.38c-7.76-2-14,4-11.74,11.61a37.93,37.93,0,0,0,15,20.86c2.22,1.52,5.13,2,7.73,3,8.84-.52,13.6-7.61,10-15.43C6.61,792.35.42,786.42-7,781.77Z"/><path d="M469.89,779.17a17.31,17.31,0,0,0-4.44,1.26c-12.63,5.37-21,15.22-27.69,26.74-1.14,2-1.4,4.44-2.07,6.68.42,7.1,6.42,11.89,13.12,9.94a16.71,16.71,0,0,0,6.8-3.81c5.51-5.38,11.11-10.78,15.83-16.83a50,50,0,0,0,7.15-13.95C480.65,783.43,476,778.38,469.89,779.17Z"/><path d="M410,781.77a12.6,12.6,0,0,0-3.54-1.38c-7.76-2-14,4-11.74,11.61a37.93,37.93,0,0,0,14.95,20.86c2.22,1.52,5.13,2,7.73,3,8.84-.52,13.6-7.61,10-15.43C423.61,792.35,417.42,786.42,410,781.77Z"/><path d="M793,781.77a12.6,12.6,0,0,0-3.54-1.38c-7.76-2-14,4-11.74,11.61a37.93,37.93,0,0,0,15,20.86c2.22,1.52,5.13,2,7.73,3,8.84-.52,13.6-7.61,10-15.43C806.61,792.35,800.42,786.42,793,781.77Z"/><g id="Lf6HiO.tif"><path d="M-10.29,398.32a12.8,12.8,0,0,0-10.54,4.24c-7.13,7.85-14.19,15.77-20.84,24a19.74,19.74,0,0,0-3.61,9.2c-1,6.71,4.33,12.43,12.53,12.51,3.42,0,6.81-2.77,9.86-6.39,6.13-7.27,12.44-14.4,18.58-21.67a22.71,22.71,0,0,0,3.86-5.86A11.47,11.47,0,0,0-10.29,398.32Z"/><path d="M52.89,352.17a17.31,17.31,0,0,0-4.44,1.26c-12.63,5.37-21,15.22-27.69,26.74-1.14,2-1.4,4.44-2.07,6.68.42,7.1,6.42,11.89,13.12,9.94a16.71,16.71,0,0,0,6.8-3.81c5.51-5.38,11.11-10.78,15.83-16.83a50,50,0,0,0,7.15-13.95C63.65,356.43,59,351.38,52.89,352.17Z"/><path d="M33.44,410.54a14.56,14.56,0,0,0-6.41-2c-8.39-.65-13.84,6.68-11,14.6A15,15,0,0,0,19,428.35a124.35,124.35,0,0,0,11.63,11c3.32,2.66,7.27,4.45,10.72,4.6,6,0,10-3.22,10.33-8a15,15,0,0,0-1.1-6.6C47.09,421.11,40.87,415.19,33.44,410.54Z"/><path d="M-7,354.77a12.6,12.6,0,0,0-3.54-1.38c-7.76-2-14,4-11.74,11.61a37.93,37.93,0,0,0,15,20.86c2.22,1.52,5.13,2,7.73,3,8.84-.52,13.6-7.61,10-15.43C6.61,365.35.42,359.42-7,354.77Z"/></g><g id="Lf6HiO.tif-2" data-name="Lf6HiO.tif"><path d="M789.71,398.32a12.8,12.8,0,0,0-10.54,4.24c-7.13,7.85-14.19,15.77-20.84,24a19.74,19.74,0,0,0-3.61,9.2c-1,6.71,4.33,12.43,12.53,12.51,3.42,0,6.81-2.77,9.86-6.39,6.13-7.27,12.44-14.4,18.58-21.67a22.71,22.71,0,0,0,3.86-5.86A11.47,11.47,0,0,0,789.71,398.32Z"/><path d="M793,354.77a12.6,12.6,0,0,0-3.54-1.38c-7.76-2-14,4-11.74,11.61a37.93,37.93,0,0,0,15,20.86c2.22,1.52,5.13,2,7.73,3,8.84-.52,13.6-7.61,10-15.43C806.61,365.35,800.42,359.42,793,354.77Z"/></g><path d="M394.64,398.38a12.78,12.78,0,0,0-10.54,4.25c-7.12,7.84-14.19,15.76-20.84,24a19.82,19.82,0,0,0-3.61,9.21c-1,6.7,4.33,12.43,12.53,12.5,3.42,0,6.81-2.77,9.86-6.38,6.13-7.28,12.44-14.41,18.58-21.68a22.66,22.66,0,0,0,3.86-5.85A11.48,11.48,0,0,0,394.64,398.38Z"/><path d="M457.82,352.24a16.89,16.89,0,0,0-4.44,1.25c-12.63,5.38-21,15.23-27.69,26.75-1.14,2-1.4,4.44-2.07,6.68.42,7.1,6.42,11.89,13.12,9.93a16.6,16.6,0,0,0,6.8-3.81c5.51-5.38,11.11-10.78,15.83-16.83a49.91,49.91,0,0,0,7.15-13.95C468.58,356.49,463.91,351.44,457.82,352.24Z"/><path d="M438.37,410.6a14.55,14.55,0,0,0-6.41-2c-8.39-.65-13.84,6.67-10.95,14.59a15,15,0,0,0,2.91,5.18,127,127,0,0,0,11.63,11c3.32,2.65,7.27,4.45,10.72,4.6,6,0,10.05-3.23,10.34-8a15.15,15.15,0,0,0-1.11-6.59C452,421.17,445.8,415.26,438.37,410.6Z"/><path d="M397.88,354.84a12.62,12.62,0,0,0-3.54-1.39c-7.76-2-14,4-11.74,11.61a37.89,37.89,0,0,0,14.95,20.86c2.22,1.52,5.13,2,7.73,3,8.84-.51,13.6-7.61,10-15.42C411.54,365.41,405.35,359.48,397.88,354.84Z"/></g></svg>