<svg id="Layer_1" data-name="Layer 1" xmlns="http://www.w3.org/2000/svg" xmlns:xlink="http://www.w3.org/1999/xlink" viewBox="0 0 800 800"><defs><style>.cls-1{fill:none;}.cls-2{fill:#ffeec7;}.cls-3{clip-path:url(#clip-path);}.cls-4{fill:#ffc42e;}.cls-5{fill:#b7691c;}</style><clipPath id="clip-path"><rect class="cls-1" y="1" width="800" height="800"/></clipPath></defs><title>Artboard 1 copy 4</title><rect class="cls-2" width="800" height="800"/><g class="cls-3"><path class="cls-4" d="M-32.69,5.41c.13-17.65,3-32.14,9.85-45.71A56.87,56.87,0,0,1-6.56-60.5c14.64-11.15,32-10.71,46,1.19a57.27,57.27,0,0,1,14.2,18.45C61.62-24.81,64.18-7.73,63,10a96.55,96.55,0,0,1-7.62,32.2C49.78,55,41.87,65.86,28.77,72c-2.36,1.09-2.52,2.71-2.39,4.83.47,7.25.91,14.5,1.28,21.76a26.43,26.43,0,0,1-.23,6,6.78,6.78,0,0,1-5.85,5.66,7.13,7.13,0,0,1-7.49-4.27A13.51,13.51,0,0,1,13,101.15c-.69-7.6-1.47-15.19-2-22.8-.19-2.76-1.06-4.12-4-4.68-9.17-1.74-16.22-7-22-14.14C-24.42,47.92-29,34.25-31.39,19.71A84.14,84.14,0,0,1-32.69,5.41ZM24.9,55.94C31.52,51.63,36.43,45.57,40,36.57c8.89-22.72,8.67-45.43-.84-67.94a42.12,42.12,0,0,0-10.18-14.7c-9-8.36-19.68-8.38-28.8,0a44.7,44.7,0,0,0-9.88,13.6c-7,14.25-9.19,29.37-8,45.07.84,11.38,3.59,22.23,9.57,32.09C-4.76,50.33-.4,55.14,5.59,58.26c1,.55,2.11,1.53,3.74.45-.65-15.08-2-30.27-1.77-45.52a3,3,0,0,0-1.79-3C.2,7.33-3,2.1-7-2.35c-2.49-2.81-2.47-6.21-.54-8.47,2.14-2.5,5.49-2.7,8.87-.43,1,.7,1.9,1.68,2.91,2.46S5.68-6.5,7.81-7.61c0-3.57,0-7.37,0-11.17a13.74,13.74,0,0,1,1.39-6.35c1.72-3.21,5.54-3.17,7.38,0a10.9,10.9,0,0,1,1.2,4.72c.69,8.51,1.33,17,2,25.54A20.6,20.6,0,0,0,21.45,13c2.11-2.23,3.8-4.08,5.58-5.85s3.14-3.58,5.24-4.74a6.07,6.07,0,0,1,7.52.91,5.78,5.78,0,0,1,1,7,15.17,15.17,0,0,1-2.16,3.11c-4.32,4.92-8.48,10-13.75,14-1.18.89-2.34,1.77-2.19,3.49C23.43,39,24.13,47.14,24.9,55.94Z"/><path class="cls-4" d="M767.31,5.41c.13-17.65,3-32.14,9.85-45.71a56.87,56.87,0,0,1,16.28-20.2c14.64-11.15,32-10.71,46,1.19a57.27,57.27,0,0,1,14.2,18.45c8,16.05,10.53,33.13,9.33,50.84a96.55,96.55,0,0,1-7.62,32.2C849.78,55,841.87,65.86,828.77,72c-2.36,1.09-2.52,2.71-2.39,4.83.47,7.25.91,14.5,1.28,21.76a26.43,26.43,0,0,1-.23,6,6.78,6.78,0,0,1-5.85,5.66,7.13,7.13,0,0,1-7.49-4.27,13.51,13.51,0,0,1-1.07-4.76c-.69-7.6-1.47-15.19-2-22.8-.19-2.76-1.06-4.12-4-4.68-9.17-1.74-16.22-7-22-14.14C775.58,47.92,771,34.25,768.61,19.71A84.14,84.14,0,0,1,767.31,5.41ZM824.9,55.94c6.62-4.31,11.53-10.37,15.06-19.37,8.89-22.72,8.67-45.43-.84-67.94a42.12,42.12,0,0,0-10.18-14.7c-9-8.36-19.68-8.38-28.8,0a44.7,44.7,0,0,0-9.88,13.6c-7,14.25-9.19,29.37-8,45.07.84,11.38,3.59,22.23,9.57,32.09,3.45,5.68,7.81,10.49,13.8,13.61,1,.55,2.11,1.53,3.74.45-.65-15.08-2.05-30.27-1.77-45.52a3,3,0,0,0-1.79-3C800.2,7.33,797,2.1,793-2.35c-2.49-2.81-2.47-6.21-.54-8.47,2.14-2.5,5.49-2.7,8.87-.43,1,.7,1.9,1.68,2.91,2.46s1.44,2.29,3.57,1.18c0-3.57,0-7.37,0-11.17a13.74,13.74,0,0,1,1.39-6.35c1.72-3.21,5.54-3.17,7.38,0a10.9,10.9,0,0,1,1.2,4.72c.69,8.51,1.33,17,2,25.54A20.6,20.6,0,0,0,821.45,13c2.11-2.23,3.8-4.08,5.58-5.85s3.14-3.58,5.24-4.74a6.07,6.07,0,0,1,7.52.91,5.78,5.78,0,0,1,1,7,15.17,15.17,0,0,1-2.16,3.11c-4.32,4.92-8.48,10-13.75,14-1.18.89-2.34,1.77-2.19,3.49C823.43,39,824.13,47.14,824.9,55.94Z"/><path class="cls-5" d="M405.8-68a8,8,0,0,1,7.08,4.35c1.73,3,3.35,6,4.79,9.16q20,43.28,39,87c3.06,7,6.33,13.89,9.05,21,2.4,6.3-.38,11.16-6.8,13a23.18,23.18,0,0,1-3.19.67q-12.15,1.67-24.29,3.3c-3.06.42-6.12.79-9.18,1.24-3.78.56-3.93.69-3.53,4.49.79,7.4,1.69,14.8,2.53,22.19a15.47,15.47,0,0,1-.05,6c-.88,3.2-3,5.21-6,5.59a6.89,6.89,0,0,1-7.51-4.18A17.6,17.6,0,0,1,406.5,101c-1.06-7.36-2-14.75-3-22.12-.61-4.39-.64-4.45-5.12-3.8-8.09,1.16-16.16,2.45-24.24,3.6-6.31.89-8.91-.64-11.18-6.67a16.52,16.52,0,0,0-2.38-3.58c-2.09-3-2.52-6.34-.28-9.14,2.4-3,3.24-6.41,4.22-9.88,8.59-30.21,18-60.19,27.18-90.21,2.14-6.94,4.12-13.93,6.34-20.84C399.39-65.95,402.12-68,405.8-68ZM407-36.22l-1.23.11q-4.47,14.26-8.93,28.52c-6.77,21.65-13.65,43.27-21,64.75-1.54,4.53-1.18,5.13,3,4.56,6.29-.87,12.54-2.07,18.83-2.91,2.58-.35,3.37-1.42,3-3.94-.6-4.5-1-9-1.45-13.54a68,68,0,0,1-.22-14.68c.42-3.58,2.59-5.82,5.29-6.06,2.45-.21,4.76,1.44,6.09,4.58a43.65,43.65,0,0,1,2.58,10c.9,5.55,1.64,11.13,2.53,16.68.6,3.71.78,3.85,4.61,3.34,3.24-.43,6.47-1,9.67-1.6,4.93-1,10.06-1.11,15.29-3.19Z"/><path class="cls-5" d="M14.8,333a8,8,0,0,1,7.08,4.35c1.73,3,3.35,6,4.79,9.16q20,43.28,39,87c3.06,7,6.33,13.89,9,21,2.4,6.3-.38,11.16-6.8,13a23.18,23.18,0,0,1-3.19.67q-12.15,1.66-24.29,3.3c-3.06.42-6.12.79-9.18,1.24-3.78.56-3.93.69-3.53,4.49.79,7.4,1.69,14.8,2.53,22.19a15.47,15.47,0,0,1-.05,5.95c-.88,3.2-3,5.21-6,5.59a6.89,6.89,0,0,1-7.51-4.18A17.6,17.6,0,0,1,15.5,502c-1.06-7.36-2-14.75-3-22.12-.61-4.39-.64-4.45-5.12-3.8-8.09,1.16-16.16,2.45-24.24,3.6-6.31.89-8.91-.64-11.18-6.67a16.52,16.52,0,0,0-2.38-3.58c-2.09-3-2.52-6.34-.28-9.14,2.4-3,3.24-6.41,4.22-9.88,8.59-30.21,18-60.19,27.18-90.21C2.8,353.3,4.78,346.31,7,339.4,8.39,335.05,11.12,333,14.8,333ZM16,364.78l-1.23.11q-4.47,14.26-8.93,28.52C-.92,415.06-7.8,436.68-15.1,458.16c-1.54,4.53-1.18,5.13,3,4.56,6.29-.87,12.54-2.07,18.83-2.91,2.58-.35,3.37-1.42,3-3.94-.6-4.5-1-9-1.45-13.54a68,68,0,0,1-.22-14.68c.42-3.58,2.59-5.82,5.29-6.06,2.45-.21,4.76,1.44,6.09,4.58a43.65,43.65,0,0,1,2.58,10c.9,5.55,1.64,11.13,2.53,16.68.6,3.71.78,3.85,4.61,3.34,3.24-.43,6.47-1,9.67-1.6,4.93-1,10.06-1.11,15.29-3.19Z"/><path class="cls-5" d="M814.8,333a8,8,0,0,1,7.08,4.35c1.73,3,3.35,6,4.79,9.16q20,43.28,39,87c3.06,7,6.33,13.89,9.05,21,2.4,6.3-.38,11.16-6.8,13a23.18,23.18,0,0,1-3.19.67q-12.15,1.66-24.29,3.3c-3.06.42-6.12.79-9.18,1.24-3.78.56-3.93.69-3.53,4.49.79,7.4,1.69,14.8,2.53,22.19a15.47,15.47,0,0,1,0,5.95c-.88,3.2-3,5.21-6,5.59a6.89,6.89,0,0,1-7.51-4.18A17.6,17.6,0,0,1,815.5,502c-1.06-7.36-2-14.75-3-22.12-.61-4.39-.64-4.45-5.12-3.8-8.09,1.16-16.16,2.45-24.24,3.6-6.31.89-8.91-.64-11.18-6.67a16.52,16.52,0,0,0-2.38-3.58c-2.09-3-2.52-6.34-.28-9.14,2.4-3,3.24-6.41,4.22-9.88,8.59-30.21,18-60.19,27.18-90.21,2.14-6.94,4.12-13.93,6.34-20.84C808.39,335.05,811.12,333,814.8,333ZM816,364.78l-1.23.11q-4.47,14.26-8.93,28.52c-6.77,21.65-13.65,43.27-21,64.75-1.54,4.53-1.18,5.13,3,4.56,6.29-.87,12.54-2.07,18.83-2.91,2.58-.35,3.37-1.42,3-3.94-.6-4.5-1-9-1.45-13.54a68,68,0,0,1-.22-14.68c.42-3.58,2.59-5.82,5.29-6.06,2.45-.21,4.76,1.44,6.09,4.58a43.65,43.65,0,0,1,2.58,10c.9,5.55,1.64,11.13,2.53,16.68.6,3.71.78,3.85,4.61,3.34,3.24-.43,6.47-1,9.67-1.6,4.93-1,10.06-1.11,15.29-3.19Z"/><path class="cls-5" d="M586.45,248.5c.57,6.19,1.16,12,1.59,17.74.2,2.65,2.22,3.56,4,4.77q17.12,11.69,34.25,23.34a57.33,57.33,0,0,1,11.43,10c.59.69,1.27,1.31,1.79,2.05,2.48,3.57,2.15,7.77-.78,10.38a7.21,7.21,0,0,1-10-.13c-9.67-9.93-22.3-15.57-33.31-23.53-1.4-1-2.72-2.5-5.24-2.17.36,5.38.69,10.77,1.08,16.15.15,2.17,2,2.87,3.55,3.77,8.65,5,17.28,10,26,14.95,10.32,5.82,19.66,13.08,29.36,19.82a11.5,11.5,0,0,1,3,3.13,7.39,7.39,0,0,1-6.78,11.32c-2.5-.08-4.47-1.36-6.46-2.65-13.54-8.85-27.11-17.66-41.39-25.29-1.52-.81-2.84-2.36-4.93-1.83-1,1.74-.42,3.57-.33,5.32.66,12.16,1.4,24.31,2.08,36.47a28.22,28.22,0,0,1-.09,5.44,7.6,7.6,0,0,1-14.95,1.14,42.3,42.3,0,0,1-1.09-7.54c-.86-10.69-1.62-21.39-2.46-32.08-.13-1.57.19-3.3-1.14-4.63-2.07,0-3.16,1.67-4.53,2.76-8.41,6.66-16.76,13.39-25.17,20.05-2.13,1.69-4.37,3.27-6.64,4.76-5.82,3.81-9.77,4.17-12.32,1.23s-1.51-7.12,3.63-12.26c2.43-2.44,5-4.81,7.59-7q14.79-12.5,29.68-24.87c7.12-5.9,7.18-5.85,6.53-14.93-.3-4.27-.66-8.53-1-13-2.48.67-3.23,2.45-4.35,3.75-5.92,6.9-11.73,13.88-17.68,20.76a45.58,45.58,0,0,1-5.83,5.71c-3.1,2.5-6.11,2.56-8.45.55-2.13-1.83-2.59-4.71-.88-8a44,44,0,0,1,4.45-6.83C548,297.9,555,288.3,563.05,279.69c7.1-7.6,10.85-15.58,8.64-26-.37-1.74.17-3.61-.5-5.38-1.67-.44-2.14,1.07-3,1.88-3.34,3.34-6.56,6.81-9.94,10.11a23.21,23.21,0,0,1-7.1,5,5.16,5.16,0,0,1-5.63-.65,4.91,4.91,0,0,1-1.53-5.44,16.13,16.13,0,0,1,2-4.46,64.64,64.64,0,0,1,5.09-7.07c5.63-6.66,11.42-13.2,17.08-19.84,3.23-3.79,7.14-4.88,11.73-3.11,5.93,2.29,11.8,4.74,16.69,9,6.3,5.5,12.73,10.85,19,16.4,4.59,4.08,5.36,8.78,2.4,12.38-2.71,3.28-8.39,3.64-12.68-.16-4.48-4-9.3-7.58-14-11.3C590.05,250.13,589.07,248.69,586.45,248.5Z"/><path class="cls-4" d="M-32.69,805.41c.13-17.65,3-32.14,9.85-45.71A56.87,56.87,0,0,1-6.56,739.5c14.64-11.15,32-10.71,46,1.19a57.27,57.27,0,0,1,14.2,18.45c8,16.05,10.53,33.13,9.33,50.84a96.55,96.55,0,0,1-7.62,32.2C49.78,855,41.87,865.86,28.77,872c-2.36,1.09-2.52,2.71-2.39,4.83.47,7.25.91,14.5,1.28,21.76a26.43,26.43,0,0,1-.23,6,6.78,6.78,0,0,1-5.85,5.66,7.13,7.13,0,0,1-7.49-4.27A13.51,13.51,0,0,1,13,901.15c-.69-7.6-1.47-15.19-2-22.8-.19-2.76-1.06-4.12-4-4.68-9.17-1.74-16.22-7-22-14.14-9.47-11.61-14.07-25.28-16.44-39.82A84.14,84.14,0,0,1-32.69,805.41ZM24.9,855.94c6.62-4.31,11.53-10.37,15.06-19.37,8.89-22.72,8.67-45.43-.84-67.94a42.12,42.12,0,0,0-10.18-14.7c-9-8.36-19.68-8.38-28.8,0a44.7,44.7,0,0,0-9.88,13.6c-7,14.25-9.19,29.37-8,45.07.84,11.38,3.59,22.23,9.57,32.09,3.45,5.68,7.81,10.49,13.8,13.61,1,.55,2.11,1.53,3.74.45-.65-15.08-2-30.27-1.77-45.52a3,3,0,0,0-1.79-3.05C.2,807.33-3,802.1-7,797.65c-2.49-2.81-2.47-6.21-.54-8.47,2.14-2.5,5.49-2.7,8.87-.43,1,.7,1.9,1.68,2.91,2.46s1.44,2.29,3.57,1.18c0-3.57,0-7.37,0-11.17a13.74,13.74,0,0,1,1.39-6.35c1.72-3.21,5.54-3.17,7.38,0a10.9,10.9,0,0,1,1.2,4.72c.69,8.51,1.33,17,2,25.54A20.6,20.6,0,0,0,21.45,813c2.11-2.23,3.8-4.08,5.58-5.85s3.14-3.58,5.24-4.74a6.07,6.07,0,0,1,7.52.91,5.78,5.78,0,0,1,1,7,15.17,15.17,0,0,1-2.16,3.11c-4.32,4.92-8.48,10-13.75,14-1.18.89-2.34,1.77-2.19,3.49C23.43,839,24.13,847.14,24.9,855.94Z"/><path class="cls-4" d="M191.31,229.41c.13-17.65,3-32.14,9.85-45.71a56.87,56.87,0,0,1,16.28-20.2c14.64-11.15,32-10.71,46,1.19a57.27,57.27,0,0,1,14.2,18.45c8,16.05,10.53,33.13,9.33,50.84a96.55,96.55,0,0,1-7.62,32.2C273.78,279,265.87,289.86,252.77,296c-2.36,1.09-2.52,2.71-2.39,4.83.47,7.25.91,14.5,1.28,21.76a26.43,26.43,0,0,1-.23,6,6.78,6.78,0,0,1-5.85,5.66,7.13,7.13,0,0,1-7.49-4.27,13.51,13.51,0,0,1-1.07-4.76c-.69-7.6-1.47-15.19-2-22.8-.19-2.76-1.06-4.12-4-4.68-9.17-1.74-16.22-7.05-22-14.14-9.47-11.61-14.07-25.28-16.44-39.82A84.14,84.14,0,0,1,191.31,229.41Zm57.59,50.53c6.62-4.31,11.53-10.37,15.06-19.37,8.89-22.72,8.67-45.43-.84-67.94a42.12,42.12,0,0,0-10.18-14.7c-9-8.36-19.68-8.38-28.8,0a44.7,44.7,0,0,0-9.88,13.6c-7,14.25-9.19,29.37-8,45.07.84,11.38,3.59,22.23,9.57,32.09,3.45,5.68,7.81,10.49,13.8,13.61,1,.55,2.11,1.53,3.74.45-.65-15.08-2.05-30.27-1.77-45.52a3,3,0,0,0-1.79-3.05c-5.57-2.81-8.81-8-12.77-12.49-2.49-2.81-2.47-6.21-.54-8.47,2.14-2.5,5.49-2.7,8.87-.43,1,.7,1.9,1.68,2.91,2.46s1.44,2.29,3.57,1.18c0-3.57,0-7.37,0-11.17a13.74,13.74,0,0,1,1.39-6.35c1.72-3.21,5.54-3.17,7.38,0a10.9,10.9,0,0,1,1.2,4.72c.69,8.51,1.33,17,2,25.54a20.6,20.6,0,0,0,1.64,7.87c2.11-2.23,3.8-4.08,5.58-5.85s3.14-3.58,5.24-4.74a6.07,6.07,0,0,1,7.52.91,5.78,5.78,0,0,1,1,7,15.17,15.17,0,0,1-2.16,3.11c-4.32,4.92-8.48,10-13.75,14-1.18.89-2.34,1.77-2.19,3.49C247.43,263,248.13,271.14,248.9,279.94Z"/><path class="cls-4" d="M287.31,495.41c.13-17.65,3-32.14,9.85-45.71a56.87,56.87,0,0,1,16.28-20.2c14.64-11.15,32-10.71,46,1.19a57.27,57.27,0,0,1,14.2,18.45c8,16.05,10.53,33.13,9.33,50.84a96.55,96.55,0,0,1-7.62,32.2C369.78,545,361.87,555.86,348.77,562c-2.36,1.09-2.52,2.71-2.39,4.83.47,7.25.91,14.5,1.28,21.76a26.43,26.43,0,0,1-.23,6,6.78,6.78,0,0,1-5.85,5.66,7.13,7.13,0,0,1-7.49-4.27,13.51,13.51,0,0,1-1.07-4.76c-.69-7.6-1.47-15.19-2-22.8-.19-2.76-1.06-4.12-4-4.68-9.17-1.74-16.22-7-22-14.14-9.47-11.61-14.07-25.28-16.44-39.82A84.14,84.14,0,0,1,287.31,495.41Zm57.59,50.53c6.62-4.31,11.53-10.37,15.06-19.37,8.89-22.72,8.67-45.43-.84-67.94a42.12,42.12,0,0,0-10.18-14.7c-9-8.36-19.68-8.38-28.8,0a44.7,44.7,0,0,0-9.88,13.6c-7,14.25-9.19,29.37-8,45.07.84,11.38,3.59,22.23,9.57,32.09,3.45,5.68,7.81,10.49,13.8,13.61,1.05.55,2.11,1.53,3.74.45-.65-15.08-2.05-30.27-1.77-45.52a3,3,0,0,0-1.79-3.05c-5.57-2.81-8.81-8-12.77-12.49-2.49-2.81-2.47-6.21-.54-8.47,2.14-2.5,5.49-2.7,8.87-.43,1.05.7,1.9,1.68,2.91,2.46s1.44,2.29,3.57,1.18c0-3.57,0-7.37,0-11.17a13.74,13.74,0,0,1,1.39-6.35c1.72-3.21,5.54-3.17,7.38,0a10.9,10.9,0,0,1,1.2,4.72c.69,8.51,1.33,17,2,25.54a20.6,20.6,0,0,0,1.64,7.87c2.11-2.23,3.8-4.08,5.58-5.85s3.14-3.58,5.24-4.74a6.07,6.07,0,0,1,7.52.91,5.78,5.78,0,0,1,1,7,15.17,15.17,0,0,1-2.16,3.11c-4.32,4.92-8.48,10-13.75,14-1.18.89-2.34,1.77-2.19,3.49C343.43,529,344.13,537.14,344.9,545.94Z"/><path class="cls-4" d="M767.31,805.41c.13-17.65,3-32.14,9.85-45.71a56.87,56.87,0,0,1,16.28-20.2c14.64-11.15,32-10.71,46,1.19a57.27,57.27,0,0,1,14.2,18.45c8,16.05,10.53,33.13,9.33,50.84a96.55,96.55,0,0,1-7.62,32.2C849.78,855,841.87,865.86,828.77,872c-2.36,1.09-2.52,2.71-2.39,4.83.47,7.25.91,14.5,1.28,21.76a26.43,26.43,0,0,1-.23,6,6.78,6.78,0,0,1-5.85,5.66,7.13,7.13,0,0,1-7.49-4.27,13.51,13.51,0,0,1-1.07-4.76c-.69-7.6-1.47-15.19-2-22.8-.19-2.76-1.06-4.12-4-4.68-9.17-1.74-16.22-7-22-14.14-9.47-11.61-14.07-25.28-16.44-39.82A84.14,84.14,0,0,1,767.31,805.41Zm57.59,50.53c6.62-4.31,11.53-10.37,15.06-19.37,8.89-22.72,8.67-45.43-.84-67.94a42.12,42.12,0,0,0-10.18-14.7c-9-8.36-19.68-8.38-28.8,0a44.7,44.7,0,0,0-9.88,13.6c-7,14.25-9.19,29.37-8,45.07.84,11.38,3.59,22.23,9.57,32.09,3.45,5.68,7.81,10.49,13.8,13.61,1,.55,2.11,1.53,3.74.45-.65-15.08-2.05-30.27-1.77-45.52a3,3,0,0,0-1.79-3.05c-5.57-2.81-8.81-8-12.77-12.49-2.49-2.81-2.47-6.21-.54-8.47,2.14-2.5,5.49-2.7,8.87-.43,1,.7,1.9,1.68,2.91,2.46s1.44,2.29,3.57,1.18c0-3.57,0-7.37,0-11.17a13.74,13.74,0,0,1,1.39-6.35c1.72-3.21,5.54-3.17,7.38,0a10.9,10.9,0,0,1,1.2,4.72c.69,8.51,1.33,17,2,25.54a20.6,20.6,0,0,0,1.64,7.87c2.11-2.23,3.8-4.08,5.58-5.85s3.14-3.58,5.24-4.74a6.07,6.07,0,0,1,7.52.91,5.78,5.78,0,0,1,1,7,15.17,15.17,0,0,1-2.16,3.11c-4.32,4.92-8.48,10-13.75,14-1.18.89-2.34,1.77-2.19,3.49C823.43,839,824.13,847.14,824.9,855.94Z"/><path class="cls-5" d="M405.8,732a8,8,0,0,1,7.08,4.35c1.73,3,3.35,6,4.79,9.16q20,43.28,39,87c3.06,7,6.33,13.89,9.05,21,2.4,6.3-.38,11.16-6.8,13a23.18,23.18,0,0,1-3.19.67q-12.15,1.67-24.29,3.3c-3.06.42-6.12.79-9.18,1.24-3.78.56-3.93.69-3.53,4.49.79,7.4,1.69,14.8,2.53,22.19a15.47,15.47,0,0,1-.05,6c-.88,3.2-3,5.21-6,5.59a6.89,6.89,0,0,1-7.51-4.18A17.6,17.6,0,0,1,406.5,901c-1.06-7.36-2-14.75-3-22.12-.61-4.39-.64-4.45-5.12-3.8-8.09,1.16-16.16,2.45-24.24,3.6-6.31.89-8.91-.64-11.18-6.67a16.52,16.52,0,0,0-2.38-3.58c-2.09-3-2.52-6.34-.28-9.14,2.4-3,3.24-6.41,4.22-9.88,8.59-30.21,18-60.19,27.18-90.21,2.14-6.94,4.12-13.93,6.34-20.84C399.39,734.05,402.12,732,405.8,732ZM407,763.78l-1.23.11q-4.47,14.26-8.93,28.52c-6.77,21.65-13.65,43.27-21,64.75-1.54,4.53-1.18,5.13,3,4.56,6.29-.87,12.54-2.07,18.83-2.91,2.58-.35,3.37-1.42,3-3.94-.6-4.5-1-9-1.45-13.54a68,68,0,0,1-.22-14.68c.42-3.58,2.59-5.82,5.29-6.06,2.45-.21,4.76,1.44,6.09,4.58a43.65,43.65,0,0,1,2.58,10c.9,5.55,1.64,11.13,2.53,16.68.6,3.71.78,3.85,4.61,3.34,3.24-.43,6.47-1,9.67-1.6,4.93-1,10.06-1.11,15.29-3.19Z"/></g></svg>