<svg xmlns="http://www.w3.org/2000/svg" width="67" height="51.763" viewBox="0 0 67 51.763"><g transform="translate(0)"><path d="M39.026,55.15a25.848,25.848,0,0,0-21.854,12H7.28A7.281,7.281,0,0,0,0,74.435V87.628a7.281,7.281,0,0,0,7.28,7.28h9.891a25.847,25.847,0,0,0,21.854,12,1.857,1.857,0,0,0,1.865-1.865V57.015A1.866,1.866,0,0,0,39.026,55.15ZM16.356,91.178H7.28a3.549,3.549,0,0,1-3.55-3.55V74.435a3.549,3.549,0,0,1,3.55-3.55h9.076V91.178Zm20.8,11.936A22.264,22.264,0,0,1,20.086,92.532V69.545A22.264,22.264,0,0,1,37.161,58.963Z" transform="translate(0 -55.15)" fill="#487d94"/><path d="M330.585,135.838a1.866,1.866,0,0,0-2.127,3.067,13.885,13.885,0,0,1,0,22.794,1.878,1.878,0,0,0-.47,2.6,1.87,1.87,0,0,0,2.6.47,17.621,17.621,0,0,0,0-28.927Z" transform="translate(-282.387 -124.4)" fill="#487d94"/><path d="M382.785,79.938a1.866,1.866,0,0,0-2.127,3.067,23.267,23.267,0,0,1,0,38.211,1.878,1.878,0,0,0-.47,2.6,1.869,1.869,0,0,0,2.6.47,27,27,0,0,0,0-44.344Z" transform="translate(-327.376 -76.222)" fill="#487d94"/></g></svg>