<svg xmlns="http://www.w3.org/2000/svg" width="80" height="69.17" viewBox="0 0 80 69.17"><path d="M72.939,0H7.061A7.033,7.033,0,0,0,0,6.956V52.89a7.09,7.09,0,0,0,7.061,7.023H27.773v5.764H19.658a1.747,1.747,0,1,0,0,3.493H60.252a1.747,1.747,0,0,0,0-3.493H52.227V59.913H72.939A7.09,7.09,0,0,0,80,52.89V6.956A7.033,7.033,0,0,0,72.939,0ZM48.734,65.677H31.266V59.913H48.734Zm27.6-12.751a3.493,3.493,0,0,1-3.493,3.493H6.987a3.493,3.493,0,0,1-3.493-3.493V6.987A3.493,3.493,0,0,1,6.987,3.493H72.838a3.493,3.493,0,0,1,3.493,3.493Zm0,0" fill="#175d7a"/><path d="M103.852,41.747A1.747,1.747,0,0,0,102.1,40H39.747A1.747,1.747,0,0,0,38,41.747V84.192a1.747,1.747,0,0,0,1.747,1.747H102.1a1.747,1.747,0,0,0,1.747-1.747Zm-3.493,40.7H41.493V43.493h58.865Zm0,0" transform="translate(-31.362 -33.013)" fill="#487d94"/></svg>