<svg xmlns="http://www.w3.org/2000/svg" width="93.325" height="86.67" viewBox="0 0 93.325 86.67"><g transform="translate(-440.757 -1570.562)"><path d="M1056.337-4428.041s-.558-8.192,11.139-8.878,64.019,5.548,68.038-5.561,7.209-13.126,7.209-13.126l-.652,25.536-4.6,2.975h-75.625Z" transform="translate(-610 6065)" fill="#b0b5c3"/><g transform="translate(-87.254 1466.405)"><path d="M597.641,200.755c-.158-.665-.3-1.325-.435-1.984-.789.027-1.578.047-2.366.049-1.349.016-2.7-.007-4.047-.049-2.206-.074-4.412-.2-6.618-.292-.384,2.274-.747,4.551-1.123,6.827l-1.188,7.071,3.135-.186,5.794-.282c1.931-.089,3.863-.255,5.794-.4q1.907-.129,3.813-.095l-1.782-6.719C598.251,203.348,597.945,202.045,597.641,200.755Z" transform="translate(-14.229 -24.922)" fill="none"/><path d="M618.5,166.244l-.077-9.426-.266-18.853-.214-18.853-.021-4.713-.006-1.178c0-.362,0-.873-.018-1.034a2.987,2.987,0,0,0-.406-1.317,3.044,3.044,0,0,0-2.239-1.5c-.113-.026-.234-.012-.35-.027-.138-.007-.377,0-.56,0l-1.178,0-2.357,0c-25.138-.063-50.275-1.374-75.411-1.394a4.479,4.479,0,0,0-4.37,3.582,5.69,5.69,0,0,0-.087,1.036v1.179l.061,9.426.282,18.853.338,18.853.063,4.713.016,1.178c.007.372,0,.848.03,1.077a3.659,3.659,0,0,0,3.2,3.329,4.058,4.058,0,0,0,.413.026h.568l1.178-.01,2.357-.018c9.388-.054,18.775-.034,28.163.007l.012-.142,1.619-.054c2.7-.091,5.4-.267,8.094-.358,1.349-.042,2.7-.065,4.047-.049s2.7.057,4.047.111l1.887.076.045.513c9.166.043,18.333.071,27.5.035a3.707,3.707,0,0,0,3.589-3c.013-.14.046-.275.05-.416s.018-.241.012-.465Z" transform="translate(-0.775 -1)" fill="none"/><path d="M1101.839-5720.112l-1.942,8h15.531l-.727-8Z" transform="translate(-529.746 5892.595)" fill="#b0b5c3"/><path d="M621.315,110.9a6.989,6.989,0,0,0-.963-3.147,7.246,7.246,0,0,0-5.339-3.533,7.371,7.371,0,0,0-.824-.059l-.618,0-1.178,0-2.357,0c-25.138.063-50.275,1.374-75.412,1.394a5.862,5.862,0,0,0-5.73,4.695,7.149,7.149,0,0,0-.114,1.307v1.179l-.061,9.426-.282,18.853L528.1,159.87l-.063,4.713-.016,1.178c0,.414-.024.724.006,1.279a6.38,6.38,0,0,0,.859,2.883,6.661,6.661,0,0,0,4.886,3.282,7.113,7.113,0,0,0,.761.06l.61.008,1.178.01,2.357.018c9.294.053,18.589.035,27.883-.005-.208,2.237-.435,4.471-.648,6.708L565.2,187.6l-.227.014c-3.863.28-7.726.5-11.588.834v.417c3.863.333,7.726.554,11.588.834l.032,0-.014.153,1.27-.043c.114,0,.226-.011.34-.015l4.167.247,5.794.282c1.931.089,3.863.255,5.794.4a43.879,43.879,0,0,0,5.794.021,52.956,52.956,0,0,0,11.588-1.878v-.417a53,53,0,0,0-11.588-1.877c-.355-.023-.711-.036-1.066-.049.011-.538.021-1.08.033-1.636.012-1.374.038-2.8.013-4.273,0-1.469-.062-2.987-.126-4.517-.038-.96-.1-1.928-.175-2.9,9.085-.042,18.171-.069,27.257-.033a6.633,6.633,0,0,0,6.511-5.278c.038-.249.091-.5.107-.751s.035-.543.032-.712l.01-1.179.077-9.426.266-18.853.214-18.853.021-4.713.006-1.178C621.328,111.8,621.352,111.522,621.315,110.9Zm-38.957,75.692c-1.931.141-3.863.307-5.794.4l-5.794.282-3.135.186,1.188-7.071c.377-2.276.739-4.553,1.123-6.827,2.207.095,4.412.218,6.618.292,1.349.042,2.7.065,4.047.049.789,0,1.577-.023,2.366-.049.134.659.277,1.319.435,1.984.3,1.291.61,2.593.978,3.944l1.782,6.719Q584.265,186.464,582.358,186.591Zm35.369-19.7c0,.141-.037.276-.05.416a3.707,3.707,0,0,1-3.589,3c-9.166.036-18.333.008-27.5-.035l-.045-.513-1.887-.076c-1.349-.054-2.7-.107-4.047-.111s-2.7.007-4.047.049c-2.7.09-5.4.266-8.094.358l-1.619.054-.012.142c-9.388-.04-18.775-.06-28.163-.007l-2.357.018-1.178.01h-.568a4.058,4.058,0,0,1-.414-.026,3.659,3.659,0,0,1-3.2-3.329c-.028-.23-.023-.706-.03-1.077l-.016-1.178-.063-4.713-.338-18.853-.282-18.853-.061-9.426v-1.179a5.69,5.69,0,0,1,.087-1.036,4.479,4.479,0,0,1,4.37-3.582c25.137.019,50.274,1.331,75.412,1.394l2.357,0,1.178,0c.183,0,.422,0,.56,0,.116.015.237,0,.35.027a3.044,3.044,0,0,1,2.239,1.5,2.987,2.987,0,0,1,.406,1.317c.021.16.016.672.018,1.034l.006,1.178.021,4.713.214,18.853.266,18.853.077,9.426.01,1.179C617.746,166.646,617.728,166.732,617.728,166.888Z" fill="#707070"/></g></g></svg>