<?xml version="1.0" encoding="utf-8"?>
<!-- Generator: Adobe Illustrator 22.1.0, SVG Export Plug-In . SVG Version: 6.00 Build 0)  -->
<svg version="1.1" id="Layer_1" xmlns="http://www.w3.org/2000/svg" xmlns:xlink="http://www.w3.org/1999/xlink" x="0px" y="0px"
	 viewBox="0 0 8 14" style="enable-background:new 0 0 8 14;" xml:space="preserve">
<g>
	<path d="M6.5,2C5.7,2,5,2.7,5,3.5c0,0.6,0.4,1.2,0.9,1.4c0,2.6-1,2.7-2.2,2.9C3,7.9,2.4,8.4,2,9V2.9c0,0,0.1,0,0.1,0
		c0.1,0,0.1-0.1,0.2-0.1c0.2-0.1,0.3-0.3,0.4-0.4c0-0.1,0.1-0.2,0.1-0.3C2.9,2,2.9,1.9,3,1.8c0-0.1,0-0.2,0-0.3C3,0.7,2.3,0,1.5,0
		S0,0.7,0,1.5c0,0.1,0,0.2,0,0.3c0,0.1,0,0.2,0.1,0.3c0,0.1,0.1,0.2,0.1,0.3c0.1,0.2,0.3,0.3,0.4,0.4c0.1,0,0.1,0.1,0.2,0.1
		c0,0,0.1,0,0.1,0v8.2c0,0-0.1,0-0.1,0c-0.1,0-0.1,0.1-0.2,0.1c0,0,0,0,0,0c0,0,0,0,0,0c0,0-0.1,0.1-0.1,0.1c0,0,0,0,0,0
		c-0.1,0.1-0.1,0.1-0.2,0.2c0,0,0,0,0,0c0,0.1-0.1,0.2-0.1,0.3c0,0.1-0.1,0.2-0.1,0.3c0,0,0,0.1,0,0.1c0,0.1,0,0.2,0,0.2
		C0,13.3,0.7,14,1.5,14S3,13.3,3,12.5c0-0.1,0-0.2,0-0.3c0,0,0,0,0-0.1c0-0.1,0-0.2-0.1-0.3c0-0.1-0.1-0.2-0.1-0.3
		c0-0.1-0.1-0.1-0.2-0.2c-0.1-0.1-0.1-0.1-0.2-0.2c-0.1-0.1-0.1-0.1-0.2-0.1C2.4,10.3,3,8.9,3.8,8.8c1.6-0.2,3-0.7,3.1-3.8
		C7.5,4.8,8,4.2,8,3.5C8,2.7,7.3,2,6.5,2z M1.5,1C1.8,1,2,1.2,2,1.5S1.8,2,1.5,2S1,1.8,1,1.5S1.2,1,1.5,1z M1.5,13
		C1.2,13,1,12.8,1,12.5S1.2,12,1.5,12S2,12.2,2,12.5S1.8,13,1.5,13z M6.5,4C6.2,4,6,3.8,6,3.5S6.2,3,6.5,3S7,3.2,7,3.5S6.8,4,6.5,4z
		"/>
</g>
</svg>
