<svg xmlns="http://www.w3.org/2000/svg" width="263" height="263.001" viewBox="0 0 263 263.001"><g transform="translate(-0.001 0.001)"><path d="M-1063-9529.5c0-72.508,58.99-131.5,131.5-131.5S-800-9602.008-800-9529.5-858.992-9398-931.5-9398-1063-9456.99-1063-9529.5Zm8.765,0A122.874,122.874,0,0,0-931.5-9406.768,122.873,122.873,0,0,0-808.766-9529.5,122.875,122.875,0,0,0-931.5-9652.233,122.876,122.876,0,0,0-1054.234-9529.5Zm118.352,95.9v-4.381a4.383,4.383,0,0,1,4.384-4.386,4.381,4.381,0,0,1,4.381,4.386v4.381a4.38,4.38,0,0,1-4.381,4.384A4.382,4.382,0,0,1-935.883-9433.6Zm-66.9-25.145a4.377,4.377,0,0,1,0-6.2l3.1-3.1a4.387,4.387,0,0,1,6.2,0,4.381,4.381,0,0,1,0,6.2l-3.1,3.1a4.374,4.374,0,0,1-3.1,1.284A4.373,4.373,0,0,1-1002.787-9458.743Zm136.376,0-3.1-3.1a4.381,4.381,0,0,1,0-6.2,4.38,4.38,0,0,1,6.2,0l3.1,3.1a4.38,4.38,0,0,1,0,6.2,4.374,4.374,0,0,1-3.1,1.282A4.37,4.37,0,0,1-866.411-9458.743Zm-82-66.9h-31.306a4.384,4.384,0,0,1-4.384-4.386,4.382,4.382,0,0,1,4.384-4.382h31.306a17.509,17.509,0,0,1,12.528-12.527V-9591.4a4.381,4.381,0,0,1,4.384-4.384,4.379,4.379,0,0,1,4.381,4.384v44.455a17.514,17.514,0,0,1,13.151,16.909A17.55,17.55,0,0,1-931.5-9512.5,17.519,17.519,0,0,1-948.41-9525.646Zm8.144-4.386a8.776,8.776,0,0,0,8.767,8.768,8.774,8.774,0,0,0,8.765-8.768,8.772,8.772,0,0,0-8.765-8.765A8.774,8.774,0,0,0-940.266-9530.031Zm100.817,4.384a4.382,4.382,0,0,1-4.384-4.384,4.382,4.382,0,0,1,4.384-4.384h4.384a4.38,4.38,0,0,1,4.381,4.384,4.38,4.38,0,0,1-4.381,4.384Zm-188.483,0a4.382,4.382,0,0,1-4.384-4.384,4.382,4.382,0,0,1,4.384-4.384h4.381a4.382,4.382,0,0,1,4.384,4.384,4.382,4.382,0,0,1-4.384,4.384Zm158.42-66.376a4.381,4.381,0,0,1,0-6.2l3.1-3.1a4.38,4.38,0,0,1,6.2,0,4.379,4.379,0,0,1,0,6.2l-3.1,3.1a4.382,4.382,0,0,1-3.1,1.285A4.383,4.383,0,0,1-869.512-9592.023Zm-130.176,0-3.1-3.1a4.377,4.377,0,0,1,0-6.2,4.38,4.38,0,0,1,6.2,0l3.1,3.1a4.377,4.377,0,0,1,0,6.2,4.382,4.382,0,0,1-3.1,1.285A4.383,4.383,0,0,1-999.688-9592.023Zm63.806-30.058v-4.381a4.382,4.382,0,0,1,4.384-4.384,4.38,4.38,0,0,1,4.381,4.384v4.381a4.38,4.38,0,0,1-4.381,4.384A4.382,4.382,0,0,1-935.883-9622.081Z" transform="translate(1063 9661)" fill="#104e60"/></g></svg>