<svg xmlns="http://www.w3.org/2000/svg" viewBox="0 0 20.904 21.999"><defs><style>.a{fill:#0c4962;}</style></defs><path class="a" d="M-11,4406a2,2,0,0,1-2-2v-16a2,2,0,0,1,2-2h4.2a2.9,2.9,0,0,1,2.8-2,2.9,2.9,0,0,1,2.8,2H3a2,2,0,0,1,2,2v1.541l1.56-1.56,1.345,1.344L-3.622,4400.85-9,4395.47l1.345-1.345,4.034,4.035L3,4391.54V4388H1v3H-9v-3h-2v16H3v-5.354l2-2.224V4404a2,2,0,0,1-2,2Zm6-19a.947.947,0,0,0,1,1,.947.947,0,0,0,1-1,.946.946,0,0,0-1-1A.947.947,0,0,0-5,4387Z" transform="translate(13.001 -4384)"/></svg>