<svg xmlns="http://www.w3.org/2000/svg" viewBox="0 0 18 11.455"><defs><style>.a{fill:#0c4962;}</style></defs><g transform="translate(0 -102)"><g transform="translate(0 102)"><path class="a" d="M12.273,106.909a2.455,2.455,0,1,0-2.455-2.455A2.411,2.411,0,0,0,12.273,106.909Zm-6.545,0a2.455,2.455,0,1,0,0-4.909,2.455,2.455,0,1,0,0,4.909Zm0,1.636c-1.882,0-5.727.982-5.727,2.864v2.045H11.455v-2.045C11.455,109.527,7.609,108.545,5.727,108.545Zm6.545,0a3.069,3.069,0,0,0-.818.082,3.375,3.375,0,0,1,1.636,2.782v2.045H18v-2.045C18,109.527,14.155,108.545,12.273,108.545Z" transform="translate(0 -102)"/></g></g></svg>