<svg xmlns="http://www.w3.org/2000/svg" width="18.004" height="18.004" viewBox="0 0 18.004 18.004"><g transform="translate(-431.748 -530.248)"><path d="M447.869,530.248H433.631a1.885,1.885,0,0,0-1.883,1.883v14.238a1.885,1.885,0,0,0,1.883,1.883h14.238a1.885,1.885,0,0,0,1.883-1.883V532.131A1.885,1.885,0,0,0,447.869,530.248Zm-14.663,16.121V532.131a.425.425,0,0,1,.425-.425h14.238a.425.425,0,0,1,.425.425v9.005a4.7,4.7,0,0,0-1.236-.932,2.958,2.958,0,1,0-4.3,0,4.677,4.677,0,0,0-2.523,4.147v2.443h-6.6A.425.425,0,0,1,433.206,546.369Zm10.2-8.191a1.5,1.5,0,1,1,1.5,1.5A1.5,1.5,0,0,1,443.408,538.178Zm1.5,2.958a3.218,3.218,0,0,1,3.215,3.215v1.76a.6.6,0,0,1-.6.6h-5.832v-2.357A3.218,3.218,0,0,1,444.908,541.136Z" fill="#b0b5c3"/><path d="M446.977,560.706h4.286a.729.729,0,0,0,0-1.458h-4.286a.729.729,0,0,0,0,1.458Z" transform="translate(-12.014 -24.028)" fill="#828793"/><path d="M451.264,577.248h-4.286a.729.729,0,1,0,0,1.458h4.286a.729.729,0,1,0,0-1.458Z" transform="translate(-12.014 -38.941)" fill="#828793"/><path d="M451.264,595.248h-4.286a.729.729,0,1,0,0,1.458h4.286a.729.729,0,0,0,0-1.458Z" transform="translate(-12.014 -53.855)" fill="#828793"/></g></svg>