<svg xmlns="http://www.w3.org/2000/svg" width="20" height="20" viewBox="0 0 20 20"><g transform="translate(-15.248 -101.248)"><path d="M32.06,109.752a8.308,8.308,0,1,0,8.308,8.308A8.317,8.317,0,0,0,32.06,109.752Zm2.98,7.414L33.66,120.8a2.434,2.434,0,1,1-1.6-.6h.02l1.378-3.634a.846.846,0,0,1,1.582.6Zm1.2,1.74a.846.846,0,0,1,0-1.692h1.278a5.534,5.534,0,0,0-4.611-4.61v1.078a.846.846,0,0,1-1.692,0V112.6a5.534,5.534,0,0,0-4.611,4.61h.88a.846.846,0,1,1,0,1.692H24.846v-.846a7.214,7.214,0,1,1,14.428,0v.846Z" transform="translate(-6.812 -6.812)" fill="none"/><path d="M25.248,101.248a10,10,0,1,0,10,10A10.011,10.011,0,0,0,25.248,101.248Zm0,18.308a8.308,8.308,0,1,1,8.308-8.308A8.317,8.317,0,0,1,25.248,119.556Z" transform="translate(0 0)" fill="#b0b5c3"/><path d="M58.175,141.3a.846.846,0,0,0-1.091.491l-1.378,3.634h-.02a2.446,2.446,0,1,0,1.6.6l1.379-3.636A.846.846,0,0,0,58.175,141.3Zm-1.743,6.562a.746.746,0,1,1-.746-.746A.747.747,0,0,1,56.432,147.864Z" transform="translate(-30.438 -32.039)" fill="#828793"/><circle cx="0.746" cy="0.746" r="0.746" transform="translate(24.502 115.079)" fill="#fff"/><path d="M36.288,115.25a7.3,7.3,0,0,0-7.04,7.347h0a.711.711,0,0,0,.711.711h1.89a.871.871,0,0,0,.879-.763.846.846,0,0,0-.842-.929H31a5.534,5.534,0,0,1,4.611-4.61v1.041a.871.871,0,0,0,.763.879.846.846,0,0,0,.929-.842v-1.078a5.534,5.534,0,0,1,4.611,4.61H40.677a.871.871,0,0,0-.879.763.846.846,0,0,0,.842.929H42.83a.846.846,0,0,0,.846-.846h0A7.222,7.222,0,0,0,36.288,115.25Z" transform="translate(-11.214 -11.214)" fill="#828793"/></g></svg>