<svg xmlns="http://www.w3.org/2000/svg" width="92.815" height="105.456" viewBox="0 0 92.815 105.456"><g transform="translate(-506.856 -1567.226)"><path d="M1082.77-4429.837s3.042,21.91,5.527,23.292,0-19.187,0-19.187,1.913,15.412,3.924,15.568,30.956-16.427,32.843-22.456,5.187-15.247,5.187-15.247v22.135l-1.368,3.333-25.7,16.637-17.866,10.855s-3.555,2.3-3.693,0S1082.77-4429.837,1082.77-4429.837Z" transform="translate(-557 6065)" fill="#b0b5c3"/><path d="M1083.115-4393.885H1115.1s13.426-1.225,14.987-4.752,7.1-7.606,8.943-7.794,13.069-1.121,14.934-4.194,3.977-7.14,1.75-8.7-25.627-4.907-25.627-4.907l-34.413,22.931Z" transform="translate(-557 6065)" fill="#b0b5c3"/><g transform="translate(-700.036 1275.708)"><path d="M1244.035,320q-1.785.629-3.57,1.256v74.368l3.694-2.368c-.585-5.922-.921-11.844-1.146-17.765q-.366-9.76-.369-19.52t.375-19.52C1243.226,330.969,1243.531,325.485,1244.035,320Z" transform="translate(-6.972 -5.915)" fill="none"/><path d="M1225.786,403.125a2.6,2.6,0,0,1-1.12-1.562,6.11,6.11,0,0,1-.08-1.332l-.011-2.076-.044-8.3-.271-33.211-.094-16.606q-.045-7.482-.014-14.964l-5.195.017-3.431.011-1.715.006-.429,0c-.136,0-.312,0-.367.008a1.9,1.9,0,0,0-.483.073,2.257,2.257,0,0,0-1.681,2.158l-.005,1.715-.023,6.862c0,9.15-.13,18.3-.214,27.449-.141,9.149-.284,18.3-.516,27.449l-.181,6.863c-.013.558-.043,1.174-.041,1.685a3.569,3.569,0,0,0,.3,1.407,3.691,3.691,0,0,0,2.108,1.969,4.315,4.315,0,0,0,1.519.245l1.675.063,3.384.135c2.274.1,4.6.2,6.96.27l-.01-.319C1225.8,403.133,1225.794,403.13,1225.786,403.125Zm-11.4-59.552a11.718,11.718,0,0,1,2.159-.466,11.526,11.526,0,0,1,2.208-.055,9.037,9.037,0,0,1,1.5.245c.019-.069.026-.137.047-.206l1.054-.014a7.062,7.062,0,0,1,.343,1.755,12.222,12.222,0,0,1-.214,3.522,7.719,7.719,0,0,1-.56,1.767,7.757,7.757,0,0,1-.608-1.751,12.373,12.373,0,0,1-.283-1.756,12.1,12.1,0,0,1-.027-1.759,8.817,8.817,0,0,1,.094-.9,12.069,12.069,0,0,1-1.223.413c-.394.106-.788.19-1.185.262a4.534,4.534,0,0,1,.236,1.126,7.086,7.086,0,0,1-.013,1.329,7.451,7.451,0,0,1-.263,1.329.791.791,0,1,1-1.16,0,7.365,7.365,0,0,1-.263-1.329,7.086,7.086,0,0,1-.014-1.329,4.753,4.753,0,0,1,.183-.952,14.879,14.879,0,0,1-1.826.072,9.2,9.2,0,0,1-2.251-.319A7.75,7.75,0,0,1,1214.391,343.573Zm.341,11.391a10.071,10.071,0,0,1-2.039-.583,10.058,10.058,0,0,1,2.039-.582,16.485,16.485,0,0,1,2.04-.258,14.973,14.973,0,0,1,2.04,0,9.117,9.117,0,0,1,2.04.326v.819c.025-.1.044-.2.071-.3a23.573,23.573,0,0,1,.667,3.952,2.679,2.679,0,0,1-.163,1.255,4.939,4.939,0,0,1-.576,1.009,3.5,3.5,0,0,1-.882.9,2.263,2.263,0,0,1-1.48.381,1.842,1.842,0,0,1-.832-.309,2.089,2.089,0,0,1-.559-.574,4.585,4.585,0,0,1-.48-1.081,9.251,9.251,0,0,1-.428-2.053c-.029-.3-.038-.591-.039-.887q-.073.26-.165.513a7.19,7.19,0,0,1-.938,1.715,16.371,16.371,0,0,1-1.181,1.376,8.234,8.234,0,0,0-1.134,1.444,2.637,2.637,0,0,1-.012-2.108,6.827,6.827,0,0,1,.972-1.711,15.988,15.988,0,0,1,1.168-1.406,9.406,9.406,0,0,1,1.4-1.244c.021-.124.048-.246.074-.368C1215.8,355.133,1215.267,355.065,1214.731,354.964Zm7.122,23.187c-.2.033-.391.055-.588.082a5.125,5.125,0,0,1,.246.685,5.407,5.407,0,0,1,.182,1.385,5.325,5.325,0,0,1-.18,1.385.851.851,0,1,1-1.325,0,5.3,5.3,0,0,1-.18-1.385,5.37,5.37,0,0,1,.182-1.385,5.723,5.723,0,0,1,.2-.579c-1.082.106-2.163.143-3.244.151a3.693,3.693,0,0,1,.393.841,4.081,4.081,0,0,1,.182,1.2,3.972,3.972,0,0,1-.18,1.2.782.782,0,1,1-1.324,0,3.96,3.96,0,0,1-.18-1.2,4.054,4.054,0,0,1,.182-1.2,3.651,3.651,0,0,1,.4-.848,31.777,31.777,0,0,1-3.221-.184c.03.059.063.119.09.178a3.664,3.664,0,0,1,.315,1.371,3.746,3.746,0,0,1-.227,1.389,4.433,4.433,0,0,1-.957,1.526l-.167.023a17.917,17.917,0,0,1-.193-5.78l.168.012v0a33.656,33.656,0,0,1,9.434.239Zm0-9.508c-.2.033-.391.055-.588.082a5.129,5.129,0,0,1,.246.685,5.407,5.407,0,0,1,.182,1.385,5.325,5.325,0,0,1-.18,1.385.851.851,0,1,1-1.325,0,5.3,5.3,0,0,1-.18-1.385,5.369,5.369,0,0,1,.182-1.385,5.723,5.723,0,0,1,.2-.579c-1.082.106-2.163.143-3.244.151a3.694,3.694,0,0,1,.393.841,4.081,4.081,0,0,1,.182,1.2,3.972,3.972,0,0,1-.18,1.2.782.782,0,1,1-1.324,0,3.96,3.96,0,0,1-.18-1.2,4.054,4.054,0,0,1,.182-1.2,3.65,3.65,0,0,1,.4-.848,31.777,31.777,0,0,1-3.221-.184c.03.059.063.119.09.178a3.664,3.664,0,0,1,.315,1.371,3.746,3.746,0,0,1-.227,1.389,4.432,4.432,0,0,1-.957,1.526l-.167.023a17.917,17.917,0,0,1-.193-5.78l.168.012v0a33.655,33.655,0,0,1,9.434.239Z" transform="translate(-0.619 -6.968)" fill="none"/><path d="M1225.468,320.346c1.395-.761,2.8-1.484,4.219-2.195-1.672.747-3.348,1.482-5.038,2.192Z" transform="translate(-3.687 -5.53)" fill="none"/><path d="M1219.336,365.431a17.9,17.9,0,0,0,.633,1.738,3.573,3.573,0,0,0,.354.7c.123.151.133.137.209.151.2.037.542-.125.913-.578a5.3,5.3,0,0,0,.488-.646,1.608,1.608,0,0,0,.2-.666,26.4,26.4,0,0,1,.521-3.4,9.264,9.264,0,0,1-1.989.315,14.8,14.8,0,0,1-1.856.006A19.411,19.411,0,0,0,1219.336,365.431Z" transform="translate(-2.475 -14.787)" fill="none"/><path d="M1218.654,320.443q1.474-.884,2.963-1.737-1.641.881-3.3,1.735Z" transform="translate(-2.373 -5.646)" fill="none"/><path d="M1280.228,309.6v-.449l-.02-.33a2.769,2.769,0,0,0-.117-.615,2.807,2.807,0,0,0-.589-1.092,3.125,3.125,0,0,0-2.172-1.1,3.211,3.211,0,0,0-1.223.162l-1.685.59-13.546,4.767c-5.076,1.775-10.144,3.574-15.215,5.363.515,5.55.826,11.1,1.037,16.65q.37,9.76.375,19.52c.009,6.506-.126,13.013-.37,19.52-.222,5.845-.554,11.69-1.125,17.536l5.265-3.375,27.93-17.971a3.146,3.146,0,0,0,1.38-2.011,3.462,3.462,0,0,0,.064-.622v-2.693l.005-7.18.01-14.36-.006-28.72Z" transform="translate(-8.033 -3.009)" fill="none"/><path d="M1235.246,323.068q-1.627.567-3.256,1.13.026,7.711-.013,15.422l-.094,16.606-.271,33.211-.044,8.3-.011,2.076c0,.31,0,.831.008.737a.121.121,0,0,0,.063.081.146.146,0,0,0,.107.025.207.207,0,0,0,.052-.021l.417-.265,1.748-1.12,1.295-.83Z" transform="translate(-5.122 -6.551)" fill="none"/><path d="M1274.885,362.238v-1.8l-.005-7.18-.01-14.36.006-28.72v-4.039l-.029-.566a5.4,5.4,0,0,0-.218-1.143,5.644,5.644,0,0,0-1.092-2.049,5.841,5.841,0,0,0-4.03-2.112,5.98,5.98,0,0,0-2.314.273l-1.712.574-13.609,4.581q-6.272,2.126-12.555,4.22c1.584-.59,3.168-1.181,4.738-1.8q6.164-2.421,12.194-5.169c4.024-1.825,8.008-3.749,11.88-5.948a.378.378,0,0,0-.281-.7c-4.315,1.1-8.519,2.48-12.683,3.956s-8.29,3.047-12.369,4.734q-2.879,1.183-5.726,2.441c.384-.187.771-.369,1.155-.556l5.618-2.831c1.855-.978,3.727-1.921,5.566-2.934,3.695-1.988,7.359-4.041,10.933-6.275a.633.633,0,0,0-.555-1.13c-3.953,1.464-7.817,3.108-11.649,4.818-1.925.837-3.816,1.742-5.725,2.612l-5.673,2.715c-3.758,1.86-7.506,3.742-11.2,5.729l-.313.169q3.594-2.028,7.153-4.114c3.529-2.11,7.046-4.241,10.509-6.467s6.9-4.49,10.245-6.927a.4.4,0,0,0-.4-.7c-3.79,1.658-7.485,3.477-11.148,5.355s-7.282,3.83-10.885,5.814c-3.585,2.014-7.158,4.047-10.677,6.175s-7.016,4.293-10.416,6.63a1.053,1.053,0,0,0-.143.142,5.6,5.6,0,0,0-2.573,4.71l.006,1.717.023,6.862c0,9.15.13,18.3.214,27.449.141,9.149.284,18.3.516,27.449l.181,6.863c.021.586.023,1.113.061,1.746a4.861,4.861,0,0,0,3.443,4.322,5.352,5.352,0,0,0,1.868.175l1.756-.063,3.478-.135c2.3-.1,4.546-.2,6.764-.27-2.356-.066-4.686-.172-6.96-.27l-3.384-.135-1.675-.063a4.315,4.315,0,0,1-1.519-.245,3.691,3.691,0,0,1-2.108-1.969,3.564,3.564,0,0,1-.3-1.407c0-.51.028-1.127.041-1.685l.181-6.863c.232-9.149.375-18.3.516-27.449.084-9.15.211-18.3.214-27.449l.023-6.862.005-1.715a2.257,2.257,0,0,1,1.681-2.158,1.9,1.9,0,0,1,.483-.073c.055-.01.231-.007.367-.008l.429,0,1.716-.006,3.431-.011,5.195-.017q-.024,7.482.014,14.964l.094,16.606.271,33.211.044,8.3.011,2.076a6.1,6.1,0,0,0,.08,1.332,2.6,2.6,0,0,0,1.12,1.562c.008,0,.017.008.025.013l.01.319.009-.31a2.619,2.619,0,0,0,1.834.36,2.664,2.664,0,0,0,.911-.346l.46-.29,1.75-1.116,14-8.93L1272.2,368.05a5.855,5.855,0,0,0,2.571-3.755,6.2,6.2,0,0,0,.116-1.16Zm-38.844,7.34c.225,5.921.562,11.843,1.146,17.765l-3.694,2.368V315.342q1.786-.626,3.57-1.256c-.5,5.484-.809,10.968-1.017,16.452q-.371,9.76-.375,19.52T1236.041,369.577Zm-8.959,24.242-.417.265a.212.212,0,0,1-.052.021.146.146,0,0,1-.107-.025.122.122,0,0,1-.063-.081c-.006.094-.011-.427-.008-.737l.011-2.076.044-8.3.271-33.211.094-16.606q.046-7.71.013-15.422,1.629-.562,3.256-1.13v75.353l-1.295.83Zm45.109-40.556-.006,7.18v2.693a3.473,3.473,0,0,1-.064.622,3.147,3.147,0,0,1-1.38,2.011l-27.93,17.971-5.265,3.375c.571-5.846.9-11.691,1.125-17.536.244-6.507.379-13.014.37-19.52s-.128-13.013-.375-19.52c-.212-5.55-.522-11.1-1.037-16.65,5.071-1.788,10.139-3.588,15.215-5.363l13.546-4.767,1.685-.59a3.21,3.21,0,0,1,1.223-.162,3.125,3.125,0,0,1,2.172,1.1,2.807,2.807,0,0,1,.589,1.092,2.763,2.763,0,0,1,.117.615l.02.33v4.039l.006,28.72Z" transform="translate(0 0)" fill="#707070"/></g></g></svg>