<svg xmlns="http://www.w3.org/2000/svg" width="82.563" height="57.962" viewBox="0 0 82.563 57.962"><g transform="translate(0)"><path d="M-11859.139-16973.65h-29.7a3.17,3.17,0,0,1-3.164-3.168v-21.109a3.17,3.17,0,0,1,3.164-3.168h18.194v2.113h-17.744l14.465,14.342,3.793-3.793a3.8,3.8,0,0,0,2.726,1.861l9.318,9.318v-9.275h2.11v9.711A3.171,3.171,0,0,1-11859.139-16973.65Zm-19.086-12.283h0l-10.174,10.174h28.823l-10.117-10.121-3.475,3.477a1.059,1.059,0,0,1-.748.311,1.058,1.058,0,0,1-.744-.307l-3.565-3.533Zm-11.665-11.566v20.246l10.167-10.168-10.167-10.078Z" transform="translate(11914.886 17016.352)" fill="#1dcb9a"/><g transform="translate(46.535)"><g transform="translate(0 0)"><path d="M32.862,61H3.167A3.172,3.172,0,0,0,0,64.167v21.11a3.172,3.172,0,0,0,3.167,3.167h29.7a3.172,3.172,0,0,0,3.167-3.167V64.167A3.172,3.172,0,0,0,32.862,61Zm-.437,2.111L18.081,77.454,3.614,63.111ZM2.111,84.84V64.594l10.167,10.08ZM3.6,86.333,13.777,76.159l3.565,3.534a1.055,1.055,0,0,0,1.489,0l3.476-3.476L32.424,86.333ZM33.917,84.84,23.8,74.722,33.917,64.6Z" transform="translate(0 -61)" fill="#487d94"/></g></g><path d="M-11859.139-16978.648h-29.7a3.17,3.17,0,0,1-3.164-3.168v-21.113a3.168,3.168,0,0,1,3.164-3.164h18.311a3,3,0,0,0-.116.832v1.277h-17.744l14.465,14.344,3.593-3.592a3.034,3.034,0,0,0,2.738,1.705h.231l9.274,9.273v-9.273h1.938c.058,0,.115,0,.173,0v9.715A3.171,3.171,0,0,1-11859.139-16978.648Zm-19.086-12.285h0l-10.174,10.172h28.823l-10.117-10.117-3.475,3.477a1.057,1.057,0,0,1-.748.309,1.05,1.05,0,0,1-.744-.309l-3.565-3.531Zm-11.665-11.566v20.246l10.167-10.166-10.167-10.08Z" transform="translate(11891.999 17036.609)" fill="#175d7a"/></g></svg>