<svg xmlns="http://www.w3.org/2000/svg" width="36.028" height="27.444" viewBox="0 0 36.028 27.444"><g transform="translate(0)"><path d="M32.862,61H3.167A3.172,3.172,0,0,0,0,64.167v21.11a3.172,3.172,0,0,0,3.167,3.167h29.7a3.172,3.172,0,0,0,3.167-3.167V64.167A3.172,3.172,0,0,0,32.862,61Zm-.437,2.111L18.081,77.454,3.614,63.111ZM2.111,84.84V64.594l10.167,10.08ZM3.6,86.333,13.777,76.159l3.565,3.534a1.055,1.055,0,0,0,1.489,0l3.476-3.476L32.424,86.333ZM33.917,84.84,23.8,74.722,33.917,64.6Z" transform="translate(0 -61)" fill="#487d94"/></g></svg>