<svg xmlns="http://www.w3.org/2000/svg" width="79.347" height="64.801" viewBox="0 0 79.347 64.801"><g transform="translate(-1061.011 -175.676)"><path d="M76.027,26.659H71.412V18.37A3.617,3.617,0,0,0,67.8,14.757H35.065L28.452,5.5H3.613A3.618,3.618,0,0,0,0,9.113V66.887H.008A3.376,3.376,0,0,0,3.392,70.3H62.583a3.358,3.358,0,0,0,3.24-2.4L79.347,30.824V30.59C79.347,28.313,77.95,26.659,76.027,26.659ZM2.645,9.113a.969.969,0,0,1,.968-.968H27.09L33.7,17.4H67.8a.968.968,0,0,1,.968.968v8.289H16.836a3.391,3.391,0,0,0-3.239,2.4L2.645,58.926ZM63.3,67.1a.749.749,0,0,1-.721.551H3.392a.73.73,0,0,1-.592-.294.716.716,0,0,1-.163-.54L16.114,29.856a.749.749,0,0,1,.721-.551H76.027c.5,0,.631.722.664,1.083Z" transform="translate(1061.011 170.176)" fill="#1dcb9a"/><path d="M-305.81,20330.129a21.023,21.023,0,0,0,4.849,1.129,6.33,6.33,0,0,0,4.794-1.129" transform="translate(1392.121 -20115.916)" fill="none" stroke="#1dcb9a" stroke-width="3"/><path d="M-305.81,20330.129a21.023,21.023,0,0,0,4.849,1.129,6.33,6.33,0,0,0,4.794-1.129" transform="translate(1413.315 -20115.916)" fill="none" stroke="#1dcb9a" stroke-width="3"/><path d="M-300.711,20339.313a11.659,11.659,0,0,1,7.495-2.547,10.18,10.18,0,0,1,6.319,2.547" transform="translate(1394.741 -20112.514)" fill="none" stroke="#1dcb9a" stroke-width="3"/></g></svg>