<svg xmlns="http://www.w3.org/2000/svg" width="23.1" height="22.558" viewBox="0 0 23.1 22.558"><g transform="translate(0 0)"><path d="M22.636,12.679,20.6,12.227a8.979,8.979,0,0,0-.753-3.4L21.428,7.55a.591.591,0,0,0,.087-.831l-2.16-2.668a.591.591,0,0,0-.831-.087L16.98,5.214A8.969,8.969,0,0,0,13.853,3.7V1.737a.591.591,0,0,0-.591-.591H9.83a.591.591,0,0,0-.591.591V3.7A8.967,8.967,0,0,0,6.051,5.265L4.493,4.026a.591.591,0,0,0-.83.095L1.526,6.807a.59.59,0,0,0,.095.83l1.6,1.271A8.985,8.985,0,0,0,2.5,12.3l-2.039.471a.59.59,0,0,0-.443.708l.773,3.345a.591.591,0,0,0,.708.443l2.1-.485A9.025,9.025,0,0,0,5.737,19.4l-.944,1.978a.591.591,0,0,0,.279.788l3.1,1.478a.591.591,0,0,0,.788-.279l.955-2a9.147,9.147,0,0,0,3.342-.012l.972,1.992a.59.59,0,0,0,.79.272l3.086-1.5a.591.591,0,0,0,.272-.79l-.96-1.967a9.022,9.022,0,0,0,2.123-2.636l2.1.465a.59.59,0,0,0,.7-.449l.743-3.352A.591.591,0,0,0,22.636,12.679Zm-7.2-.22a3.883,3.883,0,1,1-3.883-3.883A3.887,3.887,0,0,1,15.431,12.459Z" transform="translate(0.001 -1.146)" fill="#959595"/></g></svg>