<svg xmlns="http://www.w3.org/2000/svg" width="17.706" height="17.706" viewBox="0 0 17.706 17.706"><g transform="translate(-290.748 -663.748)"><path d="M299.6,663.748a8.853,8.853,0,1,0,8.853,8.853A8.863,8.863,0,0,0,299.6,663.748Zm0,16.129a7.276,7.276,0,1,1,7.276-7.276A7.284,7.284,0,0,1,299.6,679.877Z" fill="#b0b5c3"/><path d="M329.342,686.617A3.138,3.138,0,0,0,327.3,686a5.886,5.886,0,0,0-2.187.415.772.772,0,1,0,.567,1.436,4.1,4.1,0,0,1,1.483-.317,1.429,1.429,0,0,1,.836.212.71.71,0,0,1,.3.618,1.1,1.1,0,0,1-.209.655,3.914,3.914,0,0,1-.864.761,3.351,3.351,0,0,0-.936.942,2.047,2.047,0,0,0-.256,1.042v.087a.374.374,0,0,0,.374.374h.9a.374.374,0,0,0,.374-.374,1.046,1.046,0,0,1,.159-.605,3.658,3.658,0,0,1,.758-.674,4.446,4.446,0,0,0,1.185-1.123,2.189,2.189,0,0,0,.312-1.185A2.016,2.016,0,0,0,329.342,686.617Z" transform="translate(-27.59 -18.127)" fill="#b0b5c3"/><path d="M332.276,725.363a1.138,1.138,0,0,0-.817.268,1.234,1.234,0,0,0,.006,1.575,1.118,1.118,0,0,0,.811.278,1.085,1.085,0,0,0,.8-.284,1.212,1.212,0,0,0,0-1.562A1.106,1.106,0,0,0,332.276,725.363Z" transform="translate(-32.935 -50.192)" fill="#b0b5c3"/></g></svg>