<svg xmlns="http://www.w3.org/2000/svg" width="127.908" height="119.882" viewBox="0 0 127.908 119.882"><defs><style>.a,.d{fill:none;}.b{fill:#5d5d5d;}.c{fill:#b3b3b3;}.d{stroke:#fff;stroke-linecap:round;stroke-linejoin:round;}.e{fill:#e4aa5c;}</style></defs><g transform="translate(-1001.876 -80.629)"><path class="a" d="M1041.309,113.927a22.22,22.22,0,0,1-.479,2.4,19.465,19.465,0,0,1-.625,1.989c-.136.34-.278.675-.456,1.031l-.285.546c-.132.225-.178.321-.46.74l-2.327,3.46-1.733-2.6c0,.085,0,.172,0,.257a32.746,32.746,0,0,1-3.4,13.729,20.5,20.5,0,0,1-1.044,1.764q1.137.31,2.26.7a33.175,33.175,0,0,1,13.61-10.361c.447-.181.906-.331,1.361-.493a27.128,27.128,0,0,1-2.115-2.806A33.69,33.69,0,0,1,1041.309,113.927Z" transform="translate(11.132 12.95)"/><path class="b" d="M1029.872,131.943a22.077,22.077,0,0,1,2.057.947c.346-.5.7-.992,1.073-1.471q-1.123-.39-2.26-.7C1030.469,131.136,1030.182,131.545,1029.872,131.943Z" transform="translate(10.888 19.481)"/><path class="c" d="M1036.828,169.288l-5.6.19-11.374.3c-.093.156-.186.311-.294.467a9.794,9.794,0,0,1-2.376,2.472h-.787a9.81,9.81,0,0,1-2.375-2.472c-.072-.1-.13-.207-.2-.31l-6.872.179-.389-12.861c-.028-1.265-.1-2.626-.09-3.815l.018-1.783.194-1.775a24.847,24.847,0,0,1,2.072-6.888,22.612,22.612,0,0,1,10.2-10.46c.235-.115.481-.21.719-.317-.246-.264-.482-.538-.713-.813-.146.054-.3.1-.442.156a25.923,25.923,0,0,0-12.22,10.065,25.422,25.422,0,0,0-3.15,7.593l-.389,2.046-.192,2.076c-.111,1.385-.1,2.6-.153,3.914l-.468,15.464-.075,2.472,2.615.068,26.737.694,5.456.186.043-2.032Z" transform="translate(0 19.745)"/><line class="d" transform="translate(1016.79 172.673)"/><path class="c" d="M1017.66,159.264a23.566,23.566,0,0,1-.747-2.472l-.532-2.474-.65-2.472c-.482-1.649-.951-3.3-1.575-4.947h-.787c-.622,1.649-1.092,3.3-1.574,4.947l-.65,2.472-.532,2.474a23.567,23.567,0,0,1-.747,2.472,4.265,4.265,0,0,0-.04,2.474,8.3,8.3,0,0,0,.972,2.164c.065.1.124.206.2.31a9.81,9.81,0,0,0,2.375,2.472h.787a9.794,9.794,0,0,0,2.376-2.472c.108-.156.2-.311.294-.467a8.259,8.259,0,0,0,.874-2.007A4.265,4.265,0,0,0,1017.66,159.264Z" transform="translate(3.028 25.773)"/><path class="c" d="M1016.533,137.774a17.436,17.436,0,0,0,3.3,2.8,13.523,13.523,0,0,0,7.718,2.243,12.764,12.764,0,0,0,7.332-2.8,16.093,16.093,0,0,0,2.735-2.776c.31-.4.6-.807.871-1.224.378-.575.73-1.163,1.044-1.764a32.746,32.746,0,0,0,3.4-13.729c0-.085,0-.172,0-.257l-.381-.571c-.564-.844-1.27-1.746-1.947-2.606a20.09,20.09,0,0,1,.437,3.433,21.041,21.041,0,0,1-3.468,12.547c-2.445,3.574-6.291,6.013-10.025,5.8-3.753-.222-6.942-3.015-8.8-6.545a23.247,23.247,0,0,1-2.49-11.807c.039-.669.113-1.335.2-2-.467.135-.935.264-1.411.376a27.387,27.387,0,0,1-5.1.786c0,.279,0,.56,0,.836A28.9,28.9,0,0,0,1014.34,135a21.573,21.573,0,0,0,1.481,1.967C1016.051,137.237,1016.287,137.51,1016.533,137.774Z" transform="translate(3.143 14.181)"/><path class="c" d="M1014.419,121.589a42.669,42.669,0,0,0,6.174-1.347c2.053-.576,4.076-1.294,6.088-2.061,2.032-.775,3.967-1.571,6-2.546a5.92,5.92,0,0,1,4.131-.053,19.538,19.538,0,0,1,3.639,1.538c.7.4,1.381.832,2.051,1.274,0-.578-.01-1.163-.046-1.756-.076-1.036-.153-2.078-.31-3.135-.062-.526-.132-1.056-.222-1.588l-.124-.794-.158-.578-.122-.568c-.071-.147-.136-.294-.195-.443a3.169,3.169,0,0,0-.386-.714,2.544,2.544,0,0,0-.857-.7,4.738,4.738,0,0,0-1.69-.337,10.033,10.033,0,0,0-1.145.025c-.2.011-.4.047-.593.069-.168.025-.442.085-.451.075l-4.364-1.364c-1.661-2.449-3.532-3.965-6.261-3.976-2.753-.039-5.986,1.347-9.026,3.1l-1.153.681-.285.171-.169.136-.354.258a6.034,6.034,0,0,0-1.314,1.494,15.92,15.92,0,0,0-1.911,4.4,39.939,39.939,0,0,0-1.239,8.96A24.846,24.846,0,0,0,1014.419,121.589Z" transform="translate(3.21 8.546)"/><path class="c" d="M1016.106,126.391c.476-.113.944-.242,1.411-.376a51.6,51.6,0,0,0,4.95-1.739c2.054-.829,4.046-1.767,5.989-2.785,1.918-1.019,3.886-2.132,5.639-3.272a5.754,5.754,0,0,1,2.821,1.344,20.129,20.129,0,0,1,2.439,2.306q1.167,1.246,2.224,2.61l.078.1c.677.86,1.383,1.761,1.947,2.606l.381.571,1.733,2.6,2.326-3.46c.282-.419.328-.515.46-.74l.285-.546c.177-.356.319-.69.456-1.031a19.433,19.433,0,0,0,.625-1.989,22.221,22.221,0,0,0,.479-2.4,41.406,41.406,0,0,1-1.1-8.032c-.012-.558,0-1.121.007-1.683a24.759,24.759,0,0,1-3.311.05l-1.5-.092-.142-1.615a63.6,63.6,0,0,1-.224-6.5,12.213,12.213,0,0,0-4.59-.774,13.163,13.163,0,0,0-2.21.222,15.843,15.843,0,0,0-3.632-2.539,13.629,13.629,0,0,0-7.281-1.326c-4.79.486-8.46,2.672-11.72,4.836l-1.207.839-.3.215-.372.31-.729.633a11.494,11.494,0,0,0-2.17,2.865,20.537,20.537,0,0,0-2.031,6.054,43.761,43.761,0,0,0-.333,11.821l.161,1.632,1.479.075c.632.032,1.251.028,1.863,0A27.387,27.387,0,0,0,1016.106,126.391Zm-3.621-11.688a15.92,15.92,0,0,1,1.911-4.4,6.034,6.034,0,0,1,1.314-1.494l.354-.258.169-.136.285-.171,1.153-.681c3.04-1.753,6.274-3.139,9.027-3.1,2.729.011,4.6,1.528,6.261,3.976l4.364,1.364c.01.01.283-.05.451-.075.2-.022.394-.058.593-.069a10.029,10.029,0,0,1,1.144-.025,4.738,4.738,0,0,1,1.69.337,2.545,2.545,0,0,1,.857.7,3.179,3.179,0,0,1,.386.714c.058.149.124.3.194.443l.122.568.158.578.124.794c.09.532.16,1.061.222,1.588.157,1.057.233,2.1.31,3.135.036.593.047,1.178.046,1.756-.671-.442-1.35-.872-2.051-1.274a19.545,19.545,0,0,0-3.639-1.538,5.92,5.92,0,0,0-4.131.053c-2.036.975-3.971,1.771-6,2.546-2.011.767-4.035,1.485-6.088,2.061a42.669,42.669,0,0,1-6.174,1.347,24.846,24.846,0,0,1-4.29.221A39.939,39.939,0,0,1,1012.485,114.7Z" transform="translate(2.093 6.693)"/><path class="b" d="M1062.474,123.891c.069.025.142.04.211.065a26.824,26.824,0,0,1,11.486,7.908,26.579,26.579,0,0,1,4.654-.558,38.864,38.864,0,0,0-6.952-5.207,38.375,38.375,0,0,0-8.512-3.421C1063.075,123.088,1062.788,123.5,1062.474,123.891Z" transform="translate(23.567 16.353)"/><path class="b" d="M1072.807,173.749l-8.614.225-16.145.347a12.459,12.459,0,0,1-2.213,2.888h-.786a12.475,12.475,0,0,1-2.15-2.776l-10.995.236-.372-17.542c-.019-1.651-.1-3.4-.072-4.971l.051-2.36.281-2.346a32.374,32.374,0,0,1,2.851-9.05,29.865,29.865,0,0,1,13.549-13.525,10.666,10.666,0,0,1,1.585-.7c-.229-.249-.442-.51-.66-.767-.456.163-.914.313-1.361.493a33.175,33.175,0,0,0-13.61,10.361c-.372.479-.728.971-1.073,1.471-.3.431-.606.853-.883,1.3a32.869,32.869,0,0,0-3.931,9.756l-.476,2.617c-.093.881-.149,1.767-.224,2.653-.126,1.769-.1,3.374-.151,5.07l-.324,15.268-.1,4.814-.043,2.032-.01.4,2.54.056,34.723.746,17.232.451A26.5,26.5,0,0,1,1072.807,173.749Z" transform="translate(9.744 16.637)"/><path class="b" d="M1045.345,162.915a7.124,7.124,0,0,0-.04-3.211c-.267-1.071-.579-2.142-.747-3.213l-.532-3.211-.65-3.213c-.482-2.14-.953-4.282-1.575-6.424h-.786c-.622,2.142-1.093,4.283-1.575,6.424l-.65,3.213-.532,3.211c-.168,1.071-.48,2.142-.747,3.213a7.124,7.124,0,0,0-.04,3.211,13.652,13.652,0,0,0,1.394,3.647,12.475,12.475,0,0,0,2.15,2.776h.786a12.459,12.459,0,0,0,2.213-2.888A13.707,13.707,0,0,0,1045.345,162.915Z" transform="translate(13.779 24.507)"/><path class="b" d="M1076.731,104.547c-.079-.093-.162-.182-.242-.275a28.634,28.634,0,0,1-3.785,21.849,19.967,19.967,0,0,1-5.895,5.833,13.313,13.313,0,0,1-7.417,2.117c-5.156-.226-9.548-4-12.085-8.69a30.986,30.986,0,0,1-3.515-15.731c.043-.935.136-1.865.254-2.793-.322.082-.64.172-.965.246a37.7,37.7,0,0,1-5.582.864c-.008.563-.019,1.125-.007,1.683a41.425,41.425,0,0,0,1.1,8.032,33.7,33.7,0,0,0,4.306,10.363,27.11,27.11,0,0,0,2.115,2.806c.218.257.43.518.66.767a21.925,21.925,0,0,0,4.086,3.511,16.925,16.925,0,0,0,9.635,2.881,16.175,16.175,0,0,0,9.249-3.433,20.656,20.656,0,0,0,3.55-3.526c.314-.393.6-.8.887-1.213a26.127,26.127,0,0,0,1.583-2.533,40.236,40.236,0,0,0,4.425-17.653q.015-1.088-.008-2.183C1078.346,106.494,1077.538,105.5,1076.731,104.547Z" transform="translate(13.85 9.195)"/><path class="b" d="M1036.61,111.826a31.485,31.485,0,0,0,6.243-.343,56.038,56.038,0,0,0,8.046-1.864c2.665-.788,5.29-1.753,7.892-2.786,2.621-1.042,5.138-2.124,7.74-3.414a7.474,7.474,0,0,1,5.17.14,24.965,24.965,0,0,1,4.546,2.111c1.358.833,2.664,1.736,3.931,2.685a33.3,33.3,0,0,0,.05-3.71c-.076-1.382-.15-2.769-.332-4.171-.072-.7-.153-1.4-.262-2.1l-.147-1.053-.2-.833-.168-.822-.278-.688a5.483,5.483,0,0,0-.608-1.181,4.368,4.368,0,0,0-1.628-1.371,7.217,7.217,0,0,0-2.7-.529,13.041,13.041,0,0,0-1.661.064c-.283.022-.567.076-.847.115l-.7.14-2.969.59-1.395-1.954a14.83,14.83,0,0,0-3.972-4.018,9.291,9.291,0,0,0-5.142-1.407c-3.879,0-8.146,1.933-12.126,4.268-.5.285-1,.6-1.506.906l-.371.229-.251.2-.515.392c-.378.207-.635.65-.967.967a6.793,6.793,0,0,0-.868,1.179,21.605,21.605,0,0,0-2.5,5.965A53.034,53.034,0,0,0,1036.61,111.826Z" transform="translate(13.509 1.866)"/><path class="b" d="M1034,115.5l.142,1.615,1.5.092a24.759,24.759,0,0,0,3.311-.05,37.7,37.7,0,0,0,5.582-.864c.325-.074.643-.164.965-.246a62.738,62.738,0,0,0,7.268-2.388c2.667-1.039,5.259-2.222,7.793-3.507,2.507-1.289,5.057-2.685,7.376-4.142a7.208,7.208,0,0,1,3.86,1.538,25.519,25.519,0,0,1,3.347,2.879c.974.965,1.9,1.983,2.8,3.035.079.093.163.182.242.275.807.954,1.615,1.947,2.349,2.919.139.186.3.374.428.557l2.2,3.057,2.238-3.349c.3-.456.369-.59.521-.856.115-.221.24-.453.333-.664.208-.436.376-.853.537-1.276a23.2,23.2,0,0,0,.725-2.5,38.261,38.261,0,0,0,.793-4.906c.132-1.617.189-3.232.167-4.825-.005-.8-.035-1.594-.084-2.383l-.064-1.188-.185-1.383-.231-1.392-.447-1.442a13.623,13.623,0,0,0-1.314-2.872,12.1,12.1,0,0,0-5.083-4.429,14.323,14.323,0,0,0-6.075-1.143,16.741,16.741,0,0,0-2.821.276c-.118.019-.233.05-.351.074a19.733,19.733,0,0,0-4.929-3.624,16.6,16.6,0,0,0-8.9-1.7c-5.917.586-10.617,3.285-14.818,6.04-.533.344-1.038.711-1.558,1.067l-.39.271-.451.378-.891.767a10.724,10.724,0,0,0-1.507,1.694,11.451,11.451,0,0,0-1.185,1.821,26.156,26.156,0,0,0-2.618,7.617,53.261,53.261,0,0,0-.8,8.658A63.6,63.6,0,0,0,1034,115.5Zm8.589-21.248c.332-.317.589-.76.967-.967l.515-.392.251-.2.371-.229c.5-.3,1-.621,1.506-.906,3.98-2.335,8.247-4.272,12.126-4.268a9.291,9.291,0,0,1,5.142,1.407,14.83,14.83,0,0,1,3.972,4.018l1.395,1.954,2.969-.59.7-.14c.281-.039.564-.093.847-.115a13.041,13.041,0,0,1,1.661-.064,7.217,7.217,0,0,1,2.7.529,4.368,4.368,0,0,1,1.628,1.371,5.483,5.483,0,0,1,.608,1.181l.278.688.168.822.2.833.147,1.053c.11.7.19,1.4.262,2.1.182,1.4.256,2.789.332,4.171a33.3,33.3,0,0,1-.05,3.71c-1.267-.949-2.572-1.851-3.931-2.685a24.965,24.965,0,0,0-4.546-2.111,7.474,7.474,0,0,0-5.17-.14c-2.6,1.29-5.119,2.372-7.74,3.414-2.6,1.033-5.226,2-7.892,2.786a56.038,56.038,0,0,1-8.046,1.864,31.485,31.485,0,0,1-6.243.343,53.034,53.034,0,0,1,1.5-12.29,21.605,21.605,0,0,1,2.5-5.965A6.793,6.793,0,0,1,1042.585,94.257Z" transform="translate(12.402)"/><path class="e" d="M1082.332,128.856c-.318,0-.626.036-.942.047a26.3,26.3,0,0,0-25.509,26.4,26.45,26.45,0,1,0,26.451-26.449ZM1096.5,155.7c-2.361.622-4.722,1.092-7.082,1.575l-3.262.6a29.313,29.313,0,0,1-.725,4.515,21.157,21.157,0,0,1-3.094,7.082,21.132,21.132,0,0,1-3.1-7.082,29.323,29.323,0,0,1-.583-3.163,8.617,8.617,0,0,1-3.4.017,14.277,14.277,0,0,1-7.082-3.543v-.788a14.265,14.265,0,0,1,7.082-3.543,8.587,8.587,0,0,1,3.414.018,29.774,29.774,0,0,1,.583-3.164,21.366,21.366,0,0,1,3.086-7.082,21.367,21.367,0,0,1,3.085,7.082,29.91,29.91,0,0,1,.728,4.514l3.27.6c2.36.482,4.721.953,7.082,1.575Z" transform="translate(21.003 18.756)"/></g></svg>