<svg xmlns="http://www.w3.org/2000/svg" width="81.208" height="72.055" viewBox="0 0 81.208 72.055">
  <g id="Group_1960" data-name="Group 1960" transform="translate(-1127.464 -453.74)">
    <path id="Path_1634" data-name="Path 1634" d="M1208.669,512.542l-.01-1.066-.313-17.051-.48-17.051-.292-8.525-.163-4.3a11.516,11.516,0,0,0-1.29-4.715,11.274,11.274,0,0,0-7.37-5.781,8.475,8.475,0,0,0-1.17-.215,7.784,7.784,0,0,0-1.18-.088c-.825-.032-1.456.033-2.191.046l-4.262.14c-5.684.155-11.368.362-17.051.476l-17.051.308c-5.684.072-11.368.09-17.051.1,5.683.015,11.367.033,17.051.105l17.051.308c5.683.114,11.367.32,17.051.476l4.262.14a13.431,13.431,0,0,1,3.918.473,8.618,8.618,0,0,1,5.331,4.8,8.409,8.409,0,0,1,.7,3.5l-.138,4.224-.048,1.385L1129.3,467.35V473.3l74.667-2.882-.239,6.96-.48,17.051-.312,17.051-.011,1.066,0,.266-.014.2-.025.38a7.5,7.5,0,0,1-.292,1.481,7.17,7.17,0,0,1-6.791,4.988c-5.684.011-11.368.028-17.051.1s-11.368.207-17.051.307-11.368.321-17.051.477l-4.263.14-1.066.038-.53.018-.433-.005a5.131,5.131,0,0,1-.867-.055,5.569,5.569,0,0,1-.859-.146,8.3,8.3,0,0,1-5.48-4.207,8.556,8.556,0,0,1-.995-3.49c-.073-1.357-.107-2.824-.162-4.231l-.294-8.526c-.158-5.683-.362-11.367-.481-17.051l-.312-17.05a13.23,13.23,0,0,1,.379-4.2,9.58,9.58,0,0,1,2.013-3.7,10.024,10.024,0,0,1,7.5-3.447,10.132,10.132,0,0,0-9.636,7.108,13.408,13.408,0,0,0-.47,4.24l-.311,17.05c-.119,5.684-.324,11.368-.482,17.051l-.293,8.526c-.045,1.435-.113,2.811-.139,4.294a11.4,11.4,0,0,0,.99,4.729,11.6,11.6,0,0,0,7.221,6.37,9.194,9.194,0,0,0,1.222.3,8.517,8.517,0,0,0,1.25.171l.631.049.535.019,1.066.038,4.263.14c5.683.156,11.367.367,17.051.477s11.367.245,17.051.307,11.367.089,17.051.1a13,13,0,0,0,9.739-4.462,12.582,12.582,0,0,0,2.621-4.8,13.4,13.4,0,0,0,.477-2.7l.029-.684.011-.338Z" fill="#707070"/>
    <circle id="Ellipse_232" data-name="Ellipse 232" cx="4" cy="4" r="4" transform="translate(1136.795 458.823)" fill="#b0b5c3"/>
    <circle id="Ellipse_233" data-name="Ellipse 233" cx="4" cy="4" r="4" transform="translate(1147.795 458.823)" fill="#b0b5c3"/>
    <circle id="Ellipse_234" data-name="Ellipse 234" cx="4" cy="4" r="4" transform="translate(1158.795 458.823)" fill="#b0b5c3"/>
    <rect id="Rectangle_2638" data-name="Rectangle 2638" width="64" height="20" rx="2" transform="translate(1135.795 475.823)" fill="#eccb95"/>
    <path id="Path_1635" data-name="Path 1635" d="M1136.795,505.8l63-2.973-63-2.973Z" fill="#b0b5c3"/>
    <path id="Path_1636" data-name="Path 1636" d="M1136.795,513.8l63-2.973-63-2.973Z" fill="#b0b5c3"/>
  </g>
</svg>
