<svg xmlns="http://www.w3.org/2000/svg" width="76.021" height="86.074" viewBox="0 0 76.021 86.074">
  <g id="Group_1996" data-name="Group 1996" transform="translate(-402.979 -263.926)">
    <g id="Group_1992" data-name="Group 1992" transform="translate(469.571 350) rotate(180)">
      <path id="Path_618" data-name="Path 618" d="M16.024,86.009,66.571,86V0H0V69.026Z" transform="translate(0.021 0)" fill="#b0b5c3"/>
      <path id="Path_619" data-name="Path 619" d="M0,0,13.845-3.728l2.309,20.767Z" transform="translate(0 69.036)" fill="#707070"/>
    </g>
    <g id="Rectangle_2617" data-name="Rectangle 2617" transform="translate(437 324)" fill="#fff" stroke="#0b8b8c" stroke-width="1">
      <rect width="42" height="20" stroke="none"/>
      <rect x="0.5" y="0.5" width="41" height="19" fill="none"/>
    </g>
    <text id="_.csv" data-name=".csv" transform="translate(458 337)" fill="#0b8b8c" font-size="12" font-family="HelveticaNeue-Medium, Helvetica Neue" font-weight="500"><tspan x="-11.232" y="0">.csv</tspan></text>
    <rect id="Rectangle_2625" data-name="Rectangle 2625" width="15" height="5" transform="translate(411 283)" fill="#707070"/>
    <rect id="Rectangle_2629" data-name="Rectangle 2629" width="15" height="5" transform="translate(411 292)" fill="#707070"/>
    <rect id="Rectangle_2632" data-name="Rectangle 2632" width="15" height="5" transform="translate(411 301)" fill="#707070"/>
    <rect id="Rectangle_2630" data-name="Rectangle 2630" width="15" height="5" transform="translate(429 292)" fill="#707070"/>
    <rect id="Rectangle_2631" data-name="Rectangle 2631" width="15" height="5" transform="translate(429 301)" fill="#707070"/>
    <rect id="Rectangle_2628" data-name="Rectangle 2628" width="15" height="5" transform="translate(429 283)" fill="#707070"/>
  </g>
</svg>
