<svg id="dotted-square" xmlns="http://www.w3.org/2000/svg" width="24" height="24" viewBox="0 0 24 24">
  <g id="Group_1665" data-name="Group 1665">
    <g id="Group_1664" data-name="Group 1664">
      <path id="Path_597" data-name="Path 597" d="M329.53,326.035h-1.244a.66.66,0,0,0-.66.66v.931h-.931a.66.66,0,0,0-.66.66v1.244a.66.66,0,0,0,.66.66h2.835a.66.66,0,0,0,.66-.66v-2.835A.66.66,0,0,0,329.53,326.035Z" transform="translate(-306.19 -306.19)" fill="#959595"/>
      <path id="Path_598" data-name="Path 598" d="M102.655,350.146H98.774a.66.66,0,0,0-.66.66v1.244a.66.66,0,0,0,.66.66h3.881a.66.66,0,0,0,.66-.66v-1.244A.66.66,0,0,0,102.655,350.146Z" transform="translate(-92.168 -328.71)" fill="#959595"/>
      <path id="Path_599" data-name="Path 599" d="M216.616,350.146h-3.881a.66.66,0,0,0-.66.66v1.244a.66.66,0,0,0,.66.66h3.881a.66.66,0,0,0,.66-.66v-1.244A.66.66,0,0,0,216.616,350.146Z" transform="translate(-199.222 -328.71)" fill="#959595"/>
      <path id="Path_600" data-name="Path 600" d="M3.495,327.626H2.564v-.931a.66.66,0,0,0-.66-.66H.66a.66.66,0,0,0-.66.66v2.835a.66.66,0,0,0,.66.66H3.495a.66.66,0,0,0,.66-.66v-1.244A.66.66,0,0,0,3.495,327.626Z" transform="translate(0 -306.19)" fill="#959595"/>
      <path id="Path_601" data-name="Path 601" d="M.66,217.274H1.9a.66.66,0,0,0,.66-.66v-3.881a.66.66,0,0,0-.66-.66H.66a.66.66,0,0,0-.66.66v3.881A.66.66,0,0,0,.66,217.274Z" transform="translate(0 -199.221)" fill="#959595"/>
      <path id="Path_602" data-name="Path 602" d="M.66,103.314H1.9a.66.66,0,0,0,.66-.66V98.774a.66.66,0,0,0-.66-.66H.66a.66.66,0,0,0-.66.66v3.881A.66.66,0,0,0,.66,103.314Z" transform="translate(0 -92.168)" fill="#959595"/>
      <path id="Path_603" data-name="Path 603" d="M3.495,0H.66A.66.66,0,0,0,0,.66V3.5a.66.66,0,0,0,.66.66H1.9a.66.66,0,0,0,.66-.66V2.564h.931a.66.66,0,0,0,.66-.66V.66A.66.66,0,0,0,3.495,0Z" fill="#959595"/>
      <path id="Path_604" data-name="Path 604" d="M216.616,0h-3.881a.66.66,0,0,0-.66.66V1.9a.66.66,0,0,0,.66.66h3.881a.66.66,0,0,0,.66-.66V.66A.66.66,0,0,0,216.616,0Z" transform="translate(-199.222)" fill="#959595"/>
      <path id="Path_605" data-name="Path 605" d="M98.773,2.564h3.881a.66.66,0,0,0,.66-.66V.66a.66.66,0,0,0-.66-.66H98.773a.66.66,0,0,0-.66.66V1.9A.66.66,0,0,0,98.773,2.564Z" transform="translate(-92.167)" fill="#959595"/>
      <path id="Path_606" data-name="Path 606" d="M329.53,0h-2.835a.66.66,0,0,0-.66.66V1.9a.66.66,0,0,0,.66.66h.931V3.5a.66.66,0,0,0,.66.66h1.244a.66.66,0,0,0,.66-.66V.66A.66.66,0,0,0,329.53,0Z" transform="translate(-306.19)" fill="#959595"/>
      <path id="Path_607" data-name="Path 607" d="M352.052,212.074h-1.244a.66.66,0,0,0-.66.66v3.881a.66.66,0,0,0,.66.66h1.244a.66.66,0,0,0,.66-.66v-3.881A.66.66,0,0,0,352.052,212.074Z" transform="translate(-328.712 -199.221)" fill="#959595"/>
      <path id="Path_608" data-name="Path 608" d="M352.052,98.114h-1.244a.66.66,0,0,0-.66.66v3.881a.66.66,0,0,0,.66.66h1.244a.66.66,0,0,0,.66-.66V98.774A.66.66,0,0,0,352.052,98.114Z" transform="translate(-328.712 -92.168)" fill="#959595"/>
    </g>
  </g>
</svg>
