<svg xmlns="http://www.w3.org/2000/svg" xmlns:xlink="http://www.w3.org/1999/xlink" width="48" height="48" viewBox="0 0 48 48">
  <defs>
    <filter id="Rectangle_2166" x="0" y="0" width="48" height="48" filterUnits="userSpaceOnUse">
      <feOffset dy="2" input="SourceAlpha"/>
      <feGaussianBlur stdDeviation="3" result="blur"/>
      <feFlood flood-opacity="0.2"/>
      <feComposite operator="in" in2="blur"/>
      <feComposite in="SourceGraphic"/>
    </filter>
  </defs>
  <g id="Group_2182" data-name="Group 2182" transform="translate(-1014 -694)">
    <g id="Group_2181" data-name="Group 2181" transform="translate(157 215)">
      <g transform="matrix(1, 0, 0, 1, 857, 479)" filter="url(#Rectangle_2166)">
        <rect id="Rectangle_2166-2" data-name="Rectangle 2166" width="30" height="30" rx="4" transform="translate(9 7)" fill="#fff"/>
      </g>
    </g>
    <g id="pencil-edit-button_1_" data-name="pencil-edit-button (1)" transform="translate(1028.999 705.765)">
      <path id="Path_1696" data-name="Path 1696" d="M10.841,4.184,14.387,7.73,5.41,16.706,1.866,13.16Zm6.237-.855L15.5,1.747a1.569,1.569,0,0,0-2.217,0L11.764,3.262l3.546,3.546,1.767-1.767A1.209,1.209,0,0,0,17.078,3.329ZM.01,18.145a.4.4,0,0,0,.488.48l3.952-.958L.906,14.12Z" transform="translate(0)" fill="#0b8b8c"/>
    </g>
  </g>
</svg>
