<svg xmlns="http://www.w3.org/2000/svg" width="69.613" height="58.347" viewBox="0 0 69.613 58.347">
  <g id="Group_1957" data-name="Group 1957" transform="translate(-898.293 -364.5)">
    <rect id="Rectangle_2489" data-name="Rectangle 2489" width="57.141" height="43.477" transform="translate(908.909 366.985)" fill="#fff"/>
    <g id="email" transform="translate(905.843 364.5)">
      <g id="Group_138" data-name="Group 138">
        <path id="Path_111" data-name="Path 111" d="M966.161,364.5H915.007a5.466,5.466,0,0,0-5.454,5.454V406.32a5.466,5.466,0,0,0,5.454,5.454h51.153a5.466,5.466,0,0,0,5.455-5.454V369.954A5.466,5.466,0,0,0,966.161,364.5Zm-.752,3.636L940.7,392.844l-26.612-26.086,37.378-.87Zm-52.22,37.431V370.69L930.7,388.053Zm2.576,2.572,17.515-17.525,6.14,6.087a1.819,1.819,0,0,0,2.567,0l5.987-5.987,17.434,17.426Zm52.218-2.572-17.437-17.429,17.433-17.426Z" transform="translate(-909.553 -364.5)" fill="#707070"/>
      </g>
    </g>
    <g id="Group_1956" data-name="Group 1956" transform="translate(898.293 388.187)">
      <path id="Path_1596" data-name="Path 1596" d="M929.712,425.176a11.857,11.857,0,0,0,1.442-5.708,12.053,12.053,0,0,0-1.472-5.7A13.452,13.452,0,0,0,925.9,409.5a17.469,17.469,0,0,0-4.807-2.5,15.038,15.038,0,0,0-5.162-.83,14.519,14.519,0,0,0-9.573,3.721,15.22,15.22,0,0,0-3.2,4.284,14.984,14.984,0,0,0-1.561,5.289,12.918,12.918,0,0,0,.7,5.645,12.464,12.464,0,0,0,3.178,4.806,12.277,12.277,0,0,0,4.97,2.781,15.82,15.82,0,0,0,5.48.528,19.007,19.007,0,0,0,10.007-3.754A13.687,13.687,0,0,0,929.712,425.176Z" transform="translate(-899.363 -401.915)" fill="#fff"/>
      <path id="Path_1597" data-name="Path 1597" d="M929.6,411.269a17.411,17.411,0,0,0-2.9-5.735,14.534,14.534,0,0,0-5.2-4.19,16.1,16.1,0,0,0-13.344-.145,16.966,16.966,0,0,0-5.536,3.94,15.654,15.654,0,0,0-4.277,12.238,19.107,19.107,0,0,0,5.154,11.361,19.589,19.589,0,0,0,5.037,3.9,15.412,15.412,0,0,0,6.323,1.822,14.249,14.249,0,0,0,6.579-1.206,13.912,13.912,0,0,0,5.226-4.076,17.132,17.132,0,0,0,2.91-5.709,21.6,21.6,0,0,0,.908-6.1A20.988,20.988,0,0,0,929.6,411.269ZM914.86,431.136a15.82,15.82,0,0,1-5.48-.528,12.277,12.277,0,0,1-4.97-2.781,12.464,12.464,0,0,1-3.178-4.806,12.918,12.918,0,0,1-.7-5.645,14.984,14.984,0,0,1,1.561-5.289,15.22,15.22,0,0,1,3.2-4.284,14.519,14.519,0,0,1,9.573-3.721,15.038,15.038,0,0,1,5.162.83,17.469,17.469,0,0,1,4.807,2.5,13.452,13.452,0,0,1,3.783,4.273,12.053,12.053,0,0,1,1.472,5.7,11.857,11.857,0,0,1-1.442,5.708,13.687,13.687,0,0,1-3.775,4.3A19.007,19.007,0,0,1,914.86,431.136Z" transform="translate(-898.293 -399.824)" fill="#e6ba73"/>
    </g>
    <path id="Path_1598" data-name="Path 1598" d="M925.441,424.008a.708.708,0,0,0,.017-.146.687.687,0,0,0,0-.105.792.792,0,0,0-.062-.234h0v0l-1.031-2.343a2.347,2.347,0,0,0,.918-2.882,2.363,2.363,0,0,0-1.147-1.207,2.447,2.447,0,0,0-1.508-.207l-.713-1.784-.191-.487a1.122,1.122,0,0,0-.483-.542,1.173,1.173,0,0,0-1.407.2l-.359.42-.337.379c-.227.249-.462.491-.7.728a17.761,17.761,0,0,1-1.513,1.324,18.513,18.513,0,0,1-3.378,2.116l-1.868.788-.233.1a2.327,2.327,0,0,0-.353.185,1.965,1.965,0,0,0-.618.632,2.054,2.054,0,0,0-.3.9l-.062.032a1.986,1.986,0,0,0-.308.215,1.9,1.9,0,0,0-.56,2.055l.066.168.04.091.08.182.329.726.335.723.084.181.042.09.083.16a1.887,1.887,0,0,0,2.266.845l.084-.034a2.06,2.06,0,0,0,.839.349c.771.746,1.533,1.5,2.32,2.233l1.285,1.21a1.419,1.419,0,0,0,1.475.318,2.282,2.282,0,0,0,.254-.119l.2-.1.392-.2.784-.405.1-.05a1.539,1.539,0,0,0,.152-.086,1.3,1.3,0,0,0,.27-.238,1.274,1.274,0,0,0,.292-.64,1.249,1.249,0,0,0-.092-.685,1.375,1.375,0,0,0-.371-.483l-.648-.6-2.33-2.173a17.131,17.131,0,0,1,4.1-.926,15.453,15.453,0,0,1,2.291-.057l.573.032a.871.871,0,0,0,.468-.078h0a.725.725,0,0,0,.092-.036.705.705,0,0,0,.074-.068c.009-.007.017-.016.026-.024a.778.778,0,0,0,.189-.253c.012-.025.028-.05.038-.076A.837.837,0,0,0,925.441,424.008Zm.016-.185c0-.014,0-.028,0-.042C925.456,423.795,925.457,423.809,925.457,423.823Z" transform="translate(-3.574 -16.282)" fill="#e6ba73"/>
    <path id="Path_1599" data-name="Path 1599" d="M923,414a18.075,18.075,0,0,1,1.753,2.792,30.533,30.533,0,0,1,1.334,2.955,29.969,29.969,0,0,1,1.015,3.079,17.847,17.847,0,0,1,.592,3.243,17.9,17.9,0,0,1-1.755-2.792,29.968,29.968,0,0,1-1.332-2.956,30.346,30.346,0,0,1-1.013-3.08A18.14,18.14,0,0,1,923,414Z" transform="translate(-8.14 -16.307)" fill="#fff"/>
  </g>
</svg>
