<svg xmlns="http://www.w3.org/2000/svg" width="15" height="15" viewBox="0 0 15 15">
  <g id="Group_1452" data-name="Group 1452" transform="translate(-538 -311)">
    <g id="Group_363" data-name="Group 363">
      <path id="Subtraction_2" data-name="Subtraction 2" d="M10631.5-4756a7.444,7.444,0,0,1-5.3-2.2,7.444,7.444,0,0,1-2.2-5.3,7.446,7.446,0,0,1,2.2-5.3,7.444,7.444,0,0,1,5.3-2.2,7.444,7.444,0,0,1,5.3,2.2,7.446,7.446,0,0,1,2.2,5.3,7.444,7.444,0,0,1-2.2,5.3A7.444,7.444,0,0,1,10631.5-4756Zm0-13.5a6.006,6.006,0,0,0-6,6,6.006,6.006,0,0,0,6,6,6.006,6.006,0,0,0,6-6A6.006,6.006,0,0,0,10631.5-4769.5Z" transform="translate(-10086 5082)" fill="#0b8b8c"/>
      <path id="Path_550" data-name="Path 550" d="M-.972-2.127v-.379a1.681,1.681,0,0,1,.21-.856,2.753,2.753,0,0,1,.769-.774,3.216,3.216,0,0,0,.71-.625A.905.905,0,0,0,.888-5.3a.583.583,0,0,0-.246-.507,1.173,1.173,0,0,0-.687-.174,3.943,3.943,0,0,0-1.753.5L-2.356-6.6A4.882,4.882,0,0,1,.068-7.241a2.578,2.578,0,0,1,1.678.507,1.657,1.657,0,0,1,.623,1.353,1.8,1.8,0,0,1-.256.974,3.652,3.652,0,0,1-.974.922,3.006,3.006,0,0,0-.623.553.859.859,0,0,0-.131.5v.307ZM-1.136-.375a.859.859,0,0,1,.231-.651.935.935,0,0,1,.671-.22.908.908,0,0,1,.658.225.857.857,0,0,1,.233.646A.857.857,0,0,1,.421.263.892.892,0,0,1-.234.5.919.919,0,0,1-.9.269.853.853,0,0,1-1.136-.375Z" transform="translate(545.384 321.847)" fill="#0b8b8c"/>
    </g>
  </g>
</svg>
