<svg xmlns="http://www.w3.org/2000/svg" width="54.198" height="85.122" viewBox="0 0 54.198 85.122"><defs><style>.a{fill:#707070;}.b{fill:#fff;}.c{fill:#e6ba73;}</style></defs><g transform="translate(-893 -351.12)"><g transform="translate(-58.332 141.288)"><path class="a" d="M965.787,218.124s-4.955,10.619-4.955,18.406S958,257.06,958,257.06s4.955-3.54,10.619-3.54,10.455.341,10.455.341V216Z" transform="translate(-1.948 -1.802)"/><path class="a" d="M1001.287,218.124s4.955,10.619,4.955,18.406,2.832,20.53,2.832,20.53-4.955-3.54-10.619-3.54-10.455.341-10.455.341V216Z" transform="translate(-10.71 -1.802)"/><g transform="translate(951.332 209.832)"><g transform="translate(0 42.09)"><path class="b" d="M980.978,269.471l-5.208.015a23.4,23.4,0,0,0-23.335,23.468l.052,18.207,52.011-.147-.052-18.207A23.4,23.4,0,0,0,980.978,269.471Z" transform="translate(-951.654 -269.341)"/><path class="a" d="M980.657,269.548c-2.5.026-5.023-.086-7.506.122a22.818,22.818,0,0,0-17.706,12.077,23.96,23.96,0,0,0-2.35,6.929l-.242,1.816c-.034.609-.042,1.22-.065,1.829-.039,1.219.016,2.5.019,3.743l.184,15.041-.829-.825,52.01-.67-1.346,1.354c-.045-4.58-.024-9.16.011-13.74.033-2.284.087-4.621,0-6.748a26.553,26.553,0,0,0-1.421-6.383,22.6,22.6,0,0,0-8.022-10.426,23.322,23.322,0,0,0-6.026-3.04A24.9,24.9,0,0,0,980.657,269.548Zm0-.261a26.674,26.674,0,0,1,6.843.89,27.014,27.014,0,0,1,6.374,2.764,26.452,26.452,0,0,1,5.388,4.492,26.758,26.758,0,0,1,3.9,5.922,25.45,25.45,0,0,1,2,6.877c.256,2.444.216,4.689.278,6.984.062,4.58.108,9.159.09,13.739l-.006,1.363-1.34-.009-52.013-.376-.835-.006.006-.819.1-15.041c.023-1.261-.016-2.492.058-3.776.043-.643.073-1.286.13-1.926l.315-1.9a24.793,24.793,0,0,1,2.689-7.168,23.682,23.682,0,0,1,4.836-5.878,23.245,23.245,0,0,1,6.37-4.081,26.225,26.225,0,0,1,7.294-1.9C975.647,269.264,978.147,269.32,980.656,269.287Z" transform="translate(-951.332 -269.287)"/></g><g transform="translate(10.972 64.61)"><path class="a" d="M968.728,301.143c-.038.949-.1,1.894-.16,2.838s-.113,1.891-.193,2.832l.008-.173c.191,1.131.363,2.264.525,3.4s.387,2.263.574,3.394a14.2,14.2,0,0,1,.043,3.433,14.012,14.012,0,0,1-.74,3.49l-.261.019a14.042,14.042,0,0,1-1.238-3.346,14.2,14.2,0,0,1-.455-3.4c.022-1.147.095-2.3.077-3.442s0-2.291.027-3.438l0-.155.005-.019c.234-.915.5-1.826.748-2.739s.505-1.824.781-2.733Z" transform="translate(-966.831 -301.099)"/><path class="a" d="M1007.79,301.1c.275.909.53,1.821.781,2.733s.514,1.824.748,2.739l0,.019,0,.155c.026,1.147.032,2.293.027,3.438s.054,2.3.076,3.442a14.2,14.2,0,0,1-.454,3.4,14.048,14.048,0,0,1-1.238,3.346l-.26-.019a14,14,0,0,1-.74-3.49,14.2,14.2,0,0,1,.043-3.433c.188-1.132.427-2.26.574-3.394s.333-2.267.525-3.4l.008.173c-.08-.942-.13-1.888-.193-2.832s-.122-1.889-.16-2.838Z" transform="translate(-978.462 -301.099)"/></g><g transform="translate(11.067 6.593)"><ellipse class="b" cx="14.043" cy="19.764" rx="14.043" ry="19.764" transform="matrix(1, -0.003, 0.003, 1, 0.993, 1.348)"/><path class="a" d="M996.414,240.177a28.368,28.368,0,0,1-.835,6.689,23.451,23.451,0,0,1-2.457,6.3,16.411,16.411,0,0,1-4.469,5.158,11,11,0,0,1-13.216.219,16.817,16.817,0,0,1-4.773-5.071,27.3,27.3,0,0,1-.445-26.659,17.094,17.094,0,0,1,4.773-5.36,12.4,12.4,0,0,1,7.005-2.3c.625.064,1.258.073,1.871.2a11.237,11.237,0,0,1,1.8.491l.867.337c.285.12.544.287.816.43s.544.287.8.457l.739.532a16.72,16.72,0,0,1,4.521,5.4,23.63,23.63,0,0,1,2.318,6.453A31.305,31.305,0,0,1,996.414,240.177Zm-.627,0a25.3,25.3,0,0,0-1-6.493,21.578,21.578,0,0,0-2.751-5.859c-2.364-3.545-6.115-6.133-10.031-6.065a9.738,9.738,0,0,0-5.465,1.887,14.913,14.913,0,0,0-4.122,4.479,24.913,24.913,0,0,0-.3,24.457A15.231,15.231,0,0,0,976.3,257.3a10.366,10.366,0,0,0,5.816,2.025,10.471,10.471,0,0,0,5.932-1.875,15.609,15.609,0,0,0,4.427-4.682,21.854,21.854,0,0,0,2.541-6.046A27.788,27.788,0,0,0,995.787,240.179Z" transform="translate(-966.965 -219.145)"/></g><path class="a" d="M985.728,227.6s-14.539,8.363-23.9,7.349c0,0,1.072-12.442,5.148-18.739,7.719-11.924,28.249-5.552,31.225,6.153,2.321,9.129-1.005,12.486-1.005,12.486S989.887,226.549,985.728,227.6Z" transform="translate(-954.396 -209.832)"/></g></g><rect class="c" width="11" height="4" transform="translate(920.547 408.842) rotate(7)"/></g></svg>