<svg xmlns="http://www.w3.org/2000/svg" width="18" height="18" viewBox="0 0 18 18"><defs><style>.a{fill:none;}.b{fill:#707070;}</style></defs><path class="a" d="M1.8,0H16.2A1.8,1.8,0,0,1,18,1.8V16.2A1.8,1.8,0,0,1,16.2,18H1.8A1.8,1.8,0,0,1,0,16.2V1.8A1.8,1.8,0,0,1,1.8,0Z"/><g transform="translate(1.238 1.31)"><circle class="a" cx="2.437" cy="2.437" r="2.437" transform="translate(5.282 5.282)"/><path class="a" d="M45.769,258.889a6.821,6.821,0,0,0-.453-1.095,2.392,2.392,0,0,1-2.929-2.929,6.824,6.824,0,0,0-1.095-.453,2.392,2.392,0,0,1-4.142,0,6.83,6.83,0,0,0-1.095.453,2.392,2.392,0,0,1-2.929,2.929,6.821,6.821,0,0,0-.453,1.095,2.392,2.392,0,0,1,0,4.142,6.83,6.83,0,0,0,.453,1.095,2.391,2.391,0,0,1,2.929,2.929,6.821,6.821,0,0,0,1.095.453,2.392,2.392,0,0,1,4.142,0,6.817,6.817,0,0,0,1.095-.453,2.391,2.391,0,0,1,2.929-2.929,6.83,6.83,0,0,0,.453-1.095,2.392,2.392,0,0,1,0-4.142Zm-6.548,5.982a3.91,3.91,0,1,1,3.91-3.91A3.915,3.915,0,0,1,39.22,264.871Z" transform="translate(-31.501 -253.241)"/><path class="b" d="M54.167,272.321a3.586,3.586,0,1,0,3.586,3.586A3.59,3.59,0,0,0,54.167,272.321Zm0,6.023a2.437,2.437,0,1,1,2.437-2.437A2.44,2.44,0,0,1,54.167,278.344Z" transform="translate(-46.448 -268.188)"/><path class="b" d="M38.849,254.463a1.124,1.124,0,0,1,0-2,1.11,1.11,0,0,0,.546-1.308h0a7.986,7.986,0,0,0-.622-1.5,1.114,1.114,0,0,0-1.311-.523,1.124,1.124,0,0,1-1.408-1.408,1.114,1.114,0,0,0-.523-1.311,7.983,7.983,0,0,0-1.5-.623,1.11,1.11,0,0,0-1.308.546,1.124,1.124,0,0,1-2,0,1.111,1.111,0,0,0-1.308-.546,7.988,7.988,0,0,0-1.5.623,1.114,1.114,0,0,0-.523,1.311,1.124,1.124,0,0,1-1.408,1.408,1.114,1.114,0,0,0-1.311.523,7.987,7.987,0,0,0-.623,1.5,1.11,1.11,0,0,0,.546,1.308,1.124,1.124,0,0,1,0,2,1.11,1.11,0,0,0-.546,1.308,7.989,7.989,0,0,0,.623,1.5,1.114,1.114,0,0,0,1.311.523,1.124,1.124,0,0,1,1.408,1.408,1.114,1.114,0,0,0,.523,1.311,7.982,7.982,0,0,0,1.5.623,1.111,1.111,0,0,0,1.308-.546,1.124,1.124,0,0,1,2,0,1.1,1.1,0,0,0,.983.594,1.127,1.127,0,0,0,.324-.048,7.979,7.979,0,0,0,1.5-.623,1.114,1.114,0,0,0,.523-1.311,1.124,1.124,0,0,1,1.408-1.408,1.114,1.114,0,0,0,1.311-.523,7.988,7.988,0,0,0,.622-1.5A1.11,1.11,0,0,0,38.849,254.463Zm-.666,1.044a6.737,6.737,0,0,1-.447,1.08,2.359,2.359,0,0,0-2.889,2.889,6.73,6.73,0,0,1-1.08.447,2.359,2.359,0,0,0-4.086,0,6.734,6.734,0,0,1-1.08-.447,2.359,2.359,0,0,0-2.889-2.889,6.738,6.738,0,0,1-.447-1.08,2.359,2.359,0,0,0,0-4.086,6.73,6.73,0,0,1,.447-1.08,2.359,2.359,0,0,0,2.889-2.889A6.725,6.725,0,0,1,29.68,247a2.359,2.359,0,0,0,4.086,0,6.719,6.719,0,0,1,1.08.447,2.359,2.359,0,0,0,2.889,2.889,6.729,6.729,0,0,1,.447,1.08,2.359,2.359,0,0,0,0,4.086Z" transform="translate(-24.004 -245.744)"/></g></svg>