<svg xmlns="http://www.w3.org/2000/svg" width="30.042" height="30.438" viewBox="0 0 30.042 30.438">
  <g id="Group_2053" data-name="Group 2053" transform="translate(-261 -564)">
    <path id="Path_110" data-name="Path 110" d="M12.431.11S23.419-1.568,25.8,8.177,21.108,13.641,13.637,13.2-1.1,19.024.14,10.2,12.431.11,12.431.11Z" transform="matrix(0.809, 0.588, -0.588, 0.809, 269.787, 564)" fill="#0b8b8c"/>
    <g id="Group_135" data-name="Group 135" transform="translate(264.862 574.428)">
      <path id="Path_108" data-name="Path 108" d="M26.288,16.819,16.164,6.695a.75.75,0,0,0-.586-.207L7.988,7.35a.716.716,0,0,0-.638.638l-.862,7.589a.729.729,0,0,0,.207.586L16.819,26.288a.73.73,0,0,0,.517.207.761.761,0,0,0,.517-.207l8.452-8.452a.7.7,0,0,0,.207-.517.829.829,0,0,0-.224-.5ZM7.971,15.388,8.73,8.73l6.658-.759,6.882,6.882L14.853,22.27,7.971,15.388Zm9.366,9.366L15.888,23.3,23.3,15.888l1.449,1.449Z" transform="translate(-6.485 -6.485)"/>
      <path id="Path_109" data-name="Path 109" d="M32.15,28.311A2.74,2.74,0,0,0,30.2,27.5a2.751,2.751,0,0,0-1.949,4.691A2.74,2.74,0,0,0,30.2,33a2.77,2.77,0,0,0,1.949-.811,2.728,2.728,0,0,0,0-3.881Zm-1.018,2.863a1.357,1.357,0,0,1-1.846,0,1.322,1.322,0,0,1,0-1.846,1.294,1.294,0,0,1,2.208.914A1.247,1.247,0,0,1,31.132,31.174Z" transform="translate(-23.834 -23.875)"/>
    </g>
  </g>
</svg>
