<svg xmlns="http://www.w3.org/2000/svg" width="216.484" height="181.449" viewBox="0 0 216.484 181.449">
  <g id="Group_1957" data-name="Group 1957" transform="translate(-898.293 -364.5)">
    <rect id="Rectangle_2489" data-name="Rectangle 2489" width="177.697" height="135.204" transform="translate(931.308 372.226)" fill="none"/>
    <g id="email" transform="translate(921.774 364.5)">
      <g id="Group_138" data-name="Group 138">
        <path id="Path_111" data-name="Path 111" d="M1085.592,364.5H926.515a17,17,0,0,0-16.962,16.962v113.09a17,17,0,0,0,16.962,16.962h159.077a17,17,0,0,0,16.964-16.962V381.462A17,17,0,0,0,1085.592,364.5Zm-2.34,11.306-76.839,76.839-82.76-81.123,116.237-2.7ZM920.86,492.21V383.749l54.468,54Zm8.009,8,54.469-54.5,19.093,18.928a5.656,5.656,0,0,0,7.983,0l18.62-18.62,54.216,54.191Zm162.388-8-54.224-54.2,54.214-54.193Z" transform="translate(-909.553 -364.5)" fill="#707070"/>
      </g>
    </g>
    <g id="Group_1956" data-name="Group 1956" transform="translate(898.293 438.161)">
      <path id="Path_1596" data-name="Path 1596" d="M989.149,465.272a36.869,36.869,0,0,0,4.483-17.752,37.484,37.484,0,0,0-4.577-17.712A41.833,41.833,0,0,0,977.29,416.52a54.331,54.331,0,0,0-14.948-7.759,46.768,46.768,0,0,0-16.053-2.582,45.151,45.151,0,0,0-29.77,11.572,47.336,47.336,0,0,0-9.943,13.323,46.587,46.587,0,0,0-4.854,16.447,40.169,40.169,0,0,0,2.185,17.554,38.758,38.758,0,0,0,9.882,14.945,38.174,38.174,0,0,0,15.457,8.65,49.2,49.2,0,0,0,17.043,1.641,59.108,59.108,0,0,0,31.119-11.673A42.564,42.564,0,0,0,989.149,465.272Z" transform="translate(-894.768 -392.935)" fill="#f7f7f7"/>
      <path id="Path_1597" data-name="Path 1597" d="M995.667,435.416a54.142,54.142,0,0,0-9.025-17.836,45.193,45.193,0,0,0-16.171-13.029,50.078,50.078,0,0,0-41.5-.451,52.762,52.762,0,0,0-17.216,12.251,48.685,48.685,0,0,0-13.3,38.057,59.421,59.421,0,0,0,16.028,35.329,60.918,60.918,0,0,0,15.665,12.138,47.927,47.927,0,0,0,19.665,5.666,44.314,44.314,0,0,0,20.459-3.749,43.265,43.265,0,0,0,16.251-12.675,53.276,53.276,0,0,0,9.048-17.754,67.162,67.162,0,0,0,2.823-18.956A65.266,65.266,0,0,0,995.667,435.416ZM949.815,497.2a49.2,49.2,0,0,1-17.043-1.641,38.176,38.176,0,0,1-15.456-8.65,38.762,38.762,0,0,1-9.882-14.945,40.176,40.176,0,0,1-2.185-17.554,46.6,46.6,0,0,1,4.854-16.447,47.332,47.332,0,0,1,9.943-13.323,45.153,45.153,0,0,1,29.77-11.572,46.771,46.771,0,0,1,16.052,2.582,54.332,54.332,0,0,1,14.948,7.759A41.833,41.833,0,0,1,992.58,436.7a37.485,37.485,0,0,1,4.577,17.712,36.87,36.87,0,0,1-4.484,17.752,42.565,42.565,0,0,1-11.74,13.365A59.111,59.111,0,0,1,949.815,497.2Z" transform="translate(-898.293 -399.824)" fill="#e6ba73"/>
    </g>
    <ellipse id="Ellipse_250" data-name="Ellipse 250" cx="7.815" cy="9.552" rx="7.815" ry="9.552" transform="translate(920.035 475.763)" fill="#e9b469"/>
    <ellipse id="Ellipse_251" data-name="Ellipse 251" cx="7.815" cy="9.552" rx="7.815" ry="9.552" transform="translate(963.453 475.763)" fill="#e9b469"/>
    <path id="Path_1699" data-name="Path 1699" d="M907.793,418.263a30.809,30.809,0,0,1,22.63-8.753,36.1,36.1,0,0,1,23.184,8.753s-18.132-3.9-24.687-2.793-19.071,5.41-19.071,5.41Z" transform="translate(20.043 94.947)" fill="#ecad5e"/>
  </g>
</svg>
