<svg xmlns="http://www.w3.org/2000/svg" width="79.2" height="86.13" viewBox="0 0 79.2 86.13"><defs><style>.a{fill:#707070;}.b{fill:#b0b5c3;}.c{fill:#e6ba73;}.d{fill:#fff;}</style></defs><g transform="translate(-1112.77 -70.838)"><g transform="translate(1112.77 70.838)"><path class="a" d="M1174.491,156.408l-35.977-.191q-8.995-.068-17.989-.08l-2.248,0-1.125,0a5.579,5.579,0,0,1-.674-.032,3.946,3.946,0,0,1-.726-.161,3.833,3.833,0,0,1-2.622-3.3l-.016-.365v-.843l-.026-8.994-.173-35.977-.084-17.988-.042-8.994-.018-4.522a4.186,4.186,0,0,1,4.174-4.118l35.977.1,17.988.069,2.249.008,1.125,0a5.948,5.948,0,0,1,.695.034,4.119,4.119,0,0,1,.759.17,4,4,0,0,1,2.735,3.448l.017.379V75.9l.015,8.994.058,35.977.023,17.989.012,8.994,0,4.52a4.114,4.114,0,0,1-4.108,4.038Zm0-2.436a1.689,1.689,0,0,0,1.684-1.648l.008-4.474.012-8.994.024-17.989.058-35.977.015-8.994v-.843l-.01-.182a1.8,1.8,0,0,0-1.237-1.533,1.956,1.956,0,0,0-.337-.072,3.715,3.715,0,0,0-.427-.013l-1.125,0-2.249.008-17.988.069-35.977.1a1.617,1.617,0,0,0-1.62,1.569l-.024,4.473-.042,8.994-.084,17.988L1115,142.437l-.025,8.994v.843l.01.2a1.966,1.966,0,0,0,1.35,1.683,2.064,2.064,0,0,0,.37.08,3.7,3.7,0,0,0,.448.015l1.125,0,2.248,0q8.994,0,17.989-.079Z" transform="translate(-1112.77 -70.838)"/></g><g transform="translate(1121.712 82.314)"><g transform="translate(10.556 0)"><path class="b" d="M1176.62,93.377c-2.732.172-5.54.326-8.39.471s-5.745.283-8.672.394-5.878.222-8.851.274l-4.459.1-4.469.034-1.262.01-.008-1.28-.03-4.927-.008-1.308,1.308.008,8.71.052,8.71.158c2.9.1,5.807.152,8.71.292q4.355.171,8.71.441l.382.023-.025.334Zm0,0c-.095-1.744-.26-3.376-.358-4.927l.358.358q-4.355.267-8.71.441c-2.9.14-5.807.192-8.71.292l-8.71.158-8.71.052,1.3-1.3-.03,4.927-1.271-1.27,4.242.034,4.25.1c2.834.053,5.691.167,8.569.275s5.792.25,8.749.394Z" transform="translate(-1140.472 -87.142)"/></g><g transform="translate(10.556 13.373)"><path class="b" d="M1176.62,112.377c-2.732.172-5.54.326-8.39.471s-5.745.283-8.672.394-5.878.222-8.851.275l-4.459.1-4.469.035-1.262.01-.008-1.28-.03-4.927-.008-1.308,1.308.008,8.71.052,8.71.158c2.9.1,5.807.152,8.71.292q4.355.171,8.71.441l.382.023-.025.334Zm0,0c-.095-1.744-.26-3.376-.358-4.927l.358.358q-4.355.267-8.71.441c-2.9.14-5.807.192-8.71.292l-8.71.158-8.71.052,1.3-1.3-.03,4.927-1.271-1.27,4.242.034,4.25.1c2.834.053,5.691.167,8.569.275s5.792.25,8.749.394Z" transform="translate(-1140.472 -106.142)"/></g><g transform="translate(10.556 26.746)"><path class="b" d="M1176.62,131.377c-2.732.172-5.54.326-8.39.471s-5.745.283-8.672.394-5.878.222-8.851.274l-4.459.1-4.469.034-1.262.01-.008-1.28-.03-4.927-.008-1.308,1.308.008,8.71.052,8.71.158c2.9.1,5.807.152,8.71.292q4.355.171,8.71.441l.382.023-.025.334Zm0,0c-.095-1.744-.26-3.376-.358-4.927l.358.358q-4.355.267-8.71.441c-2.9.14-5.807.192-8.71.292l-8.71.158-8.71.052,1.3-1.3-.03,4.927-1.271-1.27,4.242.034,4.25.1c2.834.053,5.691.167,8.569.274s5.792.25,8.749.394Z" transform="translate(-1140.472 -125.142)"/></g><g transform="translate(10.556 40.119)"><path class="b" d="M1176.62,150.377c-2.732.172-5.54.326-8.39.471s-5.745.283-8.672.394-5.878.222-8.851.275l-4.459.1-4.469.034-1.262.01-.008-1.28-.03-4.927-.008-1.308,1.308.008,8.71.052,8.71.158c2.9.1,5.807.152,8.71.292q4.355.171,8.71.441l.382.023-.025.334Zm0,0c-.095-1.744-.26-3.376-.358-4.927l.358.358q-4.355.267-8.71.441c-2.9.14-5.807.192-8.71.292l-8.71.158-8.71.052,1.3-1.3-.03,4.927-1.271-1.27,4.242.034,4.25.1c2.834.053,5.691.167,8.569.274s5.792.25,8.749.394Z" transform="translate(-1140.472 -144.142)"/></g><g transform="translate(10.556 53.492)"><path class="b" d="M1176.62,169.377c-2.732.172-5.54.326-8.39.471s-5.745.283-8.672.394-5.878.222-8.851.275l-4.459.1-4.469.034-1.262.01-.008-1.28-.03-4.927-.008-1.308,1.308.008,8.71.052,8.71.158c2.9.1,5.807.152,8.71.292q4.355.171,8.71.441l.382.023-.025.334Zm0,0c-.095-1.744-.26-3.376-.358-4.927l.358.358q-4.355.267-8.71.441c-2.9.14-5.807.192-8.71.292l-8.71.158-8.71.052,1.3-1.3-.03,4.927-1.271-1.27,4.242.034,4.25.1c2.834.053,5.691.167,8.569.274s5.792.25,8.749.394Z" transform="translate(-1140.472 -163.142)"/></g><g transform="translate(0 0.007)"><path class="c" d="M1132.411,93.38c-.36.109-.767.208-1.194.315l-1.366.3a28.029,28.029,0,0,1-3.071.439l-.935.081-.12-1.137c-.087-.821-.141-1.642-.185-2.463s-.056-1.642-.059-2.463l-.006-1.3h1.306a48.7,48.7,0,0,1,5.631.317l1.07.125-.087.859A28.745,28.745,0,0,1,1132.411,93.38Zm0,0c-.363-2.016-.795-3.524-.983-4.927l.983.983a48.7,48.7,0,0,1-5.631.317l1.3-1.3c0,.821-.022,1.642-.059,2.463s-.1,1.642-.186,2.463l-1.056-1.056c.814.092,1.642.247,2.56.439l1.45.3Z" transform="translate(-1125.474 -87.152)"/></g><g transform="translate(0 13.38)"><path class="c" d="M1132.411,112.38c-.36.109-.767.208-1.194.315l-1.366.3a28.031,28.031,0,0,1-3.071.439l-.935.081-.12-1.137c-.087-.821-.141-1.642-.185-2.463s-.056-1.642-.059-2.463l-.006-1.3h1.306a48.7,48.7,0,0,1,5.631.317l1.07.125-.087.859A28.745,28.745,0,0,1,1132.411,112.38Zm0,0c-.363-2.016-.795-3.524-.983-4.927l.983.983a48.7,48.7,0,0,1-5.631.317l1.3-1.3c0,.821-.022,1.642-.059,2.463s-.1,1.642-.186,2.463l-1.056-1.056c.814.091,1.642.247,2.56.439l1.45.3Z" transform="translate(-1125.474 -106.152)"/></g><g transform="translate(0 26.753)"><path class="c" d="M1132.411,131.38c-.36.109-.767.208-1.194.315l-1.366.3a28.029,28.029,0,0,1-3.071.439l-.935.081-.12-1.137c-.087-.821-.141-1.642-.185-2.463s-.056-1.642-.059-2.463l-.006-1.3h1.306a48.7,48.7,0,0,1,5.631.317l1.07.125-.087.859A28.745,28.745,0,0,1,1132.411,131.38Zm0,0c-.363-2.016-.795-3.524-.983-4.927l.983.983a48.707,48.707,0,0,1-5.631.317l1.3-1.3c0,.821-.022,1.642-.059,2.463s-.1,1.642-.186,2.463l-1.056-1.056c.814.091,1.642.247,2.56.439l1.45.3Z" transform="translate(-1125.474 -125.152)"/></g><g transform="translate(0 40.126)"><path class="c" d="M1132.411,150.38c-.36.109-.767.208-1.194.315l-1.366.3a28.03,28.03,0,0,1-3.071.439l-.935.081-.12-1.137c-.087-.821-.141-1.642-.185-2.463s-.056-1.642-.059-2.463l-.006-1.3h1.306a48.714,48.714,0,0,1,5.631.317l1.07.125-.087.858A28.745,28.745,0,0,1,1132.411,150.38Zm0,0c-.363-2.016-.795-3.524-.983-4.927l.983.983a48.7,48.7,0,0,1-5.631.317l1.3-1.3c0,.821-.022,1.642-.059,2.463s-.1,1.642-.186,2.463l-1.056-1.056c.814.092,1.642.247,2.56.439l1.45.3Z" transform="translate(-1125.474 -144.152)"/></g><g transform="translate(0 53.499)"><path class="c" d="M1132.411,169.38c-.36.109-.767.208-1.194.315l-1.366.3a28.033,28.033,0,0,1-3.071.439l-.935.081-.12-1.137c-.087-.821-.141-1.642-.185-2.463s-.056-1.642-.059-2.463l-.006-1.3h1.306a48.7,48.7,0,0,1,5.631.317l1.07.125-.087.858A28.745,28.745,0,0,1,1132.411,169.38Zm0,0c-.363-2.016-.795-3.524-.983-4.927l.983.983a48.7,48.7,0,0,1-5.631.317l1.3-1.3c0,.821-.022,1.642-.059,2.463s-.1,1.642-.186,2.463l-1.056-1.056c.814.091,1.642.247,2.56.439l1.45.3Z" transform="translate(-1125.474 -163.152)"/></g></g><g transform="translate(1153.414 126.538)"><path class="d" d="M1203.527,156.756a15.589,15.589,0,0,0-3-3.225,14.838,14.838,0,0,0-3.929-2.177,15.262,15.262,0,0,0-4.479-.824c-1.692.009-3.4-.1-5.069.054a16.892,16.892,0,0,0-2.464.486l-.6.172-.584.229a10.844,10.844,0,0,0-1.15.491,15.141,15.141,0,0,0-6.866,6.854,16.406,16.406,0,0,0-1.445,4.586l-.142,1.189-.026,1.2c-.016.8.027,1.682.037,2.519l.189,8.89,5.572-.12a6.881,6.881,0,0,1-.706-1.848,3.6,3.6,0,0,1,.02-1.627c.135-.543.294-1.085.379-1.628l.27-1.627.329-1.628c.244-1.085.483-2.17.8-3.255h.4c.316,1.085.554,2.171.8,3.255l.329,1.628.269,1.627c.085.543.244,1.085.379,1.628a3.609,3.609,0,0,1,.02,1.627,6.959,6.959,0,0,1-.674,1.792l8.181-.175,7.985-.209a7.443,7.443,0,0,1-.478-1.408,3.6,3.6,0,0,1,.02-1.627c.135-.543.294-1.085.379-1.628l.27-1.627.329-1.628c.244-1.085.483-2.17.8-3.255h.4c.316,1.085.554,2.171.8,3.255l.329,1.628.27,1.627c.085.543.244,1.085.379,1.628a3.613,3.613,0,0,1,.02,1.627,7.515,7.515,0,0,1-.443,1.332c1.492-.039,2.985-.083,4.477-.108q0-3.632.084-7.265l.086-2.324c.043-.817.007-1.43.039-2.141a18.132,18.132,0,0,0-.714-4.107A17.067,17.067,0,0,0,1203.527,156.756Z" transform="translate(-1171.479 -150.132)"/><path class="a" d="M1208.975,169.032c-.077-1.558-.052-3.038-.289-4.826a17.373,17.373,0,0,0-1.572-4.872,17.988,17.988,0,0,0-2.93-4.072,17.709,17.709,0,0,0-8.336-4.752,20.13,20.13,0,0,0-4.687-.535c-1.7.021-3.383,0-5.1.1a18.544,18.544,0,0,0-4.987,1.235,16.276,16.276,0,0,0-9.881,11.6l-.241,1.326c-.048.446-.076.9-.113,1.344-.065.9-.049,1.71-.077,2.569l-.215,10.177-.026,1.234,1.287.027,17.6.378,8.8.23c2.933.087,5.866.18,8.8.2l2.043.011.023-2.076C1209.093,175.23,1209.053,172.131,1208.975,169.032Zm-3.875-2.324-.087,2.324q-.092,3.633-.085,7.265c-1.492.025-2.985.068-4.477.108a7.506,7.506,0,0,0,.443-1.332,3.611,3.611,0,0,0-.02-1.627c-.135-.543-.293-1.085-.379-1.628l-.27-1.627-.329-1.628c-.244-1.085-.482-2.17-.8-3.255h-.4c-.315,1.085-.554,2.171-.8,3.255l-.329,1.628-.27,1.627c-.084.543-.243,1.085-.379,1.628a3.6,3.6,0,0,0-.02,1.627,7.427,7.427,0,0,0,.478,1.408l-7.985.209-8.181.175a6.973,6.973,0,0,0,.674-1.792,3.609,3.609,0,0,0-.021-1.627c-.134-.543-.293-1.085-.379-1.628l-.27-1.627-.329-1.628c-.244-1.085-.482-2.17-.8-3.255h-.4c-.315,1.085-.554,2.171-.8,3.255l-.329,1.628-.27,1.627c-.084.543-.244,1.085-.379,1.628a3.6,3.6,0,0,0-.02,1.627,6.89,6.89,0,0,0,.706,1.848l-5.572.12-.189-8.89c-.01-.837-.053-1.722-.036-2.519l.026-1.2.142-1.189a16.406,16.406,0,0,1,1.445-4.586,15.141,15.141,0,0,1,6.866-6.854,10.843,10.843,0,0,1,1.15-.491l.584-.229.6-.172a16.881,16.881,0,0,1,2.463-.486c1.665-.149,3.377-.045,5.069-.054a15.262,15.262,0,0,1,4.479.824,14.844,14.844,0,0,1,3.929,2.177,15.593,15.593,0,0,1,3,3.225,17.056,17.056,0,0,1,1.861,3.86,18.138,18.138,0,0,1,.714,4.107C1205.107,165.278,1205.143,165.89,1205.1,166.708Z" transform="translate(-1170.515 -149.975)"/></g><g transform="translate(1160.84 101.516)"><path class="d" d="M1200.259,139.817a14.517,14.517,0,0,0,2.278-8.347,13.653,13.653,0,0,0-2.832-8.012,9.92,9.92,0,0,0-2.953-2.546,6.3,6.3,0,0,0-3.238-.82c-2.124.1-4.144,1.582-5.569,3.742a14.972,14.972,0,0,0-2.337,7.636,15.705,15.705,0,0,0,1.782,7.972c1.286,2.378,3.511,4.289,6.124,4.4a6.744,6.744,0,0,0,3.759-1.073A10.118,10.118,0,0,0,1200.259,139.817Z" transform="translate(-1182.409 -116.102)"/><path class="a" d="M1200.463,120.511a11.406,11.406,0,0,0-3.086-4.094,8.69,8.69,0,0,0-5.207-1.993,13.571,13.571,0,0,0-1.455.1,8.767,8.767,0,0,0-1.415.334,7,7,0,0,0-1.323.553c-.209.111-.427.212-.626.336l-.581.389a12.06,12.06,0,0,0-3.515,3.994,19.151,19.151,0,0,0-2.183,9.656,18.572,18.572,0,0,0,2.739,9.322,12.087,12.087,0,0,0,3.477,3.59,8.577,8.577,0,0,0,4.883,1.46,8.2,8.2,0,0,0,4.687-1.74,11.457,11.457,0,0,0,3.051-3.685,20.393,20.393,0,0,0,2.242-8.947A21.47,21.47,0,0,0,1200.463,120.511Zm-8.293,21.657c-2.613-.115-4.838-2.026-6.124-4.4a15.7,15.7,0,0,1-1.782-7.972,14.971,14.971,0,0,1,2.337-7.636c1.425-2.16,3.445-3.645,5.569-3.742a6.3,6.3,0,0,1,3.238.82,9.919,9.919,0,0,1,2.953,2.546,13.652,13.652,0,0,1,2.832,8.012,14.517,14.517,0,0,1-2.278,8.347,10.116,10.116,0,0,1-2.987,2.956A6.742,6.742,0,0,1,1192.171,142.168Z" transform="translate(-1181.067 -114.424)"/></g><path class="a" d="M1205.024,118.317l-.032-.6-.094-.7-.117-.705-.227-.731a6.857,6.857,0,0,0-.666-1.456,6.134,6.134,0,0,0-2.576-2.245,7.257,7.257,0,0,0-3.079-.579,8.49,8.49,0,0,0-1.43.14c-.06.01-.118.026-.177.037a10.019,10.019,0,0,0-2.5-1.836,8.414,8.414,0,0,0-4.508-.864,16.508,16.508,0,0,0-7.509,3.061c-.271.175-.526.36-.79.541l-.2.137-.229.191-.451.389a5.433,5.433,0,0,0-.764.859,5.85,5.85,0,0,0-.6.923,13.25,13.25,0,0,0-1.327,3.86,28.729,28.729,0,0,0-.292,7.68l.072.819.76.046a15.825,15.825,0,0,0,4.507-.463,29.709,29.709,0,0,0,4.172-1.334c1.351-.526,2.665-1.126,3.949-1.777s2.563-1.361,3.738-2.1a3.652,3.652,0,0,1,1.956.779,12.928,12.928,0,0,1,1.7,1.459q.806.8,1.54,1.677c.487.575.989,1.182,1.407,1.762l1.117,1.549,1.133-1.7a4.834,4.834,0,0,0,.264-.434c.058-.112.122-.229.169-.336.106-.221.191-.432.272-.647a11.812,11.812,0,0,0,.367-1.265,19.4,19.4,0,0,0,.4-2.486c.067-.819.1-1.638.085-2.445C1205.064,119.12,1205.049,118.717,1205.024,118.317Z" transform="translate(-19.12 -11.226)"/></g></svg>