<svg id="svg" version="1.1" xmlns="http://www.w3.org/2000/svg" xmlns:xlink="http://www.w3.org/1999/xlink" width="400" height="400" viewBox="0, 0, 400,400"><g id="svgg"><path id="path0" d="M60.000 57.590 C 60.000 57.802,59.728 57.870,59.395 57.743 C 58.557 57.421,57.504 58.391,57.735 59.272 C 57.839 59.672,57.746 60.000,57.528 60.000 C 57.307 60.000,57.191 60.752,57.266 61.700 L 57.400 63.400 54.000 63.600 L 50.600 63.800 50.505 145.500 C 50.449 193.370,50.557 227.200,50.767 227.200 C 50.964 227.200,51.039 227.528,50.935 227.928 C 50.704 228.809,51.757 229.779,52.595 229.457 C 52.928 229.330,53.200 229.396,53.200 229.606 C 53.200 229.845,77.488 229.990,118.573 229.996 L 183.946 230.007 184.453 228.603 C 184.732 227.831,185.083 227.200,185.232 227.200 C 186.806 227.200,188.000 211.193,186.587 209.037 C 184.718 206.184,189.140 206.403,132.953 206.372 C 73.942 206.338,77.203 206.482,74.688 203.796 C 71.358 200.240,71.600 204.910,71.600 144.255 C 71.600 90.681,71.606 90.239,72.418 88.563 C 73.171 87.008,75.044 85.600,76.360 85.600 C 76.602 85.600,76.800 85.420,76.800 85.200 C 76.800 84.935,104.867 84.800,160.200 84.800 C 210.734 84.800,243.600 84.945,243.600 85.168 C 243.600 85.371,244.127 85.652,244.771 85.794 C 246.435 86.159,247.910 87.802,248.570 90.024 C 249.740 93.964,249.028 93.691,257.733 93.536 L 265.400 93.400 267.705 92.068 L 270.011 90.735 269.905 77.268 L 269.800 63.800 266.400 63.600 L 263.000 63.400 263.134 61.700 C 263.214 60.690,263.098 60.000,262.847 60.000 C 262.615 60.000,262.530 59.728,262.657 59.395 C 262.979 58.557,262.009 57.504,261.128 57.735 C 260.728 57.839,260.400 57.763,260.400 57.565 C 260.400 57.352,219.348 57.205,160.200 57.205 C 96.256 57.205,60.000 57.344,60.000 57.590 M333.273 90.948 C 333.677 91.386,333.935 91.412,334.377 91.060 C 334.822 90.705,334.885 90.714,334.653 91.100 C 334.464 91.415,334.584 91.600,334.976 91.600 C 335.319 91.600,335.600 91.802,335.600 92.049 C 335.600 92.365,335.773 92.355,336.183 92.014 C 337.042 91.301,336.214 90.622,334.321 90.488 C 332.975 90.393,332.823 90.459,333.273 90.948 M336.089 92.500 C 335.803 92.850,335.849 93.155,336.240 93.516 C 336.708 93.947,336.800 93.865,336.800 93.016 C 336.800 91.872,336.676 91.782,336.089 92.500 M337.732 97.465 C 337.963 97.697,339.631 98.015,341.078 98.104 C 341.341 98.120,341.521 98.328,341.478 98.567 C 341.435 98.805,341.595 98.965,341.833 98.922 C 342.072 98.879,342.280 99.059,342.296 99.322 C 342.521 102.990,343.229 103.733,343.100 100.167 L 343.000 97.400 340.233 97.300 C 338.712 97.245,337.586 97.319,337.732 97.465 M343.200 110.997 C 343.200 111.727,343.380 111.744,344.387 111.115 C 344.814 110.848,345.302 110.768,345.470 110.937 C 345.639 111.106,345.512 111.411,345.188 111.616 C 344.320 112.165,345.436 112.116,346.476 111.559 C 347.689 110.910,349.490 112.711,348.841 113.924 C 348.284 114.964,348.235 116.080,348.784 115.212 C 348.989 114.888,349.294 114.761,349.463 114.930 C 349.632 115.098,349.554 115.582,349.290 116.005 C 348.941 116.563,348.924 117.074,349.227 117.871 C 349.457 118.475,349.550 119.344,349.435 119.803 C 349.320 120.262,349.391 121.169,349.593 121.819 C 349.852 122.651,349.944 121.436,349.904 117.700 C 349.873 114.785,349.694 112.400,349.507 112.400 C 349.319 112.400,349.218 112.085,349.282 111.700 C 349.363 111.223,349.177 111.037,348.700 111.118 C 348.315 111.182,348.000 111.092,348.000 110.918 C 348.000 110.743,346.920 110.554,345.600 110.497 C 343.682 110.415,343.200 110.515,343.200 110.997 M346.667 111.867 C 346.260 112.273,346.349 112.800,346.824 112.800 C 347.057 112.800,347.136 112.620,347.000 112.400 C 346.654 111.840,347.340 111.900,347.920 112.480 C 348.500 113.060,348.560 113.746,348.000 113.400 C 347.780 113.264,347.600 113.343,347.600 113.576 C 347.600 114.125,348.276 114.124,348.616 113.575 C 349.090 112.807,347.297 111.236,346.667 111.867 M349.203 207.429 C 349.207 253.755,349.091 291.853,348.944 292.091 C 348.785 292.349,348.863 292.408,349.138 292.238 C 349.746 291.862,349.733 292.507,349.120 293.120 C 348.747 293.493,348.791 293.600,349.320 293.600 C 349.958 293.600,350.000 288.322,350.000 208.400 C 350.000 151.481,349.866 123.200,349.597 123.200 C 349.328 123.200,349.197 151.157,349.203 207.429 M144.114 230.994 C 143.746 231.405,143.648 235.378,143.714 247.269 L 143.800 263.000 160.200 263.000 L 176.600 263.000 176.686 247.269 C 176.752 235.378,176.654 231.405,176.286 230.994 C 175.568 230.191,144.832 230.191,144.114 230.994 M90.861 264.127 C 90.361 264.728,90.197 296.645,90.692 296.864 C 90.861 296.939,91.270 297.794,91.600 298.764 C 92.985 302.834,91.893 302.751,144.300 302.779 L 183.600 302.800 183.647 300.300 C 183.673 298.925,183.671 297.599,183.642 297.353 C 183.613 297.108,183.862 296.681,184.195 296.404 C 184.528 296.128,184.800 295.673,184.800 295.394 C 184.800 295.114,185.062 294.785,185.383 294.662 C 187.883 293.702,187.639 269.520,185.119 268.467 C 184.944 268.393,184.800 268.039,184.800 267.680 C 184.800 267.321,184.505 266.254,184.144 265.310 L 183.489 263.594 137.388 263.603 C 100.342 263.611,91.203 263.714,90.861 264.127 M349.221 295.055 C 349.442 295.636,349.572 296.149,349.511 296.196 C 349.450 296.244,349.040 296.483,348.600 296.729 L 347.800 297.176 348.600 297.200 C 349.324 297.222,349.335 297.262,348.717 297.623 C 348.300 297.866,348.131 298.276,348.285 298.676 C 348.468 299.153,348.381 299.251,347.968 299.036 C 347.656 298.874,347.749 299.024,348.176 299.370 C 348.927 299.979,348.916 300.000,347.853 300.000 C 347.079 300.000,346.842 299.852,347.053 299.500 C 347.257 299.160,347.137 299.176,346.677 299.549 C 345.944 300.143,345.749 300.602,346.400 300.200 C 346.630 300.058,346.800 300.421,346.800 301.053 C 346.800 302.116,346.779 302.127,346.170 301.376 C 345.824 300.949,345.672 300.853,345.833 301.163 C 346.055 301.592,345.913 301.671,345.238 301.494 C 344.639 301.337,344.271 301.470,344.106 301.902 C 343.894 302.452,343.818 302.434,343.558 301.771 C 343.295 301.099,343.253 301.128,343.231 302.000 C 343.208 302.927,343.352 303.005,345.203 303.072 C 346.313 303.112,347.200 302.967,347.200 302.745 C 347.200 302.526,347.535 302.452,347.944 302.582 C 348.850 302.870,349.707 301.945,349.364 301.051 C 349.227 300.693,349.275 300.400,349.471 300.400 C 349.668 300.400,349.859 298.960,349.897 297.200 C 349.951 294.659,349.847 294.000,349.392 294.000 C 348.939 294.000,348.903 294.220,349.221 295.055 M95.214 300.881 C 95.976 301.255,96.447 301.570,96.260 301.581 C 95.372 301.631,93.294 300.266,92.682 299.232 C 91.683 297.540,91.850 297.258,92.914 298.841 C 93.417 299.588,94.452 300.506,95.214 300.881 M101.700 301.893 C 100.765 301.977,99.235 301.977,98.300 301.893 C 97.365 301.809,98.130 301.740,100.000 301.740 C 101.870 301.740,102.635 301.809,101.700 301.893 M183.713 309.657 C 183.756 312.067,183.961 313.588,184.290 313.929 C 184.570 314.219,184.800 314.714,184.800 315.029 C 184.800 315.343,185.057 315.600,185.371 315.600 C 185.686 315.600,186.227 315.884,186.574 316.231 C 186.999 316.656,187.572 316.782,188.327 316.616 C 190.190 316.207,191.525 317.155,191.128 318.605 C 190.403 321.257,192.420 323.109,195.300 322.435 C 196.567 322.139,196.801 322.187,196.806 322.742 C 196.811 323.264,196.883 323.288,197.156 322.857 C 197.396 322.479,197.583 322.449,197.774 322.757 C 198.208 323.461,198.756 323.271,198.693 322.439 C 198.655 321.936,198.392 321.724,197.918 321.816 C 197.428 321.910,197.200 321.709,197.200 321.185 C 197.200 320.675,196.828 320.327,196.100 320.154 C 194.700 319.821,193.733 318.983,193.450 317.857 C 193.310 317.297,192.751 316.832,191.927 316.587 C 191.050 316.326,190.536 315.873,190.352 315.200 L 190.080 314.200 190.015 315.200 C 189.950 316.194,189.947 316.195,189.590 315.307 C 189.339 314.683,189.025 314.492,188.550 314.675 C 188.089 314.852,187.962 314.785,188.158 314.468 C 188.317 314.211,188.341 314.000,188.211 314.000 C 188.081 314.000,187.811 314.405,187.612 314.900 C 187.286 315.712,187.248 315.671,187.225 314.476 C 187.207 313.520,187.339 313.236,187.700 313.453 C 188.040 313.657,188.024 313.537,187.651 313.077 C 187.057 312.344,186.598 312.149,187.000 312.800 C 187.147 313.037,186.709 313.190,185.924 313.175 C 184.729 313.152,184.688 313.114,185.500 312.788 C 185.995 312.589,186.400 312.319,186.400 312.189 C 186.400 312.059,186.189 312.083,185.932 312.242 C 185.615 312.438,185.548 312.311,185.725 311.850 C 185.908 311.375,185.717 311.061,185.093 310.810 L 184.200 310.451 185.124 310.425 C 185.673 310.410,185.940 310.227,185.783 309.973 C 185.638 309.738,185.297 309.631,185.026 309.735 C 184.755 309.839,184.520 309.716,184.504 309.462 C 184.234 305.220,183.637 305.367,183.713 309.657 M342.571 312.000 C 342.571 312.440,342.713 312.800,342.886 312.800 C 343.059 312.800,343.200 312.440,343.200 312.000 C 343.200 311.560,343.059 311.200,342.886 311.200 C 342.713 311.200,342.571 311.560,342.571 312.000 M342.447 313.500 C 342.574 314.303,342.352 314.790,341.900 314.700 C 341.625 314.645,341.425 314.915,341.456 315.300 C 341.506 315.933,341.128 316.178,340.300 316.047 C 340.135 316.021,340.000 316.161,340.000 316.358 C 340.000 316.554,340.450 316.689,341.000 316.658 C 341.550 316.626,342.000 316.375,342.000 316.100 C 342.000 315.825,342.240 315.600,342.533 315.600 C 342.859 315.600,343.067 315.133,343.067 314.400 C 343.067 313.740,342.917 313.200,342.733 313.200 C 342.550 313.200,342.421 313.335,342.447 313.500 M184.025 314.851 C 183.993 315.674,185.010 316.541,185.687 316.269 C 186.004 316.142,185.928 316.051,185.487 316.032 C 185.095 316.014,184.611 315.595,184.412 315.100 C 184.168 314.491,184.043 314.410,184.025 314.851 M336.200 316.400 C 336.064 316.620,335.558 316.818,335.076 316.840 C 334.270 316.877,334.280 316.902,335.200 317.162 C 336.199 317.445,336.199 317.445,335.298 317.686 C 334.638 317.862,334.469 318.114,334.666 318.629 C 334.850 319.108,334.788 319.240,334.468 319.042 C 334.211 318.883,334.000 318.859,334.000 318.989 C 334.000 319.119,334.405 319.389,334.900 319.588 C 335.712 319.914,335.671 319.952,334.476 319.975 C 333.520 319.993,333.236 319.861,333.453 319.500 C 333.657 319.160,333.537 319.176,333.077 319.549 C 332.344 320.143,332.149 320.602,332.800 320.200 C 333.030 320.058,333.200 320.421,333.200 321.053 C 333.200 322.116,333.179 322.127,332.570 321.376 C 332.224 320.949,332.074 320.856,332.236 321.168 C 332.451 321.581,332.353 321.668,331.876 321.485 C 331.476 321.331,331.066 321.500,330.823 321.917 C 330.463 322.534,330.423 322.523,330.406 321.800 C 330.395 321.321,330.270 321.177,330.094 321.442 C 329.932 321.685,329.260 322.167,328.600 322.512 C 327.420 323.130,327.453 323.140,330.500 323.087 C 332.205 323.057,333.600 322.903,333.600 322.743 C 333.600 322.584,334.005 322.328,334.500 322.173 C 334.995 322.019,335.532 321.691,335.694 321.446 C 335.898 321.136,335.990 321.156,335.994 321.513 C 335.997 321.795,335.595 322.189,335.100 322.388 C 334.491 322.632,334.410 322.757,334.851 322.775 C 335.736 322.809,336.469 321.846,336.164 321.051 C 336.019 320.673,336.115 320.400,336.392 320.400 C 336.726 320.400,336.791 319.930,336.607 318.841 C 336.445 317.884,336.509 317.180,336.772 317.017 C 337.007 316.872,337.200 316.583,337.200 316.376 C 337.200 315.878,336.513 315.894,336.200 316.400 M338.000 316.486 C 338.000 316.659,338.360 316.800,338.800 316.800 C 339.240 316.800,339.600 316.659,339.600 316.486 C 339.600 316.313,339.240 316.171,338.800 316.171 C 338.360 316.171,338.000 316.313,338.000 316.486 M192.600 317.600 C 192.464 317.820,192.573 318.000,192.843 318.000 C 193.113 318.000,193.235 318.098,193.115 318.218 C 192.781 318.553,195.217 320.837,195.634 320.579 C 195.835 320.455,196.000 320.554,196.000 320.800 C 196.000 321.046,196.180 321.136,196.400 321.000 C 196.620 320.864,196.800 320.943,196.800 321.176 C 196.800 321.726,196.644 321.713,194.996 321.024 C 193.285 320.309,191.193 317.200,192.424 317.200 C 192.657 317.200,192.736 317.380,192.600 317.600 M191.740 319.509 C 191.482 320.494,193.337 322.186,194.280 321.827 C 194.824 321.620,194.888 321.666,194.540 322.016 C 193.518 323.046,190.798 320.823,191.343 319.403 C 191.665 318.565,191.966 318.645,191.740 319.509 M199.200 322.800 C 199.200 323.020,199.470 323.200,199.800 323.200 C 200.130 323.200,200.400 323.020,200.400 322.800 C 200.400 322.580,200.130 322.400,199.800 322.400 C 199.470 322.400,199.200 322.580,199.200 322.800 M203.700 323.076 C 204.085 323.176,204.715 323.176,205.100 323.076 C 205.485 322.975,205.170 322.893,204.400 322.893 C 203.630 322.893,203.315 322.975,203.700 323.076 M238.300 323.100 C 253.975 323.158,279.625 323.158,295.300 323.100 C 310.975 323.042,298.150 322.995,266.800 322.995 C 235.450 322.995,222.625 323.042,238.300 323.100 " stroke="none" fill="#949494" fill-rule="evenodd"></path><path id="path1" d="M76.604 90.100 C 75.345 93.784,75.012 195.881,76.252 197.980 C 77.188 199.565,78.308 199.596,134.523 199.598 L 183.247 199.600 184.811 198.343 L 186.376 197.085 186.493 154.443 C 186.626 105.881,186.279 110.412,190.335 104.200 C 192.958 100.182,193.579 99.535,196.068 98.217 C 197.266 97.582,198.046 96.792,198.600 95.652 C 200.609 91.516,202.402 91.227,226.126 91.211 C 241.923 91.200,244.434 91.025,243.788 89.980 C 243.401 89.354,76.818 89.474,76.604 90.100 M147.571 101.021 C 151.204 101.847,151.896 102.623,152.390 106.428 C 153.040 111.441,152.912 143.234,152.235 144.851 C 150.461 149.086,149.526 149.200,116.570 149.200 L 90.028 149.200 88.563 147.914 C 85.632 145.340,85.600 145.118,85.600 127.135 C 85.600 105.875,85.947 102.946,88.678 101.145 C 90.260 100.102,143.041 99.990,147.571 101.021 M216.000 121.518 C 215.450 121.890,214.781 122.465,214.513 122.797 C 214.134 123.266,214.023 139.000,214.013 193.460 L 214.000 263.520 215.440 264.960 L 216.880 266.400 266.940 266.387 C 305.677 266.377,317.137 266.264,317.606 265.887 C 319.743 264.167,319.600 269.389,319.600 193.245 L 319.600 123.262 318.369 122.031 L 317.138 120.800 267.069 120.821 C 220.748 120.840,216.925 120.893,216.000 121.518 M285.050 133.567 C 288.081 134.943,288.000 134.292,288.000 157.231 L 288.000 177.539 286.952 178.784 C 284.863 181.266,285.695 181.200,256.582 181.200 L 230.061 181.200 228.816 180.152 C 226.329 178.060,226.400 178.736,226.400 157.018 C 226.400 135.043,226.367 135.333,229.082 133.543 C 230.827 132.392,282.512 132.414,285.050 133.567 M92.000 297.779 C 92.000 299.087,94.882 301.659,96.260 301.581 C 96.447 301.570,95.976 301.255,95.214 300.881 C 94.452 300.506,93.417 299.588,92.914 298.841 C 92.411 298.093,92.000 297.616,92.000 297.779 M349.016 301.149 C 348.875 301.595,348.395 302.075,347.949 302.216 C 347.504 302.357,347.218 302.551,347.313 302.646 C 347.408 302.741,347.786 302.703,348.154 302.562 C 348.868 302.288,349.794 300.861,349.469 300.536 C 349.361 300.428,349.157 300.704,349.016 301.149 M98.300 301.893 C 99.235 301.977,100.765 301.977,101.700 301.893 C 102.635 301.809,101.870 301.740,100.000 301.740 C 98.130 301.740,97.365 301.809,98.300 301.893 M184.260 314.400 C 184.547 315.647,184.753 315.853,186.000 316.140 C 186.997 316.369,186.997 316.369,185.957 315.928 C 185.384 315.685,184.715 315.016,184.472 314.443 C 184.031 313.403,184.031 313.403,184.260 314.400 M191.225 319.718 C 191.192 320.650,192.956 322.409,193.882 322.368 C 194.440 322.344,194.466 322.288,194.000 322.116 C 193.081 321.778,191.942 320.689,191.578 319.800 C 191.290 319.096,191.248 319.086,191.225 319.718 M335.822 321.130 C 335.684 321.565,335.107 322.037,334.538 322.180 C 333.970 322.322,333.592 322.525,333.697 322.631 C 334.062 322.995,335.892 322.059,336.155 321.373 C 336.300 320.995,336.341 320.608,336.246 320.513 C 336.151 320.418,335.960 320.695,335.822 321.130 " stroke="none" fill="#f2f1f0" fill-rule="evenodd"></path><path id="path2" d="M88.935 102.286 C 87.047 103.949,86.800 106.752,86.800 126.555 C 86.800 144.984,86.764 144.666,89.120 146.924 L 90.271 148.026 117.836 147.908 L 145.400 147.789 147.887 146.862 C 151.782 145.411,151.605 146.399,151.570 126.239 C 151.549 114.861,151.375 107.981,151.057 106.003 L 150.575 103.005 147.988 102.218 C 145.540 101.473,143.902 101.423,117.800 101.301 L 90.200 101.171 88.935 102.286 M229.454 134.190 C 227.611 135.587,227.600 135.719,227.600 157.215 L 227.600 177.539 228.636 178.769 L 229.671 180.000 256.574 180.000 C 279.872 180.000,283.641 179.918,284.699 179.391 C 287.286 178.100,287.201 178.863,287.187 156.914 L 287.175 137.000 286.285 135.991 C 284.030 133.434,286.069 133.599,256.811 133.613 C 234.524 133.623,230.079 133.717,229.454 134.190 " stroke="none" fill="#e4bc75" fill-rule="evenodd"></path><path id="path3" d="M76.800 85.200 C 76.800 85.420,76.602 85.600,76.360 85.600 C 75.044 85.600,73.171 87.008,72.418 88.563 C 71.606 90.239,71.600 90.681,71.600 144.255 C 71.600 204.910,71.358 200.240,74.688 203.796 C 77.203 206.482,73.942 206.338,132.953 206.372 C 189.140 206.403,184.718 206.184,186.587 209.037 C 188.020 211.224,186.941 225.784,185.240 227.200 C 183.488 228.660,182.592 261.613,184.200 265.462 C 184.530 266.251,184.800 267.221,184.800 267.616 C 184.800 268.010,184.944 268.393,185.119 268.467 C 187.639 269.520,187.883 293.702,185.383 294.662 C 185.062 294.785,184.800 295.114,184.800 295.394 C 184.800 295.673,184.535 296.122,184.210 296.391 C 183.723 296.796,183.501 306.200,183.979 306.200 C 184.057 306.200,184.453 308.660,184.504 309.462 C 184.520 309.716,184.755 309.839,185.026 309.735 C 185.297 309.631,185.638 309.738,185.783 309.973 C 185.940 310.227,185.673 310.410,185.124 310.425 L 184.200 310.451 185.093 310.810 C 185.717 311.061,185.908 311.375,185.725 311.850 C 185.548 312.311,185.615 312.438,185.932 312.242 C 186.189 312.083,186.400 312.059,186.400 312.189 C 186.400 312.319,185.995 312.589,185.500 312.788 C 184.688 313.114,184.729 313.152,185.924 313.175 C 186.709 313.190,187.147 313.037,187.000 312.800 C 186.598 312.149,187.057 312.344,187.651 313.077 C 188.024 313.537,188.040 313.657,187.700 313.453 C 187.339 313.236,187.207 313.520,187.225 314.476 C 187.248 315.671,187.286 315.712,187.612 314.900 C 187.811 314.405,188.081 314.000,188.211 314.000 C 188.341 314.000,188.317 314.211,188.158 314.468 C 187.962 314.785,188.089 314.852,188.550 314.675 C 189.025 314.492,189.339 314.683,189.590 315.307 C 189.947 316.195,189.950 316.194,190.015 315.200 L 190.080 314.200 190.352 315.200 C 190.536 315.873,191.050 316.326,191.927 316.587 C 192.751 316.832,193.310 317.297,193.450 317.857 C 193.733 318.983,194.700 319.821,196.100 320.154 C 196.828 320.327,197.200 320.675,197.200 321.185 C 197.200 321.736,197.424 321.911,197.992 321.802 C 198.452 321.713,198.745 321.848,198.692 322.125 C 198.638 322.406,198.968 322.549,199.500 322.475 C 199.995 322.406,200.400 322.496,200.400 322.675 C 200.400 323.140,324.534 323.091,324.870 322.626 C 325.031 322.401,325.363 322.437,325.699 322.716 C 326.125 323.070,326.372 323.068,326.730 322.710 C 327.090 322.350,327.200 322.354,327.200 322.730 C 327.200 323.282,329.577 322.226,330.094 321.444 C 330.270 321.177,330.395 321.319,330.406 321.800 C 330.423 322.523,330.463 322.534,330.823 321.917 C 331.066 321.500,331.476 321.331,331.876 321.485 C 332.353 321.668,332.451 321.581,332.236 321.168 C 332.074 320.856,332.224 320.949,332.570 321.376 C 333.179 322.127,333.200 322.116,333.200 321.053 C 333.200 320.279,333.052 320.042,332.700 320.253 C 332.360 320.457,332.376 320.337,332.749 319.877 C 333.343 319.144,333.802 318.949,333.400 319.600 C 333.253 319.837,333.691 319.990,334.476 319.975 C 335.671 319.952,335.712 319.914,334.900 319.588 C 334.405 319.389,334.000 319.119,334.000 318.989 C 334.000 318.859,334.211 318.883,334.468 319.042 C 334.785 319.238,334.852 319.111,334.675 318.650 C 334.492 318.175,334.683 317.861,335.307 317.610 C 336.195 317.253,336.195 317.250,335.200 317.179 C 334.358 317.119,334.327 317.076,335.000 316.911 C 335.440 316.802,336.039 316.520,336.330 316.283 C 336.720 315.966,336.959 316.004,337.230 316.426 C 337.468 316.795,337.707 316.855,337.900 316.592 C 338.065 316.367,338.784 316.199,339.497 316.217 C 340.946 316.255,341.400 316.036,341.400 315.300 C 341.400 315.025,341.560 314.815,341.755 314.834 C 342.329 314.889,342.654 314.086,342.617 312.697 C 342.599 311.984,342.767 311.251,342.992 311.070 C 343.262 310.851,343.230 310.670,342.898 310.535 C 342.621 310.423,342.521 310.128,342.674 309.880 C 342.966 309.409,343.083 307.978,343.192 303.600 C 343.233 301.957,343.367 301.284,343.558 301.771 C 343.818 302.434,343.894 302.452,344.106 301.902 C 344.271 301.470,344.639 301.337,345.238 301.494 C 345.913 301.671,346.055 301.592,345.833 301.163 C 345.672 300.853,345.824 300.949,346.170 301.376 C 346.779 302.127,346.800 302.116,346.800 301.053 C 346.800 300.279,346.652 300.042,346.300 300.253 C 345.960 300.457,345.976 300.337,346.349 299.877 C 346.943 299.144,347.402 298.949,347.000 299.600 C 346.858 299.830,347.221 300.000,347.853 300.000 C 348.916 300.000,348.927 299.979,348.176 299.370 C 347.749 299.024,347.656 298.874,347.968 299.036 C 348.381 299.251,348.468 299.153,348.285 298.676 C 348.131 298.276,348.300 297.866,348.717 297.623 C 349.335 297.262,349.324 297.222,348.600 297.200 L 347.800 297.176 348.600 296.729 C 349.040 296.483,349.450 296.244,349.511 296.196 C 349.572 296.149,349.442 295.636,349.221 295.055 C 348.923 294.271,348.946 293.998,349.310 293.994 C 349.657 293.990,349.642 293.888,349.257 293.644 C 348.879 293.404,348.849 293.217,349.157 293.026 C 349.401 292.876,349.600 292.573,349.600 292.353 C 349.600 292.133,349.392 292.081,349.138 292.238 C 348.863 292.408,348.785 292.349,348.944 292.091 C 349.091 291.853,349.207 253.755,349.203 207.429 C 349.198 155.311,349.337 123.200,349.569 123.200 C 349.800 123.200,349.804 122.713,349.581 121.934 C 349.381 121.238,349.314 120.286,349.431 119.818 C 349.548 119.351,349.457 118.475,349.227 117.871 C 348.924 117.074,348.941 116.563,349.290 116.005 C 349.554 115.582,349.632 115.098,349.463 114.930 C 349.294 114.761,348.989 114.888,348.784 115.212 C 348.235 116.080,348.284 114.964,348.841 113.924 C 349.490 112.711,347.689 110.910,346.476 111.559 C 345.436 112.116,344.320 112.165,345.188 111.616 C 345.512 111.411,345.639 111.106,345.470 110.937 C 345.302 110.768,344.794 110.861,344.343 111.143 C 343.231 111.837,343.258 111.929,343.178 107.191 C 343.138 104.886,343.004 102.828,342.879 102.618 C 342.674 102.274,342.373 100.569,342.296 99.322 C 342.280 99.059,342.072 98.879,341.833 98.922 C 341.595 98.965,341.435 98.805,341.478 98.567 C 341.521 98.328,341.341 98.120,341.078 98.104 C 339.693 98.019,338.108 97.714,337.682 97.451 C 337.417 97.287,337.197 97.298,337.194 97.476 C 337.191 97.654,337.017 97.530,336.809 97.201 C 336.601 96.871,336.505 96.020,336.596 95.310 C 336.694 94.540,336.537 93.794,336.206 93.463 C 335.777 93.034,335.758 92.793,336.126 92.396 C 336.494 91.998,336.488 91.946,336.100 92.165 C 335.825 92.320,335.600 92.257,335.600 92.024 C 335.600 91.791,335.319 91.600,334.976 91.600 C 334.594 91.600,334.462 91.407,334.635 91.100 C 334.854 90.712,334.802 90.706,334.404 91.074 C 334.008 91.441,333.771 91.428,333.359 91.016 C 332.926 90.583,327.012 90.472,301.673 90.423 L 270.520 90.363 267.972 91.881 L 265.423 93.400 257.745 93.536 C 249.026 93.691,249.740 93.964,248.570 90.024 C 247.910 87.802,246.435 86.159,244.771 85.794 C 244.127 85.652,243.600 85.371,243.600 85.168 C 243.600 84.945,210.734 84.800,160.200 84.800 C 104.867 84.800,76.800 84.935,76.800 85.200 M244.900 88.547 C 246.950 90.116,246.780 93.233,244.581 94.410 C 244.041 94.699,243.600 95.085,243.600 95.268 C 243.600 95.450,236.063 95.600,226.850 95.600 C 207.824 95.600,208.221 95.544,204.288 98.765 C 202.604 100.145,201.173 100.924,199.448 101.403 C 196.902 102.110,195.600 102.942,195.600 103.862 C 195.600 104.158,195.420 104.400,195.200 104.400 C 194.980 104.400,194.796 104.805,194.791 105.300 C 194.777 106.773,193.427 109.289,191.701 111.057 C 189.132 113.690,189.200 112.430,189.200 157.233 C 189.200 201.231,189.287 199.538,186.951 201.069 C 185.122 202.268,77.548 202.201,75.906 201.000 C 73.004 198.879,73.199 202.764,73.207 147.174 C 73.215 91.925,73.269 90.411,75.301 88.720 C 77.055 87.261,71.522 87.345,163.400 87.374 L 243.400 87.400 244.900 88.547 M348.177 112.375 C 348.563 112.801,348.760 113.341,348.616 113.575 C 348.276 114.124,347.600 114.125,347.600 113.576 C 347.600 113.343,347.780 113.264,348.000 113.400 C 348.560 113.746,348.500 113.060,347.920 112.480 C 347.340 111.900,346.654 111.840,347.000 112.400 C 347.136 112.620,347.057 112.800,346.824 112.800 C 346.349 112.800,346.260 112.273,346.667 111.867 C 347.096 111.438,347.431 111.551,348.177 112.375 M319.451 118.767 C 322.671 120.229,322.434 113.968,322.310 194.200 C 322.186 274.426,322.493 267.293,319.109 268.574 C 316.455 269.579,215.630 269.345,213.778 268.330 C 211.233 266.935,211.411 272.238,211.290 194.200 C 211.164 112.394,210.789 119.711,215.177 118.379 C 217.741 117.601,317.702 117.973,319.451 118.767 M192.001 317.500 C 192.006 318.409,193.805 320.526,194.996 321.024 C 196.644 321.713,196.800 321.726,196.800 321.176 C 196.800 320.943,196.620 320.864,196.400 321.000 C 196.180 321.136,196.000 321.046,196.000 320.800 C 196.000 320.554,195.835 320.455,195.634 320.579 C 195.217 320.837,192.781 318.553,193.115 318.218 C 193.235 318.098,193.113 318.000,192.843 318.000 C 192.573 318.000,192.464 317.820,192.600 317.600 C 192.736 317.380,192.657 317.200,192.424 317.200 C 192.191 317.200,192.001 317.335,192.001 317.500 " stroke="none" fill="#b4b4c4" fill-rule="evenodd"></path><path id="path4" d="M80.000 87.494 C 72.722 87.805,73.216 83.465,73.207 147.174 C 73.199 202.764,73.004 198.879,75.906 201.000 C 77.548 202.201,185.122 202.268,186.951 201.069 C 189.287 199.538,189.200 201.231,189.200 157.233 C 189.200 112.430,189.132 113.690,191.701 111.057 C 193.427 109.289,194.777 106.773,194.791 105.300 C 194.796 104.805,194.980 104.400,195.200 104.400 C 195.420 104.400,195.600 104.158,195.600 103.862 C 195.600 102.942,196.902 102.110,199.448 101.403 C 201.173 100.924,202.604 100.145,204.288 98.765 C 208.221 95.544,207.824 95.600,226.850 95.600 C 236.063 95.600,243.600 95.450,243.600 95.268 C 243.600 95.085,244.041 94.699,244.581 94.410 C 246.780 93.233,246.950 90.116,244.900 88.547 L 243.400 87.400 163.400 87.374 C 119.400 87.360,81.870 87.414,80.000 87.494 M243.788 89.980 C 244.434 91.025,241.923 91.200,226.126 91.211 C 202.402 91.227,200.609 91.516,198.600 95.652 C 198.046 96.792,197.266 97.582,196.068 98.217 C 193.579 99.535,192.958 100.182,190.335 104.200 C 186.279 110.412,186.626 105.881,186.493 154.443 L 186.376 197.085 184.811 198.343 L 183.247 199.600 134.523 199.598 C 78.308 199.596,77.188 199.565,76.252 197.980 C 75.012 195.881,75.345 93.784,76.604 90.100 C 76.818 89.474,243.401 89.354,243.788 89.980 M88.678 101.145 C 85.947 102.946,85.600 105.875,85.600 127.135 C 85.600 145.118,85.632 145.340,88.563 147.914 L 90.028 149.200 116.570 149.200 C 149.526 149.200,150.461 149.086,152.235 144.851 C 152.912 143.234,153.040 111.441,152.390 106.428 C 151.587 100.248,152.469 100.399,117.321 100.403 C 91.220 100.405,89.742 100.443,88.678 101.145 M147.988 102.218 L 150.575 103.005 151.057 106.003 C 151.375 107.981,151.549 114.861,151.570 126.239 C 151.605 146.399,151.782 145.411,147.887 146.862 L 145.400 147.789 117.836 147.908 L 90.271 148.026 89.120 146.924 C 86.764 144.666,86.800 144.984,86.800 126.555 C 86.800 106.752,87.047 103.949,88.935 102.286 L 90.200 101.171 117.800 101.301 C 143.902 101.423,145.540 101.473,147.988 102.218 M215.177 118.379 C 210.789 119.711,211.164 112.394,211.290 194.200 C 211.411 272.238,211.233 266.935,213.778 268.330 C 215.630 269.345,316.455 269.579,319.109 268.574 C 322.493 267.293,322.186 274.426,322.310 194.200 C 322.434 113.968,322.671 120.229,319.451 118.767 C 317.702 117.973,217.741 117.601,215.177 118.379 M318.369 122.031 L 319.600 123.262 319.600 193.245 C 319.600 269.389,319.743 264.167,317.606 265.887 C 317.137 266.264,305.677 266.377,266.940 266.387 L 216.880 266.400 215.440 264.960 L 214.000 263.520 214.013 193.460 C 214.023 139.000,214.134 123.266,214.513 122.797 C 216.192 120.719,212.870 120.844,267.069 120.821 L 317.138 120.800 318.369 122.031 M229.082 133.543 C 226.367 135.333,226.400 135.043,226.400 157.018 C 226.400 178.736,226.329 178.060,228.816 180.152 L 230.061 181.200 256.582 181.200 C 285.695 181.200,284.863 181.266,286.952 178.784 L 288.000 177.539 288.000 157.231 C 288.000 134.292,288.081 134.943,285.050 133.567 C 282.512 132.414,230.827 132.392,229.082 133.543 M284.408 134.291 C 284.951 134.671,285.795 135.436,286.285 135.991 L 287.175 137.000 287.187 156.914 C 287.201 178.863,287.286 178.100,284.699 179.391 C 283.641 179.918,279.872 180.000,256.574 180.000 L 229.671 180.000 228.636 178.769 L 227.600 177.539 227.600 157.215 C 227.600 135.719,227.611 135.587,229.454 134.190 C 230.710 133.239,283.044 133.335,284.408 134.291 " stroke="none" fill="#c4c4d4" fill-rule="evenodd"></path></g></svg>