<svg id="svg" version="1.1" xmlns="http://www.w3.org/2000/svg" xmlns:xlink="http://www.w3.org/1999/xlink" width="400" height="400" viewBox="0, 0, 400,400"><g id="svgg"><path id="path0" d="M333.400 71.666 C 333.840 71.909,334.605 72.562,335.100 73.116 C 335.932 74.048,336.367 73.946,335.694 72.977 C 335.270 72.366,333.494 71.198,333.011 71.212 C 332.785 71.219,332.960 71.423,333.400 71.666 M92.029 89.235 C 89.793 89.674,89.697 89.780,89.206 92.369 C 88.596 95.585,88.725 305.474,89.339 308.400 L 89.800 310.600 92.000 311.061 C 95.306 311.755,304.852 311.762,308.186 311.069 L 310.573 310.573 311.069 308.186 C 311.793 304.703,311.793 95.697,311.069 92.214 L 310.573 89.827 308.186 89.331 C 305.346 88.740,95.026 88.647,92.029 89.235 M285.122 106.253 C 286.591 106.680,287.754 107.336,288.488 108.153 C 289.901 109.726,290.792 110.617,292.300 111.964 C 296.139 115.397,296.132 151.473,292.291 155.144 C 290.811 156.559,289.665 157.735,288.487 159.047 C 286.042 161.770,291.926 161.600,200.200 161.600 C 108.692 161.600,114.356 161.760,111.959 159.105 C 110.841 157.867,110.365 157.382,108.354 155.430 C 105.733 152.886,105.812 153.499,105.684 134.717 C 105.554 115.600,105.713 114.099,108.100 111.964 C 110.042 110.229,110.791 109.465,111.721 108.276 C 113.918 105.467,107.517 105.659,199.938 105.628 C 275.502 105.602,283.076 105.658,285.122 106.253 M147.422 171.945 C 152.577 172.281,155.361 173.389,156.400 175.518 C 156.730 176.194,157.614 177.164,158.365 177.674 C 161.469 179.780,161.944 182.770,161.944 200.200 C 161.944 217.581,161.455 220.688,158.400 222.721 C 157.630 223.233,156.730 224.216,156.400 224.905 C 154.782 228.284,149.556 229.000,129.000 228.660 C 113.764 228.408,112.085 228.036,110.605 224.582 C 110.382 224.062,109.570 223.221,108.800 222.715 C 106.673 221.315,105.600 218.833,105.600 215.315 C 105.600 213.638,105.430 212.400,105.200 212.400 C 104.943 212.400,104.800 208.267,104.800 200.800 C 104.800 194.160,104.955 189.200,105.161 189.200 C 105.360 189.200,105.586 187.535,105.663 185.500 C 105.828 181.159,106.654 179.103,108.800 177.687 C 109.570 177.180,110.419 176.249,110.686 175.619 C 111.165 174.492,112.633 173.235,114.200 172.612 C 116.320 171.770,138.058 171.333,147.422 171.945 M218.800 172.422 C 220.845 173.136,222.668 174.618,222.967 175.811 C 223.138 176.491,223.699 177.049,224.581 177.418 C 228.349 178.992,228.602 180.448,228.571 200.400 C 228.541 220.465,228.375 221.397,224.547 222.997 C 223.839 223.292,223.151 223.942,222.993 224.463 C 221.828 228.295,220.171 228.596,200.200 228.596 C 180.229 228.596,178.572 228.295,177.407 224.463 C 177.249 223.942,176.561 223.292,175.853 222.997 C 171.938 221.361,171.811 220.656,171.807 200.600 C 171.804 180.180,172.090 178.576,175.937 177.407 C 176.471 177.245,177.111 176.553,177.428 175.795 C 178.470 173.301,180.458 172.371,185.600 171.970 C 191.657 171.499,217.150 171.845,218.800 172.422 M285.400 172.418 C 287.538 173.050,289.122 174.225,289.714 175.619 C 289.981 176.249,290.814 177.177,291.565 177.682 C 293.742 179.146,294.578 181.205,294.739 185.500 C 294.815 187.535,295.040 189.200,295.239 189.200 C 295.445 189.200,295.600 193.917,295.600 200.200 C 295.600 206.483,295.445 211.200,295.239 211.200 C 295.040 211.200,294.814 212.865,294.737 214.900 C 294.572 219.241,293.746 221.297,291.600 222.713 C 290.830 223.221,290.018 224.062,289.795 224.582 C 288.315 228.036,286.636 228.408,271.400 228.660 C 250.844 229.000,245.618 228.284,244.000 224.905 C 243.670 224.216,242.770 223.235,242.000 222.726 C 238.929 220.693,238.712 219.594,238.513 205.073 C 238.227 184.127,238.774 179.825,242.000 177.679 C 242.770 177.167,243.670 176.194,244.000 175.518 C 244.989 173.490,247.901 172.250,252.400 171.939 C 258.559 171.513,283.565 171.876,285.400 172.418 M129.280 196.080 C 128.629 196.731,128.629 203.669,129.280 204.320 C 129.934 204.974,137.266 204.974,137.920 204.320 C 138.571 203.669,138.571 196.731,137.920 196.080 C 137.266 195.426,129.934 195.426,129.280 196.080 M196.080 196.080 C 195.429 196.731,195.429 203.669,196.080 204.320 C 196.383 204.623,197.902 204.800,200.200 204.800 C 202.498 204.800,204.017 204.623,204.320 204.320 C 204.971 203.669,204.971 196.731,204.320 196.080 C 203.669 195.429,196.731 195.429,196.080 196.080 M262.480 196.080 C 262.177 196.383,262.000 197.902,262.000 200.200 C 262.000 204.799,262.001 204.800,266.800 204.800 C 271.599 204.800,271.600 204.799,271.600 200.200 C 271.600 197.902,271.423 196.383,271.120 196.080 C 270.466 195.426,263.134 195.426,262.480 196.080 M147.400 238.746 C 152.385 239.075,155.202 240.135,156.425 242.140 C 156.807 242.767,157.633 243.593,158.260 243.975 C 161.310 245.835,161.940 249.767,161.949 267.000 C 161.958 284.047,161.416 287.513,158.432 289.501 C 157.680 290.002,156.752 290.925,156.371 291.551 C 155.196 293.484,152.354 294.579,148.100 294.738 C 146.065 294.815,144.400 295.040,144.400 295.239 C 144.400 295.445,139.683 295.600,133.400 295.600 C 127.327 295.600,122.400 295.442,122.400 295.248 C 122.400 295.054,120.735 294.822,118.700 294.731 C 114.395 294.540,112.283 293.710,110.929 291.676 C 110.444 290.948,109.462 289.957,108.745 289.475 C 106.643 288.058,105.873 286.319,105.675 282.534 C 105.578 280.700,105.342 279.200,105.150 279.200 C 104.957 279.200,104.800 273.980,104.800 267.600 C 104.800 260.960,104.955 256.000,105.161 256.000 C 105.360 256.000,105.585 254.335,105.662 252.300 C 105.821 248.046,106.916 245.204,108.849 244.029 C 109.475 243.648,110.396 242.736,110.894 242.003 C 112.302 239.931,114.361 239.090,118.768 238.787 C 124.086 238.421,142.082 238.395,147.400 238.746 M214.214 238.744 C 219.265 239.074,221.234 239.835,222.726 242.035 C 223.236 242.786,224.206 243.670,224.882 244.000 C 228.281 245.659,229.000 250.872,228.660 271.400 C 228.408 286.636,228.036 288.315,224.582 289.795 C 224.062 290.018,223.221 290.830,222.713 291.600 C 221.297 293.746,219.241 294.572,214.900 294.737 C 212.865 294.814,211.200 295.040,211.200 295.239 C 211.200 295.445,206.483 295.600,200.200 295.600 C 193.917 295.600,189.200 295.445,189.200 295.239 C 189.200 295.040,187.535 294.814,185.500 294.737 C 181.159 294.572,179.103 293.746,177.687 291.600 C 177.180 290.830,176.251 289.982,175.623 289.716 C 172.351 288.327,171.977 286.583,171.739 271.600 C 171.408 250.783,172.111 245.620,175.495 244.000 C 176.184 243.670,177.164 242.786,177.674 242.035 C 179.122 239.900,181.205 239.042,185.600 238.768 C 191.133 238.424,209.080 238.409,214.214 238.744 M285.200 240.294 C 287.155 241.162,291.999 246.146,293.397 248.728 C 294.565 250.885,294.639 281.897,293.483 284.800 C 292.532 287.190,287.242 292.468,284.800 293.465 C 282.005 294.606,250.916 294.584,248.807 293.439 C 245.677 291.740,240.878 287.229,240.125 285.278 C 238.910 282.129,239.043 250.902,240.281 248.568 C 241.289 246.668,246.365 241.461,248.164 240.481 C 250.958 238.961,281.842 238.805,285.200 240.294 M129.280 262.480 C 128.626 263.134,128.626 270.466,129.280 271.120 C 129.587 271.427,131.147 271.600,133.600 271.600 C 138.425 271.600,138.400 271.625,138.400 266.800 C 138.400 261.975,138.425 262.000,133.600 262.000 C 131.147 262.000,129.587 262.173,129.280 262.480 M196.080 262.480 C 195.426 263.134,195.426 270.466,196.080 271.120 C 196.383 271.423,197.902 271.600,200.200 271.600 C 204.799 271.600,204.800 271.599,204.800 266.800 C 204.800 262.001,204.799 262.000,200.200 262.000 C 197.902 262.000,196.383 262.177,196.080 262.480 " stroke="none" fill="#fcfcfc" fill-rule="evenodd"></path><path id="path1" d="M119.200 107.962 C 116.479 108.256,114.028 109.534,113.086 111.148 C 112.693 111.821,111.829 112.692,111.165 113.084 C 110.501 113.476,109.487 114.608,108.912 115.599 L 107.865 117.400 107.688 131.515 C 107.446 150.743,107.379 150.276,110.841 153.724 C 112.359 155.235,113.600 156.620,113.600 156.802 C 113.600 156.983,114.455 157.642,115.500 158.266 L 117.400 159.400 200.200 159.400 L 283.000 159.400 284.860 158.288 C 285.985 157.616,286.977 156.634,287.371 155.804 C 287.729 155.049,288.560 154.114,289.218 153.726 C 289.875 153.338,290.905 152.295,291.506 151.410 L 292.600 149.800 292.600 133.784 L 292.600 117.768 291.600 115.861 C 291.050 114.813,290.017 113.592,289.305 113.148 C 288.593 112.704,287.694 111.805,287.307 111.150 C 286.920 110.494,285.792 109.473,284.801 108.879 L 283.000 107.800 202.200 107.762 C 157.760 107.741,120.410 107.831,119.200 107.962 " stroke="none" fill="#e4bc74" fill-rule="evenodd"></path><path id="path2" d="M92.211 84.693 C 90.677 84.774,89.327 84.966,89.211 85.120 C 89.095 85.274,88.481 85.691,87.847 86.047 C 87.212 86.402,86.402 87.212,86.047 87.847 C 85.691 88.481,85.220 89.128,85.000 89.285 C 84.202 89.855,84.474 310.532,85.274 311.331 C 85.644 311.702,86.062 312.366,86.202 312.807 C 86.342 313.248,87.029 313.902,87.728 314.260 C 88.428 314.618,89.128 315.112,89.285 315.356 C 89.694 315.992,310.307 315.990,310.715 315.354 C 310.872 315.109,311.397 314.784,311.882 314.633 C 312.891 314.318,314.800 312.204,314.800 311.403 C 314.800 311.108,315.025 310.792,315.300 310.700 C 315.987 310.471,316.041 90.125,315.354 89.685 C 315.109 89.528,314.784 89.003,314.633 88.518 C 314.318 87.509,312.204 85.600,311.403 85.600 C 311.108 85.600,310.792 85.375,310.700 85.100 C 310.544 84.631,100.780 84.241,92.211 84.693 M306.600 88.032 C 311.392 88.605,311.795 89.008,312.368 93.800 C 312.970 98.844,312.970 301.556,312.368 306.600 C 312.034 309.389,311.742 310.396,311.069 311.069 C 310.396 311.742,309.389 312.034,306.600 312.368 C 301.632 312.961,98.380 312.973,93.590 312.380 C 89.073 311.821,88.579 311.327,88.020 306.810 C 87.463 302.317,87.440 98.447,87.995 93.617 C 88.502 89.203,89.159 88.475,93.036 88.026 C 97.445 87.514,302.319 87.521,306.600 88.032 M118.200 172.986 C 117.980 173.068,117.114 173.249,116.276 173.390 C 115.040 173.597,114.106 174.303,111.335 177.123 C 106.189 182.360,106.619 180.354,106.479 199.788 C 106.339 219.362,106.240 218.743,110.007 222.006 C 111.301 223.127,112.468 224.383,112.599 224.796 C 113.356 227.183,115.107 227.400,133.600 227.400 L 150.600 227.400 152.296 226.429 C 153.228 225.895,154.083 225.175,154.195 224.829 C 154.307 224.483,155.378 223.396,156.575 222.412 C 157.772 221.429,159.167 219.899,159.676 219.012 L 160.600 217.400 160.600 200.200 C 160.600 180.769,160.777 181.933,157.340 178.752 C 156.300 177.788,154.807 176.348,154.024 175.552 C 151.427 172.910,152.150 173.008,134.600 172.919 C 125.800 172.874,118.420 172.904,118.200 172.986 M183.600 173.156 C 181.614 173.565,181.145 173.896,178.611 176.681 C 177.369 178.045,176.035 179.262,175.648 179.385 C 175.260 179.508,174.505 180.372,173.971 181.304 L 173.000 183.000 172.879 199.788 C 172.738 219.460,172.633 218.810,176.425 221.755 C 177.746 222.780,179.019 224.042,179.254 224.559 C 179.490 225.076,180.429 225.927,181.341 226.449 L 183.000 227.400 200.200 227.400 L 217.400 227.400 219.100 226.426 C 220.035 225.891,220.800 225.302,220.800 225.117 C 220.800 224.575,224.011 221.251,224.766 221.011 C 225.146 220.890,225.895 220.028,226.429 219.096 L 227.400 217.400 227.400 200.600 C 227.400 191.360,227.265 183.317,227.099 182.727 C 226.788 181.619,219.960 174.460,218.323 173.527 C 217.297 172.941,186.252 172.610,183.600 173.156 M251.000 173.050 C 250.560 173.149,249.796 173.317,249.301 173.423 C 248.807 173.528,247.100 174.871,245.508 176.407 C 243.916 177.943,242.483 179.200,242.324 179.200 C 242.164 179.200,241.531 180.055,240.917 181.100 L 239.800 183.000 239.679 199.788 C 239.538 219.504,239.428 218.839,243.340 222.068 C 244.693 223.185,245.952 224.413,246.138 224.797 C 246.323 225.181,247.223 225.924,248.138 226.448 L 249.800 227.400 266.800 227.400 C 285.257 227.400,287.044 227.180,287.793 224.821 C 287.920 224.422,288.994 223.192,290.181 222.088 C 294.015 218.520,293.800 219.817,293.800 200.200 C 293.800 184.744,293.731 182.878,293.119 181.800 C 292.106 180.013,286.261 174.089,284.945 173.515 C 283.823 173.026,252.968 172.603,251.000 173.050 M148.517 176.335 C 150.351 176.588,150.482 176.693,151.517 178.748 C 152.578 180.851,153.528 181.619,156.461 182.741 C 157.897 183.291,158.128 186.559,157.942 203.755 C 157.785 218.222,157.896 217.638,155.200 218.269 C 153.792 218.599,152.077 220.311,151.225 222.237 C 150.297 224.333,149.756 224.400,133.600 224.400 C 118.208 224.400,116.959 224.274,116.129 222.641 C 115.287 220.982,113.050 218.949,111.696 218.611 C 109.113 217.967,109.200 218.515,109.203 202.838 C 109.204 195.007,109.322 187.367,109.464 185.859 L 109.723 183.119 111.362 182.398 C 113.488 181.463,115.401 179.651,116.145 177.869 C 116.676 176.600,116.922 176.433,118.469 176.294 C 121.487 176.025,146.517 176.059,148.517 176.335 M215.118 176.340 C 217.207 176.597,217.250 176.629,218.327 178.790 C 219.253 180.647,219.753 181.147,221.610 182.073 C 224.364 183.446,224.308 183.086,224.358 199.600 C 224.407 216.058,224.300 217.081,222.439 217.918 C 220.400 218.834,218.866 220.336,218.025 222.236 L 217.300 223.875 214.550 224.135 C 210.996 224.470,189.424 224.472,185.876 224.137 L 183.153 223.880 182.201 222.002 C 181.231 220.088,180.185 219.155,178.400 218.610 C 175.909 217.851,176.000 218.446,176.003 202.838 C 176.004 195.007,176.122 187.367,176.264 185.859 L 176.523 183.119 178.162 182.403 C 180.323 181.459,181.509 180.280,182.411 178.175 C 183.120 176.521,183.236 176.439,185.076 176.295 C 188.434 176.032,212.911 176.068,215.118 176.340 M281.188 176.262 C 283.569 176.511,283.721 176.591,284.265 177.893 C 285.022 179.706,286.908 181.503,288.989 182.395 L 290.677 183.119 290.936 185.859 C 291.272 189.419,291.271 210.986,290.935 214.547 C 290.680 217.244,290.648 217.307,289.190 217.960 C 287.151 218.873,285.131 220.742,284.335 222.451 C 283.474 224.302,282.589 224.400,266.800 224.400 C 250.383 224.400,250.204 224.376,249.001 222.003 C 247.985 219.997,246.926 219.105,245.000 218.632 C 242.288 217.967,242.396 218.660,242.440 202.238 C 242.490 183.202,242.490 183.208,244.687 182.411 C 246.934 181.597,248.283 180.340,249.196 178.209 C 249.900 176.568,250.068 176.438,251.675 176.294 C 254.755 176.018,278.610 175.992,281.188 176.262 M128.600 191.781 C 127.720 192.105,126.685 192.782,126.300 193.285 C 125.915 193.788,125.375 194.466,125.100 194.790 C 124.330 195.699,124.413 204.792,125.200 205.748 C 127.741 208.832,129.236 209.368,134.600 209.118 C 141.132 208.814,142.198 207.563,142.198 200.200 C 142.198 194.751,141.714 193.306,139.493 192.127 C 137.708 191.179,130.826 190.960,128.600 191.781 M195.800 191.547 C 192.092 192.517,191.402 193.875,191.402 200.200 C 191.402 204.032,191.544 205.261,192.108 206.293 C 194.272 210.258,206.128 210.258,208.292 206.293 C 210.288 202.638,209.005 193.552,206.293 192.140 C 204.855 191.391,197.898 190.998,195.800 191.547 M262.377 191.579 C 258.837 192.653,258.202 193.966,258.202 200.200 C 258.202 207.563,259.268 208.814,265.800 209.118 C 271.164 209.368,272.659 208.832,275.200 205.748 C 275.660 205.190,275.800 203.894,275.800 200.200 C 275.800 195.174,275.826 195.266,273.751 192.995 C 272.286 191.392,265.697 190.572,262.377 191.579 M137.606 194.513 C 139.095 195.711,139.600 197.152,139.600 200.200 C 139.600 205.213,138.472 206.375,133.600 206.375 C 128.728 206.375,127.600 205.213,127.600 200.200 C 127.600 195.187,128.728 194.025,133.600 194.025 C 135.675 194.025,137.236 194.215,137.606 194.513 M204.960 195.440 C 206.382 196.862,206.400 196.921,206.400 200.200 C 206.400 203.479,206.382 203.538,204.960 204.960 C 203.538 206.382,203.479 206.400,200.200 206.400 C 195.330 206.400,194.000 205.070,194.000 200.200 C 194.000 196.921,194.018 196.862,195.440 195.440 C 196.862 194.018,196.921 194.000,200.200 194.000 C 203.479 194.000,203.538 194.018,204.960 195.440 M270.806 194.513 C 272.295 195.711,272.800 197.152,272.800 200.200 C 272.800 205.213,271.672 206.375,266.800 206.375 C 261.928 206.375,260.800 205.213,260.800 200.200 C 260.800 195.187,261.928 194.025,266.800 194.025 C 268.875 194.025,270.436 194.215,270.806 194.513 M116.848 240.020 C 114.708 240.455,113.688 241.099,111.719 243.261 C 110.884 244.178,109.708 245.443,109.107 246.071 C 106.543 248.750,106.612 248.226,106.478 266.200 C 106.328 286.155,106.121 285.019,110.723 289.487 C 115.414 294.040,114.128 293.800,133.800 293.800 L 150.600 293.800 152.500 292.683 C 153.545 292.069,154.401 291.439,154.403 291.283 C 154.404 291.127,155.397 290.190,156.608 289.200 C 160.708 285.850,160.600 286.454,160.600 266.800 C 160.600 247.154,160.953 248.966,156.194 244.206 C 151.459 239.472,153.094 239.811,134.600 239.732 C 125.800 239.694,117.812 239.824,116.848 240.020 M183.522 239.967 C 181.581 240.361,179.766 241.655,177.800 244.047 C 176.920 245.118,175.917 246.088,175.571 246.202 C 175.225 246.315,174.505 247.172,173.971 248.104 L 173.000 249.800 172.879 266.335 C 172.737 285.873,172.716 285.734,176.220 288.380 C 177.417 289.284,178.666 290.434,178.995 290.936 C 179.324 291.438,180.359 292.288,181.296 292.824 L 183.000 293.800 200.200 293.800 C 219.817 293.800,218.520 294.015,222.088 290.181 C 223.192 288.994,224.422 287.920,224.821 287.793 C 227.170 287.048,227.400 285.213,227.400 267.200 C 227.400 248.730,227.429 248.989,225.082 246.622 C 224.157 245.688,222.612 244.079,221.648 243.046 C 218.478 239.646,219.482 239.808,201.200 239.734 C 192.290 239.698,184.335 239.803,183.522 239.967 M251.000 241.081 C 249.454 241.320,247.323 242.946,246.314 244.656 C 245.878 245.395,245.312 246.000,245.056 246.000 C 244.465 246.000,242.603 247.719,241.696 249.101 C 241.068 250.059,240.988 251.775,240.880 266.585 C 240.745 284.959,240.753 285.019,243.469 287.081 C 244.280 287.696,245.856 289.062,246.972 290.115 C 249.708 292.698,248.913 292.600,267.200 292.600 C 285.366 292.600,285.338 292.604,287.497 289.479 C 287.982 288.775,288.913 287.846,289.565 287.414 C 292.514 285.456,292.585 285.042,292.730 269.000 C 292.902 249.895,292.928 250.106,290.062 247.156 C 288.818 245.876,287.390 244.293,286.890 243.638 C 284.875 241.006,285.024 241.027,267.800 240.958 C 259.220 240.923,251.660 240.979,251.000 241.081 M148.600 242.735 C 150.532 242.991,150.618 243.058,151.141 244.710 C 151.831 246.889,153.511 248.569,155.690 249.259 C 157.980 249.983,158.064 250.724,157.916 268.933 C 157.788 284.753,157.915 284.004,155.235 284.677 C 154.055 284.973,152.057 287.187,151.160 289.191 C 150.301 291.109,149.506 291.200,133.600 291.200 C 118.208 291.200,116.959 291.074,116.129 289.441 C 115.380 287.967,112.928 285.600,112.150 285.600 C 111.847 285.600,111.600 285.420,111.600 285.200 C 111.600 284.980,111.389 284.800,111.131 284.800 C 109.256 284.800,109.200 284.346,109.200 269.197 C 109.200 250.462,109.236 250.133,111.361 249.198 C 113.611 248.208,115.512 246.333,116.104 244.519 C 116.560 243.122,116.744 242.981,118.400 242.760 C 120.881 242.429,146.135 242.408,148.600 242.735 M215.200 242.740 C 217.308 242.989,217.419 243.062,217.888 244.497 C 218.679 246.916,219.550 247.918,221.780 248.973 L 223.883 249.968 224.141 252.443 C 224.478 255.667,224.477 277.948,224.139 281.177 C 223.891 283.551,223.810 283.703,222.451 284.335 C 220.742 285.131,218.873 287.151,217.960 289.190 C 217.102 291.106,216.152 291.207,199.600 291.158 C 183.350 291.109,183.441 291.122,182.076 288.658 C 181.484 287.590,180.460 286.420,179.800 286.058 C 179.140 285.696,178.540 285.265,178.467 285.100 C 178.393 284.935,178.138 284.800,177.898 284.800 C 176.061 284.800,176.000 284.302,176.000 269.197 C 176.000 250.447,176.035 250.128,178.166 249.214 C 180.305 248.298,181.654 246.872,182.411 244.729 C 182.999 243.063,183.093 242.991,185.011 242.763 C 187.744 242.437,212.483 242.418,215.200 242.740 M128.600 258.581 C 127.720 258.905,126.685 259.582,126.300 260.085 C 125.915 260.588,125.375 261.266,125.100 261.590 C 124.763 261.988,124.600 263.685,124.600 266.800 C 124.600 271.618,124.624 271.701,126.662 273.738 C 128.699 275.776,128.782 275.800,133.600 275.800 C 138.410 275.800,138.342 275.820,140.610 273.746 C 143.625 270.990,142.850 260.709,139.493 258.927 C 137.708 257.979,130.826 257.760,128.600 258.581 M195.800 258.347 C 192.425 259.230,191.518 260.727,191.282 265.800 C 191.032 271.164,191.568 272.659,194.652 275.200 C 195.210 275.660,196.506 275.800,200.200 275.800 C 205.228 275.800,205.135 275.827,207.410 273.746 C 210.425 270.990,209.648 260.687,206.293 258.940 C 204.855 258.191,197.898 257.798,195.800 258.347 M138.369 262.031 C 139.558 263.220,139.600 263.382,139.600 266.800 C 139.600 271.893,138.693 272.800,133.600 272.800 C 128.507 272.800,127.600 271.893,127.600 266.800 C 127.600 261.707,128.507 260.800,133.600 260.800 C 137.018 260.800,137.180 260.842,138.369 262.031 M204.314 261.494 C 206.169 262.681,206.375 263.211,206.375 266.800 C 206.375 271.672,205.213 272.800,200.200 272.800 C 195.187 272.800,194.025 271.672,194.025 266.800 C 194.025 263.254,194.226 262.717,196.000 261.518 C 197.429 260.552,202.817 260.537,204.314 261.494 " stroke="none" fill="#b4b4c4" fill-rule="evenodd"></path><path id="path3" d="M74.400 63.943 C 74.400 64.133,73.995 64.214,73.500 64.121 C 72.102 63.860,71.069 64.873,71.032 66.543 C 71.015 67.343,70.865 67.998,70.700 67.999 C 70.535 67.999,70.400 68.540,70.400 69.200 C 70.400 70.267,70.267 70.400,69.200 70.400 C 68.540 70.400,67.999 70.535,67.999 70.700 C 67.998 70.865,67.343 71.015,66.543 71.032 C 64.873 71.069,63.860 72.102,64.121 73.500 C 64.214 73.995,64.133 74.400,63.943 74.400 C 63.750 74.400,63.599 129.491,63.601 199.600 C 63.604 290.536,63.726 324.800,64.046 324.800 C 64.320 324.800,64.389 325.190,64.227 325.834 C 63.692 327.966,65.702 329.962,67.843 329.425 C 68.383 329.289,68.800 329.362,68.800 329.592 C 68.800 329.817,69.160 330.000,69.600 330.000 C 70.248 330.000,70.400 330.267,70.400 331.400 C 70.400 332.170,70.563 332.800,70.763 332.800 C 70.962 332.800,71.031 333.160,70.916 333.599 C 70.585 334.867,71.881 336.516,73.035 336.295 C 73.566 336.194,74.000 336.266,74.000 336.455 C 74.000 336.647,129.702 336.800,199.800 336.800 C 281.250 336.800,325.600 336.663,325.600 336.410 C 325.600 336.196,326.095 336.117,326.700 336.235 C 328.385 336.564,329.382 335.599,329.382 333.639 C 329.382 332.738,329.521 332.000,329.691 332.000 C 329.861 332.000,330.000 331.550,330.000 331.000 C 330.000 330.378,330.227 330.000,330.600 330.000 C 330.930 330.000,331.200 329.825,331.200 329.610 C 331.200 329.394,331.711 329.322,332.345 329.449 C 334.805 329.941,336.730 328.013,336.198 325.591 C 336.035 324.847,336.098 324.400,336.366 324.400 C 336.670 324.400,336.796 288.434,336.799 200.400 C 336.801 109.511,336.683 76.400,336.357 76.400 C 336.067 76.400,336.000 75.927,336.164 75.049 C 336.663 72.391,334.440 70.226,332.005 70.998 C 331.100 71.286,330.000 70.424,330.000 69.429 C 330.000 69.083,329.817 68.800,329.592 68.800 C 329.362 68.800,329.289 68.383,329.425 67.843 C 329.962 65.702,327.966 63.692,325.834 64.227 C 325.190 64.389,324.800 64.320,324.800 64.046 C 324.800 63.726,290.536 63.604,199.600 63.601 C 129.491 63.599,74.400 63.750,74.400 63.943 M334.411 71.877 C 335.493 72.617,335.984 73.203,335.994 73.762 C 335.997 73.961,335.595 73.671,335.100 73.116 C 334.605 72.562,333.840 71.909,333.400 71.666 C 332.960 71.423,332.785 71.219,333.011 71.212 C 333.237 71.205,333.867 71.505,334.411 71.877 M310.700 85.100 C 310.792 85.375,311.108 85.600,311.403 85.600 C 312.204 85.600,314.318 87.509,314.633 88.518 C 314.784 89.003,315.109 89.528,315.354 89.685 C 316.041 90.125,315.987 310.471,315.300 310.700 C 315.025 310.792,314.800 311.108,314.800 311.403 C 314.800 312.204,312.891 314.318,311.882 314.633 C 311.397 314.784,310.872 315.109,310.715 315.354 C 310.307 315.990,89.694 315.992,89.285 315.356 C 89.128 315.112,88.428 314.618,87.728 314.260 C 87.029 313.902,86.342 313.248,86.202 312.807 C 86.062 312.366,85.644 311.702,85.274 311.331 C 84.474 310.532,84.202 89.855,85.000 89.285 C 85.220 89.128,85.691 88.481,86.047 87.847 C 86.402 87.212,87.212 86.402,87.847 86.047 C 88.481 85.691,89.095 85.274,89.211 85.120 C 89.826 84.305,310.428 84.285,310.700 85.100 M118.469 176.294 C 116.922 176.433,116.676 176.600,116.145 177.869 C 115.401 179.651,113.488 181.463,111.362 182.398 L 109.723 183.119 109.464 185.859 C 109.322 187.367,109.204 195.007,109.203 202.838 C 109.200 218.515,109.113 217.967,111.696 218.611 C 113.050 218.949,115.287 220.982,116.129 222.641 C 116.959 224.274,118.208 224.400,133.600 224.400 C 149.756 224.400,150.297 224.333,151.225 222.237 C 152.077 220.311,153.792 218.599,155.200 218.269 C 157.896 217.638,157.785 218.222,157.942 203.755 C 158.128 186.559,157.897 183.291,156.461 182.741 C 153.528 181.619,152.578 180.851,151.517 178.748 C 150.482 176.693,150.351 176.588,148.517 176.335 C 146.517 176.059,121.487 176.025,118.469 176.294 M185.076 176.295 C 183.236 176.439,183.120 176.521,182.411 178.175 C 181.509 180.280,180.323 181.459,178.162 182.403 L 176.523 183.119 176.264 185.859 C 176.122 187.367,176.004 195.007,176.003 202.838 C 176.000 218.446,175.909 217.851,178.400 218.610 C 180.185 219.155,181.231 220.088,182.201 222.002 L 183.153 223.880 185.876 224.137 C 189.424 224.472,210.996 224.470,214.550 224.135 L 217.300 223.875 218.025 222.236 C 218.866 220.336,220.400 218.834,222.439 217.918 C 224.300 217.081,224.407 216.058,224.358 199.600 C 224.308 183.086,224.364 183.446,221.610 182.073 C 219.753 181.147,219.253 180.647,218.327 178.790 C 217.250 176.629,217.207 176.597,215.118 176.340 C 212.911 176.068,188.434 176.032,185.076 176.295 M251.675 176.294 C 250.068 176.438,249.900 176.568,249.196 178.209 C 248.283 180.340,246.934 181.597,244.687 182.411 C 242.490 183.208,242.490 183.202,242.440 202.238 C 242.396 218.660,242.288 217.967,245.000 218.632 C 246.926 219.105,247.985 219.997,249.001 222.003 C 250.204 224.376,250.383 224.400,266.800 224.400 C 282.589 224.400,283.474 224.302,284.335 222.451 C 285.131 220.742,287.151 218.873,289.190 217.960 C 290.648 217.307,290.680 217.244,290.935 214.547 C 291.271 210.986,291.272 189.419,290.936 185.859 L 290.677 183.119 288.989 182.395 C 286.908 181.503,285.022 179.706,284.265 177.893 C 283.721 176.591,283.569 176.511,281.188 176.262 C 278.610 175.992,254.755 176.018,251.675 176.294 M139.493 192.127 C 141.714 193.306,142.198 194.751,142.198 200.200 C 142.198 207.563,141.132 208.814,134.600 209.118 C 129.236 209.368,127.741 208.832,125.200 205.748 C 124.413 204.792,124.330 195.699,125.100 194.790 C 125.375 194.466,125.915 193.788,126.300 193.285 C 127.916 191.173,136.308 190.436,139.493 192.127 M206.293 192.140 C 210.257 194.204,210.257 206.129,206.293 208.292 C 202.642 210.286,193.591 209.010,192.108 206.293 C 190.294 202.971,191.366 193.598,193.704 192.342 C 196.157 191.025,203.911 190.900,206.293 192.140 M271.351 191.635 C 272.772 192.030,273.527 192.622,275.200 194.652 C 275.660 195.210,275.800 196.506,275.800 200.200 C 275.800 205.228,275.827 205.135,273.746 207.410 C 271.992 209.329,263.938 209.867,260.907 208.269 C 257.227 206.328,256.905 194.271,260.481 192.357 C 262.687 191.176,268.345 190.801,271.351 191.635 M118.400 242.760 C 116.744 242.981,116.560 243.122,116.104 244.519 C 115.512 246.333,113.611 248.208,111.361 249.198 C 109.236 250.133,109.200 250.462,109.200 269.197 C 109.200 284.346,109.256 284.800,111.131 284.800 C 111.389 284.800,111.600 284.980,111.600 285.200 C 111.600 285.420,111.847 285.600,112.150 285.600 C 112.928 285.600,115.380 287.967,116.129 289.441 C 116.959 291.074,118.208 291.200,133.600 291.200 C 149.506 291.200,150.301 291.109,151.160 289.191 C 152.057 287.187,154.055 284.973,155.235 284.677 C 157.915 284.004,157.788 284.753,157.916 268.933 C 158.064 250.724,157.980 249.983,155.690 249.259 C 153.511 248.569,151.831 246.889,151.141 244.710 C 150.618 243.058,150.532 242.991,148.600 242.735 C 146.135 242.408,120.881 242.429,118.400 242.760 M185.011 242.763 C 183.093 242.991,182.999 243.063,182.411 244.729 C 181.654 246.872,180.305 248.298,178.166 249.214 C 176.035 250.128,176.000 250.447,176.000 269.197 C 176.000 284.302,176.061 284.800,177.898 284.800 C 178.138 284.800,178.393 284.935,178.467 285.100 C 178.540 285.265,179.140 285.696,179.800 286.058 C 180.460 286.420,181.484 287.590,182.076 288.658 C 183.441 291.122,183.350 291.109,199.600 291.158 C 216.152 291.207,217.102 291.106,217.960 289.190 C 218.873 287.151,220.742 285.131,222.451 284.335 C 223.810 283.703,223.891 283.551,224.139 281.177 C 224.477 277.948,224.478 255.667,224.141 252.443 L 223.883 249.968 221.780 248.973 C 219.550 247.918,218.679 246.916,217.888 244.497 C 217.419 243.062,217.308 242.989,215.200 242.740 C 212.483 242.418,187.744 242.437,185.011 242.763 M139.493 258.927 C 142.850 260.709,143.625 270.990,140.610 273.746 C 138.342 275.820,138.410 275.800,133.600 275.800 C 128.782 275.800,128.699 275.776,126.662 273.738 C 124.624 271.701,124.600 271.618,124.600 266.800 C 124.600 263.685,124.763 261.988,125.100 261.590 C 125.375 261.266,125.915 260.588,126.300 260.085 C 127.916 257.973,136.308 257.236,139.493 258.927 M206.293 258.940 C 209.648 260.687,210.425 270.990,207.410 273.746 C 205.135 275.827,205.228 275.800,200.200 275.800 C 195.172 275.800,195.265 275.827,192.990 273.746 C 190.206 271.201,190.718 260.747,193.704 259.142 C 196.157 257.825,203.911 257.700,206.293 258.940 " stroke="none" fill="#949494" fill-rule="evenodd"></path><path id="path4" d="" stroke="none" fill="#100c8e4" fill-rule="evenodd"></path></g></svg>