<svg id="svg" version="1.1" xmlns="http://www.w3.org/2000/svg" xmlns:xlink="http://www.w3.org/1999/xlink" width="400" height="400" viewBox="0, 0, 400,400"><g id="svgg"><path id="path0" d="M243.002 92.786 C 242.846 94.127,242.577 96.704,242.403 98.512 C 241.946 103.273,241.917 156.103,242.370 159.633 C 242.831 163.232,243.166 166.949,243.186 168.691 L 243.200 169.982 250.223 170.091 L 257.247 170.200 257.385 172.747 C 257.603 176.788,256.871 176.575,271.105 176.724 C 277.860 176.795,283.449 176.915,283.525 176.991 C 283.601 177.068,283.711 178.146,283.769 179.388 C 283.938 183.013,283.728 182.940,294.362 183.091 L 303.534 183.222 303.819 180.511 C 303.975 179.020,304.163 177.350,304.236 176.800 C 304.565 174.329,304.356 114.774,304.011 112.664 C 303.802 111.380,303.601 108.851,303.566 107.044 L 303.501 103.760 296.264 103.658 C 285.809 103.511,280.378 102.476,281.600 100.864 C 281.710 100.719,281.405 100.544,280.922 100.475 C 280.348 100.393,280.121 100.151,280.265 99.775 C 280.386 99.459,280.286 99.200,280.043 99.200 C 279.799 99.200,279.600 98.930,279.600 98.600 C 279.600 98.231,279.225 98.000,278.624 98.000 C 278.087 98.000,277.544 97.832,277.417 97.628 C 277.290 97.423,274.355 97.243,270.893 97.229 C 263.843 97.200,260.048 96.893,259.290 96.291 C 259.010 96.068,258.671 95.995,258.538 96.129 C 258.083 96.584,256.800 95.575,256.800 94.762 C 256.800 94.302,256.620 94.064,256.382 94.211 C 256.153 94.353,255.478 94.143,254.882 93.746 C 254.287 93.348,253.676 93.058,253.524 93.103 C 253.373 93.147,253.142 92.846,253.010 92.433 C 252.838 91.890,252.527 91.745,251.886 91.910 C 251.123 92.107,251.071 92.052,251.510 91.516 C 252.216 90.654,251.785 90.548,247.142 90.439 L 243.285 90.348 243.002 92.786 M216.820 91.700 C 216.658 92.106,216.510 92.711,216.450 93.224 C 216.423 93.457,216.237 93.546,216.037 93.423 C 215.838 93.300,215.762 93.532,215.868 93.940 C 216.119 94.897,214.897 96.119,213.940 95.868 C 213.532 95.762,213.300 95.838,213.423 96.037 C 213.621 96.357,213.025 96.563,212.661 96.300 C 212.585 96.245,212.225 96.447,211.861 96.749 C 211.361 97.164,211.200 97.177,211.200 96.800 C 211.200 96.431,211.062 96.416,210.668 96.744 C 210.316 97.036,207.020 97.198,200.968 97.221 C 190.209 97.262,190.000 97.292,190.000 98.798 C 190.000 102.843,188.237 103.400,174.340 103.746 C 169.802 103.859,167.890 104.436,168.533 105.497 C 168.633 105.664,168.465 106.032,168.158 106.316 C 167.851 106.599,167.600 106.727,167.600 106.600 C 167.600 106.473,167.349 106.601,167.042 106.884 C 166.735 107.168,166.536 107.490,166.600 107.600 C 166.780 107.911,165.714 108.780,165.462 108.528 C 165.239 108.306,164.683 108.788,163.671 110.077 C 161.930 112.297,161.112 171.769,162.711 179.925 L 163.362 183.250 172.981 183.152 C 181.156 183.069,182.675 182.960,183.101 182.427 C 183.539 181.879,183.568 181.896,183.334 182.564 C 183.082 183.281,183.222 183.312,185.602 183.063 C 188.856 182.723,189.501 182.127,189.837 179.151 L 190.103 176.800 197.152 176.775 C 201.028 176.761,205.640 176.755,207.400 176.762 C 215.299 176.791,216.047 176.407,216.758 171.957 C 217.018 170.331,217.414 168.100,217.638 167.000 C 218.828 161.163,218.040 88.655,216.820 91.700 M88.400 98.639 C 87.630 99.392,86.370 100.186,85.600 100.404 C 82.324 101.330,82.400 100.524,82.400 134.235 C 82.400 166.966,82.334 166.172,85.163 167.516 C 87.647 168.696,88.888 170.041,89.011 171.686 C 89.065 172.409,89.144 173.000,89.185 173.000 C 89.327 173.000,89.663 174.597,89.732 175.600 C 89.813 176.773,88.800 176.676,101.700 176.749 L 110.800 176.800 110.800 177.813 C 110.800 179.732,111.889 181.594,113.373 182.214 C 115.089 182.932,117.063 182.974,117.335 182.300 C 117.456 182.001,117.550 182.082,117.568 182.500 C 117.605 183.300,119.196 183.494,119.206 182.700 C 119.210 182.365,119.309 182.341,119.506 182.628 C 119.696 182.904,122.857 183.086,128.452 183.142 L 137.105 183.229 137.361 181.515 C 138.169 176.110,138.374 168.727,138.385 144.600 C 138.394 123.013,138.284 117.100,137.815 114.200 C 137.494 112.220,137.203 109.050,137.166 107.155 L 137.100 103.711 127.850 103.662 C 112.355 103.581,110.400 103.035,110.400 98.786 C 110.400 97.294,110.166 97.263,99.000 97.266 L 89.800 97.269 88.400 98.639 " stroke="none" fill="#e4bc74" fill-rule="evenodd"></path><path id="path1" d="M57.655 57.734 C 57.315 58.143,57.224 90.388,57.299 184.042 L 57.400 309.800 63.900 309.910 L 70.400 310.020 70.444 311.310 C 70.469 312.019,70.456 313.005,70.416 313.500 C 70.376 313.995,70.505 314.400,70.703 314.400 C 70.901 314.400,71.049 314.805,71.032 315.300 C 71.010 315.922,71.216 316.183,71.700 316.144 C 72.085 316.114,72.400 316.240,72.400 316.424 C 72.400 316.608,77.924 316.772,84.676 316.788 C 91.427 316.805,97.017 316.884,97.098 316.965 C 97.179 317.046,97.252 318.032,97.261 319.156 C 97.270 320.280,97.420 321.200,97.594 321.200 C 97.768 321.200,97.886 321.515,97.856 321.900 C 97.821 322.339,98.061 322.579,98.500 322.544 C 98.885 322.514,99.200 322.640,99.200 322.824 C 99.200 323.008,104.634 323.172,111.276 323.188 C 117.917 323.205,123.414 323.280,123.490 323.357 C 123.566 323.433,123.641 324.509,123.656 325.748 C 123.671 326.987,123.824 328.000,123.997 328.000 C 124.170 328.000,124.286 328.315,124.256 328.700 C 124.217 329.184,124.478 329.390,125.100 329.368 C 125.595 329.351,126.000 329.484,126.000 329.664 C 126.000 329.845,138.240 329.989,153.200 329.986 C 168.597 329.982,180.400 329.826,180.400 329.627 C 180.400 329.433,180.728 329.361,181.128 329.465 C 182.009 329.696,182.979 328.643,182.657 327.805 C 182.530 327.472,182.623 327.200,182.865 327.200 C 183.149 327.200,183.232 326.563,183.100 325.394 C 182.835 323.042,181.812 323.226,195.345 323.182 C 201.865 323.160,207.200 322.992,207.200 322.809 C 207.200 322.625,207.528 322.561,207.928 322.665 C 208.809 322.896,209.779 321.843,209.457 321.005 C 209.330 320.672,209.423 320.400,209.665 320.400 C 209.948 320.400,210.029 319.827,209.891 318.800 C 209.608 316.691,208.907 316.826,220.345 316.786 C 225.875 316.767,230.400 316.607,230.400 316.431 C 230.400 316.255,230.865 316.200,231.433 316.308 C 234.371 316.870,236.872 314.381,236.312 311.453 C 236.192 310.823,236.323 310.362,236.659 310.233 C 237.193 310.028,237.399 311.238,237.216 313.500 C 237.176 313.995,237.305 314.400,237.503 314.400 C 237.701 314.400,237.849 314.805,237.832 315.300 C 237.810 315.922,238.016 316.183,238.500 316.144 C 238.885 316.114,239.200 316.240,239.200 316.424 C 239.200 316.608,244.624 316.772,251.253 316.788 C 264.887 316.822,263.994 316.677,263.709 318.800 C 263.578 319.777,263.656 320.400,263.910 320.400 C 264.138 320.400,264.239 320.728,264.135 321.128 C 263.891 322.062,264.961 322.956,265.998 322.685 C 266.439 322.569,266.800 322.627,266.800 322.813 C 266.800 322.998,273.585 323.166,281.877 323.186 C 290.169 323.205,297.006 323.273,297.071 323.337 C 297.135 323.401,297.214 324.667,297.246 326.150 C 297.283 327.858,297.509 329.052,297.863 329.406 C 298.687 330.230,328.865 330.286,329.546 329.465 C 329.888 329.053,329.978 297.035,329.902 203.157 L 329.800 77.400 323.600 77.289 C 316.027 77.153,316.443 77.289,316.698 75.030 C 316.825 73.901,316.745 73.200,316.489 73.200 C 316.261 73.200,316.161 72.872,316.265 72.472 C 316.509 71.538,315.439 70.644,314.402 70.915 C 313.961 71.031,313.600 70.975,313.600 70.792 C 313.600 70.609,308.355 70.441,301.943 70.418 C 288.737 70.372,289.607 70.517,289.891 68.400 C 290.022 67.423,289.944 66.800,289.690 66.800 C 289.462 66.800,289.369 66.439,289.485 65.998 C 289.756 64.961,288.862 63.891,287.928 64.135 C 287.528 64.239,287.200 64.175,287.200 63.991 C 287.200 63.808,281.865 63.640,275.345 63.618 C 261.922 63.574,262.806 63.720,263.091 61.600 C 263.229 60.573,263.148 60.000,262.865 60.000 C 262.623 60.000,262.530 59.728,262.657 59.395 C 262.979 58.557,262.009 57.504,261.128 57.735 C 260.728 57.839,260.400 57.766,260.400 57.571 C 260.400 57.370,249.966 57.218,236.200 57.219 C 220.764 57.220,212.000 57.362,212.000 57.610 C 212.000 57.825,211.775 57.955,211.500 57.900 C 211.225 57.845,211.045 58.025,211.100 58.300 C 211.155 58.575,211.059 58.800,210.886 58.800 C 210.713 58.800,210.529 59.824,210.477 61.076 C 210.424 62.328,210.330 63.404,210.266 63.467 C 210.203 63.530,204.717 63.595,198.076 63.612 C 191.434 63.628,186.000 63.781,186.000 63.952 C 186.000 64.124,185.595 64.249,185.100 64.232 C 184.415 64.208,184.208 64.415,184.232 65.100 C 184.249 65.595,184.132 66.000,183.970 66.000 C 183.809 66.000,183.670 66.920,183.661 68.044 C 183.652 69.168,183.579 70.154,183.498 70.235 C 183.417 70.316,177.917 70.395,171.276 70.412 C 164.634 70.428,159.200 70.592,159.200 70.776 C 159.200 70.960,158.885 71.086,158.500 71.056 C 158.061 71.021,157.821 71.261,157.856 71.700 C 157.886 72.085,157.738 72.400,157.527 72.400 C 157.316 72.400,157.176 72.805,157.216 73.300 C 157.256 73.795,157.269 74.875,157.244 75.700 L 157.200 77.200 153.833 77.200 C 149.525 77.200,149.324 77.115,149.526 75.380 C 149.875 72.398,147.998 70.526,145.009 70.875 C 144.234 70.965,143.600 70.904,143.600 70.739 C 143.600 70.574,137.626 70.426,130.325 70.411 C 123.024 70.396,116.998 70.331,116.934 70.268 C 116.871 70.204,116.776 69.128,116.723 67.876 C 116.671 66.624,116.479 65.600,116.297 65.600 C 116.114 65.600,116.018 65.285,116.082 64.900 C 116.163 64.423,115.977 64.237,115.500 64.318 C 115.115 64.382,114.800 64.261,114.800 64.049 C 114.800 63.811,110.109 63.646,102.519 63.617 C 95.764 63.592,90.174 63.507,90.096 63.430 C 90.019 63.352,89.948 62.368,89.939 61.244 C 89.930 60.120,89.780 59.200,89.606 59.200 C 89.432 59.200,89.314 58.885,89.344 58.500 C 89.379 58.061,89.139 57.821,88.700 57.856 C 88.315 57.886,88.000 57.759,88.000 57.573 C 88.000 56.946,58.177 57.105,57.655 57.734 M218.177 93.000 C 218.233 93.220,218.391 93.670,218.528 94.000 C 218.665 94.330,218.865 95.120,218.972 95.755 C 219.079 96.390,219.554 97.271,220.028 97.712 C 222.256 99.788,222.193 98.830,222.286 131.809 C 222.387 167.709,222.372 167.864,218.700 169.490 L 217.200 170.154 217.200 226.877 L 217.200 283.600 210.100 283.656 C 206.195 283.687,202.325 283.671,201.500 283.622 C 200.675 283.572,200.000 283.710,200.000 283.928 C 200.000 284.146,199.672 284.239,199.272 284.135 C 198.338 283.891,197.444 284.961,197.715 285.998 C 197.831 286.439,197.738 286.800,197.510 286.800 C 197.256 286.800,197.178 287.423,197.309 288.400 C 197.594 290.520,198.478 290.374,185.055 290.418 C 178.357 290.440,173.200 290.613,173.200 290.816 C 173.200 291.013,172.928 291.070,172.595 290.943 C 171.757 290.621,170.704 291.591,170.935 292.472 C 171.039 292.872,170.946 293.200,170.727 293.200 C 170.499 293.200,170.386 294.014,170.464 295.100 L 170.600 297.000 166.900 297.115 L 163.200 297.230 163.186 240.315 L 163.171 183.400 161.492 182.600 C 157.709 180.797,157.727 181.002,158.000 142.897 L 158.200 115.000 159.200 113.245 C 159.919 111.983,160.677 111.285,161.900 110.759 C 163.444 110.096,163.856 109.500,163.633 108.258 C 163.600 108.070,163.803 107.630,164.086 107.281 C 164.369 106.932,164.405 106.763,164.167 106.906 C 163.928 107.048,163.733 106.895,163.733 106.565 C 163.733 106.230,163.968 106.056,164.267 106.170 C 164.600 106.298,164.800 106.079,164.800 105.587 C 164.800 105.071,165.071 104.800,165.587 104.800 C 166.079 104.800,166.298 104.600,166.170 104.267 C 166.056 103.968,166.230 103.733,166.565 103.733 C 166.895 103.733,167.048 103.928,166.906 104.167 C 166.730 104.461,166.831 104.457,167.223 104.155 C 168.011 103.546,168.014 103.546,176.592 103.335 C 180.768 103.232,184.278 103.025,184.392 102.874 C 184.975 102.105,186.517 101.543,186.798 101.997 C 186.990 102.308,187.163 102.184,187.307 101.635 C 187.427 101.177,187.947 100.633,188.462 100.426 C 188.978 100.220,189.175 100.039,188.900 100.025 C 188.182 99.989,188.282 99.477,189.200 98.492 C 189.640 98.020,190.000 97.446,190.000 97.217 C 190.000 96.939,193.334 96.800,200.005 96.800 C 210.445 96.800,211.687 96.617,211.300 95.137 C 211.193 94.732,211.294 94.400,211.523 94.400 C 212.063 94.400,214.400 92.063,214.400 91.523 C 214.400 91.294,214.732 91.193,215.137 91.300 C 215.595 91.419,216.068 91.183,216.384 90.677 C 216.882 89.879,217.626 90.842,218.177 93.000 M253.900 90.490 C 254.175 90.514,254.400 90.683,254.400 90.867 C 254.400 91.050,254.881 91.200,255.469 91.200 C 256.056 91.200,256.867 91.499,257.271 91.864 C 257.675 92.230,258.409 92.730,258.903 92.976 C 259.396 93.222,259.800 93.688,259.800 94.012 C 259.800 94.359,260.260 94.653,260.924 94.729 C 261.563 94.802,261.980 95.059,261.892 95.325 C 261.501 96.498,262.762 96.709,271.070 96.859 C 277.396 96.973,279.653 97.146,280.145 97.554 C 280.616 97.945,280.800 97.964,280.800 97.620 C 280.800 97.305,281.003 97.346,281.400 97.743 C 281.730 98.073,282.003 98.581,282.006 98.871 C 282.011 99.262,282.114 99.243,282.400 98.800 C 282.711 98.319,282.789 98.385,282.794 99.137 C 282.798 99.730,283.089 100.151,283.587 100.281 C 284.019 100.394,284.486 100.840,284.623 101.272 C 284.781 101.769,285.096 101.972,285.481 101.824 C 285.908 101.660,286.019 101.773,285.854 102.205 C 285.661 102.707,285.762 102.741,286.409 102.395 C 286.902 102.131,287.200 102.119,287.200 102.363 C 287.200 102.578,287.556 102.685,287.992 102.602 C 288.427 102.518,288.888 102.618,289.015 102.825 C 289.146 103.036,292.360 103.200,296.360 103.200 L 303.473 103.200 304.011 104.900 C 304.306 105.835,304.560 106.742,304.574 106.915 C 304.588 107.088,304.814 107.361,305.076 107.523 C 305.337 107.685,305.637 108.289,305.741 108.866 C 305.846 109.443,306.352 110.397,306.866 110.987 C 308.922 113.345,308.964 113.745,309.109 132.600 C 309.417 172.621,308.771 180.668,305.100 182.565 L 303.600 183.341 303.600 240.337 C 303.600 271.685,303.503 297.237,303.386 297.119 C 303.268 297.001,303.159 295.891,303.144 294.652 C 303.129 293.413,302.976 292.400,302.803 292.400 C 302.630 292.400,302.514 292.085,302.544 291.700 C 302.579 291.261,302.339 291.021,301.900 291.056 C 301.515 291.086,301.200 290.960,301.200 290.776 C 301.200 290.592,295.776 290.428,289.147 290.412 C 275.513 290.378,276.406 290.523,276.691 288.400 C 276.816 287.463,276.741 286.800,276.508 286.800 C 276.290 286.800,276.190 286.384,276.288 285.876 C 276.503 284.749,275.513 283.825,274.402 284.115 C 273.961 284.231,273.600 284.146,273.600 283.928 C 273.600 283.710,272.925 283.572,272.100 283.622 C 271.275 283.671,264.435 283.687,256.900 283.656 L 243.200 283.600 243.189 226.900 L 243.178 170.200 242.058 169.102 C 240.665 167.737,240.353 167.087,238.936 162.600 L 237.800 159.000 237.849 129.200 C 237.907 93.865,237.899 93.948,241.714 91.147 L 243.400 89.909 248.400 90.178 C 251.150 90.326,253.625 90.466,253.900 90.490 M110.400 97.217 C 110.400 97.446,110.760 98.020,111.200 98.492 C 112.118 99.477,112.218 99.989,111.500 100.025 C 111.225 100.039,111.422 100.220,111.938 100.426 C 112.453 100.633,112.973 101.177,113.093 101.635 C 113.221 102.125,113.421 102.290,113.578 102.035 C 113.866 101.569,115.991 102.329,115.997 102.900 C 115.999 103.065,120.742 103.200,126.537 103.200 L 137.073 103.200 137.523 104.700 C 137.770 105.525,137.933 106.307,137.886 106.439 C 137.839 106.570,138.014 106.935,138.276 107.251 C 138.538 107.567,138.839 108.300,138.944 108.880 C 139.049 109.460,139.500 110.300,139.946 110.746 C 142.322 113.122,142.200 111.214,142.200 146.000 C 142.200 174.915,142.139 177.928,141.530 179.216 C 140.752 180.858,139.053 182.666,137.960 183.013 C 137.218 183.248,137.200 184.616,137.200 240.227 L 137.200 297.200 133.600 297.200 L 130.000 297.200 129.937 295.300 C 129.902 294.255,129.900 293.085,129.932 292.700 C 129.964 292.315,129.813 292.000,129.595 292.000 C 129.378 292.000,129.245 291.775,129.300 291.500 C 129.355 291.225,129.175 291.045,128.900 291.100 C 128.625 291.155,128.400 291.034,128.400 290.831 C 128.400 290.615,123.237 290.444,115.919 290.417 C 109.055 290.392,103.389 290.322,103.328 290.262 C 103.268 290.201,103.176 289.128,103.123 287.876 C 103.071 286.624,102.879 285.600,102.697 285.600 C 102.514 285.600,102.418 285.285,102.482 284.900 C 102.548 284.509,102.379 284.244,102.100 284.300 C 101.825 284.355,101.600 284.222,101.600 284.005 C 101.600 283.787,101.285 283.636,100.900 283.668 C 100.515 283.700,97.905 283.698,95.100 283.663 L 90.000 283.600 90.000 230.218 L 90.000 176.836 88.672 176.587 C 87.941 176.450,87.016 175.902,86.616 175.369 C 86.215 174.836,85.709 174.400,85.491 174.400 C 84.834 174.400,83.667 172.813,83.387 171.541 C 83.220 170.781,82.740 170.178,82.063 169.879 C 80.682 169.269,80.261 168.850,79.352 167.180 C 78.234 165.128,78.176 102.574,79.290 100.539 C 80.458 98.405,82.398 97.513,86.339 97.296 C 88.243 97.192,89.875 97.037,89.967 96.953 C 90.386 96.567,110.400 96.825,110.400 97.217 " stroke="none" fill="#949494" fill-rule="evenodd"></path><path id="path2" d="M241.956 94.686 L 241.007 98.200 240.881 127.800 L 240.754 157.400 241.823 162.600 C 243.430 170.412,243.490 170.051,242.351 159.400 C 241.793 154.183,242.140 98.180,242.755 94.227 C 243.353 90.383,243.075 90.542,241.956 94.686 M251.361 91.663 C 251.166 91.979,251.344 92.056,251.924 91.904 C 252.535 91.744,252.842 91.903,253.023 92.471 C 253.160 92.905,253.371 93.163,253.490 93.043 C 253.609 92.924,254.157 93.180,254.708 93.613 C 255.930 94.575,256.400 94.608,256.400 93.733 C 256.400 93.367,256.286 93.180,256.147 93.319 C 255.735 93.732,254.353 92.799,254.654 92.312 C 254.832 92.025,254.704 91.951,254.299 92.107 C 253.935 92.246,253.573 92.106,253.446 91.775 C 253.182 91.086,251.764 91.010,251.361 91.663 M215.181 93.301 C 214.445 93.797,213.508 94.777,213.098 95.478 L 212.353 96.754 213.933 96.133 C 215.212 95.631,217.544 92.400,216.627 92.400 C 216.567 92.400,215.916 92.806,215.181 93.301 M256.800 94.721 C 256.800 95.218,257.064 95.726,257.387 95.850 C 258.510 96.281,258.677 95.793,257.741 94.808 L 256.800 93.817 256.800 94.721 M217.420 97.200 C 218.346 105.958,218.545 162.375,217.666 167.000 C 217.194 169.489,217.302 169.635,218.207 167.728 C 219.873 164.217,220.253 103.547,218.634 99.600 C 218.228 98.610,217.745 97.260,217.563 96.600 C 217.297 95.641,217.268 95.762,217.420 97.200 M89.059 97.474 C 88.662 97.871,86.018 98.827,84.464 99.135 C 83.313 99.363,82.998 99.703,82.180 101.600 L 81.232 103.800 81.216 133.606 C 81.197 168.988,81.019 167.568,85.700 169.475 C 86.525 169.812,87.194 170.292,87.186 170.543 C 87.164 171.246,89.355 175.564,89.743 175.583 C 89.931 175.592,89.959 175.285,89.804 174.900 C 89.649 174.515,89.464 173.930,89.392 173.600 C 89.320 173.270,89.227 173.000,89.185 173.000 C 89.144 173.000,89.065 172.409,89.011 171.686 C 88.888 170.041,87.647 168.696,85.163 167.516 C 82.334 166.172,82.400 166.966,82.400 134.235 C 82.400 100.526,82.322 101.349,85.600 100.390 C 87.029 99.972,89.919 97.785,89.542 97.408 C 89.427 97.294,89.210 97.323,89.059 97.474 M280.255 99.800 C 280.096 100.215,280.282 100.400,280.862 100.400 C 281.560 100.400,281.616 100.301,281.200 99.800 C 280.926 99.470,280.653 99.200,280.594 99.200 C 280.534 99.200,280.382 99.470,280.255 99.800 M137.253 109.600 C 137.232 110.150,137.480 112.220,137.805 114.200 C 138.901 120.870,138.562 175.771,137.391 181.200 C 137.029 182.880,137.899 181.277,138.694 178.800 C 139.907 175.019,139.763 116.006,138.533 112.600 C 138.055 111.280,137.581 109.840,137.479 109.400 C 137.328 108.750,137.285 108.788,137.253 109.600 M303.629 109.400 C 303.615 109.840,303.782 111.280,303.999 112.600 C 304.379 114.916,304.567 174.191,304.203 177.200 C 304.110 177.970,303.930 179.455,303.803 180.500 C 303.498 183.013,303.798 182.915,304.418 180.300 C 304.692 179.145,305.040 178.110,305.191 178.000 C 306.940 176.726,306.899 114.356,305.149 113.185 C 304.972 113.066,304.563 111.986,304.240 110.785 C 303.917 109.583,303.642 108.960,303.629 109.400 M162.341 112.300 C 160.817 116.115,160.820 116.053,160.812 146.731 C 160.803 178.072,160.780 177.614,162.548 181.600 C 163.321 183.342,163.339 182.569,162.606 179.200 C 161.833 175.648,161.798 119.578,162.565 114.500 C 163.095 110.993,163.048 110.530,162.341 112.300 " stroke="none" fill="#d4c084" fill-rule="evenodd"></path><path id="path3" d="M240.861 91.900 C 239.975 92.745,239.076 94.098,238.802 95.000 C 238.075 97.393,237.554 118.606,237.686 140.400 L 237.801 159.400 238.940 162.800 C 240.375 167.082,240.640 167.636,241.916 169.012 C 243.394 170.606,243.404 169.977,242.004 163.417 L 240.758 157.581 240.905 127.691 C 241.064 95.615,240.954 97.560,242.965 91.300 C 243.390 89.976,242.660 90.184,240.861 91.900 M252.300 91.002 C 253.015 91.332,253.600 91.776,253.600 91.989 C 253.600 92.201,253.900 92.260,254.266 92.119 C 254.699 91.953,254.835 92.020,254.654 92.312 C 254.502 92.559,254.741 92.954,255.189 93.194 C 255.635 93.433,256.000 93.518,256.000 93.383 C 256.000 93.249,256.744 93.868,257.654 94.760 C 258.563 95.651,259.463 96.284,259.654 96.167 C 259.844 96.049,260.000 96.143,260.000 96.376 C 260.000 96.609,260.540 96.800,261.200 96.800 C 261.860 96.800,262.400 96.609,262.400 96.376 C 262.400 96.143,262.201 96.076,261.957 96.226 C 261.661 96.409,261.601 96.227,261.775 95.678 C 261.991 94.999,261.843 94.834,260.918 94.728 C 260.253 94.652,259.800 94.359,259.800 94.005 C 259.800 93.678,259.260 93.153,258.600 92.838 C 257.940 92.524,257.220 92.048,257.000 91.782 C 256.630 91.333,255.173 90.963,252.200 90.563 L 251.000 90.402 252.300 91.002 M214.400 91.616 C 214.400 92.040,212.034 94.400,211.609 94.400 C 211.428 94.400,211.280 95.020,211.280 95.778 C 211.280 97.269,212.529 97.083,213.026 95.519 C 213.145 95.143,213.818 94.376,214.521 93.815 C 215.225 93.255,216.115 92.495,216.500 92.128 C 217.160 91.498,217.202 91.538,217.229 92.830 C 217.282 95.401,217.604 97.022,218.496 99.211 C 219.385 101.395,219.387 101.467,219.506 130.294 C 219.632 160.871,219.460 165.289,218.035 168.023 C 216.986 170.036,217.121 170.265,218.871 169.434 C 222.355 167.781,222.386 167.442,222.286 131.809 C 222.193 98.830,222.256 99.788,220.028 97.712 C 219.554 97.271,219.079 96.390,218.972 95.755 C 218.865 95.120,218.663 94.330,218.523 94.000 C 218.383 93.670,218.245 93.310,218.215 93.200 C 217.737 91.437,217.521 91.251,215.981 91.272 C 215.111 91.284,214.400 91.439,214.400 91.616 M81.805 98.219 C 78.383 100.022,78.600 97.609,78.600 133.800 C 78.600 170.200,78.414 168.266,82.063 169.879 C 82.740 170.178,83.220 170.781,83.387 171.541 C 83.656 172.765,84.827 174.400,85.434 174.400 C 85.621 174.400,86.140 174.826,86.588 175.346 C 87.035 175.867,87.982 176.420,88.693 176.576 L 89.984 176.860 89.388 175.433 C 89.060 174.648,88.434 173.419,87.997 172.703 C 87.560 171.986,87.202 171.105,87.201 170.743 C 87.201 170.361,86.574 169.832,85.700 169.475 C 81.019 167.568,81.197 168.988,81.216 133.606 L 81.232 103.800 82.180 101.600 C 82.998 99.703,83.313 99.363,84.464 99.135 C 86.068 98.817,88.666 97.867,89.090 97.443 C 89.820 96.714,83.357 97.401,81.805 98.219 M277.436 97.658 C 277.552 97.846,278.003 98.000,278.437 98.000 C 279.207 98.000,280.911 99.542,282.674 101.835 C 283.474 102.875,283.793 102.980,286.474 103.084 C 288.270 103.154,289.101 103.070,288.626 102.867 C 288.200 102.686,287.345 102.568,286.726 102.604 C 286.107 102.641,285.600 102.520,285.600 102.336 C 285.600 102.151,285.411 102.000,285.181 102.000 C 284.470 102.000,282.800 99.931,282.794 99.042 C 282.789 98.352,282.718 98.308,282.400 98.800 C 282.060 99.326,281.841 99.111,281.937 98.347 C 281.973 98.061,279.951 97.534,278.312 97.403 C 277.714 97.355,277.319 97.469,277.436 97.658 M110.487 99.213 C 110.437 100.993,112.661 103.120,114.573 103.120 C 115.358 103.120,116.000 102.958,116.000 102.760 C 116.000 102.562,115.640 102.400,115.200 102.400 C 114.760 102.400,114.400 102.198,114.400 101.951 C 114.400 101.623,114.251 101.625,113.849 101.959 C 113.415 102.320,113.251 102.239,113.079 101.579 C 112.958 101.118,112.482 100.642,112.021 100.521 C 111.361 100.349,111.280 100.185,111.641 99.751 C 111.975 99.349,111.977 99.200,111.649 99.200 C 111.402 99.200,111.200 98.930,111.200 98.600 C 111.200 97.434,110.521 98.018,110.487 99.213 M189.200 98.600 C 189.200 98.930,188.998 99.200,188.751 99.200 C 188.423 99.200,188.425 99.349,188.759 99.751 C 189.120 100.185,189.039 100.349,188.379 100.521 C 187.918 100.642,187.442 101.118,187.321 101.579 C 187.149 102.239,186.985 102.320,186.551 101.959 C 186.149 101.625,186.000 101.623,186.000 101.951 C 186.000 102.198,185.640 102.400,185.200 102.400 C 184.760 102.400,184.400 102.562,184.400 102.760 C 184.400 102.958,185.042 103.120,185.827 103.120 C 187.739 103.120,189.963 100.993,189.913 99.213 C 189.879 98.018,189.200 97.434,189.200 98.600 M167.241 104.147 C 166.779 104.353,166.400 104.688,166.400 104.890 C 166.400 105.381,165.358 106.400,164.856 106.400 C 164.448 106.400,163.908 107.658,163.799 108.861 C 163.763 109.258,163.951 109.440,164.270 109.318 C 164.561 109.206,164.800 108.934,164.800 108.714 C 164.800 108.494,165.061 108.414,165.380 108.537 C 165.792 108.695,165.889 108.563,165.716 108.080 C 165.582 107.706,165.603 107.517,165.762 107.659 C 166.145 108.002,167.907 106.306,167.660 105.832 C 167.555 105.630,167.759 105.575,168.114 105.712 C 168.567 105.886,168.693 105.787,168.537 105.380 C 168.414 105.061,168.494 104.800,168.714 104.800 C 168.934 104.800,169.203 104.569,169.312 104.286 C 169.545 103.678,168.456 103.605,167.241 104.147 M136.985 104.900 C 137.073 105.175,137.248 106.481,137.374 107.801 C 137.499 109.122,138.006 111.192,138.501 112.401 L 139.400 114.600 139.400 145.600 C 139.400 177.935,139.433 177.238,137.712 181.304 C 136.259 184.736,139.714 182.820,141.507 179.200 C 142.147 177.907,142.200 175.364,142.200 146.000 C 142.200 111.214,142.322 113.122,139.946 110.746 C 139.500 110.300,139.049 109.460,138.944 108.880 C 138.839 108.300,138.599 107.639,138.410 107.412 C 138.222 107.186,138.056 106.864,138.041 106.698 C 137.951 105.689,137.462 104.400,137.169 104.400 C 136.980 104.400,136.897 104.625,136.985 104.900 M303.385 104.900 C 303.473 105.175,303.651 106.508,303.780 107.861 C 304.013 110.301,304.682 112.815,305.201 113.200 C 306.890 114.453,306.903 176.658,305.214 178.000 C 304.915 178.237,303.598 182.932,303.779 183.113 C 304.274 183.607,306.741 181.484,307.549 179.869 C 308.754 177.461,309.322 160.252,309.109 132.600 C 308.964 113.745,308.922 113.345,306.866 110.987 C 306.352 110.397,305.846 109.443,305.741 108.866 C 305.637 108.289,305.337 107.685,305.076 107.523 C 304.814 107.361,304.585 107.088,304.567 106.915 C 304.463 105.911,303.863 104.400,303.569 104.400 C 303.380 104.400,303.297 104.625,303.385 104.900 M161.400 110.957 C 160.706 111.262,159.778 112.225,159.200 113.242 L 158.200 115.000 158.000 142.897 C 157.734 179.990,157.772 180.497,160.919 182.416 C 162.919 183.635,163.322 183.460,162.570 181.700 C 160.771 177.493,160.803 178.129,160.812 146.781 C 160.820 116.166,160.850 115.540,162.443 112.225 C 163.476 110.076,163.459 110.055,161.400 110.957 " stroke="none" fill="#aca884" fill-rule="evenodd"></path><path id="path4" d="M283.900 101.133 C 284.720 101.992,284.917 101.969,284.567 101.057 C 284.428 100.696,284.064 100.400,283.757 100.400 C 283.333 100.400,283.367 100.575,283.900 101.133 M164.800 105.600 C 164.800 106.547,165.053 106.604,165.829 105.829 C 166.604 105.053,166.547 104.800,165.600 104.800 C 165.067 104.800,164.800 105.067,164.800 105.600 " stroke="none" fill="#94ac84" fill-rule="evenodd"></path></g></svg>