<svg xmlns="http://www.w3.org/2000/svg" width="116.426" height="88.862" viewBox="0 0 116.426 88.862"><defs><style>.a{fill:#fff;}.b{fill:#e4aa5c;}.c{fill:none;stroke:#fff;stroke-linecap:round;stroke-linejoin:round;}</style></defs><g transform="translate(-340.23 -195.591)"><path class="a" d="M375.739,236.648a86.84,86.84,0,0,1-12.731-9A138.972,138.972,0,0,1,350.156,215.2c-1.623-1.785-3.193-3.593-4.732-5.429l-.4,22.55L344.4,255.27l-.185,5.738-.037,1.077a233.441,233.441,0,0,1,21.882-18.88C369.177,240.895,372.379,238.673,375.739,236.648Z" transform="translate(2.333 8.375)"/><path class="a" d="M423.185,234.709l-.624-22.951-.186-5.738-.056-1.629a202.737,202.737,0,0,1-21.62,24.421,98.826,98.826,0,0,1-10.955,9.02,96.154,96.154,0,0,1,11.113,6.368,163,163,0,0,1,22.781,18.432l-.049-4.971Z" transform="translate(29.25 5.198)"/><path class="b" d="M347.743,249.375l.035,0h0Z" transform="translate(4.438 31.772)"/><path class="b" d="M352.216,281.15a8.209,8.209,0,0,1-5.8-2.372,8.4,8.4,0,0,1-2.47-5.8v-.041l.03-.029c.834-.829,1.693-1.631,2.537-2.45l.037-1.077.185-5.738.624-22.951.4-22.55c-2.268-2.7-4.459-5.478-6.559-8.415l-.709-.991.013-1.118a11.575,11.575,0,0,1,7.674-10.706,9.823,9.823,0,0,1,2.24-.538,8.094,8.094,0,0,1,1.141-.089c.394-.011.773-.013,1.007,0l13.178.536L392.1,198.1c8.786.379,17.571.784,26.357.97,8.779.282,17.56.353,26.341.38h.027a8.211,8.211,0,0,1,5.785,2.372,8.394,8.394,0,0,1,2.462,5.8v.03l-.018.025c-.482.646-.993,1.273-1.481,1.914l.056,1.629.186,5.738.624,22.951.4,22.951.049,4.971.175.169.051-5.14.4-22.951.625-22.951.185-5.738.1-2.87.024-.717-.016-.843a9.442,9.442,0,0,0-.25-1.683,9.8,9.8,0,0,0-3.73-5.628,10,10,0,0,0-3.126-1.537,9.369,9.369,0,0,0-1.726-.342l-.865-.064-.717-.024c-30.6-1.107-61.2-1.955-91.8-1.918a12.127,12.127,0,0,0-7.758,2.867,11.973,11.973,0,0,0-4.061,7.189,13.067,13.067,0,0,0-.167,2.054l.014,1.435.027,2.868.056,5.738.406,22.953.624,22.951.185,5.738.1,2.868.025.717.068.918a10.459,10.459,0,0,0,4.624,7.542,10.266,10.266,0,0,0,3.293,1.4,9.5,9.5,0,0,0,1.766.25l.87.014.717-.024q18.378-.661,36.754-1.137-5.593-.241-11.185-.374C369.786,281.271,361,281.168,352.216,281.15Z" transform="translate(0 0)"/><path class="a" d="M397.057,244.352a17.533,17.533,0,0,1-17.477-16.222,99.244,99.244,0,0,0-11.388,6.07,165.18,165.18,0,0,0-25.5,19.6,7.989,7.989,0,0,0,2.313,5.714,8.17,8.17,0,0,0,5.72,2.412l.033,0h.013c8.781-.019,17.562-.122,26.344-.409,4.392-.107,8.784-.247,13.178-.455l13.178-.593,26.355-1.3,13.178-.534a5.447,5.447,0,0,0,.632-.041,2.575,2.575,0,0,0,.484-.075,3.978,3.978,0,0,0,.918-.289,4.755,4.755,0,0,0,1.556-1.085,4.574,4.574,0,0,0,1.08-1.923,242.671,242.671,0,0,0-23.231-18.836c-3.317-2.292-6.668-4.521-10.133-6.47A17.536,17.536,0,0,1,397.057,244.352Zm-14.544,6.775a9.273,9.273,0,0,1,.9-2.526,9.144,9.144,0,0,1,1.586-2.16,7.314,7.314,0,0,1,2.5-1.675h0a7.274,7.274,0,0,1,.006,3.008,9.122,9.122,0,0,1-.907,2.523,9.281,9.281,0,0,1-1.591,2.159,7.348,7.348,0,0,1-2.494,1.677A7.362,7.362,0,0,1,382.513,251.127Zm-7.963-7.1a9.336,9.336,0,0,1,1.772-2.012,9.177,9.177,0,0,1,2.273-1.421,7.283,7.283,0,0,1,2.941-.632h0a7.3,7.3,0,0,1-1.107,2.8,9.06,9.06,0,0,1-1.775,2.009,9.331,9.331,0,0,1-2.275,1.417,7.4,7.4,0,0,1-2.938.636A7.364,7.364,0,0,1,374.549,244.023Zm23.921,11.086a7.355,7.355,0,0,1-1.414,2.653,7.38,7.38,0,0,1-1.414-2.653,9.278,9.278,0,0,1-.39-2.653,9.1,9.1,0,0,1,.385-2.652,7.3,7.3,0,0,1,1.419-2.653,7.276,7.276,0,0,1,1.419,2.653,9.107,9.107,0,0,1,.385,2.652A9.278,9.278,0,0,1,398.471,255.109Zm16.17-13.415a9.053,9.053,0,0,1,2.182,1.557,9.253,9.253,0,0,1,1.645,2.117,7.337,7.337,0,0,1,.937,2.855,7.338,7.338,0,0,1-2.894-.814,9.238,9.238,0,0,1-2.184-1.554,9.08,9.08,0,0,1-1.65-2.112,7.306,7.306,0,0,1-.934-2.86A7.3,7.3,0,0,1,414.641,241.694Zm-4.74,13.276a7.342,7.342,0,0,1-2.388-1.826,9.27,9.27,0,0,1-1.456-2.253,9.1,9.1,0,0,1-.749-2.572,7.278,7.278,0,0,1,.189-3,7.275,7.275,0,0,1,2.392,1.826,9.084,9.084,0,0,1,1.451,2.253,9.252,9.252,0,0,1,.746,2.575A7.337,7.337,0,0,1,409.9,254.971Z" transform="translate(1.455 19.222)"/><path class="b" d="M451.1,252.764c-.816-.816-1.662-1.584-2.491-2.383l-.175-.169a163,163,0,0,0-22.781-18.432,96.154,96.154,0,0,0-11.113-6.368c-.981.687-1.966,1.368-2.989,2.009.018.331.049.657.049.991a17.525,17.525,0,0,1-.291,3.105c3.465,1.949,6.816,4.177,10.133,6.47a242.673,242.673,0,0,1,23.231,18.836,4.574,4.574,0,0,1-1.08,1.923,4.755,4.755,0,0,1-1.556,1.085,3.978,3.978,0,0,1-.918.289,2.575,2.575,0,0,1-.484.075,5.447,5.447,0,0,1-.632.041l-13.178.534-26.355,1.3-13.178.593c-4.394.208-8.786.348-13.178.455-8.782.286-17.563.39-26.344.409h-.011c8.784.018,17.57.121,26.355.409q5.593.134,11.185.374c.665.029,1.328.049,1.993.08l13.178.595,26.355,1.3,13.178.534c.232.013.616.008,1.013-.006a8.262,8.262,0,0,0,1.153-.1,10.6,10.6,0,0,0,2.259-.552,11.683,11.683,0,0,0,7.753-10.806l.018-1.5Z" transform="translate(4.451 17.617)"/><path class="b" d="M345.081,260.378a7.99,7.99,0,0,1-2.313-5.714,165.18,165.18,0,0,1,25.5-19.6,99.244,99.244,0,0,1,11.388-6.07c-.018-.235-.027-.472-.035-.709-.226-.115-.457-.221-.679-.337-.767-.406-1.5-.853-2.248-1.282-3.36,2.025-6.562,4.247-9.676,6.557a233.441,233.441,0,0,0-21.882,18.88c-.845.819-1.7,1.621-2.537,2.45l-.03.029v.041a8.4,8.4,0,0,0,2.47,5.8,8.209,8.209,0,0,0,5.8,2.372l-.035,0A8.171,8.171,0,0,1,345.081,260.378Z" transform="translate(1.38 18.357)"/><path class="a" d="M389.325,199.367l-26.355,1.274-13.178.536a4.838,4.838,0,0,0-.639.053,2.559,2.559,0,0,0-.493.086,4.709,4.709,0,0,0-.937.3,4.84,4.84,0,0,0-1.6,1.106,4.69,4.69,0,0,0-1.206,2.319,211.094,211.094,0,0,0,22.6,23.794A99.477,99.477,0,0,0,379.491,238a17.538,17.538,0,0,1,33.035,1.5,86.375,86.375,0,0,0,13.163-8.65,152.616,152.616,0,0,0,24.424-24.69,7.99,7.99,0,0,0-2.321-5.727,8.167,8.167,0,0,0-5.755-2.413c-8.786.025-17.571.1-26.355.379C406.9,198.584,398.11,198.988,389.325,199.367Zm-11.165,30.34a9.316,9.316,0,0,1-2.186-1.553,9.125,9.125,0,0,1-1.648-2.114,7.282,7.282,0,0,1-.934-2.86h0a7.3,7.3,0,0,1,2.9.811,9.13,9.13,0,0,1,2.182,1.557,9.288,9.288,0,0,1,1.645,2.117,7.337,7.337,0,0,1,.937,2.855A7.337,7.337,0,0,1,378.159,229.707Zm9.14-3.619a7.385,7.385,0,0,1-2.388-1.826,9.3,9.3,0,0,1-1.456-2.252,9.15,9.15,0,0,1-.751-2.574,7.3,7.3,0,0,1,.191-3h0a7.294,7.294,0,0,1,2.392,1.825,9.138,9.138,0,0,1,1.451,2.254,9.329,9.329,0,0,1,.746,2.575A7.4,7.4,0,0,1,387.3,226.088Zm9.855-4.486a7.362,7.362,0,0,1-1.414,2.652,7.387,7.387,0,0,1-1.414-2.652,9.278,9.278,0,0,1-.39-2.653,9.108,9.108,0,0,1,.385-2.653,7.305,7.305,0,0,1,1.419-2.652,7.282,7.282,0,0,1,1.419,2.652,9.11,9.11,0,0,1,.385,2.653A9.278,9.278,0,0,1,397.154,221.6Zm13.135-1.322a9.069,9.069,0,0,1-.907,2.523,9.279,9.279,0,0,1-1.591,2.159,7.347,7.347,0,0,1-2.494,1.677h0a7.363,7.363,0,0,1,0-3,9.249,9.249,0,0,1,.9-2.525,9.121,9.121,0,0,1,1.586-2.162,7.314,7.314,0,0,1,2.5-1.675A7.275,7.275,0,0,1,410.289,220.28Zm9.069,4.308a7.28,7.28,0,0,1-1.107,2.8,9.106,9.106,0,0,1-1.775,2.009,9.261,9.261,0,0,1-2.276,1.417,7.363,7.363,0,0,1-2.938.636h0a7.347,7.347,0,0,1,1.11-2.793,9.22,9.22,0,0,1,1.772-2.012,9.106,9.106,0,0,1,2.273-1.422,7.307,7.307,0,0,1,2.94-.632Z" transform="translate(2.771 1.434)"/><path class="a" d="M405.989,198.019h0Z" transform="translate(38.831 1.433)"/><path class="b" d="M365.245,235.766a86.84,86.84,0,0,0,12.731,9c.746.43,1.481.876,2.248,1.282.223.116.453.223.679.337-.008-.205-.032-.406-.032-.612a17.471,17.471,0,0,1,1.295-6.6,99.477,99.477,0,0,1-11.967-9.159,211.094,211.094,0,0,1-22.6-23.794A4.69,4.69,0,0,1,348.8,203.9a4.84,4.84,0,0,1,1.6-1.106,4.709,4.709,0,0,1,.937-.3,2.559,2.559,0,0,1,.493-.086,4.838,4.838,0,0,1,.639-.053l13.178-.536L392,200.545c8.786-.379,17.571-.783,26.357-.97,8.784-.28,17.57-.353,26.355-.379H444.7c-8.781-.027-17.562-.1-26.341-.38-8.786-.186-17.571-.592-26.357-.97l-26.355-1.274-13.178-.536c-.234-.016-.612-.014-1.007,0a8.094,8.094,0,0,0-1.141.089,9.823,9.823,0,0,0-2.24.538,11.575,11.575,0,0,0-7.674,10.706l-.013,1.118.709.991c2.1,2.936,4.29,5.711,6.559,8.415,1.54,1.836,3.11,3.644,4.732,5.429A138.972,138.972,0,0,0,365.245,235.766Z" transform="translate(0.096 0.255)"/><path class="b" d="M423.694,208.156c.488-.641,1-1.268,1.481-1.914l.018-.025v-.03a8.394,8.394,0,0,0-2.462-5.8,8.211,8.211,0,0,0-5.785-2.372h-.013a8.167,8.167,0,0,1,5.755,2.413,7.99,7.99,0,0,1,2.321,5.727,152.616,152.616,0,0,1-24.424,24.69,86.375,86.375,0,0,1-13.163,8.65,17.507,17.507,0,0,1,.709,4.107c1.023-.641,2.008-1.322,2.989-2.009a98.826,98.826,0,0,0,10.955-9.02A202.737,202.737,0,0,0,423.694,208.156Z" transform="translate(27.877 1.433)"/><path class="b" d="M400.169,228.716a17.546,17.546,0,0,0-34.33,5.1c0,.207.024.407.032.612.008.237.017.474.035.709a17.539,17.539,0,0,0,35.022-1.322c0-.334-.032-.66-.049-.991A17.507,17.507,0,0,0,400.169,228.716Zm-18.033,14.832-1.545-1.422a65.84,65.84,0,0,1-4.659-4.715c-.737-.834-1.459-1.685-2.141-2.585a28.66,28.66,0,0,1-1.963-2.8,28.212,28.212,0,0,1,3.11,1.419c1.01.506,1.977,1.061,2.933,1.632,1.263.762,2.478,1.583,3.675,2.426a72.924,72.924,0,0,1,5.38-6.307,46.455,46.455,0,0,1,8.013-6.8,46.521,46.521,0,0,1-4.952,9.266,76.3,76.3,0,0,1-6.33,8.154Z" transform="translate(15.128 12.216)"/><path class="b" d="M377.538,240.087a7.3,7.3,0,0,0-1.419,2.653,9.1,9.1,0,0,0-.385,2.652,9.278,9.278,0,0,0,.39,2.653,7.38,7.38,0,0,0,1.414,2.653,7.355,7.355,0,0,0,1.414-2.653,9.278,9.278,0,0,0,.39-2.653,9.107,9.107,0,0,0-.385-2.652A7.276,7.276,0,0,0,377.538,240.087Z" transform="translate(20.974 26.285)"/><path class="b" d="M377.538,207.841a7.305,7.305,0,0,0-1.419,2.652,9.108,9.108,0,0,0-.385,2.653,9.278,9.278,0,0,0,.39,2.653,7.387,7.387,0,0,0,1.414,2.652,7.362,7.362,0,0,0,1.414-2.652,9.278,9.278,0,0,0,.39-2.653,9.11,9.11,0,0,0-.385-2.653A7.282,7.282,0,0,0,377.538,207.841Z" transform="translate(20.974 7.236)"/><line class="c" transform="translate(388.954 263.988)"/><path class="b" d="M370.278,246.278a9.281,9.281,0,0,0,1.591-2.159,9.122,9.122,0,0,0,.907-2.523,7.274,7.274,0,0,0-.006-3.008h0a7.314,7.314,0,0,0-2.5,1.675,9.144,9.144,0,0,0-1.586,2.16,9.273,9.273,0,0,0-.9,2.526,7.362,7.362,0,0,0,0,3A7.348,7.348,0,0,0,370.278,246.278Z" transform="translate(16.185 25.4)"/><line class="c" transform="translate(408.069 228.073)"/><path class="b" d="M385.42,211.8a9.121,9.121,0,0,0-1.586,2.162,9.249,9.249,0,0,0-.9,2.525,7.363,7.363,0,0,0,0,3h0a7.347,7.347,0,0,0,2.494-1.677,9.279,9.279,0,0,0,1.591-2.159,9.069,9.069,0,0,0,.907-2.523,7.275,7.275,0,0,0-.006-3.008A7.314,7.314,0,0,0,385.42,211.8Z" transform="translate(25.134 8.584)"/><line class="c" transform="translate(382.991 259.18)"/><path class="b" d="M367.235,240.372a9.06,9.06,0,0,0,1.775-2.009,7.3,7.3,0,0,0,1.107-2.8h0a7.283,7.283,0,0,0-2.941.632,9.177,9.177,0,0,0-2.273,1.421,9.336,9.336,0,0,0-1.772,2.012,7.364,7.364,0,0,0-1.109,2.795,7.4,7.4,0,0,0,2.938-.636A9.331,9.331,0,0,0,367.235,240.372Z" transform="translate(12.873 23.615)"/><line class="c" transform="translate(414.032 232.88)"/><line class="c" transform="translate(422.128 226.021)"/><path class="b" d="M389.507,216.775a9.22,9.22,0,0,0-1.772,2.012,7.347,7.347,0,0,0-1.11,2.793h0a7.363,7.363,0,0,0,2.938-.636,9.261,9.261,0,0,0,2.276-1.417,9.106,9.106,0,0,0,1.775-2.009,7.28,7.28,0,0,0,1.107-2.8h0a7.307,7.307,0,0,0-2.94.632A9.106,9.106,0,0,0,389.507,216.775Z" transform="translate(27.407 11.301)"/><path class="b" d="M388.684,241.12a9.238,9.238,0,0,0,2.184,1.554,7.338,7.338,0,0,0,2.894.814,7.337,7.337,0,0,0-.937-2.855,9.253,9.253,0,0,0-1.645-2.117A9.053,9.053,0,0,0,389,236.958a7.3,7.3,0,0,0-2.9-.811,7.306,7.306,0,0,0,.934,2.86A9.08,9.08,0,0,0,388.684,241.12Z" transform="translate(27.098 23.958)"/><line class="c" transform="translate(376.163 224.614)"/><path class="b" d="M367.9,216.2a9.13,9.13,0,0,0-2.182-1.557,7.3,7.3,0,0,0-2.9-.811h0a7.282,7.282,0,0,0,.934,2.86,9.125,9.125,0,0,0,1.648,2.114,9.316,9.316,0,0,0,2.186,1.553,7.337,7.337,0,0,0,2.894.814,7.337,7.337,0,0,0-.937-2.855A9.288,9.288,0,0,0,367.9,216.2Z" transform="translate(13.344 10.778)"/><path class="b" d="M384.664,240.76a7.275,7.275,0,0,0-2.392-1.826,7.278,7.278,0,0,0-.189,3,9.1,9.1,0,0,0,.749,2.572,9.27,9.27,0,0,0,1.456,2.253,7.342,7.342,0,0,0,2.388,1.826,7.337,7.337,0,0,0,.186-3,9.252,9.252,0,0,0-.746-2.575A9.084,9.084,0,0,0,384.664,240.76Z" transform="translate(24.68 25.604)"/><line class="c" transform="translate(385.668 217.867)"/><path class="b" d="M372.735,213.674a9.138,9.138,0,0,0-1.451-2.254,7.294,7.294,0,0,0-2.392-1.825h0a7.3,7.3,0,0,0-.191,3,9.15,9.15,0,0,0,.751,2.574,9.3,9.3,0,0,0,1.456,2.252,7.385,7.385,0,0,0,2.388,1.826,7.4,7.4,0,0,0,.186-3A9.329,9.329,0,0,0,372.735,213.674Z" transform="translate(16.776 8.273)"/></g></svg>