<svg xmlns="http://www.w3.org/2000/svg" viewBox="0 0 11 11"><defs><style>.a{fill:#fff;stroke:#1dcb9a;}.b{fill:#1dcb9a;}.c{stroke:none;}.d{fill:none;}</style></defs><g transform="translate(-467 -100)"><g class="a" transform="translate(467 100)"><circle class="c" cx="5.5" cy="5.5" r="5.5"/><circle class="d" cx="5.5" cy="5.5" r="5"/></g><path class="b" d="M1.574-.569H.656V-4.32h.918ZM.6-5.465a.508.508,0,0,1,.135-.379.525.525,0,0,1,.385-.133.514.514,0,0,1,.377.133.508.508,0,0,1,.135.379A.5.5,0,0,1,1.5-5.1a.51.51,0,0,1-.377.135A.521.521,0,0,1,.736-5.1.5.5,0,0,1,.6-5.465Z" transform="translate(471.398 108.977)"/></g></svg>