<svg xmlns="http://www.w3.org/2000/svg" width="31.611" height="29.126" viewBox="0 0 31.611 29.126"><g transform="translate(-451.427 -689.374)"><g transform="matrix(0.809, 0.588, -0.588, 0.809, 461.783, 689.374)"><path d="M12.431.11S23.419-1.568,25.8,8.177,21.108,13.641,13.637,13.2-1.1,19.024.14,10.2,12.431.11,12.431.11Z" transform="translate(0 0)" fill="#1dcb9a"/></g><g transform="translate(451.427 699.425)"><g transform="translate(0 0)"><path d="M22.84,61H2.2A2.2,2.2,0,0,0,0,63.2V77.874a2.2,2.2,0,0,0,2.2,2.2H22.84a2.2,2.2,0,0,0,2.2-2.2V63.2A2.2,2.2,0,0,0,22.84,61Zm-.3,1.467-9.969,9.969L2.512,62.467ZM1.467,77.57V63.5L8.534,70.5ZM2.5,78.607l7.071-7.071,2.478,2.456a.734.734,0,0,0,1.035,0L15.5,71.575l7.032,7.033ZM23.574,77.57l-7.032-7.033L23.574,63.5Z" transform="translate(0 -61)"/></g></g></g></svg>