<svg xmlns="http://www.w3.org/2000/svg" width="20" height="20" viewBox="0 0 20 20"><g transform="translate(14.239 19.219)"><path d="M364.907,492h0a.391.391,0,0,0,0,.781h0a.391.391,0,0,0,0-.781Z" transform="translate(-364.512 -492)" fill="#175d7a"/></g><path d="M19.885,6.6,17.109,3.841V1.563A1.564,1.564,0,0,0,15.547,0H4.453A1.564,1.564,0,0,0,2.891,1.563V3.821L.114,6.6A.391.391,0,0,0,0,6.873V16.895A3.109,3.109,0,0,0,3.105,20h9.783a.391.391,0,0,0,0-.781H3.105a2.31,2.31,0,0,1-1.244-.362l.732-.732h6a.391.391,0,0,0,0-.781H3.375l4.66-4.66a2.782,2.782,0,0,1,3.93,0l6.173,6.173a2.309,2.309,0,0,1-1.244.362h-.527a.391.391,0,0,0,0,.781h.527a3.093,3.093,0,0,0,2.072-.795.393.393,0,0,0,.039-.034l.015-.016A3.1,3.1,0,0,0,20,16.895V6.873A.391.391,0,0,0,19.885,6.6ZM17.109,4.942l1.947,1.933L17.109,8.821ZM2.891,4.926v3.9L.943,6.873ZM1.281,18.332a2.312,2.312,0,0,1-.5-1.438V7.817l5.508,5.508Zm11.236-6.2a3.565,3.565,0,0,0-5.035,0l-.641.641L3.672,9.6V1.563A.782.782,0,0,1,4.453.781H15.547a.782.782,0,0,1,.781.781V9.6l-3.17,3.17Zm6.7,4.764a2.312,2.312,0,0,1-.5,1.438l-5.008-5.008,5.508-5.508Z" fill="#175d7a"/><g transform="translate(5.919 3.594)"><path d="M155.844,92H151.92a.391.391,0,0,0,0,.781h3.925a.391.391,0,0,0,0-.781Z" transform="translate(-151.529 -92)" fill="#175d7a"/></g><g transform="translate(11.654 3.594)"><path d="M299,92.114a.391.391,0,1,0,.114.276A.4.4,0,0,0,299,92.114Z" transform="translate(-298.33 -92)" fill="#175d7a"/></g><g transform="translate(5.919 6.406)"><path d="M159.3,164H151.92a.391.391,0,0,0,0,.781H159.3a.391.391,0,0,0,0-.781Z" transform="translate(-151.529 -164)" fill="#175d7a"/></g><g transform="translate(5.919 9.219)"><path d="M159.3,236H151.92a.391.391,0,0,0,0,.781H159.3a.391.391,0,1,0,0-.781Z" transform="translate(-151.529 -236)" fill="#175d7a"/></g></svg>