<svg xmlns="http://www.w3.org/2000/svg" width="17.119" height="16.428" viewBox="0 0 17.119 16.428"><g transform="translate(-686.932 -285.697)"><path d="M720.383,358.591l.582-.251,1.369-3.233-2.19.431Z" transform="translate(-27.676 -58.215)" fill="none"/><path d="M695.531,302.83l.8,1.979,4.056-.856,1.872-.395h0l7.32-1.543-3.049-7.579Zm11.719-1.1a.664.664,0,0,1-.267.056.708.708,0,0,1-.654-.47l-1.494-3.912a.776.776,0,0,1,.386-.986.691.691,0,0,1,.921.414l1.494,3.912A.776.776,0,0,1,707.25,301.727Z" transform="translate(-7.07 -7.185)" fill="none"/><path d="M703.939,293.757l-3.157-7.248a1.346,1.346,0,0,0-.881-.761,1.362,1.362,0,0,0-1.151.2l-11.25,7.932a1.34,1.34,0,0,0-.458,1.623l.852,1.956a1.366,1.366,0,0,0,1.249.81,1.349,1.349,0,0,0,.258-.025l1.7-.331.264,3.342a.945.945,0,0,0,.458.735.966.966,0,0,0,.872.059l1.333-.568a.945.945,0,0,0,.5-.5l1.717-4.009c.009-.022.015-.044.023-.066l6.686-1.3a1.348,1.348,0,0,0,.938-.691A1.323,1.323,0,0,0,703.939,293.757Zm-10.651,6.5-.55.234-.225-2.853,2.069-.4Zm1.895-4.58h0l-1.895.369-4.105.8L688.377,295l11.128-7.846,3.086,7.084Z" fill="#b0b5c3"/><path d="M751.717,305.3a.757.757,0,0,0-.414.986l1.6,3.912a.756.756,0,0,0,1.4-.573l-1.6-3.912A.756.756,0,0,0,751.717,305.3Z" transform="translate(-53.638 -16.402)" fill="#828793"/></g></svg>