<svg xmlns="http://www.w3.org/2000/svg" width="17.309" height="13.067" viewBox="0 0 17.309 13.067"><path d="M735.786,517.072l-.013,0-.04-.01a.8.8,0,0,0-.15-.023l-.022,0-.022,0h-.014c-.039,0-.077-.006-.117-.006H733.84l-12.442-.044h0a.9.9,0,0,0-.41.1,1.651,1.651,0,0,0-1.236,1.595V528.4a1.651,1.651,0,0,0,1.649,1.649h14.011a1.651,1.651,0,0,0,1.649-1.649v-9.725A1.651,1.651,0,0,0,735.786,517.072Zm-14.636,1.856,4.91,3.964-4.91,4.913Zm6.109,4.931a1.851,1.851,0,0,0,2.371-.019l.079-.066,4.739,4.792H722.37l4.786-4.789Zm6.675-5.43-5.2,4.334a.447.447,0,0,1-.593.006l-5.424-4.379Zm-3.144,4.444,4.866-4.054v8.975Z" transform="translate(-719.748 -516.983)" fill="#b0b5c3"/></svg>