<svg xmlns="http://www.w3.org/2000/svg" width="14" height="22.749" viewBox="0 0 14 22.749"><g transform="translate(0 0)"><path d="M35.133,17.249A4.067,4.067,0,0,0,39.2,13.187V4.062a4.062,4.062,0,0,0-8.125,0v9.125A4.067,4.067,0,0,0,35.133,17.249Z" transform="translate(-28.133)" fill="#959595"/><path d="M32.117,45.715h-.809a.471.471,0,0,0-.471.471V47.84a5.25,5.25,0,0,1-10.5,0V46.186a.471.471,0,0,0-.471-.471h-.809a.471.471,0,0,0-.471.471V47.84a7.1,7.1,0,0,0,6.125,6.944v1.172H21.1a.471.471,0,0,0-.471.471v.809a.471.471,0,0,0,.471.471h8.975a.471.471,0,0,0,.471-.471v-.809a.471.471,0,0,0-.471-.471H26.463V54.784a7.1,7.1,0,0,0,6.125-6.944V46.186A.47.47,0,0,0,32.117,45.715Z" transform="translate(-18.588 -34.957)" fill="#959595"/></g></svg>