<svg xmlns="http://www.w3.org/2000/svg" width="23" height="20.211" viewBox="0 0 23 20.211"><g transform="translate(0 -5.78)"><g transform="translate(0 5.78)"><path d="M22.421,5.78H.579A.58.58,0,0,0,0,6.359v15.3a.58.58,0,0,0,.579.579H22.421A.58.58,0,0,0,23,21.663V6.359A.579.579,0,0,0,22.421,5.78ZM21.263,20.505H1.737V7.517H21.263V20.505Z" transform="translate(0 -5.78)" fill="#959595"/><path d="M37.752,77.505H36.594V76.443a.29.29,0,0,0-.29-.289H30.8a.289.289,0,0,0-.29.289v1.062H29.355a.289.289,0,0,0-.29.289v1.3a.29.29,0,0,0,.29.289h8.4a.289.289,0,0,0,.289-.289v-1.3A.289.289,0,0,0,37.752,77.505Z" transform="translate(-22.054 -59.176)" fill="#959595"/><path d="M13.785,19.077a.483.483,0,0,0-.482.482v4.022l4.5-4.5Z" transform="translate(-10.094 -15.869)" fill="#959595"/></g></g></svg>