<svg xmlns="http://www.w3.org/2000/svg" viewBox="0 0 12.553 12.553"><defs><style>.a{fill:#707070;}</style></defs><path class="a" d="M12.52,6.117l-.09-.136L10.757,4.307a.418.418,0,1,0-.592.592l.959.959H6.695V1.429l.959.959A.418.418,0,0,0,8.246,1.8L6.572.122l0,0L6.436.033,6.276,0h0L6.117.033,5.985.12l-.005,0L4.306,1.8a.418.418,0,1,0,.592.592l.96-.959V5.858H1.429L2.388,4.9A.418.418,0,0,0,1.8,4.307L.122,5.981l0,0-.087.131L0,6.276v0l.033.158.087.131,0,.005L1.8,8.246a.418.418,0,1,0,.592-.592l-.959-.959H5.858v4.429L4.9,10.165a.418.418,0,0,0-.592.592l1.674,1.674.136.09.158.032h0l.16-.033.136-.09,1.674-1.674a.418.418,0,0,0-.592-.592l-.959.959V6.695h4.429l-.959.959a.418.418,0,0,0,.592.592l1.674-1.674.09-.136.032-.158v0Z"/></svg>