<svg xmlns="http://www.w3.org/2000/svg" width="80" height="69.17" viewBox="0 0 80 69.17"><path d="M72.939,0H7.061A7.033,7.033,0,0,0,0,6.956V52.89a7.09,7.09,0,0,0,7.061,7.023H27.773v5.764H19.658a1.747,1.747,0,1,0,0,3.493H60.252a1.747,1.747,0,0,0,0-3.493H52.227V59.913H72.939A7.09,7.09,0,0,0,80,52.89V6.956A7.033,7.033,0,0,0,72.939,0ZM48.734,65.677H31.266V59.913H48.734Zm27.6-12.751a3.493,3.493,0,0,1-3.493,3.493H6.987a3.493,3.493,0,0,1-3.493-3.493V6.987A3.493,3.493,0,0,1,6.987,3.493H72.838a3.493,3.493,0,0,1,3.493,3.493Zm0,0" fill="#175d7a"/><path d="M103.852,41.747A1.747,1.747,0,0,0,102.1,40H39.747A1.747,1.747,0,0,0,38,41.747V84.192a1.747,1.747,0,0,0,1.747,1.747H102.1a1.747,1.747,0,0,0,1.747-1.747Zm-3.493,40.7H41.493V43.493h58.865Zm0,0" transform="translate(-31.362 -33.013)" fill="#487d94"/><path d="M145.888,131.57a1.787,1.787,0,0,0,1.757.018l3.4-1.941a4.163,4.163,0,0,0,4.076,3.169H170.1a4.17,4.17,0,0,0,4.245-4.1V119.1A4.171,4.171,0,0,0,170.1,115H155.12a4.156,4.156,0,0,0-4.08,3.2l-3.389-1.915a1.8,1.8,0,0,0-1.764.008,1.756,1.756,0,0,0-.891,1.5v12.273A1.774,1.774,0,0,0,145.888,131.57Zm24.96-2.768a.7.7,0,0,1-.7.7H155.124a.7.7,0,0,1-.7-.7v-9.614a.7.7,0,0,1,.7-.7h15.029a.7.7,0,0,1,.7.7Zm-22.358-8.034,2.445,1.333v3.65l-2.445,1.335Zm0,0" transform="translate(-119.669 -94.912)" fill="#1dcb9a"/></svg>