<svg xmlns="http://www.w3.org/2000/svg" width="90.69" height="90.69" viewBox="0 0 90.69 90.69"><g transform="translate(-0.002 0)"><g transform="translate(0.002 0)"><path d="M290.294,204.511a1.513,1.513,0,0,0,2.034.661c.089-.045,8.986-4.565,13.374-5.951a1.512,1.512,0,0,0-.913-2.884c-4.622,1.462-13.458,5.951-13.833,6.141A1.512,1.512,0,0,0,290.294,204.511Z" transform="translate(-238.74 -161.502)" fill="#175d7a"/><path d="M291.644,102.937a1.509,1.509,0,0,0,.685-.165c.089-.045,8.986-4.565,13.374-5.951a1.512,1.512,0,0,0-.913-2.884c-4.622,1.462-13.458,5.951-13.833,6.141a1.511,1.511,0,0,0,.688,2.858Z" transform="translate(-238.74 -77.241)" fill="#175d7a"/><path d="M89.18,22.673a1.511,1.511,0,0,0-1.511,1.511V83.133a4.54,4.54,0,0,1-4.534,4.534H46.858V84.189a44.543,44.543,0,0,1,13.6-2.568,77.963,77.963,0,0,1,22.2,2.946,1.511,1.511,0,0,0,1.988-1.435V16.627a1.509,1.509,0,0,0-1.184-1.475s-1.185-.264-3.21-.636a1.512,1.512,0,0,0-.547,2.973c.772.142,1.419.267,1.918.367V81.124A85.361,85.361,0,0,0,60.462,78.6a47.485,47.485,0,0,0-15.056,2.9,35.409,35.409,0,0,0-13.662-2.9A101.857,101.857,0,0,0,9.071,81.188V17.8a99.491,99.491,0,0,1,22.672-2.681,32.771,32.771,0,0,1,12.092,2.491v59.48a1.511,1.511,0,0,0,2.29,1.3c.15-.089,15.126-9.034,28.418-13.464a1.512,1.512,0,0,0,1.034-1.434V1.512A1.514,1.514,0,0,0,73.533.1,160.788,160.788,0,0,0,49.08,12.322a1.512,1.512,0,1,0,1.6,2.564A161.552,161.552,0,0,1,72.553,3.722V62.4c-10.318,3.585-21.09,9.439-25.7,12.06V16.627a1.513,1.513,0,0,0-.836-1.353,35,35,0,0,0-14.279-3.182,98.1,98.1,0,0,0-24.6,3.082,1.511,1.511,0,0,0-1.1,1.453V83.133a1.511,1.511,0,0,0,1.512,1.512,1.489,1.489,0,0,0,.414-.059,97.1,97.1,0,0,1,23.77-2.964,32.7,32.7,0,0,1,12.092,2.492v3.554H7.559a4.54,4.54,0,0,1-4.534-4.534V24.185a1.511,1.511,0,1,0-3.023,0V83.133A7.566,7.566,0,0,0,7.56,90.69H83.134a7.566,7.566,0,0,0,7.558-7.558V24.185A1.511,1.511,0,0,0,89.18,22.673Z" transform="translate(-0.002 0)" fill="#175d7a"/><path d="M290.294,153.311a1.513,1.513,0,0,0,2.034.66c.089-.045,8.986-4.565,13.374-5.951a1.512,1.512,0,0,0-.913-2.884c-4.622,1.462-13.458,5.951-13.833,6.141A1.512,1.512,0,0,0,290.294,153.311Z" transform="translate(-238.74 -119.371)" fill="#175d7a"/><path d="M290.294,255.711a1.513,1.513,0,0,0,2.034.661c.089-.045,8.986-4.565,13.374-5.951a1.512,1.512,0,0,0-.913-2.884c-4.622,1.462-13.458,5.951-13.833,6.141A1.512,1.512,0,0,0,290.294,255.711Z" transform="translate(-238.74 -203.633)" fill="#175d7a"/><path d="M106.839,154.481c-9.333-2.19-19.94.6-20.385.72a1.512,1.512,0,0,0,.39,2.971,1.538,1.538,0,0,0,.393-.051c.1-.029,10.313-2.715,18.913-.7a1.511,1.511,0,1,0,.689-2.943Z" transform="translate(-70.219 -126.43)" fill="#175d7a"/><path d="M106.839,205.684c-9.333-2.189-19.94.6-20.385.719a1.512,1.512,0,0,0,.39,2.971,1.537,1.537,0,0,0,.393-.051c.1-.029,10.313-2.715,18.913-.7a1.511,1.511,0,1,0,.689-2.943Z" transform="translate(-70.219 -168.564)" fill="#175d7a"/><path d="M290.294,306.911a1.513,1.513,0,0,0,2.034.66c.089-.045,8.986-4.565,13.374-5.951a1.512,1.512,0,0,0-.913-2.884c-4.622,1.462-13.458,5.951-13.833,6.141A1.512,1.512,0,0,0,290.294,306.911Z" transform="translate(-238.74 -245.764)" fill="#175d7a"/><path d="M106.839,256.883c-9.333-2.189-19.94.6-20.385.72a1.512,1.512,0,0,0,.39,2.973,1.531,1.531,0,0,0,.393-.053c.1-.029,10.313-2.715,18.913-.7a1.511,1.511,0,1,0,.689-2.943Z" transform="translate(-70.219 -210.694)" fill="#175d7a"/><path d="M106.839,359.281c-9.333-2.19-19.94.6-20.385.72a1.512,1.512,0,0,0,.39,2.973,1.532,1.532,0,0,0,.393-.053c.1-.029,10.313-2.715,18.913-.7a1.511,1.511,0,1,0,.689-2.943Z" transform="translate(-70.219 -294.954)" fill="#175d7a"/><path d="M106.839,308.08c-9.333-2.19-19.94.6-20.385.719a1.512,1.512,0,0,0,.39,2.973,1.532,1.532,0,0,0,.393-.053c.1-.029,10.313-2.715,18.913-.7a1.511,1.511,0,1,0,.689-2.943Z" transform="translate(-70.219 -252.822)" fill="#175d7a"/></g></g></svg>