<svg xmlns="http://www.w3.org/2000/svg" width="20" height="20" viewBox="0 0 20 20"><g transform="translate(-15 -138)"><rect width="20" height="20" rx="2" transform="translate(15 138)" fill="none"/><g transform="translate(-17.842 -532.848)"><g transform="translate(36.532 675.419)"><path d="M62.644,694.647a1.327,1.327,0,0,0-1.115-1.041l-.265-1.857a1.189,1.189,0,0,0-1.111-1.1H54.77a1.189,1.189,0,0,0-1.111,1.1l-.265,1.857a1.327,1.327,0,0,0-1.115,1.041l-1.325,6.42H63.969Zm-9.027.321h7.688l.975,4.723H52.643Zm6.3-2.94.223,1.564H54.785l.224-1.564Z" transform="translate(-50.954 -690.652)" fill="#828793"/></g><g transform="translate(33.748 672.479)"><path d="M57.865,734.829h-4.8a3.084,3.084,0,0,1-6.013,0h-4.8v4.723H57.865Z" transform="translate(-40.876 -724.741)" fill="#fff"/><path d="M51.814,681.5a1.169,1.169,0,0,0-.112-.629L48.009,673.3a1.473,1.473,0,0,0-1.316-.822H39.381a1.456,1.456,0,0,0-1.31.809l-3.9,7.8a1.023,1.023,0,0,0-.106.412,1.06,1.06,0,0,0-.318.757V687.5a1.17,1.17,0,0,0,1.169,1.168H50.945a1.17,1.17,0,0,0,1.169-1.168v-5.263A1.04,1.04,0,0,0,51.814,681.5Zm-12.433-7.65h7.312a.089.089,0,0,1,.079.05l3.552,7.287h-4.63a1.082,1.082,0,0,0-1.072.924,1.708,1.708,0,0,1-3.384,0,1.082,1.082,0,0,0-1.072-.924H35.658L39.3,673.9A.088.088,0,0,1,39.381,673.855Zm-4.257,8.713h4.8a3.084,3.084,0,0,0,6.013,0h4.8v4.723H35.124Z" transform="translate(-33.748 -672.479)" fill="#b0b5c3"/></g></g></g></svg>