<svg xmlns="http://www.w3.org/2000/svg" width="18.791" height="16.274" viewBox="0 0 18.791 16.274"><g transform="translate(-436.408 -23.41)"><g transform="translate(436.407 23.41)"><path d="M455.9,35.657,446.72,42.2a1.071,1.071,0,0,1-1.49-.244l-4.375-6.071A1.058,1.058,0,0,1,441.1,34.4l9.178-6.541a1.072,1.072,0,0,1,.688-.2l5.931.367a1.062,1.062,0,0,1,.964,1.338l-1.556,5.7A1.062,1.062,0,0,1,455.9,35.657Z" transform="translate(-439.882 -26.892)" fill="#fff"/><path d="M442.626,39.683a1.843,1.843,0,0,1-1.5-.764l-4.375-6.071a1.827,1.827,0,0,1,.424-2.555l9.178-6.541a1.856,1.856,0,0,1,1.187-.339l5.93.367a1.837,1.837,0,0,1,1.382.761,1.816,1.816,0,0,1,.28,1.546l-1.556,5.7a1.838,1.838,0,0,1-.7,1.009L443.7,39.341A1.84,1.84,0,0,1,442.626,39.683Zm4.8-14.735a.3.3,0,0,0-.171.055l-9.178,6.541a.291.291,0,0,0-.068.408l4.375,6.071a.3.3,0,0,0,.41.067l9.178-6.541a.293.293,0,0,0,.112-.161l1.556-5.7a.292.292,0,0,0-.265-.368l-5.931-.367Z" transform="translate(-436.408 -23.41)" fill="#b0b5c3"/></g><g transform="translate(447.935 25.643)"><path d="M501.887,40a2.127,2.127,0,1,1,2.139-2.127A2.135,2.135,0,0,1,501.887,40Zm0-2.715a.588.588,0,1,0,.591.588A.59.59,0,0,0,501.887,37.287Z" transform="translate(-499.748 -35.748)" fill="#828793"/></g><g transform="translate(439.609 29.489)"><line x2="5.824" y2="7.782" transform="translate(0 0)" fill="#fff"/><path d="M0,0,1.545,0,1.559,5.4l-1.545,0Z" transform="translate(0.676 2.192) rotate(-36.656)" fill="#828793"/></g></g></svg>