<svg xmlns="http://www.w3.org/2000/svg" viewBox="0 0 10.4 10.4"><defs><style>.a{fill:#959595;}</style></defs><path class="a" d="M5.2,0a5.2,5.2,0,1,0,5.2,5.2A5.215,5.215,0,0,0,5.2,0ZM4.68,9.308A4.2,4.2,0,0,1,1.04,5.2a5.73,5.73,0,0,1,.1-.936l2.5,2.5v.52A1.043,1.043,0,0,0,4.68,8.32Zm3.588-1.3A1.063,1.063,0,0,0,7.28,7.28H6.76V5.72a.491.491,0,0,0-.52-.52H3.12V4.16H4.16a.491.491,0,0,0,.52-.52V2.6H5.72A1.043,1.043,0,0,0,6.76,1.56V1.352A4.212,4.212,0,0,1,9.36,5.2,4.112,4.112,0,0,1,8.268,8.008Z" transform="translate(0 0)"/></svg>