<svg xmlns="http://www.w3.org/2000/svg" width="114.912" height="101.804" viewBox="0 0 114.912 101.804"><g transform="translate(-430 -639)"><path d="M1080.853-5415.189l-.918,22.113h10.257l-.575-22.113Z" transform="translate(-610 6065)" fill="#b0b5c3"/><path d="M1079.21-5385.957s.852,7.008.852,8.565v13.943l9.731,1.394V-5385.5Z" transform="translate(-610 6065)" fill="#b0b5c3"/><path d="M1079.935-5355.35s1.314,9.45,1.434,10.625,0,10.825,0,10.825h8.9l-.505-21.45Z" transform="translate(-610 6065)" fill="#b0b5c3"/><path d="M1087.727-5546.068s-11.317-2.347-12.525,2.086,2.916,8.1,3.323,9.216,1.969,6.69,1.969,6.69h12.8Z" transform="translate(-616 6259)" fill="#b0b5c3"/><path d="M1080-5557.061s-6.611-4.53-6.484-10.171S1080-5572.9,1080-5572.9l54.53.719s6.059-.208,6.471,3.9-1.22,10.089-4.474,10.592S1080-5557.061,1080-5557.061Z" transform="translate(-616 6258)" fill="#b0b5c3"/><path d="M1080-5557.061s-6.611-4.53-6.484-10.171S1080-5572.9,1080-5572.9l54.53.719s6.059-.208,6.471,3.9-1.22,10.089-4.474,10.592S1080-5557.061,1080-5557.061Z" transform="translate(-616 6230)" fill="#b0b5c3"/><g transform="translate(-260.359 125.129)"><g transform="translate(690.359 522.054)"><path d="M697.723,574.6c.116.016.222.027.335.042.061-.055.124-.106.183-.166a7.015,7.015,0,0,0,1.866-4.2,2.981,2.981,0,0,0-.391-1.941,1.682,1.682,0,0,0-1.666-.734,11.3,11.3,0,0,0-2.649.607,22.867,22.867,0,0,0-2.2.862,18.25,18.25,0,0,1,.809,2.848c.166.835.273,1.667.353,2.5h.3A24.725,24.725,0,0,1,697.723,574.6Z" transform="translate(-690.861 -531.521)" fill="none"/><path d="M702.188,580.409c-.034-.016-.042,0-.052,0h-.25c-.283.006-.923.042-1.407.04s-.946-.017-1.406-.046a6.947,6.947,0,0,1-1.325.658,5.194,5.194,0,0,1-1.087.271,2.972,2.972,0,0,1-.855-.03,2.836,2.836,0,0,1-.908-.351,3.554,3.554,0,0,1-.326-.231c-.025.429-.043.858-.091,1.291a17.68,17.68,0,0,1-.589,3.019,9.923,9.923,0,0,0,4.885-.637,8.71,8.71,0,0,0,2.233-1.284,4.036,4.036,0,0,0,1.372-1.666,1.021,1.021,0,0,0,.039-.652A.66.66,0,0,0,702.188,580.409Z" transform="translate(-690.982 -533.777)" fill="none"/><path d="M698.209,537.477a6.489,6.489,0,0,1,1.551-.189,6.348,6.348,0,0,1,.809.051c-.089-.176-.19-.349-.276-.526a23.247,23.247,0,0,1-1.279-3.568c-.129-.443-.261-.884-.384-1.329a8.767,8.767,0,0,0-.437,1.089,25.606,25.606,0,0,0-.617,4.028,7.141,7.141,0,0,1-.176.72A6.139,6.139,0,0,1,698.209,537.477Z" transform="translate(-691.6 -525.233)" fill="none"/><path d="M724.5,547.317a10.053,10.053,0,0,0,5.2.857c3.927-.263,7.853-.523,11.78-.692a189.363,189.363,0,0,1,23.561.483c7.853.652,15.707,1.387,23.56,1.316a10.315,10.315,0,0,0,5.433-1.6,9.911,9.911,0,0,0,3.68-4.167,9.764,9.764,0,0,0-4.83-13.093,9.345,9.345,0,0,0-2.278-.657,10.875,10.875,0,0,0-1.163-.128l-.585.006h-.3l-.368.012c-3.927.133-7.853.2-11.78.243-7.853.077-15.707-.12-23.56-.3-3.927-.092-7.853-.18-11.78-.349-3.927-.151-7.853-.418-11.78-.624a9.79,9.79,0,0,0-8.97,4.749,9.934,9.934,0,0,0,.163,10.409A9.745,9.745,0,0,0,724.5,547.317Z" transform="translate(-695.392 -524.65)" fill="none"/><path d="M792.88,566.422a9.345,9.345,0,0,0-2.278-.657,10.875,10.875,0,0,0-1.163-.128l-.585.006h-.3l-.368.011c-3.927.133-7.853.2-11.78.243-7.853.077-15.707-.12-23.56-.3-3.927-.092-7.853-.18-11.78-.349-3.927-.151-7.853-.418-11.78-.624a9.79,9.79,0,0,0-8.97,4.749,9.934,9.934,0,0,0,.163,10.409,9.745,9.745,0,0,0,4.023,3.535,10.053,10.053,0,0,0,5.2.857c3.927-.263,7.853-.523,11.78-.692a189.375,189.375,0,0,1,23.561.483c7.853.652,15.707,1.387,23.56,1.316a10.315,10.315,0,0,0,5.433-1.6,9.912,9.912,0,0,0,3.68-4.167,9.764,9.764,0,0,0-4.83-13.093Z" transform="translate(-695.392 -530.993)" fill="none"/><path d="M792.88,602.422a9.348,9.348,0,0,0-2.278-.657,10.875,10.875,0,0,0-1.163-.128l-.585.006h-.3l-.368.012c-3.927.133-7.853.2-11.78.243-7.853.077-15.707-.12-23.56-.3-3.927-.092-7.853-.18-11.78-.349-3.927-.151-7.853-.419-11.78-.625a9.79,9.79,0,0,0-8.97,4.749,9.934,9.934,0,0,0,.163,10.409,9.752,9.752,0,0,0,4.023,3.536,10.06,10.06,0,0,0,5.2.856c3.927-.263,7.853-.523,11.78-.692a189.375,189.375,0,0,1,23.561.483c7.853.652,15.707,1.387,23.56,1.316a10.315,10.315,0,0,0,5.433-1.6,9.912,9.912,0,0,0,3.68-4.167,9.764,9.764,0,0,0-4.83-13.093Z" transform="translate(-695.392 -537.336)" fill="none"/><path d="M723.226,548.241a12.584,12.584,0,0,0,2.964,1.281,15.7,15.7,0,0,0,1.595.353c.527.056,1.126.136,1.59.156,3.927.263,7.853.523,11.78.692a189.385,189.385,0,0,0,23.56-.483c7.853-.652,15.707-1.387,23.56-1.316a12.3,12.3,0,0,0,10.278-5.6,12.726,12.726,0,0,0,1.952-5.992,12.386,12.386,0,0,0-1.36-6.414,12.588,12.588,0,0,0-4.631-4.976,13.592,13.592,0,0,0-3.223-1.4,15.258,15.258,0,0,0-1.739-.356l-.885-.079-.436-.034-.368-.012c-3.927-.133-7.853-.2-11.78-.243-7.853-.077-15.707.12-23.561.3-3.927.092-7.853.18-11.78.349-3.927.151-7.853.418-11.78.624a12.553,12.553,0,0,0-10.42,6.616,12.36,12.36,0,0,0,.264,12.05A12.745,12.745,0,0,0,723.226,548.241Zm-3.233-15.714a9.79,9.79,0,0,1,8.97-4.749c3.927.206,7.853.474,11.78.624,3.927.17,7.853.257,11.78.349,7.853.18,15.707.378,23.561.3,3.927-.044,7.853-.11,11.78-.243l.368-.012h.3l.585-.006a10.89,10.89,0,0,1,1.163.129,9.345,9.345,0,0,1,2.278.657,9.823,9.823,0,0,1,1.15,17.26,10.314,10.314,0,0,1-5.433,1.6c-7.853.072-15.707-.664-23.56-1.316a189.362,189.362,0,0,0-23.56-.483c-3.927.169-7.853.429-11.78.692a10.053,10.053,0,0,1-5.2-.857,9.744,9.744,0,0,1-4.023-3.535A9.933,9.933,0,0,1,719.992,532.527Z" transform="translate(-695.071 -523.804)" fill="#707070"/><path d="M794.514,561.943a13.59,13.59,0,0,0-3.223-1.4,15.258,15.258,0,0,0-1.739-.356l-.885-.079-.436-.034-.368-.012c-3.927-.133-7.853-.2-11.78-.243-7.853-.077-15.707.12-23.561.3-3.927.092-7.853.18-11.78.349-3.927.151-7.853.418-11.78.624a12.553,12.553,0,0,0-10.42,6.616,12.36,12.36,0,0,0,.264,12.05,12.745,12.745,0,0,0,4.419,4.48,12.581,12.581,0,0,0,2.964,1.281,15.663,15.663,0,0,0,1.595.353c.527.056,1.126.136,1.59.156,3.927.263,7.853.523,11.78.692a189.374,189.374,0,0,0,23.56-.483c7.853-.652,15.707-1.387,23.56-1.316a12.3,12.3,0,0,0,10.278-5.6,12.727,12.727,0,0,0,1.952-5.992,12.386,12.386,0,0,0-1.36-6.414A12.588,12.588,0,0,0,794.514,561.943Zm2.874,16.727a9.91,9.91,0,0,1-3.68,4.167,10.314,10.314,0,0,1-5.433,1.6c-7.853.072-15.707-.664-23.56-1.316a189.374,189.374,0,0,0-23.56-.483c-3.927.169-7.853.429-11.78.692a10.053,10.053,0,0,1-5.2-.857,9.744,9.744,0,0,1-4.023-3.535,9.933,9.933,0,0,1-.163-10.409,9.79,9.79,0,0,1,8.97-4.749c3.927.206,7.853.474,11.78.624,3.927.17,7.853.257,11.78.349,7.853.18,15.707.378,23.561.3,3.927-.044,7.853-.11,11.78-.243l.368-.011h.3l.585-.006a10.89,10.89,0,0,1,1.163.129,9.345,9.345,0,0,1,2.278.657,9.764,9.764,0,0,1,4.83,13.093Z" transform="translate(-695.071 -530.148)" fill="#707070"/><path d="M794.514,597.943a13.59,13.59,0,0,0-3.223-1.4,15.285,15.285,0,0,0-1.739-.356l-.885-.079-.436-.034-.368-.011c-3.927-.133-7.853-.2-11.78-.243-7.853-.077-15.707.12-23.561.3-3.927.092-7.853.18-11.78.349-3.927.151-7.853.418-11.78.624a12.554,12.554,0,0,0-10.42,6.616,12.36,12.36,0,0,0,.264,12.05,12.746,12.746,0,0,0,4.419,4.48,12.583,12.583,0,0,0,2.964,1.281,15.63,15.63,0,0,0,1.595.353c.527.056,1.126.136,1.59.156,3.927.263,7.853.523,11.78.692a189.374,189.374,0,0,0,23.56-.483c7.853-.652,15.707-1.387,23.56-1.316a12.3,12.3,0,0,0,10.278-5.6,12.726,12.726,0,0,0,1.952-5.992,12.385,12.385,0,0,0-1.36-6.414A12.588,12.588,0,0,0,794.514,597.943Zm2.874,16.727a9.91,9.91,0,0,1-3.68,4.167,10.315,10.315,0,0,1-5.433,1.6c-7.853.072-15.707-.664-23.56-1.316a189.362,189.362,0,0,0-23.56-.483c-3.927.169-7.853.429-11.78.692a10.06,10.06,0,0,1-5.2-.856,9.751,9.751,0,0,1-4.023-3.536,9.933,9.933,0,0,1-.163-10.409,9.79,9.79,0,0,1,8.97-4.749c3.927.206,7.853.474,11.78.625,3.927.17,7.853.257,11.78.349,7.853.18,15.707.378,23.561.3,3.927-.044,7.853-.11,11.78-.243l.368-.012h.3l.585-.006a10.874,10.874,0,0,1,1.163.128,9.348,9.348,0,0,1,2.278.657,9.764,9.764,0,0,1,4.83,13.093Z" transform="translate(-695.071 -536.491)" fill="#707070"/><path d="M692.617,542.817a12.8,12.8,0,0,0,2.564-3.27,17.872,17.872,0,0,0,1.075-2.26,5.5,5.5,0,0,0,1.044.387,6.489,6.489,0,0,0,1.551.19,6.358,6.358,0,0,0,1.55-.187l.074-.022c.259.436.521.871.809,1.295A18.245,18.245,0,0,0,703.824,542l.325-.133a18.261,18.261,0,0,0-.343-3.953,25.279,25.279,0,0,0-.983-3.691,23.255,23.255,0,0,0-1.6-3.434c-.3-.557-.587-1.123-.921-1.667s-.718-1.069-1.106-1.592l-1.69-2.285-.263,2.3a12.532,12.532,0,0,1-.965,3.892,25.57,25.57,0,0,1-2.266,3.387,12.039,12.039,0,0,0-1.4,3.724,12.777,12.777,0,0,0-.32,4.144Zm4.666-10.989a8.76,8.76,0,0,1,.437-1.089c.123.445.255.886.384,1.329a23.249,23.249,0,0,0,1.279,3.568c.086.178.187.35.276.526a6.337,6.337,0,0,0-.809-.051,6.489,6.489,0,0,0-1.551.189,6.148,6.148,0,0,0-.81.275,7.157,7.157,0,0,0,.176-.72A25.6,25.6,0,0,1,697.283,531.829Z" transform="translate(-690.69 -524.057)" fill="#707070"/><path d="M703.729,575.644a3.187,3.187,0,0,0-1.14-.783,4.057,4.057,0,0,0-1.157-.259c-.053,0-.093,0-.142-.007a9.408,9.408,0,0,0,1.015-4.717,6.194,6.194,0,0,0-.372-1.8,4.395,4.395,0,0,0-1.062-1.629,3.667,3.667,0,0,0-1.767-.964,3.79,3.79,0,0,0-1.851.087,10.6,10.6,0,0,0-2.77,1.407,13.623,13.623,0,0,0-1.85,1.519c-.125-.312-.262-.626-.42-.943a12.2,12.2,0,0,0-1.445,3.982,17.545,17.545,0,0,0-.278,2.5h-.13l.124.143c-.016.468-.021.936,0,1.4a17.54,17.54,0,0,0,.632,4.012,12.072,12.072,0,0,0,1.79,3.841c.115-.291.209-.577.3-.863a8.937,8.937,0,0,0,5.379.779,9.76,9.76,0,0,0,3.006-1.014,6.043,6.043,0,0,0,2.6-2.381,3.894,3.894,0,0,0,.463-2.137A3.566,3.566,0,0,0,703.729,575.644Zm-10.217-4.108a18.234,18.234,0,0,0-.809-2.848,22.884,22.884,0,0,1,2.2-.862,11.308,11.308,0,0,1,2.649-.607,1.682,1.682,0,0,1,1.666.734,2.981,2.981,0,0,1,.391,1.941,7.015,7.015,0,0,1-1.866,4.2c-.059.059-.122.11-.183.166-.114-.015-.219-.026-.335-.042a24.749,24.749,0,0,0-3.059-.187h-.3C693.785,573.2,693.679,572.371,693.512,571.536Zm8.247,7.269a4.036,4.036,0,0,1-1.372,1.666,8.71,8.71,0,0,1-2.233,1.284,9.923,9.923,0,0,1-4.885.637,17.68,17.68,0,0,0,.589-3.019c.048-.433.066-.862.091-1.291a3.575,3.575,0,0,0,.326.231,2.836,2.836,0,0,0,.908.351,2.972,2.972,0,0,0,.855.03,5.2,5.2,0,0,0,1.087-.271,6.947,6.947,0,0,0,1.325-.658c.46.029.93.051,1.406.046s1.124-.035,1.407-.04h.25c.01,0,.018-.019.052,0a.66.66,0,0,1,.232.384A1.021,1.021,0,0,1,701.759,578.8Z" transform="translate(-690.359 -531.136)" fill="#707070"/><path d="M700.739,620.412a12.3,12.3,0,0,1-3.434-1.084,14.4,14.4,0,0,1-1.588-.748,3.489,3.489,0,0,1-.795-.9,6.469,6.469,0,0,1-.54-2.941l-.011-.465c0-.151.01-.25.012-.377a5.876,5.876,0,0,1,.087-.741,7.323,7.323,0,0,1,.467-1.534,12.243,12.243,0,0,1,1.8-2.942l.173-.21a.926.926,0,0,1,.194-.159,2.92,2.92,0,0,1,.675-.281c.137-.041.286-.077.441-.113s.259-.068.4-.085a4.977,4.977,0,0,1,.847-.062,22.023,22.023,0,0,1,3.873.67,11.014,11.014,0,0,0-3.551-2.3,6.312,6.312,0,0,0-2.3-.334,4.61,4.61,0,0,0-1.272.18,3.544,3.544,0,0,0-1.045.5c-.088.064-.191.137-.266.2a11.6,11.6,0,0,0-2.917,3.5,8.908,8.908,0,0,0-.867,2.237,6.685,6.685,0,0,0-.2,1.241c-.012.206-.029.441-.03.624l0,.538a13,13,0,0,0,.226,2.274,6.331,6.331,0,0,0,1.042,2.485,5.982,5.982,0,0,0,.92.985,4.718,4.718,0,0,0,1.205.806,11.755,11.755,0,0,0,2.174.63,10.149,10.149,0,0,0,4.435.171,5.432,5.432,0,0,0,2.067-.975,8.434,8.434,0,0,0,1.458-1.531c-.659.227-1.293.492-1.91.638A4.576,4.576,0,0,1,700.739,620.412Z" transform="translate(-690.452 -538.252)" fill="#707070"/></g><g transform="translate(738.561 513.871)"><rect width="62.608" height="98.031" transform="translate(2.578 2.578)" fill="#fff"/><path d="M813.414,540.8c-.083-7.659-.191-15.3-.233-22.944l-30.21.161L753,518.074l-.047,22.967q-.008,12.357-.1,24.714l-.168,24.714-.241,23.554,14.488.22,15.776.31,31.977.63-.912-49.806Zm-28.659,12.394c.077,1.047.138,2.093.19,3.14q3.849.179,7.7.369l2.606.112,1.3.056a4.1,4.1,0,0,1,1.5.329,3.768,3.768,0,0,1,2.278,3.618l-.034,1.3-.1,5.213a3.62,3.62,0,0,1-1.013,2.593A3.542,3.542,0,0,1,796.62,571q-5.837,0-11.676.168c-.052,1.009-.111,2.018-.185,3.027a87.608,87.608,0,0,1-1.145,9.245l8.016.145,5.017.091a4.294,4.294,0,0,1,.819.072,3.306,3.306,0,0,1,.859.315,3.194,3.194,0,0,1,1.274,1.264,3.13,3.13,0,0,1,.317.847,2.856,2.856,0,0,1,.061.447c.007.155.008.306,0,.393l-.041,1.254c-.039,1.672-.155,3.345-.207,5.017l-.044,1.255-.011.314a3.56,3.56,0,0,1-.038.4,2.728,2.728,0,0,1-.228.773,2.864,2.864,0,0,1-2.563,1.661c-6.689.1-13.378.465-20.068.741l-5.017.166a4.512,4.512,0,0,1-.923-.056,3.868,3.868,0,0,1-1.017-.343,3.783,3.783,0,0,1-1.549-1.461,3.738,3.738,0,0,1-.407-1.006,3.52,3.52,0,0,1-.089-.537l-.015-.271,0-.176-.01-1.254c0-1.672.069-3.345.126-5.017l.049-1.255.012-.314a4.282,4.282,0,0,1,.046-.5,3.519,3.519,0,0,1,.3-.989,3.579,3.579,0,0,1,3.278-2.062c.1-.156.209-.123.314-.12l.313.006.628.012,1.254.023,2.508.045,5.017.091,1.552.028a87.682,87.682,0,0,1-1.143-9.236q-.107-1.467-.18-2.933-3.029.1-6.056.244l-2.607.127-1.3.063a4.326,4.326,0,0,1-4.174-2.582,4.609,4.609,0,0,1-.388-1.72l-.058-1.3-.218-5.213c-.007-.087-.006-.257,0-.419a3.618,3.618,0,0,1,.04-.479,4.51,4.51,0,0,1,.224-.942,4.857,4.857,0,0,1,.993-1.667,4.925,4.925,0,0,1,3.516-1.609q5.017.2,10.034.42c.051-1,.11-2,.184-2.994a88.784,88.784,0,0,1,1.144-9.259l-.614.453-.764-.589c-2.412-1.858-4.786-3.75-7.081-5.608s-4.517-3.666-6.721-5.389c2.078-1.588,4.173-3.255,6.342-4.967s4.408-3.453,6.685-5.16l.513-.385.725.258c2.671.951,5.315,1.966,7.949,3,2.642,1.019,5.261,2.094,7.875,3.178l2.629,1.09-2.19,1.851q-3.686,3.115-7.447,6.14c-2.476,1.969-4.953,3.939-7.5,5.824A87.278,87.278,0,0,1,784.755,553.191Z" transform="translate(-749.501 -514.573)" fill="none"/><path d="M814.057,514.106l-31.716-.169-31.716-.063-1.754,0,0,1.754.05,24.714q.008,12.357.1,24.714l.168,24.714.254,24.714.012,1.2,1.167-.017,16.038-.238,15.94-.31,31.455-.63-31.977-.63-15.777-.31-14.488-.22.241-23.554.168-24.714q.09-12.357.1-24.714l.047-22.967,29.969-.059,30.21-.161c.042,7.64.15,15.286.233,22.944l.361,24.579.912,49.806.912-49.049.361-24.849c.089-8.306.212-16.628.246-24.957l.006-1.511Z" transform="translate(-748.871 -513.871)" fill="#707070"/><path d="M785.976,542.569c2.128-1.968,4.3-3.879,6.485-5.784q2.584-2.224,5.2-4.4c-1.726-.747-3.449-1.5-5.16-2.284-2.389-1.071-4.766-2.168-7.125-3.311-1.906,1.172-3.837,2.326-5.836,3.5-2.225,1.307-4.523,2.663-6.839,4.094,2.464,1.572,4.911,3.06,7.282,4.5C782.037,540.117,784.019,541.335,785.976,542.569Z" transform="translate(-753.071 -516.147)" fill="#fff"/><path d="M1108.4-5407.014l15.645-8.075,9.792,4.9-12.33,11.845Z" transform="translate(-1088.202 5426)" fill="#e6ba73"/><path d="M1113.507-5369.932s-3.272-1.409-3.111-3.962-1.164-5.44.578-5.981,25.431-.635,25.431-.635l2.125.635v6.754l-.373,1.661-1.168,1.089-1.918.439Z" transform="translate(-1088.202 5426)" fill="#e6ba73"/><path d="M1111.385-5343.714s-1-7.984,0-8.528,10.5-.393,10.5-.393l15.456.393.363,6.945-.363,1.583h-25.953Z" transform="translate(-1088.202 5426)" fill="#e6ba73"/><path d="M801.619,532.616l2.189-1.851-2.629-1.09c-2.615-1.084-5.234-2.159-7.875-3.178-2.634-1.039-5.278-2.053-7.949-3l-.725-.258-.513.385c-2.277,1.708-4.519,3.448-6.685,5.16s-4.264,3.379-6.342,4.967c2.2,1.723,4.425,3.53,6.721,5.389s4.669,3.749,7.081,5.608l.765.589.614-.453a88.817,88.817,0,0,0-1.144,9.259c-.073,1-.133,2-.184,2.994q-5.017-.225-10.034-.42a4.925,4.925,0,0,0-3.516,1.609,4.857,4.857,0,0,0-.993,1.667,4.506,4.506,0,0,0-.224.942,3.608,3.608,0,0,0-.04.479c0,.162-.006.332,0,.419l.218,5.213.058,1.3a4.611,4.611,0,0,0,.388,1.72,4.326,4.326,0,0,0,4.174,2.582l1.3-.063,2.607-.127q3.027-.143,6.056-.244.075,1.467.18,2.933a87.682,87.682,0,0,0,1.143,9.236l-1.552-.028-5.017-.091-2.508-.045-1.254-.023-.628-.012-.313-.006c-.1,0-.209-.035-.314.12a3.579,3.579,0,0,0-3.278,2.062,3.521,3.521,0,0,0-.3.989,4.282,4.282,0,0,0-.046.5l-.012.314L771,589.421c-.057,1.672-.125,3.345-.126,5.017l.01,1.254,0,.176.015.271a3.505,3.505,0,0,0,.089.537,3.74,3.74,0,0,0,.407,1.006,3.783,3.783,0,0,0,1.549,1.461,3.866,3.866,0,0,0,1.017.343,4.513,4.513,0,0,0,.923.056l5.017-.166c6.69-.276,13.379-.639,20.068-.741a2.864,2.864,0,0,0,2.563-1.661,2.732,2.732,0,0,0,.228-.773,3.588,3.588,0,0,0,.038-.4l.011-.314.044-1.255c.052-1.672.167-3.345.207-5.017l.041-1.254c.006-.087,0-.238,0-.393a2.842,2.842,0,0,0-.061-.447,3.13,3.13,0,0,0-.317-.847,3.193,3.193,0,0,0-1.274-1.264,3.3,3.3,0,0,0-.859-.315,4.293,4.293,0,0,0-.819-.072l-5.017-.091-8.016-.145a87.592,87.592,0,0,0,1.145-9.245c.073-1.009.133-2.018.185-3.027q5.837-.161,11.676-.168a3.542,3.542,0,0,0,2.564-1.077,3.62,3.62,0,0,0,1.013-2.593l.1-5.213.034-1.3a3.768,3.768,0,0,0-2.278-3.618,4.1,4.1,0,0,0-1.5-.329l-1.3-.056-2.607-.112q-3.849-.2-7.7-.369c-.053-1.047-.114-2.093-.19-3.14a87.278,87.278,0,0,0-1.2-9.559c2.546-1.886,5.023-3.855,7.5-5.824Q797.928,535.726,801.619,532.616Zm-1.854,54.056a2.451,2.451,0,0,1,.43.012,1.265,1.265,0,0,1,.32.1,1.219,1.219,0,0,1,.5.456,1.164,1.164,0,0,1,.135.318,1.616,1.616,0,0,1,.036.171,2.177,2.177,0,0,1,.016.234l.041,1.254c.039,1.672.155,3.345.207,5.017l.044,1.255.011.314a1.578,1.578,0,0,1-.007.227,1.464,1.464,0,0,1-.114.428,1.527,1.527,0,0,1-1.42.919c-6.689-.1-13.378-.465-20.068-.741l-5.017-.166a1.134,1.134,0,0,1-.326-.027.729.729,0,0,1-.161-.073.63.63,0,0,1-.229-.261.555.555,0,0,1-.045-.158l-.009-.082v-.18l.01-1.254c0-1.672-.069-3.345-.126-5.017l-.049-1.255-.015-.436a.732.732,0,0,1,.045-.213.807.807,0,0,1,.705-.517c.1.156.209.123.314.12l.313-.006.628-.011,1.254-.023,2.508-.045,5.017-.091,10.035-.181Zm-1.4-27.5,1.3-.056a2.633,2.633,0,0,1,1.05.141,2.674,2.674,0,0,1,1.544,1.429,2.824,2.824,0,0,1,.242,1.082l.034,1.3.1,5.213a2.947,2.947,0,0,1-.8,2.146,2.908,2.908,0,0,1-2.1.914q-10.426,0-20.851-.507l-2.607-.127-1.3-.063a2.242,2.242,0,0,1-.876-.222,2.1,2.1,0,0,1-1.087-1.25,2.15,2.15,0,0,1-.086-.825l.058-1.3.218-5.213a1.6,1.6,0,0,1,1.705-1.614q10.426-.405,20.851-.936ZM779.091,529.66c2-1.174,3.93-2.327,5.836-3.5,2.359,1.143,4.736,2.24,7.125,3.311,1.711.783,3.434,1.536,5.16,2.284q-2.617,2.185-5.2,4.4c-2.181,1.9-4.357,3.816-6.485,5.784-1.957-1.234-3.939-2.452-5.989-3.693-2.371-1.436-4.818-2.924-7.282-4.5C774.568,532.322,776.866,530.967,779.091,529.66Z" transform="translate(-752.618 -515.521)" fill="#707070"/></g></g></g></svg>