<svg xmlns="http://www.w3.org/2000/svg" width="20" height="17.998" viewBox="0 0 20 17.998"><path d="M18656.318-10033a.315.315,0,0,1-.318-.314v-17.365a.316.316,0,0,1,.318-.318h19.363a.316.316,0,0,1,.318.318v12.707a.319.319,0,0,1-.318.318.319.319,0,0,1-.318-.318v-9.848h-18.725v14.188h18.725v-3.07a.316.316,0,0,1,.318-.318.316.316,0,0,1,.318.318v3.389a.315.315,0,0,1-.318.314Zm12.768-15.458h6.277v-1.9h-6.277Zm-12.447,0h11.811v-1.9h-11.811Zm2.646,12.121a1.628,1.628,0,0,1-.328-1.083,1.731,1.731,0,0,1,.164-.782,1.216,1.216,0,0,1,.465-.516,1.4,1.4,0,0,1,.713-.179,1.958,1.958,0,0,1,.834.2l-.2.492a2.8,2.8,0,0,0-.318-.132.977.977,0,0,0-.318-.056.6.6,0,0,0-.529.258,1.165,1.165,0,0,0-.187.712q0,.957.717.956a2.373,2.373,0,0,0,.73-.149v.506a2.023,2.023,0,0,1-.787.15A1.2,1.2,0,0,1,18659.285-10036.339Zm4.088-.909a.376.376,0,0,1-.375-.375.373.373,0,0,1,.375-.375h9.252a.373.373,0,0,1,.375.375.376.376,0,0,1-.375.375Zm-4.359-2.752v-2.854h.891a1.686,1.686,0,0,1,.881.174.6.6,0,0,1,.277.549.7.7,0,0,1-.121.417.481.481,0,0,1-.32.2v.019a.629.629,0,0,1,.395.226.739.739,0,0,1,.117.44.725.725,0,0,1-.281.609,1.228,1.228,0,0,1-.77.22Zm.605-.5h.4a.6.6,0,0,0,.365-.094.36.36,0,0,0,.121-.3c0-.234-.168-.355-.51-.355h-.375Zm0-1.224h.352a.625.625,0,0,0,.355-.075.282.282,0,0,0,.113-.253.254.254,0,0,0-.123-.234.77.77,0,0,0-.379-.07h-.318Zm3.754.474a.376.376,0,0,1-.375-.375.376.376,0,0,1,.375-.375h9.252a.376.376,0,0,1,.375.375.376.376,0,0,1-.375.375Zm-2.643-2.747-.207-.68h-1.045l-.207.68h-.65l1.008-2.868h.74l1.012,2.868Zm-1.1-1.19h.74c-.187-.613-.295-.961-.318-1.045a1.954,1.954,0,0,1-.051-.192C18659.961-10046.257,18659.834-10045.845,18659.633-10045.188Zm3.74-.061a.376.376,0,0,1-.375-.375.376.376,0,0,1,.375-.375h9.252a.376.376,0,0,1,.375.375.376.376,0,0,1-.375.375Zm10.266-4.162a.34.34,0,0,1,.342-.338.34.34,0,0,1,.342.338.339.339,0,0,1-.342.337A.339.339,0,0,1,18673.639-10049.411Zm-1.744,0a.34.34,0,0,1,.342-.338.337.337,0,0,1,.338.338.336.336,0,0,1-.338.337A.339.339,0,0,1,18671.895-10049.411Zm-1.744,0a.337.337,0,0,1,.338-.338.34.34,0,0,1,.342.338.339.339,0,0,1-.342.337A.336.336,0,0,1,18670.15-10049.411Z" transform="translate(-18656 10051)" fill="#175d7a"/></svg>