<svg xmlns="http://www.w3.org/2000/svg" width="20" height="18.676" viewBox="0 0 20 18.676"><g transform="translate(-1006.953 -292)"><path d="M1040.2,334.546h-11.682a.97.97,0,0,0-.969.969v8.893a.97.97,0,0,0,.969.969H1040.2a.97.97,0,0,0,.968-.969v-8.893A.97.97,0,0,0,1040.2,334.546Zm-3.285,9.25h-4.648a.659.659,0,0,1,0-1.318h4.648a.659.659,0,1,1,0,1.318Zm3.1-5.275a1.828,1.828,0,0,1-1.828,1.827h-7.655a1.827,1.827,0,0,1-1.827-1.827v-.451a1.827,1.827,0,0,1,1.827-1.827h7.655a1.828,1.828,0,0,1,1.828,1.827Z" transform="translate(-17.403 -35.955)" fill="none"/><rect width="0.605" height="3.394" transform="translate(1025.094 302.077)" fill="none"/><rect width="0.605" height="3.394" transform="translate(1008.207 302.077)" fill="none"/><path d="M1044.482,345.5h-7.655a1.827,1.827,0,0,0-1.827,1.827v.451a1.827,1.827,0,0,0,1.827,1.827h7.655a1.827,1.827,0,0,0,1.827-1.827v-.451A1.827,1.827,0,0,0,1044.482,345.5Zm-6.849,2.866a.852.852,0,1,1,.852-.852A.852.852,0,0,1,1037.634,348.366Zm6.042,0a.852.852,0,1,1,.852-.852A.852.852,0,0,1,1043.676,348.366Z" transform="translate(-23.702 -45.211)" fill="#828793"/><circle cx="0.852" cy="0.852" r="0.852" transform="translate(1013.08 301.451)" fill="#fff"/><circle cx="0.852" cy="0.852" r="0.852" transform="translate(1019.122 301.451)" fill="#fff"/><path d="M1059.055,385.748h-4.648a.659.659,0,0,0,0,1.318h4.648a.659.659,0,1,0,0-1.318Z" transform="translate(-39.545 -79.224)" fill="#828793"/><path d="M1025.992,300.824h-.976V299.56a2.225,2.225,0,0,0-2.222-2.222h-4.882v-1.193a2.127,2.127,0,1,0-1.318.021v1.172h-5.482a2.225,2.225,0,0,0-2.222,2.222v1.264h-.976a.962.962,0,0,0-.961.961v3.98a.962.962,0,0,0,.961.961h.976v1.728a2.225,2.225,0,0,0,2.222,2.222h11.682a2.225,2.225,0,0,0,2.222-2.222v-1.728h.976a.962.962,0,0,0,.961-.961v-3.98A.962.962,0,0,0,1025.992,300.824Zm-17.18,4.648h-.605v-3.394h.605Zm14.95,2.982a.97.97,0,0,1-.968.969h-11.682a.97.97,0,0,1-.969-.969V299.56a.97.97,0,0,1,.969-.969h11.682a.97.97,0,0,1,.968.969Zm1.937-2.982h-.605v-3.394h.605Z" transform="translate(0 0)" fill="#b0b5c3"/></g></svg>