<svg xmlns="http://www.w3.org/2000/svg" width="97.975" height="107.25" viewBox="0 0 97.975 107.25"><g transform="translate(-439 -1194)"><path d="M-557,6065.348s5.187-.783,6.319,0c.682.47,4,13.386,6.542,23.609,7.333.244,27.233.813,29.988-.095,3.386-1.117,12.362-8.832,12.362-8.832l.7,19.859-4,1.827-37.177.5-.234-.683-6.117.908Z" transform="translate(1036.55 -4810.286)" fill="#b0b5c3"/><g transform="translate(394.836 773.124)"><path d="M110.594,439.206c-.085-1.844-.138-3.674-.193-5.5-4.3.126-8.592.163-12.889.251-4.158.058-8.316.077-12.474.085-.011,4.159-.029,8.316-.09,12.474-.084,4.3-.126,8.6-.251,12.894,1.83.054,3.662.106,5.509.194l6.985.327,14.514.778-.782-14.515Z" transform="translate(-7.662 -2.425)" fill="none"/><path d="M65.9,486.626l4.351.041q-.03-4.272-.061-8.543c-.478,0-.957,0-1.435,0q-1.414-.018-2.827-.066C66.014,480.912,65.981,483.769,65.9,486.626Z" transform="translate(-4.108 -10.809)" fill="none"/><path d="M137.28,497.5l-4.055.238c-2.7.156-5.407.245-8.11.361l-8.11.2c-2.132.035-4.265.042-6.4.051l-.014,2.31c2.038.037,4.078.1,6.126.164,2.611.066,5.259.235,7.927.365,2.679.159,5.385.322,8.163.519l8.523.609c-.143-1.831-.342-3.5-.5-5.082Z" transform="translate(-12.558 -14.434)" fill="none"/><path d="M79.388,477.924c-1.494.064-2.988.089-4.482.131H74.8l-.061,8.58,7.829.073c-.079-2.987-.115-5.974-.046-8.962Q80.954,477.855,79.388,477.924Z" transform="translate(-5.78 -10.75)" fill="none"/><path d="M128.809,478.172c-3.379.187-6.758.255-10.137.388l-10.137.212c-2.807.037-5.613.048-8.42.056l-.009,2.287q4.064.047,8.141.166c3.287.071,6.6.221,9.95.364s6.738.332,10.188.523l10.561.624c-.121-1.845-.3-3.551-.429-5.179Q133.662,477.95,128.809,478.172Z" transform="translate(-10.575 -10.726)" fill="none"/><path d="M147.771,433.067c-1.524.136-3.047.265-4.57.362-1.757.093-3.514.227-5.271.285-2.947.121-5.893.174-8.84.195q-.011,1.6-.039,3.209c1.109.041,2.216.077,3.335.141l5.108.377,5.328.5,5.651.559c-.127-1.208-.273-2.344-.418-3.417C147.942,434.506,147.855,433.781,147.771,433.067Z" transform="translate(-16.047 -2.305)" fill="none"/><path d="M86.879,499.647c2.518.221,5.037.5,7.555.883l-.4-2.387-.45-2.662c-.075-.442-.147-.91-.239-1.249a4.857,4.857,0,0,0-.448-1.042,4.365,4.365,0,0,0-3.781-2.037l-1.705.015c-.048,1.373-.1,2.745-.171,4.117l-.145,2.737A5.671,5.671,0,0,1,86.879,499.647Z" transform="translate(-8.075 -13.285)" fill="#fff"/><path d="M88.5,511.08l-1.321-7.811c-2.646.409-5.292.7-7.939.924-3.108.281-6.218.444-9.326.584-3.108.1-6.218.2-9.326.048-1.555-.079-3.108-.182-4.663-.32a16.338,16.338,0,0,1-2.332-.284c-.161-.042-.323-.092-.484-.146l-.779,5.045-3.293,21.341L48.22,535.8l-.051.333c-.018.113-.015.166-.025.252a2.313,2.313,0,0,0-.015.467,3.822,3.822,0,0,0,.143.913,3.771,3.771,0,0,0,.967,1.559,3.575,3.575,0,0,0,1.594.868,4.028,4.028,0,0,0,.917.106l1.349-.008,5.4-.034,21.593.262,5.4.066,2.7.033.667.006c.166-.015.337,0,.5-.03a3.672,3.672,0,0,0,.965-.247,3.923,3.923,0,0,0,2.413-3.028,3.768,3.768,0,0,0,.019-1.02l-.028-.265-.056-.333-.112-.665-.451-2.662ZM76.8,516.6a32.664,32.664,0,0,1,3.66-3.01,32.559,32.559,0,0,1-2.017,4.288c-.755,1.365-1.569,2.684-2.427,3.969a69.06,69.06,0,0,1-5.669,7.305l-1.6,1.795L67.76,529c-.716-1.409-1.385-2.845-1.987-4.322a32.875,32.875,0,0,1-1.531-4.6,32.948,32.948,0,0,1,3.335,3.514q.779.934,1.506,1.9a69.1,69.1,0,0,1,4.469-5.562C74.586,518.785,75.665,517.672,76.8,516.6Zm3.016,16.424a4.946,4.946,0,0,1-.392.439,6.237,6.237,0,0,1-.826.689,14.351,14.351,0,0,1-3.488,1.65,22.553,22.553,0,0,1-7.406,1.207,11.84,11.84,0,0,1-2.023-.2,7.455,7.455,0,0,1-1.1-.3L64.3,536.4l-.229-.1c-.154-.066-.306-.135-.454-.212a14.4,14.4,0,0,1-3.275-2.247,16.773,16.773,0,0,1-1.363-1.408c-.212-.246-.419-.5-.616-.753-.1-.127-.195-.257-.288-.388l-.14-.2-.056-.082-.109-.182a1.949,1.949,0,0,1-.116-.243,7.621,7.621,0,0,1-.342-1.095c-.079-.326-.147-.647-.2-.966a17.063,17.063,0,0,1-.227-1.913,15.375,15.375,0,0,1,1.279-7.579,10.913,10.913,0,0,1,2.271-3.212,10.537,10.537,0,0,1,1.525-1.216,8.265,8.265,0,0,1,1.755-.924,8.412,8.412,0,0,1,3.8-.216c1.2.158,2.33.4,3.516.513a27.557,27.557,0,0,1-3.529.449,6.1,6.1,0,0,0-4.339,1.749,8.436,8.436,0,0,0-1.07,1.159,9.616,9.616,0,0,0-1.472,2.718,14.6,14.6,0,0,0-.516,6.266c.065.531.157,1.059.264,1.575.053.259.117.51.183.753.051.183.121.4.167.515l.079.1.247.311c.164.208.334.409.508.606a13.516,13.516,0,0,0,1.1,1.109,11.8,11.8,0,0,0,2.5,1.752,4.671,4.671,0,0,0,1.224.489,9.41,9.41,0,0,0,1.474.2,25.211,25.211,0,0,0,6.528-.541,13.318,13.318,0,0,0,3.023-.99,2.739,2.739,0,0,0,1.025-.744,9.13,9.13,0,0,0,.862-1.358,16.041,16.041,0,0,0,1.691-6.589,13.24,13.24,0,0,1-.1,7.252,10.95,10.95,0,0,1-.753,1.769A3.667,3.667,0,0,1,79.818,533.027Z" transform="translate(-0.748 -15.575)" fill="#fff"/><path d="M54.839,499.64a16.338,16.338,0,0,1,2.332-.284c1.3-.115,2.6-.2,3.9-.275a5.816,5.816,0,0,1-.094-1.009l-.174-2.737c-.088-1.307-.144-2.615-.2-3.923l-.52,0-.675.007a4.959,4.959,0,0,0-.534.04,4.014,4.014,0,0,0-3.168,2.407,4.315,4.315,0,0,0-.281,1l-.206,1.333-.537,3.479C54.737,499.672,54.788,499.653,54.839,499.64Z" transform="translate(-1.989 -13.334)" fill="#fff"/><path d="M65.689,491.344c-.054,1.318-.11,2.635-.2,3.952l-.175,2.737a6.2,6.2,0,0,1-.08.92c2.64-.071,5.279.006,7.918.091,2.724.122,5.448.277,8.173.5a6.2,6.2,0,0,1-.178-1.51L81,495.3c-.073-1.365-.122-2.729-.17-4.094Z" transform="translate(-3.983 -13.294)" fill="#fff"/><path d="M144.87,426.512a1.881,1.881,0,0,0-1.3-1.6,2.158,2.158,0,0,0-.352-.075,4.411,4.411,0,0,0-.469-.013l-1.3.006-2.591.011-20.726.091-20.727.108-20.726.028a1.634,1.634,0,0,0-1.636,1.586l-.022,5.149-.039,10.363-.137,20.726-.012,1.71h.082c1.494.041,2.988.066,4.482.131s2.988.141,4.483.277l1.275.116.042,1.2c.122,3.468.078,6.935-.014,10.4l1.644.015a6.087,6.087,0,0,1,5.184,3.078,6.491,6.491,0,0,1,.608,1.434c.134.532.2.954.29,1.4l.508,2.651,2.031,10.605,4.063,21.208.11.575,1.909-.013,20.727-.164,20.726-.09a1.738,1.738,0,0,0,1.732-1.693l.011-5.15.015-10.363.031-20.726.077-41.452.019-10.363,0-.648V426.7Zm-56.1,33.619c-2.422.109-4.863.162-7.307.236l-1.294.039-.046-1.379c-.159-4.73-.194-9.462-.287-14.192-.07-4.73-.088-9.462-.1-14.192l0-1.726,1.727,0c4.73.006,9.462.025,14.192.091,4.73.1,9.462.127,14.192.287l1.384.047-.039,1.3c-.073,2.443-.128,4.886-.235,7.308l-.328,7.209-.782,13.868-13.87.778Zm4.858,14.383-1.694.011-.007-1.713-.022-5.677-.007-1.727,1.731,0q5.069.007,10.137.067l10.137.212c3.379.133,6.758.2,10.137.388q5.069.226,10.137.586l.5.035-.029.435c-.134,2.01-.337,3.924-.47,5.677-3.149.23-6.406.431-9.713.624s-6.675.375-10.086.523-6.853.294-10.324.364C100.584,474.423,97.1,474.491,93.623,474.515Zm41.512,8.436c-.161,2.031-.4,3.953-.558,5.677-2.482.222-5.061.423-7.7.609s-5.329.36-8.056.519c-2.738.13-5.5.3-8.292.365-2.788.085-5.591.175-8.394.2l-1.678.012-.011-1.7-.035-5.677-.011-1.727,1.735,0c2.7.006,5.407.02,8.11.064l8.11.2c2.7.116,5.407.205,8.11.361l4.055.238,4.055.3.6.045Zm3.9-52.307c-.118,1.173-.228,2.332-.386,3.417l-.418,3.07c-1.561.2-3.194.392-4.892.559-1.684.189-3.441.332-5.215.5-1.783.144-3.6.256-5.434.377-1.838.1-3.691.167-5.545.212l-1.6.04-.04-1.683q-.078-3.244-.08-6.488l0-1.726,1.727,0c3.514,0,7.029.067,10.543.212,1.757.058,3.514.191,5.271.285,1.757.111,3.514.264,5.271.423l.877.079Z" transform="translate(-5.8 -0.746)" fill="none"/><path d="M142.134,509.835l-.015-10.363-.031-20.726-.077-41.452-.019-10.363,0-.648v-.324l-.02-.455a4.806,4.806,0,0,0-3.28-4.139,5.011,5.011,0,0,0-.911-.2,7.083,7.083,0,0,0-.825-.041l-1.3-.006-2.591-.011-20.726-.091L91.616,420.9l-20.726-.028a5.051,5.051,0,0,0-5.04,4.966l.015,5.214.039,10.363.137,20.726.012,1.7c-.47,0-.94,0-1.41,0-1.495.019-2.988.048-4.483.134l-1.523.088-.075,1.511c-.17,3.4-.129,6.8-.031,10.207l-.435,0-.675-.007a7.375,7.375,0,0,0-.813.044,6.393,6.393,0,0,0-5.113,3.743,6.755,6.755,0,0,0-.478,1.58l-.231,1.33L48.94,493.11l-3.693,21.276-.924,5.319-.058.333c-.019.109-.036.281-.054.418a5.2,5.2,0,0,0-.047.878,6.719,6.719,0,0,0,2.027,4.767,6.893,6.893,0,0,0,3.057,1.748,7.216,7.216,0,0,0,1.752.234l1.349.008,5.4.034,21.593-.262,5.4-.066,2.7-.033.683-.01c.281-.021.564-.024.843-.071a6.356,6.356,0,0,0,1.63-.461,6.517,6.517,0,0,0,3.892-5.135,6.284,6.284,0,0,0-.007-1.669l-.058-.4-.063-.332-.008-.041,1.392.01,20.727.164,20.726.09a4.949,4.949,0,0,0,4.944-4.859Zm-50.326,9.624.112.665.056.333.028.265a3.767,3.767,0,0,1-.019,1.02,3.923,3.923,0,0,1-2.413,3.028,3.674,3.674,0,0,1-.965.247c-.165.027-.335.015-.5.03l-.667-.006-2.7-.033-5.4-.066-21.593-.262-5.4.034L51,524.72a4.021,4.021,0,0,1-.917-.106,3.574,3.574,0,0,1-1.594-.868,3.771,3.771,0,0,1-.967-1.559,3.821,3.821,0,0,1-.143-.913,2.314,2.314,0,0,1,.015-.467c.011-.086.007-.139.025-.252l.051-.333.823-5.335,3.293-21.341.779-5.045c.161.054.323.1.484.146a16.338,16.338,0,0,0,2.332.284c1.555.138,3.108.242,4.663.32,3.108.154,6.218.052,9.326-.048,3.108-.139,6.218-.3,9.326-.584,2.646-.228,5.292-.515,7.939-.924l1.321,7.811,3.6,21.292ZM53.44,481.54a4.315,4.315,0,0,1,.281-1,4.014,4.014,0,0,1,3.168-2.407,4.959,4.959,0,0,1,.534-.04l.675-.007.52,0c.054,1.308.109,2.615.2,3.923l.174,2.737a5.816,5.816,0,0,0,.094,1.009c-1.3.072-2.6.16-3.9.275a16.338,16.338,0,0,0-2.332.284c-.051.013-.1.032-.153.046l.537-3.479Zm25.893-3.656,1.705-.015a4.365,4.365,0,0,1,3.781,2.037,4.857,4.857,0,0,1,.448,1.042c.092.339.164.807.239,1.249l.45,2.662.4,2.387c-2.518-.387-5.037-.663-7.555-.883a5.671,5.671,0,0,0,.212-1.624L79.162,482C79.235,480.629,79.285,479.257,79.333,477.884ZM77.021,482l.145,2.737a6.2,6.2,0,0,0,.178,1.51c-2.725-.222-5.449-.376-8.173-.5-2.64-.085-5.279-.161-7.918-.091a6.2,6.2,0,0,0,.08-.92L61.508,482c.088-1.317.144-2.634.2-3.952l15.145-.142C76.9,479.273,76.948,480.637,77.021,482Zm-.234-6.044-7.829-.073.061-8.58h.107c1.494-.041,2.988-.066,4.482-.131q1.567-.069,3.133-.178C76.672,469.983,76.709,472.971,76.787,475.958Zm-10.709-8.642q.03,4.271.061,8.543l-4.351-.041c.084-2.857.117-5.714.028-8.571q1.414.047,2.827.066C65.122,467.319,65.6,467.316,66.079,467.315Zm73-40.385-.019,10.363-.077,41.452-.031,20.726-.015,10.363-.011,5.15a1.738,1.738,0,0,1-1.732,1.693l-20.726.09-20.727.164-1.909.013-.11-.575L89.66,495.162l-2.031-10.605-.508-2.651c-.088-.442-.156-.864-.29-1.4a6.491,6.491,0,0,0-.608-1.434A6.087,6.087,0,0,0,81.038,476l-1.644-.015c.092-3.467.136-6.935.014-10.4l-.042-1.2-1.275-.116c-1.495-.136-2.988-.211-4.483-.277s-2.988-.089-4.482-.131h-.082l.012-1.71.137-20.726.039-10.363.022-5.149a1.634,1.634,0,0,1,1.636-1.586l20.726-.028,20.727-.108,20.726-.091,2.591-.011,1.3-.006a4.411,4.411,0,0,1,.469.013,2.158,2.158,0,0,1,.352.075,1.881,1.881,0,0,1,1.3,1.6l.011.192v.324Z" fill="#707070"/><path d="M110.981,459.982,96.467,459.2l-6.985-.327c-1.847-.088-3.679-.139-5.509-.194.126-4.3.167-8.6.251-12.894.061-4.158.079-8.316.09-12.474,4.158-.008,8.316-.027,12.474-.085,4.3-.088,8.592-.125,12.889-.251.055,1.828.108,3.658.193,5.5l.328,6.984.782,14.515.782-13.868.328-7.209c.107-2.422.162-4.864.235-7.308l.039-1.3-1.384-.047c-4.73-.161-9.462-.191-14.192-.287-4.73-.066-9.462-.085-14.192-.091l-1.727,0,0,1.726c.008,4.73.026,9.462.1,14.192.093,4.73.128,9.462.287,14.192l.046,1.379,1.294-.039c2.443-.074,4.885-.126,7.307-.236l7.207-.327Z" transform="translate(-6.939 -1.701)" fill="#e6ba73"/><path d="M142.411,430.371c-1.757-.093-3.514-.227-5.271-.285-3.514-.144-7.029-.208-10.543-.212l-1.727,0,0,1.726q.007,3.244.08,6.488l.04,1.683,1.6-.04c1.854-.045,3.707-.115,5.545-.212,1.831-.121,3.651-.234,5.434-.377,1.774-.164,3.53-.307,5.215-.5,1.7-.167,3.331-.363,4.892-.559l-5.651-.559-5.328-.5-5.108-.377c-1.118-.064-2.226-.1-3.335-.141q.028-1.6.039-3.209c2.947-.02,5.893-.074,8.84-.195,1.757-.058,3.514-.191,5.271-.285,1.523-.1,3.046-.225,4.57-.362.084.714.17,1.439.283,2.205.145,1.073.291,2.209.418,3.417l.418-3.07c.158-1.086.268-2.244.386-3.417l.073-.725-.877-.079C145.925,430.634,144.169,430.482,142.411,430.371Z" transform="translate(-15.256 -1.701)" fill="#b0b5c3"/><path d="M118.346,483.422c3.411-.148,6.778-.332,10.086-.523s6.564-.394,9.713-.624l-10.561-.624c-3.45-.191-6.84-.375-10.188-.523s-6.663-.294-9.95-.364q-4.084-.122-8.141-.166l.009-2.287c2.807-.008,5.614-.019,8.42-.056l10.137-.212c3.379-.133,6.758-.2,10.137-.388q4.854-.217,9.708-.558c.131,1.628.308,3.334.429,5.179.133-1.753.337-3.666.47-5.677l.029-.435-.5-.035q-5.069-.356-10.137-.586c-3.379-.187-6.758-.255-10.137-.388l-10.137-.212q-5.069-.067-10.137-.067l-1.731,0,.007,1.727.022,5.677.007,1.713,1.694-.011c3.48-.023,6.961-.092,10.426-.19C111.492,483.715,114.934,483.565,118.346,483.422Z" transform="translate(-9.774 -10.207)" fill="#b0b5c3"/><path d="M136.479,495.235,132.425,495c-2.7-.156-5.407-.245-8.11-.361l-8.11-.2c-2.7-.044-5.407-.058-8.11-.064l-1.735,0,.011,1.727.035,5.677.011,1.7,1.678-.012c2.8-.02,5.606-.11,8.394-.2,2.8-.066,5.554-.235,8.292-.365,2.727-.159,5.428-.322,8.056-.519s5.215-.387,7.7-.609l-8.523-.609c-2.778-.2-5.485-.36-8.163-.519-2.668-.13-5.316-.3-7.927-.365-2.049-.067-4.088-.127-6.126-.164l.014-2.31c2.132-.009,4.265-.016,6.4-.051l8.11-.2c2.7-.116,5.407-.205,8.11-.361l4.055-.238,3.556-.267c.157,1.581.356,3.25.5,5.082.161-1.724.4-3.646.558-5.677l.041-.513-.6-.045Z" transform="translate(-11.758 -13.893)" fill="#b0b5c3"/><path d="M72.841,527.9q-.73-.963-1.506-1.9A32.948,32.948,0,0,0,68,522.488a32.875,32.875,0,0,0,1.531,4.6c.6,1.478,1.271,2.914,1.987,4.322l.993,1.951,1.6-1.795a69.06,69.06,0,0,0,5.669-7.305c.858-1.285,1.672-2.6,2.427-3.969A32.559,32.559,0,0,0,84.219,516a32.664,32.664,0,0,0-3.66,3.01c-1.137,1.068-2.216,2.181-3.25,3.329A69.1,69.1,0,0,0,72.841,527.9Z" transform="translate(-4.506 -19.982)" fill="#e6ba73"/><path d="M82.914,533.106a13.24,13.24,0,0,0,.1-7.252,16.041,16.041,0,0,1-1.691,6.589,9.132,9.132,0,0,1-.862,1.358,2.739,2.739,0,0,1-1.025.745,13.317,13.317,0,0,1-3.023.99,25.211,25.211,0,0,1-6.528.541,9.4,9.4,0,0,1-1.474-.2,4.672,4.672,0,0,1-1.224-.489,11.8,11.8,0,0,1-2.5-1.752,13.514,13.514,0,0,1-1.1-1.109c-.174-.2-.344-.4-.508-.606l-.247-.311-.079-.1c-.046-.117-.116-.332-.167-.515-.067-.242-.131-.494-.183-.753-.107-.516-.2-1.044-.264-1.575a14.6,14.6,0,0,1,.516-6.266,9.615,9.615,0,0,1,1.472-2.718,8.436,8.436,0,0,1,1.07-1.159,6.1,6.1,0,0,1,4.339-1.749,27.546,27.546,0,0,0,3.529-.449c-1.186-.109-2.32-.354-3.516-.513a8.411,8.411,0,0,0-3.8.216,8.262,8.262,0,0,0-1.755.924,10.533,10.533,0,0,0-1.525,1.216,10.914,10.914,0,0,0-2.271,3.212,15.375,15.375,0,0,0-1.279,7.579,17.061,17.061,0,0,0,.227,1.913c.055.319.123.64.2.966a7.618,7.618,0,0,0,.342,1.095,1.948,1.948,0,0,0,.116.243l.109.182.056.082.14.2c.093.131.188.261.288.388.2.256.4.507.616.753a16.763,16.763,0,0,0,1.363,1.408,14.394,14.394,0,0,0,3.275,2.247c.148.077.3.147.454.212l.229.1.286.109a7.462,7.462,0,0,0,1.1.3,11.84,11.84,0,0,0,2.023.2,22.553,22.553,0,0,0,7.406-1.207,14.351,14.351,0,0,0,3.488-1.65,6.236,6.236,0,0,0,.826-.689,4.947,4.947,0,0,0,.392-.439,3.663,3.663,0,0,0,.312-.5A10.947,10.947,0,0,0,82.914,533.106Z" transform="translate(-2.779 -19.924)" fill="#e6ba73"/></g></g></svg>