<svg xmlns="http://www.w3.org/2000/svg" width="80" height="69.17" viewBox="0 0 80 69.17"><path d="M72.939,0H7.061A7.033,7.033,0,0,0,0,6.956V52.89a7.09,7.09,0,0,0,7.061,7.023H27.773v5.764H19.658a1.747,1.747,0,1,0,0,3.493H60.252a1.747,1.747,0,0,0,0-3.493H52.227V59.913H72.939A7.09,7.09,0,0,0,80,52.89V6.956A7.033,7.033,0,0,0,72.939,0ZM48.734,65.677H31.266V59.913H48.734Zm27.6-12.751a3.493,3.493,0,0,1-3.493,3.493H6.987a3.493,3.493,0,0,1-3.493-3.493V6.987A3.493,3.493,0,0,1,6.987,3.493H72.838a3.493,3.493,0,0,1,3.493,3.493Zm0,0" fill="#175d7a"/><path d="M103.852,41.747A1.747,1.747,0,0,0,102.1,40H39.747A1.747,1.747,0,0,0,38,41.747V84.192a1.747,1.747,0,0,0,1.747,1.747H102.1a1.747,1.747,0,0,0,1.747-1.747Zm-3.493,40.7H41.493V43.493h58.865Zm0,0" transform="translate(-31.362 -33.013)" fill="#487d94"/><g transform="translate(-20 116.919)"><g transform="translate(-92.759 -221.665)"><g transform="translate(136.276 120.241)"><path d="M166.991,125.079a1.038,1.038,0,0,0-.771-.4l-24.419-1.11h-.057a2.152,2.152,0,0,0-.863-1.162l-2.99-1.994a1.038,1.038,0,0,0-1.152,1.728l2.99,1.993a.072.072,0,0,1,.029.04l3.809,13.332a3.27,3.27,0,0,0,.565,1.112l-1.394,2.787a2.134,2.134,0,0,0,.094,2.09,2.157,2.157,0,0,0,.533.586,3.258,3.258,0,1,0,5.864.433H158.7a3.258,3.258,0,1,0,5.952-.27,1.037,1.037,0,0,0-.7-1.807H144.66a.071.071,0,0,1-.064-.1l1.284-2.568a3.26,3.26,0,0,0,.812.1,3.348,3.348,0,0,0,.388-.023l14.592-1.717a4.358,4.358,0,0,0,3.773-3.482l1.745-8.728A1.039,1.039,0,0,0,166.991,125.079Zm-5.258,19.438a1.181,1.181,0,1,1-1.181,1.181A1.183,1.183,0,0,1,161.733,144.517Zm-15.539,0a1.181,1.181,0,1,1-1.181,1.181A1.183,1.183,0,0,1,146.194,144.517Zm-2.547-14.287-1.3-4.555,4.152.189.72,4.366Zm3.191,7.556a1.176,1.176,0,0,1-1.274-.849l-1.323-4.63h3.319l.872,5.292Zm6.087-.716-2.428.286-.832-5.049h3.26Zm0-6.84h-3.6l-.7-4.27,4.306.2Zm5.259,6.221-3.182.374v-4.519h3.557Zm.563-6.221H155v-3.979l4.089.186Zm4.662,4.013a2.286,2.286,0,0,1-1.979,1.826l-1.138.134.353-3.9H163.8Zm.8-4.013h-3.379l.335-3.7,3.75.17Z" transform="translate(-136.276 -120.241)" fill="#1dcb9a"/></g></g></g></svg>