<svg xmlns="http://www.w3.org/2000/svg" width="26" height="20.501" viewBox="0 0 26 20.501"><g transform="translate(-937 -39)"><path d="M22.421,5.78H.579A.58.58,0,0,0,0,6.359v15.3a.58.58,0,0,0,.579.579H22.421A.58.58,0,0,0,23,21.663V6.359A.579.579,0,0,0,22.421,5.78ZM21.263,20.505H1.737V7.517H21.263V20.505Z" transform="translate(937 33.22)" fill="#959595"/><rect width="2" height="16.5" rx="1" transform="translate(961 43)" fill="#959595"/><rect width="2" height="2.2" transform="translate(940 55.4)" fill="#959595"/><path d="M.5,0h1A.5.5,0,0,1,2,.5V3A0,0,0,0,1,2,3H0A0,0,0,0,1,0,3V.5A.5.5,0,0,1,.5,0Z" transform="translate(963 43) rotate(90)" fill="#959595"/><path d="M.5,0H2A0,0,0,0,1,2,0V22.5a.5.5,0,0,1-.5.5H.5a.5.5,0,0,1-.5-.5V.5A.5.5,0,0,1,.5,0Z" transform="translate(940 59.5) rotate(-90)" fill="#959595"/></g></svg>