<svg xmlns="http://www.w3.org/2000/svg" width="16.971" height="16.971" viewBox="0 0 16.971 16.971"><g transform="translate(-24.004 -245.744)"><path d="M54.821,272.321a4.24,4.24,0,1,0,4.24,4.24A4.245,4.245,0,0,0,54.821,272.321Zm0,7.123a2.882,2.882,0,1,1,2.882-2.882A2.885,2.885,0,0,1,54.821,279.444Z" transform="translate(-22.332 -22.332)" fill="#828793"/><path d="M40.322,255.328a1.235,1.235,0,0,1,0-2.2,1.22,1.22,0,0,0,.6-1.437h0a8.78,8.78,0,0,0-.684-1.648,1.225,1.225,0,0,0-1.441-.575,1.235,1.235,0,0,1-1.548-1.548,1.224,1.224,0,0,0-.575-1.441,8.776,8.776,0,0,0-1.648-.684,1.22,1.22,0,0,0-1.437.6,1.235,1.235,0,0,1-2.2,0,1.221,1.221,0,0,0-1.438-.6,8.782,8.782,0,0,0-1.648.684,1.225,1.225,0,0,0-.575,1.441,1.235,1.235,0,0,1-1.548,1.548,1.224,1.224,0,0,0-1.441.575,8.781,8.781,0,0,0-.684,1.648,1.221,1.221,0,0,0,.6,1.438,1.235,1.235,0,0,1,0,2.2,1.221,1.221,0,0,0-.6,1.438,8.781,8.781,0,0,0,.684,1.648,1.224,1.224,0,0,0,1.441.575,1.235,1.235,0,0,1,1.548,1.548,1.225,1.225,0,0,0,.575,1.441,8.777,8.777,0,0,0,1.648.684,1.221,1.221,0,0,0,1.438-.6,1.235,1.235,0,0,1,2.2,0,1.214,1.214,0,0,0,1.081.652,1.241,1.241,0,0,0,.357-.053,8.775,8.775,0,0,0,1.648-.684,1.225,1.225,0,0,0,.575-1.441,1.235,1.235,0,0,1,1.548-1.548,1.224,1.224,0,0,0,1.441-.575,8.78,8.78,0,0,0,.684-1.648A1.22,1.22,0,0,0,40.322,255.328Zm-.732,1.147a7.405,7.405,0,0,1-.492,1.187,2.593,2.593,0,0,0-3.176,3.176,7.4,7.4,0,0,1-1.187.492,2.593,2.593,0,0,0-4.492,0,7.4,7.4,0,0,1-1.187-.492,2.593,2.593,0,0,0-3.176-3.176,7.405,7.405,0,0,1-.492-1.187,2.593,2.593,0,0,0,0-4.492,7.4,7.4,0,0,1,.492-1.187,2.593,2.593,0,0,0,3.176-3.176,7.4,7.4,0,0,1,1.187-.492,2.593,2.593,0,0,0,4.492,0,7.394,7.394,0,0,1,1.187.492A2.593,2.593,0,0,0,39.1,250.8a7.4,7.4,0,0,1,.492,1.187,2.593,2.593,0,0,0,0,4.492Z" transform="translate(0 0)" fill="#b0b5c3"/></g></svg>