<svg xmlns="http://www.w3.org/2000/svg" viewBox="0 0 30 30"><defs><style>.a{fill:#1ccbff;}.b{fill:#fff;}</style></defs><g transform="translate(-284 -2607)"><circle class="a" cx="15" cy="15" r="15" transform="translate(284 2607)"/><g transform="translate(292.667 2616.333)"><path class="b" d="M13.23,58.712a5.42,5.42,0,0,1-1.558.427,2.725,2.725,0,0,0,1.193-1.5,5.471,5.471,0,0,1-1.724.659,2.716,2.716,0,0,0-4.624,2.474A7.7,7.7,0,0,1,.923,57.937a2.717,2.717,0,0,0,.84,3.623,2.714,2.714,0,0,1-1.229-.341v.034A2.717,2.717,0,0,0,2.71,63.914a2.749,2.749,0,0,1-.715.1,2.6,2.6,0,0,1-.511-.05,2.715,2.715,0,0,0,2.535,1.885A5.445,5.445,0,0,1,.648,67,5.768,5.768,0,0,1,0,66.966a7.671,7.671,0,0,0,4.16,1.221,7.668,7.668,0,0,0,7.721-7.721l-.009-.351A5.419,5.419,0,0,0,13.23,58.712Z" transform="translate(-0.001 -57.441)"/></g></g></svg>