<svg xmlns="http://www.w3.org/2000/svg" width="70.017" height="54.7" viewBox="0 0 70.017 54.7"><g transform="translate(-496 -432)"><g transform="translate(515.692 449.504)" fill="#fff"><path d="M 46.32443618774414 35.44631958007813 L 4.000006198883057 35.44631958007813 C 2.759356260299683 35.44631958007813 1.750006198883057 34.43696975708008 1.750006198883057 33.19631958007813 L 1.750006198883057 3.999999761581421 C 1.750006198883057 2.759349822998047 2.759356260299683 1.749999761581421 4.000006198883057 1.749999761581421 L 46.32443618774414 1.749999761581421 C 47.56508636474609 1.749999761581421 48.57443618774414 2.759349822998047 48.57443618774414 3.999999761581421 L 48.57443618774414 33.19631958007813 C 48.57443618774414 34.43696975708008 47.56508636474609 35.44631958007813 46.32443618774414 35.44631958007813 Z" stroke="none"/><path d="M 3.999996185302734 3.5 C 3.724296569824219 3.5 3.499996185302734 3.724300384521484 3.499996185302734 4 L 3.499996185302734 33.19631958007813 C 3.499996185302734 33.47201919555664 3.724296569824219 33.69631958007813 3.999996185302734 33.69631958007813 L 46.32442474365234 33.69631958007813 C 46.60012817382813 33.69631958007813 46.82442474365234 33.47201919555664 46.82442474365234 33.19631958007813 L 46.82442474365234 4 C 46.82442474365234 3.724300384521484 46.60012817382813 3.5 46.32442474365234 3.5 L 3.999996185302734 3.5 M 3.999996185302734 0 L 46.32442474365234 0 C 48.53356552124023 0 50.32442474365234 1.790859222412109 50.32442474365234 4 L 50.32442474365234 33.19631958007813 C 50.32442474365234 35.40546035766602 48.53356552124023 37.19631958007813 46.32442474365234 37.19631958007813 L 3.999996185302734 37.19631958007813 C 1.790866851806641 37.19631958007813 -3.814697265625e-06 35.40546035766602 -3.814697265625e-06 33.19631958007813 L -3.814697265625e-06 4 C -3.814697265625e-06 1.790859222412109 1.790866851806641 0 3.999996185302734 0 Z" stroke="none" fill="#487d94"/></g><g transform="translate(496 432)" fill="#fff"><path d="M 46.32443618774414 35.44631958007813 L 4.000006198883057 35.44631958007813 C 2.759356260299683 35.44631958007813 1.750006198883057 34.43696975708008 1.750006198883057 33.19631958007813 L 1.750006198883057 3.999999761581421 C 1.750006198883057 2.759349822998047 2.759356260299683 1.749999761581421 4.000006198883057 1.749999761581421 L 46.32443618774414 1.749999761581421 C 47.56508636474609 1.749999761581421 48.57443618774414 2.759349822998047 48.57443618774414 3.999999761581421 L 48.57443618774414 33.19631958007813 C 48.57443618774414 34.43696975708008 47.56508636474609 35.44631958007813 46.32443618774414 35.44631958007813 Z" stroke="none"/><path d="M 3.999996185302734 3.5 C 3.724296569824219 3.5 3.499996185302734 3.724300384521484 3.499996185302734 4 L 3.499996185302734 33.19631958007813 C 3.499996185302734 33.47201919555664 3.724296569824219 33.69631958007813 3.999996185302734 33.69631958007813 L 46.32442474365234 33.69631958007813 C 46.60012817382813 33.69631958007813 46.82442474365234 33.47201919555664 46.82442474365234 33.19631958007813 L 46.82442474365234 4 C 46.82442474365234 3.724300384521484 46.60012817382813 3.5 46.32442474365234 3.5 L 3.999996185302734 3.5 M 3.999996185302734 0 L 46.32442474365234 0 C 48.53356552124023 0 50.32442474365234 1.790859222412109 50.32442474365234 4 L 50.32442474365234 33.19631958007813 C 50.32442474365234 35.40546035766602 48.53356552124023 37.19631958007813 46.32442474365234 37.19631958007813 L 3.999996185302734 37.19631958007813 C 1.790866851806641 37.19631958007813 -3.814697265625e-06 35.40546035766602 -3.814697265625e-06 33.19631958007813 L -3.814697265625e-06 4 C -3.814697265625e-06 1.790859222412109 1.790866851806641 0 3.999996185302734 0 Z" stroke="none" fill="#487d94"/></g></g></svg>