<svg xmlns="http://www.w3.org/2000/svg" viewBox="0 0 30 30"><defs><style>.a{fill:#226ee6;}.b{fill:#fff;}</style></defs><g transform="translate(-133 -2607)"><circle class="a" cx="15" cy="15" r="15" transform="translate(133 2607)"/><path class="b" d="M29.014,0,27.285,0a3.036,3.036,0,0,0-3.2,3.281V4.794H22.349a.272.272,0,0,0-.272.272V7.258a.272.272,0,0,0,.272.272h1.738v5.531a.272.272,0,0,0,.272.272h2.268a.272.272,0,0,0,.272-.272V7.53h2.033a.272.272,0,0,0,.272-.272V5.066a.272.272,0,0,0-.272-.272H26.9V3.512c0-.616.147-.929.95-.929h1.165a.272.272,0,0,0,.272-.272V.275A.272.272,0,0,0,29.014,0Z" transform="translate(122.256 2615.667)"/></g></svg>