<svg xmlns="http://www.w3.org/2000/svg" width="70.458" height="46.33" viewBox="0 0 70.458 46.33"><path d="M762.843,591.3l-.016-.461q-.008-.232-.017-.465l0-.116,0-.058v-.015l0-.131v-.006l0-.024-.015-.193-.06-.776-.015-.2-.023-.254-.048-.507-.05-.5-.025-.251-.031-.231c-.084-.611-.16-1.212-.268-1.79-.051-.289-.1-.573-.151-.85l-.169-.809c-.1-.526-.235-1.018-.345-1.473l-.083-.333-.088-.316-.165-.583c-.053-.182-.1-.354-.148-.511l-.137-.43-.154-.479a.365.365,0,0,0-.448-.239l-11.912,3.395a.365.365,0,0,0-.259.418l.044.237.056.3c.019.108.035.226.054.352l.061.4c.01.07.023.142.032.216l.026.228c.033.31.083.643.1,1,.015.177.03.36.045.546s.017.378.027.572c.026.387.021.789.028,1.2l0,.151-.005.134q0,.134-.009.268t-.007.268l0,.134-.008.193q-.016.39-.033.778l-.008.194v.03c0,.029,0-.231,0-.119v.01l0,.038-.007.076-.027.3-.026.3-.036.3c-.025.2-.041.391-.072.581l-.081.559-.092.531c-.027.173-.063.339-.1.5s-.061.317-.1.465l-.1.425-.045.195-.044.158-.024.091H762.43a.364.364,0,0,0,.365-.348s0,0,0,0l.037-.835q.008-.427.017-.871c.008-.3,0-.6,0-.9Q762.845,591.529,762.843,591.3Z" transform="translate(-692.395 -548.383)" fill="#487d94"/><path d="M669.234,346.36a.365.365,0,0,0,.194-.5l-.14-.3-.165-.348-.252-.513-.289-.581c-.052-.106-.1-.194-.155-.294l-.162-.3c-.111-.2-.224-.416-.346-.634l-.39-.668-.2-.347-.219-.35-.453-.72c-.325-.478-.648-.979-1.008-1.466l-.267-.369-.134-.185-.14-.182-.562-.728c-.191-.24-.389-.475-.582-.711-.1-.117-.193-.236-.293-.351l-.3-.341-.3-.338c-.1-.113-.2-.223-.3-.33l-.6-.637c-.2-.208-.4-.4-.594-.6s-.385-.386-.578-.564l-.558-.522c-.179-.169-.362-.323-.533-.475l-.494-.432-.457-.376-.4-.329c-.124-.1-.243-.189-.348-.271l-.384-.295a.365.365,0,0,0-.5.058l-6.393,7.739a.365.365,0,0,0,.024.492l.185.183c.067.067.143.138.221.22l.253.267.288.3.308.346c.106.122.221.243.332.378l.344.413c.12.139.235.291.354.443s.243.305.361.468l.36.494c.062.082.121.168.179.255l.177.26.178.261c.06.087.114.179.171.268.113.18.23.358.341.54l.324.55.081.136.076.139.151.276c.207.363.382.736.565,1.088l.247.53.12.256.108.254.209.486.18.46.085.216c.026.069.058.143.076.2l.117.341.1.3.117.348.1.31a.365.365,0,0,0,.483.223Z" transform="translate(-602.575 -318.736)" fill="#487d94"/><path d="M452.387,243.287l.321.044.375.065.426.073c.13.022.265.053.406.082l4.035-8.253-.593-.093c-.133-.02-.264-.043-.395-.059l-.387-.047-.741-.088-.694-.059c-.223-.017-.435-.04-.638-.049l-.576-.028-.506-.024-.43-.007-.461-.006a.365.365,0,0,0-.369.348l-.368,7.682a.365.365,0,0,0,.315.38Z" transform="translate(-418.285 -229.485)" fill="#487d94"/><path d="M596.669,276.454l.308.224.271.194c.036.025.1.07.145.107l.144.107.262.2a.365.365,0,0,0,.524-.093l5.268-8.024a.365.365,0,0,0-.123-.518l-.284-.163-.156-.089-.186-.105-.485-.267-.552-.3-.583-.292c-.2-.1-.412-.21-.635-.311l-.688-.315c-.234-.111-.482-.211-.733-.317s-.506-.216-.771-.316l-.2-.077-2.273,9.864c.126.079.244.163.361.238Z" transform="translate(-551.722 -258.423)" fill="#487d94"/><path d="M197.84,245.99c.1-.013.2-.03.3-.041l.3-.03.565-.059.53-.036.249-.017c.081-.005.162-.012.231-.012l.406-.011.356-.011.373,0,.327,0a.365.365,0,0,0,.362-.39l-.474-7.236a.365.365,0,0,0-.41-.339l-.324.041-.377.048-.525.078-.6.091c-.107.015-.206.035-.31.055l-.317.061-.673.13-.715.163-.372.086c-.125.029-.251.065-.379.1l-.779.208-.8.241c-.134.042-.27.081-.405.125l-.405.138-.408.14c-.136.046-.273.093-.408.146l-.813.31c-.27.106-.536.223-.8.334-.133.057-.266.111-.4.169l-.39.18-.386.179c-.128.059-.255.117-.379.182l-.736.371c-.242.121-.472.255-.7.378s-.451.245-.663.374l-.619.367c-.2.117-.386.243-.568.357l-.519.333-.458.314-.4.277c-.124.086-.234.17-.335.244l-.349.257a.365.365,0,0,0-.085.5l3,4.418a.365.365,0,0,0,.482.113l.269-.152c.09-.05.187-.108.3-.165l.354-.185.4-.21.453-.217c.159-.074.319-.158.493-.232l.533-.234c.181-.083.373-.156.567-.234s.391-.161.6-.234l.621-.224c.1-.04.211-.073.318-.107l.323-.1.325-.105c.109-.033.22-.063.33-.095.221-.061.44-.129.663-.186l.667-.165c.11-.029.222-.052.333-.075l.332-.07.328-.07c.109-.022.219-.039.327-.058l.641-.111Z" transform="translate(-170.811 -232.229)" fill="#487d94"/><path d="M28.176,363.159l-.237.336-.239.338c-.079.113-.154.231-.231.346-.152.233-.308.464-.457.7l-.437.711-.108.177-.1.18-.2.358c-.277.471-.518.953-.763,1.41l-.336.687-.162.333-.148.329-.283.631-.247.6c-.078.192-.156.373-.223.549l-.187.5-.164.44-.129.377-.129.383A.365.365,0,0,0,23.6,373l2.8,1.072a.365.365,0,0,0,.461-.183l.146-.3.154-.32.193-.371.218-.421c.077-.148.167-.3.255-.46l.28-.5.315-.522.164-.272.177-.273.365-.563c.263-.372.52-.764.811-1.143l.214-.288.107-.144.112-.141.45-.566c.153-.187.311-.368.466-.552.078-.091.153-.184.233-.272l.239-.264.237-.262c.078-.087.156-.173.238-.255l.475-.492c.156-.161.318-.311.472-.463s.3-.3.458-.435l.442-.4c.142-.131.287-.247.422-.364l.389-.331.345-.273.3-.24c.043-.035.1-.078.149-.115l.143-.108.261-.2a.365.365,0,0,0,.057-.529l-3.184-3.73a.365.365,0,0,0-.531-.026l-.235.227-.129.125c-.046.045-.09.085-.147.144l-.353.357-.4.406-.412.446c-.142.157-.295.315-.443.488l-.46.533c-.16.181-.314.375-.474.572s-.324.4-.483.605l-.482.638C28.333,362.937,28.254,363.047,28.176,363.159Z" transform="translate(-21.636 -343.686)" fill="#487d94"/><path d="M.753,597.921l-.065.32-.075.369c-.027.137-.053.3-.082.465l-.092.533c-.016.093-.033.19-.048.287l-.04.3c-.052.4-.121.84-.161,1.3l-.071.713c-.02.244-.033.493-.05.746-.04.505-.047,1.029-.064,1.559l-.005.2v.2l0,.4q0,.2,0,.4v.2l.008.2.033.8.008.2,0,.065,0,.048.007.1.028.384.028.381.038.394.038.389.019.192.024.188.093.732.107.7c.033.227.075.446.113.658l.009.051a.365.365,0,0,0,.359.3h.986a.366.366,0,0,0,.365-.387q-.005-.084-.011-.17c-.012-.2-.027-.415-.032-.633l-.022-.668q0-.342,0-.7v-.178q0-.088,0-.177,0-.177.008-.357t.008-.361q.009-.19.018-.382l.018-.385,0-.1,0-.048v-.006c0-.015,0,.014,0,.009v-.012l0-.023.015-.187.06-.75L2.364,606l.022-.187.043-.373.043-.371.021-.185.027-.183c.075-.487.139-.967.232-1.426.044-.23.083-.456.128-.676l.144-.643c.086-.418.2-.807.289-1.168l.069-.264c.024-.085.049-.165.072-.245l.134-.449c.043-.142.078-.269.12-.4l.119-.358.1-.31a.365.365,0,0,0-.253-.468l-2.471-.659A.365.365,0,0,0,.753,597.921Z" transform="translate(0 -565.368)" fill="#487d94"/><path d="M347.484,208.022a5.684,5.684,0,0,0,7.608-2.612,5.963,5.963,0,0,0,.433-1.221l5.754-24.973,2.191-9.511,1.357-5.892a.932.932,0,0,0-.935-1.153.9.9,0,0,0-.822.53l-2.762,5.65-4.075,8.335-11.36,23.237A5.688,5.688,0,0,0,347.484,208.022Zm2.7-8.042a2.788,2.788,0,1,1-2.788,2.788A2.788,2.788,0,0,1,350.189,199.98Z" transform="translate(-318.759 -162.661)" fill="#487d94"/></svg>