<svg xmlns="http://www.w3.org/2000/svg" width="27.578" height="26.319" viewBox="0 0 27.578 26.319"><g transform="translate(-650.641 -254.828)"><path d="M-12224.35,3408.938s10.9-1.665,13.259,8-4.653,5.418-12.063,4.981-14.617,5.776-13.385-2.973S-12224.35,3408.938-12224.35,3408.938Z" transform="translate(12887.318 -3154)" fill="#1dcb9a"/><g transform="translate(656.073 259.02)"><g transform="translate(0 0)"><path d="M28.383,17.912l-11.2-11.2a.83.83,0,0,0-.648-.229l-8.392.954a.792.792,0,0,0-.706.706l-.954,8.392a.806.806,0,0,0,.229.648l11.2,11.2a.808.808,0,0,0,.572.229.841.841,0,0,0,.572-.229L28.4,19.038a.776.776,0,0,0,.229-.572.916.916,0,0,0-.248-.553ZM8.128,16.329l.839-7.362,7.362-.839,7.61,7.61-8.2,8.2-7.61-7.61ZM18.484,26.686l-1.6-1.6,8.2-8.2,1.6,1.6Z" transform="translate(-6.485 -6.485)"/><path d="M32.647,28.4a3.03,3.03,0,0,0-2.155-.9,3.042,3.042,0,0,0-2.155,5.188,3.03,3.03,0,0,0,2.155.9,3.063,3.063,0,0,0,2.155-.9,3.016,3.016,0,0,0,0-4.291Zm-1.125,3.166a1.5,1.5,0,0,1-2.041,0,1.462,1.462,0,0,1,0-2.041,1.43,1.43,0,0,1,2.441,1.011A1.379,1.379,0,0,1,31.522,31.562Z" transform="translate(-23.451 -23.492)"/></g></g></g></svg>