<svg xmlns="http://www.w3.org/2000/svg" width="18.56" height="18.534" viewBox="0 0 18.56 18.534"><g transform="translate(-851.748 -486.248)"><path d="M868.367,486.248H853.689a1.942,1.942,0,0,0-1.941,1.938v14.657a1.942,1.942,0,0,0,1.941,1.938h14.678a1.942,1.942,0,0,0,1.941-1.938V488.186A1.942,1.942,0,0,0,868.367,486.248Zm.438,16.6a.438.438,0,0,1-.438.437H853.689a.438.438,0,0,1-.438-.437V488.186a.438.438,0,0,1,.438-.437h14.678a.438.438,0,0,1,.438.437Z" fill="#b0b5c3"/><path d="M908.59,517.5h-4.352a.74.74,0,1,0,0,1.48h4.352a.74.74,0,1,0,0-1.48Z" transform="translate(-42.538 -25.727)" fill="#b0b5c3"/><path d="M908.59,537.5h-4.352a.74.74,0,1,0,0,1.48h4.352a.74.74,0,1,0,0-1.48Z" transform="translate(-42.538 -42.193)" fill="#b0b5c3"/><path d="M908.59,557.5h-4.352a.74.74,0,0,0,0,1.48h4.352a.74.74,0,0,0,0-1.48Z" transform="translate(-42.538 -58.659)" fill="#b0b5c3"/><path d="M875.084,511.62a.74.74,0,0,0-1.026.209l-.886,1.34-.41-.41a.74.74,0,1,0-1.047,1.047l.693.693a1.15,1.15,0,0,0,.815.338c.035,0,.071,0,.107-.005a1.156,1.156,0,0,0,.852-.506l1.111-1.68A.74.74,0,0,0,875.084,511.62Z" transform="translate(-16.245 -20.779)" fill="#b0b5c3"/><path d="M875.084,531.62a.74.74,0,0,0-1.026.209l-.886,1.34-.41-.41a.74.74,0,1,0-1.047,1.047l.693.693a1.15,1.15,0,0,0,.815.338q.053,0,.107-.005a1.156,1.156,0,0,0,.852-.506l1.111-1.68A.74.74,0,0,0,875.084,531.62Z" transform="translate(-16.245 -37.238)" fill="#b0b5c3"/></g></svg>