<svg xmlns="http://www.w3.org/2000/svg" width="113.429" height="80.375" viewBox="0 0 113.429 80.375"><g transform="translate(-521.064 -829)"><rect width="46" height="35" transform="translate(587 831)" fill="#fff"/><rect width="46" height="35" transform="translate(522 874)" fill="#fff"/><rect width="46" height="35" transform="translate(555 851)" fill="#fff"/><g transform="translate(63.001 501.094)"><path d="M-11846.431-16963.037h-41.182c-2.418,0-3.895-.5-3.895-2.926v-3.191l-.492-27.549a4.4,4.4,0,0,1,4.387-4.395h25.23v1.672l-24.605,1.26,20.059,19.889,5.26-5.262a5.27,5.27,0,0,0,3.779,2.582l12.924,12.922,1.141-12.861h1.785v13.465A4.4,4.4,0,0,1-11846.431-16963.037Zm-26.467-17.033h0l-14.109,14.107h39.971l-14.029-14.035-4.818,4.82a1.467,1.467,0,0,1-1.037.432,1.469,1.469,0,0,1-1.033-.426l-4.943-4.9Zm-16.178-16.041-.893,14.709.893,13.367,14.1-14.1-5.921-7.793-8.179-6.184Z" transform="translate(12380.736 17350.16)" fill="#e6ba73"/><g transform="translate(521.531 327.906)"><g transform="translate(0 0)"><path d="M45.571,61H4.391A4.4,4.4,0,0,0,0,65.391V94.666a4.4,4.4,0,0,0,4.391,4.391H45.571a4.4,4.4,0,0,0,4.391-4.391V65.391A4.4,4.4,0,0,0,45.571,61Zm-.606,2.927L25.074,83.818l-21.424-21,30.09-.7ZM2.927,94.06V65.983l14.1,13.978ZM5,96.13,19.1,82.022l4.943,4.9a1.464,1.464,0,0,0,2.066,0l4.82-4.82L44.964,96.13Zm42.037-2.07L33,80.029,47.034,66Z" transform="translate(0 -61)" fill="#707070"/></g></g><path d="M-11846.431-16968.035h-41.182c-2.418,0-3.322-1.971-3.322-4.393v-29.279c0-2.418.9-4.387,3.322-4.387h25.393a4.137,4.137,0,0,0-.162,1.152v1.771h-24.605l20.059,19.891,4.982-4.98a4.206,4.206,0,0,0,3.8,2.365h.322l12.861,12.859v-12.859l1.452.006c.08,0,.16,0,.24-.006l1.233,13.467A4.4,4.4,0,0,1-11846.431-16968.035Zm-26.467-17.037h0l-14.109,14.107h39.971l-14.029-14.031-4.818,4.822a1.471,1.471,0,0,1-1.037.428,1.459,1.459,0,0,1-1.033-.428l-4.943-4.9Zm-16.178-16.039v28.076l14.1-14.1-14.1-13.979Z" transform="translate(12348.998 17376.316)" fill="#b0b5c3"/></g></g></svg>