<svg xmlns="http://www.w3.org/2000/svg" width="8" height="8.667" viewBox="0 0 8 8.667"><g transform="translate(-18.283)"><path d="M26.028,4.844A1.506,1.506,0,0,0,26.283,4,1.352,1.352,0,0,0,24.95,2.667h-.917a2.287,2.287,0,0,0,.25-1A2.161,2.161,0,0,0,24.1.7a1.145,1.145,0,0,0-.531-.529A1.779,1.779,0,0,0,22.783,0a.661.661,0,0,0-.469.193,1.252,1.252,0,0,0-.323.563q-.1.344-.159.659a.884.884,0,0,1-.185.445q-.255.276-.557.667a4.607,4.607,0,0,1-.714.807H18.95A.667.667,0,0,0,18.283,4V7.334A.667.667,0,0,0,18.95,8h1.5a3.852,3.852,0,0,1,.719.208q.641.224,1.128.341a4.2,4.2,0,0,0,.987.117h.672a1.66,1.66,0,0,0,1.182-.419A1.475,1.475,0,0,0,25.58,7.1a1.466,1.466,0,0,0,.312-.927,1.575,1.575,0,0,0-.016-.224,1.5,1.5,0,0,0,.2-.75A1.36,1.36,0,0,0,26.028,4.844Zm-6.51,2.391a.327.327,0,1,1,.1-.234A.321.321,0,0,1,19.517,7.235ZM25.5,4.422q-.112.24-.279.245a.7.7,0,0,1,.13.247.936.936,0,0,1,.052.289.823.823,0,0,1-.276.62.72.72,0,0,1,.094.359.877.877,0,0,1-.091.383.581.581,0,0,1-.247.273,1.781,1.781,0,0,1,.026.292q0,.87-1,.87h-.63A5.754,5.754,0,0,1,21.5,7.62l-.151-.055L21.166,7.5l-.182-.06q-.122-.039-.2-.057t-.172-.034a1.05,1.05,0,0,0-.164-.016h-.167V4h.167a.448.448,0,0,0,.185-.047.88.88,0,0,0,.208-.141q.107-.094.2-.185a2.963,2.963,0,0,0,.208-.229q.115-.138.18-.221l.164-.214.12-.156q.286-.354.4-.474a1.323,1.323,0,0,0,.31-.57q.1-.346.159-.654a.862.862,0,0,1,.2-.443.758.758,0,0,1,.667.245,1.36,1.36,0,0,1,.167.755,2.127,2.127,0,0,1-.25.836,2.125,2.125,0,0,0-.25.831H24.95a.642.642,0,0,1,.464.2.635.635,0,0,1,.2.466A1.024,1.024,0,0,1,25.5,4.422Z" transform="translate(0 0)" fill="#959595"/></g></svg>