<svg xmlns="http://www.w3.org/2000/svg" width="20" height="20" viewBox="0 0 20 20"><g transform="translate(-15 -208)"><rect width="20" height="20" rx="2" transform="translate(15 208)" fill="none"/><g transform="translate(-709.248 121.921)"><g transform="translate(725.248 88.248)"><circle cx="1.607" cy="1.607" r="1.607" transform="translate(6.336 1.562)" fill="#fff"/><path d="M753.195,122.752a3.447,3.447,0,0,0-3.443,3.443v2.525H756a.64.64,0,0,0,.639-.639v-1.885A3.447,3.447,0,0,0,753.195,122.752Z" transform="translate(-745.252 -116.416)" fill="#fff"/><path d="M735.493,93.586a3.168,3.168,0,1,0-4.6,0,5.009,5.009,0,0,0-2.7,4.441v2.525h-2.157a.781.781,0,1,0,0,1.562h9.966a2.2,2.2,0,0,0,2.2-2.2V98.027A5.009,5.009,0,0,0,735.493,93.586Zm1.141,6.327a.64.64,0,0,1-.639.639h-6.247V98.027a3.443,3.443,0,1,1,6.886,0Zm-5.049-8.5a1.606,1.606,0,1,1,1.606,1.606A1.608,1.608,0,0,1,731.584,91.416Z" transform="translate(-725.248 -88.248)" fill="#828793"/></g><g transform="translate(732.777 89.717)"><circle cx="1.607" cy="1.607" r="1.607" transform="translate(3.398 1.562)" fill="#fff"/><path d="M778.195,130.752a3.447,3.447,0,0,0-3.443,3.443v2.3a.229.229,0,0,0,.229.229H781a.64.64,0,0,0,.639-.639v-1.885A3.447,3.447,0,0,0,778.195,130.752Z" transform="translate(-773.19 -124.416)" fill="#fff"/><path d="M773.555,101.586a3.168,3.168,0,1,0-4.6,0,5.009,5.009,0,0,0-2.7,4.441v2.3a1.793,1.793,0,0,0,1.791,1.791h6.018a2.2,2.2,0,0,0,2.2-2.2v-1.885A5.009,5.009,0,0,0,773.555,101.586Zm1.141,6.327a.64.64,0,0,1-.639.639h-6.018a.229.229,0,0,1-.229-.229v-2.3a3.443,3.443,0,1,1,6.886,0Zm-5.049-8.5a1.607,1.607,0,1,1,1.606,1.606A1.608,1.608,0,0,1,769.646,99.416Z" transform="translate(-766.248 -96.248)" fill="#b0b5c3"/></g></g></g></svg>