<svg xmlns="http://www.w3.org/2000/svg" width="20" height="18" viewBox="0 0 20 18"><g transform="translate(0 -22.5)"><path d="M19.681,22.5H.319A.318.318,0,0,0,0,22.818V40.182a.318.318,0,0,0,.319.318H19.681A.318.318,0,0,0,20,40.182V36.794a.319.319,0,0,0-.638,0v3.071H.638V25.676H19.362v9.847a.319.319,0,0,0,.638,0V22.818A.318.318,0,0,0,19.681,22.5ZM.638,23.135H12.447v1.906H.638Zm12.447,1.906V23.135h6.277v1.906Z" transform="translate(0 0)" fill="#175d7a"/><path d="M373.84,52a.339.339,0,1,0,.34.339A.34.34,0,0,0,373.84,52Z" transform="translate(-357.606 -28.251)" fill="#175d7a"/><path d="M332.84,52a.339.339,0,1,0,.34.339A.34.34,0,0,0,332.84,52Z" transform="translate(-318.351 -28.251)" fill="#175d7a"/><path d="M414.84,52a.339.339,0,1,0,.34.339A.34.34,0,0,0,414.84,52Z" transform="translate(-396.862 -28.251)" fill="#175d7a"/><g transform="translate(2 27.5)" fill="#fff" stroke="#175d7a" stroke-linecap="round" stroke-width="0.75"><rect width="16" height="10" rx="1" stroke="none"/><rect x="0.375" y="0.375" width="15.25" height="9.25" rx="0.625" fill="none"/></g><path d="M9.25,30.407,11.941,32.4,9.25,34.408Z" fill="#175d7a"/></g></svg>