<svg xmlns="http://www.w3.org/2000/svg" width="84.945" height="80.565" viewBox="0 0 84.945 80.565"><g transform="translate(0 -0.039)"><path d="M32.415,103.979a4.994,4.994,0,1,0-4.994-4.994A4.993,4.993,0,0,0,32.415,103.979Zm0-6.63a1.637,1.637,0,1,1-1.637,1.637A1.637,1.637,0,0,1,32.415,97.349Zm0,0" transform="translate(-22.819 -78.183)" fill="#175d7a"/><path d="M97.415,103.979a4.994,4.994,0,1,0-4.994-4.994A4.993,4.993,0,0,0,97.415,103.979Zm0-6.63a1.637,1.637,0,1,1-1.637,1.637A1.637,1.637,0,0,1,97.415,97.349Zm0,0" transform="translate(-76.909 -78.183)" fill="#175d7a"/><path d="M162.415,103.979a4.994,4.994,0,1,0-4.994-4.994A4.993,4.993,0,0,0,162.415,103.979Zm0-6.63a1.637,1.637,0,1,1-1.637,1.637A1.637,1.637,0,0,1,162.415,97.349Zm0,0" transform="translate(-130.999 -78.183)" fill="#175d7a"/><path d="M270.1,302.023H249.408a1.7,1.7,0,0,0,0,3.357H270.1a1.7,1.7,0,0,0,0-3.357Zm0,0" transform="translate(-223.373 -264.296)" fill="#487d94"/><path d="M285.616,302.023H250.4c-1.323,0-2.4.751-2.4,1.679s1.073,1.678,2.4,1.678h35.22c1.323,0,2.4-.751,2.4-1.678S286.939,302.023,285.616,302.023Zm0,0" transform="translate(-223.373 -250.296)" fill="#487d94"/><path d="M285.616,302.023H250.4c-1.323,0-2.4.751-2.4,1.679s1.073,1.678,2.4,1.678h35.22c1.323,0,2.4-.751,2.4-1.678S286.939,302.023,285.616,302.023Zm0,0" transform="translate(-223.373 -236.296)" fill="#487d94"/><path d="M61.846.039A23.168,23.168,0,0,0,41.84,11.618H8.393A8.4,8.4,0,0,0,0,20.005V72.212A8.4,8.4,0,0,0,8.393,80.6H71.646a8.424,8.424,0,0,0,8.419-8.393V37.319A23.085,23.085,0,0,0,61.846.039Zm0,3.354A19.729,19.729,0,1,1,42.117,23.122,19.729,19.729,0,0,1,61.846,3.393ZM8.393,14.975H40.249a22.892,22.892,0,0,0-1.488,8.153,23.188,23.188,0,0,0,.282,3.6H3.357V20.005A5.037,5.037,0,0,1,8.393,14.975ZM71.646,77.247H8.393a5.041,5.041,0,0,1-5.036-5.036V30.082H39.832a23.059,23.059,0,0,0,12.2,13.932,20.18,20.18,0,0,0,7.508,2.08c.76.076,1.544.115,2.323.115A23.042,23.042,0,0,0,76.707,40.8V72.212A5.064,5.064,0,0,1,71.646,77.247Zm0,0" fill="#175d7a"/><path d="M284.856,101.946a1.725,1.725,0,0,0,.862.231,1.7,1.7,0,0,0,.825-.213l3.267-1.865a4,4,0,0,0,3.917,3.044H308.12A4.007,4.007,0,0,0,312.2,99.2V89.967a4.008,4.008,0,0,0-4.079-3.944H293.728a4,4,0,0,0-3.92,3.078l-3.257-1.84a1.728,1.728,0,0,0-1.695.007A1.688,1.688,0,0,0,284,88.706V100.5A1.7,1.7,0,0,0,284.856,101.946Zm23.986-2.66a.668.668,0,0,1-.668.668H293.732a.668.668,0,0,1-.668-.668V90.048a.668.668,0,0,1,.668-.668h14.442a.668.668,0,0,1,.668.668Zm-21.485-7.72,2.35,1.281v3.508l-2.35,1.282Zm0,0" transform="translate(-236.331 -71.551)" fill="#1dcb9a"/><g transform="translate(-19566 10221)" fill="#fff" stroke-linecap="round"><path d="M 19585.5 -10150.462890625 L 19578.501953125 -10150.462890625 L 19578.501953125 -10157.4619140625 L 19585.5 -10157.4619140625 L 19585.5 -10150.462890625 Z M 19585.5 -10164.462890625 L 19578.501953125 -10164.462890625 L 19578.501953125 -10171.4619140625 L 19585.5 -10171.4619140625 L 19585.5 -10164.462890625 Z M 19585.5 -10178.462890625 L 19578.501953125 -10178.462890625 L 19578.501953125 -10185.4619140625 L 19585.5 -10185.4619140625 L 19585.5 -10178.462890625 Z" stroke="none"/><path d="M 19584 -10151.962890625 L 19584 -10155.9619140625 L 19580.001953125 -10155.9619140625 L 19580.001953125 -10151.962890625 L 19584 -10151.962890625 M 19584 -10165.962890625 L 19584 -10169.9619140625 L 19580.001953125 -10169.9619140625 L 19580.001953125 -10165.962890625 L 19584 -10165.962890625 M 19584 -10179.962890625 L 19584 -10183.9619140625 L 19580.001953125 -10183.9619140625 L 19580.001953125 -10179.962890625 L 19584 -10179.962890625 M 19586.001953125 -10148.962890625 L 19578 -10148.962890625 C 19577.451171875 -10148.962890625 19577.001953125 -10149.41015625 19577.001953125 -10149.9609375 L 19577.001953125 -10157.958984375 C 19577.001953125 -10158.51171875 19577.451171875 -10158.9619140625 19578 -10158.9619140625 L 19586.001953125 -10158.9619140625 C 19586.55078125 -10158.9619140625 19587 -10158.51171875 19587 -10157.958984375 L 19587 -10149.9609375 C 19587 -10149.41015625 19586.55078125 -10148.962890625 19586.001953125 -10148.962890625 Z M 19586.001953125 -10162.962890625 L 19578 -10162.962890625 C 19577.451171875 -10162.962890625 19577.001953125 -10163.41015625 19577.001953125 -10163.9609375 L 19577.001953125 -10171.958984375 C 19577.001953125 -10172.51171875 19577.451171875 -10172.9619140625 19578 -10172.9619140625 L 19586.001953125 -10172.9619140625 C 19586.55078125 -10172.9619140625 19587 -10172.51171875 19587 -10171.958984375 L 19587 -10163.9609375 C 19587 -10163.41015625 19586.55078125 -10162.962890625 19586.001953125 -10162.962890625 Z M 19586.001953125 -10176.962890625 L 19578 -10176.962890625 C 19577.451171875 -10176.962890625 19577.001953125 -10177.41015625 19577.001953125 -10177.9609375 L 19577.001953125 -10185.958984375 C 19577.001953125 -10186.51171875 19577.451171875 -10186.9619140625 19578 -10186.9619140625 L 19586.001953125 -10186.9619140625 C 19586.55078125 -10186.9619140625 19587 -10186.51171875 19587 -10185.958984375 L 19587 -10177.9609375 C 19587 -10177.41015625 19586.55078125 -10176.962890625 19586.001953125 -10176.962890625 Z" stroke="none" fill="#487d94"/></g></g></svg>