<svg xmlns="http://www.w3.org/2000/svg" width="116.432" height="97.36" viewBox="0 0 116.432 97.36"><g transform="translate(-429 -269)"><path d="M1062.442-5745.289s12.314-2.973,16.712,3.62,5.608,10.973,6.112,14.8a29.6,29.6,0,0,1,0,7.264h-5.148s.757-6.792,0-9.54-4.8-10.932-7.1-11.621S1062.442-5745.289,1062.442-5745.289Z" transform="translate(-610 6065)" fill="#b0b5c3"/><path d="M1101.839-5720.112l-1.942,8h15.531l-.727-8Z" transform="translate(-610 6065)" fill="#b0b5c3"/><path d="M1088.914-5721.069s-.415-20.044,3.38-23.559,7.3-6.884,7.3-6.884,4.049,3.109,6.687,2.385a26.572,26.572,0,0,0,5.454-2.385s6.794,1.471,8.13,9.557,0,20.886,0,20.886Z" transform="translate(-610 6065)" fill="#b0b5c3"/><g transform="translate(-32.724 -22.101)"><path d="M525.407,372.469a4.237,4.237,0,0,1,.024-1.91c.159-.637.345-1.274.444-1.911l.316-1.91.387-1.911c.287-1.274.567-2.547.937-3.821h.468c.37,1.274.65,2.547.937,3.821l.387,1.911.316,1.91c.1.637.286,1.274.445,1.911a4.238,4.238,0,0,1,.024,1.91,8.492,8.492,0,0,1-.644,1.826c2.876-.1,5.752-.284,8.628-.381,1.514-.047,3.029-.074,4.544-.055s3.029.064,4.544.125l1.067.043a8.891,8.891,0,0,1-.518-1.557,4.237,4.237,0,0,1,.024-1.91c.159-.637.345-1.274.444-1.911l.316-1.91.387-1.911c.287-1.274.567-2.547.937-3.821h.468c.37,1.274.65,2.547.937,3.821l.387,1.911.316,1.91c.1.637.286,1.274.445,1.911a4.238,4.238,0,0,1,.024,1.91,8.832,8.832,0,0,1-.516,1.551q2.626-.076,5.25-.115,0-4.264.1-8.527l.1-2.728c.05-.959.007-1.678.045-2.513a21.279,21.279,0,0,0-.839-4.821,20.019,20.019,0,0,0-2.184-4.53A18.279,18.279,0,0,0,550.839,347a17.407,17.407,0,0,0-4.612-2.555c-.041-.015-.084-.025-.126-.039a12.255,12.255,0,0,1-2.112,2.1,9.61,9.61,0,0,1-5.5,2.042,10.061,10.061,0,0,1-5.731-1.713,13.075,13.075,0,0,1-2.431-2.088,6.39,6.39,0,0,0-.943.416,17.764,17.764,0,0,0-8.058,8.046,19.251,19.251,0,0,0-1.7,5.382l-.167,1.4-.031,1.4c-.019.936.031,1.974.043,2.957l.221,10.435,6.54-.14A8.136,8.136,0,0,1,525.407,372.469Z" transform="translate(-10.033 -9.268)" fill="none"/><path d="M547.579,388.034c-.178-.747-.338-1.488-.488-2.227-.886.03-1.771.053-2.657.055-1.514.018-3.029-.008-4.544-.055-2.477-.083-4.953-.221-7.431-.328-.431,2.554-.839,5.11-1.262,7.666l-1.333,7.939,3.52-.209,6.506-.316c2.169-.1,4.337-.286,6.506-.444q2.141-.145,4.282-.107l-2-7.544C548.264,390.946,547.92,389.483,547.579,388.034Z" transform="translate(-11.847 -16.409)" fill="none"/><path d="M577.99,350.051l-.488-21.169-.483-21.168-.088-5.292-.021-1.323c-.009-.409-.007-.975-.036-1.171a3.552,3.552,0,0,0-3.114-3.209c-.13-.028-.268-.009-.4-.024l-.63,0-1.323.013-2.646.026c-28.225.2-56.449-.232-84.673-.468a3.941,3.941,0,0,0-3.131,1.5,3.989,3.989,0,0,0-.767,1.623c-.017.15-.059.3-.066.45,0,.171-.026.259-.024.512l-.011,1.323L480,312.264l-.18,21.169-.068,8.373a21.552,21.552,0,0,1,6.816-1.011l2.164.17c.715.108,1.426.249,2.135.378.7.164,1.386.407,2.074.612.675.249,1.331.546,1.991.82a21.21,21.21,0,0,1,6.693,5.133A22.51,22.51,0,0,1,507,362.964a21.354,21.354,0,0,1-.431,3.932l3.324.028.232-10.949c.033-1.008.015-1.962.09-3.015.044-.527.078-1.054.133-1.578l.283-1.556a19.107,19.107,0,0,1,11.6-13.614c.267-.107.539-.2.81-.293a16.038,16.038,0,0,1-1.258-1.668,21.805,21.805,0,0,1-3.214-10.941c-.007-.333,0-.668,0-1a14.594,14.594,0,0,1-1.969.029l-.891-.054-.084-.961a33.689,33.689,0,0,1,.343-9.015,15.545,15.545,0,0,1,1.557-4.531,6.859,6.859,0,0,1,.7-1.084,6.407,6.407,0,0,1,.9-1.007l.53-.457.268-.224.232-.162c.31-.211.61-.429.928-.634a19.376,19.376,0,0,1,8.813-3.593,9.867,9.867,0,0,1,5.291,1.013,11.763,11.763,0,0,1,2.932,2.156c.07-.014.139-.033.209-.044a9.958,9.958,0,0,1,1.678-.164,8.528,8.528,0,0,1,3.614.679,7.2,7.2,0,0,1,3.024,2.635,8.1,8.1,0,0,1,.781,1.708l.266.858.137.828.109.823.039.706q.045.7.05,1.418c.013.947-.021,1.908-.1,2.869a22.761,22.761,0,0,1-.472,2.918,13.934,13.934,0,0,1-.431,1.485c-.1.251-.2.5-.32.759-.055.125-.13.263-.2.395-.09.157-.129.237-.31.509l-1.331,1.991-1.31-1.818c-.078-.108-.172-.221-.254-.33.009.434.011.867,0,1.3a23.937,23.937,0,0,1-2.632,10.5,15.522,15.522,0,0,1-.942,1.507,20.691,20.691,0,0,1,9.626,5.53,21.155,21.155,0,0,1,3.439,4.778,20.387,20.387,0,0,1,1.845,5.719c.278,2.1.249,3.836.34,5.665.085,3.385.125,6.771.1,10.157q9.114,0,18.229-.069a4.938,4.938,0,0,0,4.783-4,6.351,6.351,0,0,0,.082-1.138l-.014-1.323ZM494,302.063a6.9,6.9,0,0,1-1.859,1.421,7.439,7.439,0,0,1-1.859.687,6.2,6.2,0,0,1-1.859.132c-.14-.014-.28-.034-.421-.058q-.133.651-.268,1.3c-.287,1.239-.567,2.478-.937,3.718h-.468c-.37-1.239-.65-2.478-.937-3.718-.259-1.239-.526-2.478-.7-3.718l-.087-.612,1.96-1.261a4.029,4.029,0,0,1,1.859-.6,6.2,6.2,0,0,1,1.859.132,7.44,7.44,0,0,1,1.859.687,6.915,6.915,0,0,1,1.859,1.42Zm77.657,58.643a4.029,4.029,0,0,1-1.859.6,6.2,6.2,0,0,1-1.859-.132,7.44,7.44,0,0,1-1.859-.687,6.9,6.9,0,0,1-1.859-1.421V358.6a6.914,6.914,0,0,1,1.859-1.42,7.44,7.44,0,0,1,1.859-.687,6.2,6.2,0,0,1,1.859-.132c.14.014.28.034.42.058q.133-.651.268-1.3c.287-1.239.567-2.478.937-3.718h.468c.37,1.239.65,2.478.937,3.718.259,1.239.526,2.478.7,3.718l.087.612ZM574,305.547a7.441,7.441,0,0,1-.687,1.859,6.9,6.9,0,0,1-1.421,1.859h-.468A6.9,6.9,0,0,1,570,307.406a7.441,7.441,0,0,1-.687-1.859,6.194,6.194,0,0,1-.132-1.859c.013-.14.033-.28.058-.421q-.651-.133-1.3-.268c-1.239-.287-2.478-.567-3.718-.937v-.468c1.239-.37,2.478-.649,3.718-.936,1.239-.259,2.478-.526,3.718-.7l.612-.087,1.261,1.96a4.029,4.029,0,0,1,.6,1.859A6.194,6.194,0,0,1,574,305.547Z" transform="translate(-3.134 -0.898)" fill="none"/><path d="M578.139,298.727a7.707,7.707,0,0,0-1.034-3.482,8.048,8.048,0,0,0-5.9-3.969,8.538,8.538,0,0,0-.918-.073l-.693-.011-1.323-.013-2.646-.026c-28.225-.2-56.449.232-84.673.468a7.641,7.641,0,0,0-7.441,6.167c-.04.287-.1.573-.112.86-.012.269-.033.621-.025.809l.011,1.323.09,10.584.18,21.169.078,9.542a21.631,21.631,0,0,0-12,19.989,21.585,21.585,0,0,0,6.6,15.1,21.232,21.232,0,0,0,15.1,5.9,20.987,20.987,0,0,0,7.954-1.8,20.618,20.618,0,0,0,6.564-4.683,21.726,21.726,0,0,0,4.957-8.531l3.808-.033-.009.45,1.51.032,8.6.185c-.235,2.542-.493,5.082-.736,7.623l-.8,8.527-.255.016c-4.337.315-8.674.563-13.012.936v.468c4.337.374,8.674.622,13.012.937l.036,0-.016.172,1.426-.049c.128,0,.254-.012.382-.017l4.678.278,6.506.316c2.169.1,4.337.286,6.506.444a49.268,49.268,0,0,0,6.506.024,59.46,59.46,0,0,0,13.012-2.108v-.468a59.506,59.506,0,0,0-13.012-2.107c-.4-.026-.8-.04-1.2-.055.012-.6.024-1.213.037-1.836.013-1.543.043-3.141.015-4.8,0-1.649-.069-3.353-.141-5.072-.036-.892-.089-1.791-.152-2.692,3.3.1,6.6.2,9.906.218l2.4.013.018-1.683q9.119,0,18.238.069a6.673,6.673,0,0,0,6.558-5.292,8.235,8.235,0,0,0,.144-1.493l.014-1.323.17-10.584.488-21.169.483-21.168.088-5.292.021-1.323C578.143,299.728,578.174,299.411,578.139,298.727Zm-94.707,81.995A18.517,18.517,0,0,1,470.493,375a18.164,18.164,0,0,1-5.015-12.938,17.947,17.947,0,0,1,1.546-6.8,17.634,17.634,0,0,1,4.008-5.6,17.855,17.855,0,0,1,5.735-3.692,18.59,18.59,0,0,1,6.665-1.393,19.5,19.5,0,0,1,6.811,1.041,18.465,18.465,0,0,1,6.173,3.461,17.664,17.664,0,0,1,4.493,5.745c.235.571.5,1.135.72,1.718.176.595.4,1.184.54,1.792.108.615.234,1.229.332,1.849l.154,1.879a18.084,18.084,0,0,1-5.7,13.521A19.146,19.146,0,0,1,483.432,380.722Zm26.011-25.646c-.012-.982-.062-2.021-.043-2.957l.031-1.4.167-1.4a19.252,19.252,0,0,1,1.7-5.382,17.764,17.764,0,0,1,8.058-8.046,6.39,6.39,0,0,1,.943-.416,13.074,13.074,0,0,0,2.43,2.088,10.061,10.061,0,0,0,5.731,1.713,9.61,9.61,0,0,0,5.5-2.042,12.255,12.255,0,0,0,2.112-2.1c.041.014.084.024.126.039a17.408,17.408,0,0,1,4.611,2.555,18.281,18.281,0,0,1,3.516,3.785,20.021,20.021,0,0,1,2.184,4.53,21.279,21.279,0,0,1,.839,4.821c-.038.835,0,1.554-.045,2.513l-.1,2.728q-.108,4.263-.1,8.527-2.625.042-5.25.115a8.827,8.827,0,0,0,.516-1.551,4.237,4.237,0,0,0-.024-1.91c-.159-.637-.344-1.274-.444-1.911l-.316-1.91-.387-1.911c-.287-1.274-.567-2.547-.937-3.821h-.468c-.37,1.274-.65,2.547-.937,3.821l-.387,1.911-.316,1.91c-.1.637-.286,1.274-.444,1.911a4.238,4.238,0,0,0-.024,1.91,8.9,8.9,0,0,0,.518,1.557l-1.067-.043c-1.514-.06-3.029-.121-4.544-.125s-3.029.008-4.544.055c-2.876.1-5.752.276-8.628.381a8.5,8.5,0,0,0,.644-1.826,4.238,4.238,0,0,0-.024-1.91c-.159-.637-.344-1.274-.444-1.911l-.316-1.91-.387-1.911c-.287-1.274-.567-2.547-.937-3.821h-.468c-.37,1.274-.65,2.547-.937,3.821l-.387,1.911-.316,1.91c-.1.637-.286,1.274-.444,1.911a4.238,4.238,0,0,0-.024,1.91,8.14,8.14,0,0,0,.829,2.169l-6.54.14Zm9.886-34.327a37.375,37.375,0,0,0,4.323-1.42c1.586-.618,3.128-1.323,4.635-2.087,1.491-.766,3.008-1.6,4.388-2.463a4.293,4.293,0,0,1,2.3.914,15.241,15.241,0,0,1,1.991,1.713c.579.575,1.132,1.18,1.664,1.806a17.032,17.032,0,0,1-2.251,13,11.9,11.9,0,0,1-3.506,3.47,7.93,7.93,0,0,1-4.412,1.259c-3.067-.135-5.679-2.378-7.188-5.169a18.441,18.441,0,0,1-2.091-9.357C519.2,321.855,519.258,321.3,519.328,320.749Zm15.221,62.956c-2.169.159-4.337.345-6.506.444l-6.506.316-3.52.209,1.333-7.939c.423-2.555.83-5.112,1.262-7.666,2.478.107,4.954.245,7.431.328,1.514.047,3.029.074,4.544.055.886,0,1.771-.026,2.657-.055.15.739.311,1.48.488,2.227.341,1.449.685,2.911,1.1,4.429l2,7.544Q536.689,383.563,534.549,383.705Zm40.41-21.507a4.937,4.937,0,0,1-4.782,4q-9.114.074-18.229.069c.026-3.386-.014-6.772-.1-10.157-.091-1.829-.062-3.566-.34-5.665a20.383,20.383,0,0,0-1.845-5.719,21.152,21.152,0,0,0-3.439-4.778,20.691,20.691,0,0,0-9.626-5.53,15.522,15.522,0,0,0,.942-1.507,23.937,23.937,0,0,0,2.632-10.5c.006-.431,0-.865,0-1.3.083.11.176.222.254.33l1.31,1.818,1.331-1.991c.181-.272.22-.352.31-.509.069-.132.143-.27.2-.395.124-.259.224-.508.32-.759a13.92,13.92,0,0,0,.431-1.485,22.739,22.739,0,0,0,.472-2.918c.078-.961.112-1.922.1-2.869q0-.714-.05-1.418l-.039-.706-.109-.823-.137-.828-.266-.858a8.1,8.1,0,0,0-.782-1.708,7.2,7.2,0,0,0-3.024-2.635,8.529,8.529,0,0,0-3.614-.679,9.956,9.956,0,0,0-1.678.164c-.07.011-.139.03-.209.044a11.762,11.762,0,0,0-2.932-2.156,9.867,9.867,0,0,0-5.291-1.013,19.377,19.377,0,0,0-8.813,3.593c-.318.2-.618.423-.928.634l-.232.162-.268.224-.53.457a6.41,6.41,0,0,0-.9,1.007,6.858,6.858,0,0,0-.7,1.084,15.547,15.547,0,0,0-1.557,4.531,33.689,33.689,0,0,0-.343,9.015l.084.961.891.054a14.6,14.6,0,0,0,1.97-.029c-.005.334-.012.668,0,1a21.8,21.8,0,0,0,3.214,10.941,16.024,16.024,0,0,0,1.258,1.668c-.271.1-.543.186-.81.293a19.107,19.107,0,0,0-11.6,13.614l-.283,1.556c-.055.524-.089,1.051-.133,1.578-.075,1.053-.057,2.007-.09,3.015l-.232,10.949L503.432,366a21.354,21.354,0,0,0,.431-3.932,22.51,22.51,0,0,0-5.376-15.056,21.209,21.209,0,0,0-6.693-5.133c-.66-.274-1.316-.572-1.991-.82-.687-.2-1.371-.449-2.074-.612-.709-.128-1.419-.269-2.135-.378l-2.164-.17a21.552,21.552,0,0,0-6.816,1.011l.068-8.373.18-21.169.09-10.584.011-1.323c0-.253.02-.341.024-.512.007-.153.049-.3.066-.45a3.989,3.989,0,0,1,.767-1.623,3.941,3.941,0,0,1,3.131-1.5c28.224.236,56.448.672,84.673.468l2.646-.026,1.323-.013.63,0c.133.015.27,0,.4.024a3.552,3.552,0,0,1,3.114,3.209c.03.2.027.763.036,1.171l.021,1.323.088,5.292.483,21.168.488,21.169.17,10.584.014,1.323A6.335,6.335,0,0,1,574.958,362.2Z" transform="translate(0 0)" fill="#707070"/><path d="M540.546,341.92a7.93,7.93,0,0,0,4.412-1.259,11.9,11.9,0,0,0,3.506-3.47,17.032,17.032,0,0,0,2.251-13c-.532-.626-1.085-1.231-1.664-1.806a15.249,15.249,0,0,0-1.991-1.713,4.293,4.293,0,0,0-2.3-.914c-1.38.866-2.9,1.7-4.388,2.463-1.508.764-3.049,1.469-4.635,2.087a37.371,37.371,0,0,1-4.323,1.42c-.07.551-.126,1.105-.151,1.661a18.44,18.44,0,0,0,2.091,9.357C534.867,339.542,537.479,341.785,540.546,341.92Z" transform="translate(-12.09 -4.983)" fill="#fff"/><path d="M492.608,381.689a7.713,7.713,0,0,0-.615-1.514,26.577,26.577,0,0,1,2.8,0,1.548,1.548,0,0,0,1.421-.8,2.271,2.271,0,0,0,.231-.821c.031-.23.08-.461.121-.691.173-.921.427-1.842.675-2.763s.5-1.842.7-2.763l.035-.173a1.016,1.016,0,0,0,.029-.274,2.986,2.986,0,0,0-.12-.929,3.241,3.241,0,0,0-1.029-1.6,3.362,3.362,0,0,0-1.8-.776l-.862-.076a35.158,35.158,0,0,0-5.526.024c-1.842.159-3.684.345-5.526.444a3.041,3.041,0,0,0-2.735,1.861,3,3,0,0,0-.226,1.229l.01.173.031.545c-.719-.934-1.492-1.936-2.342-2.91l-3.167-2.412c.858,4.144-.183,11.717,0,18.054l3.922-3.781a13.89,13.89,0,0,0,2.03-2.516,2.546,2.546,0,0,0,.11.357,2.479,2.479,0,0,0,.87,1.119,2.427,2.427,0,0,0,1.315.453l.173,0,.091-.006.173-.012.345-.025c.853-.062,1.707-.159,2.56-.268-.064.158-.122.319-.19.476-.344.818-.673,1.646-.977,2.487-.626,1.674-1.22,3.366-1.738,5.1l.4.238c1.272-1.291,2.468-2.629,3.632-3.984.436-.5.848-1.009,1.261-1.519.116.112.229.226.351.335a9.543,9.543,0,0,0,1.509,1.073,8.141,8.141,0,0,0,1.937.8l.393-.253a8.158,8.158,0,0,0,.078-2.093A9.513,9.513,0,0,0,492.608,381.689Z" transform="translate(-2.229 -13.335)" fill="#e6ba73"/><path d="M491.305,300.133a6.2,6.2,0,0,0-1.859-.132,4.029,4.029,0,0,0-1.859.6l-1.96,1.261.087.612c.177,1.239.444,2.478.7,3.718.287,1.239.567,2.478.937,3.718h.468c.37-1.239.65-2.478.937-3.718q.136-.651.268-1.3c.14.024.281.044.42.058a6.2,6.2,0,0,0,1.859-.132,7.439,7.439,0,0,0,1.859-.687,6.9,6.9,0,0,0,1.859-1.421v-.468a6.915,6.915,0,0,0-1.859-1.42A7.44,7.44,0,0,0,491.305,300.133Z" transform="translate(-4.156 -1.544)" fill="#e6ba73"/><path d="M591.309,302.587l-1.261-1.96-.612.087c-1.239.177-2.478.444-3.718.7-1.239.287-2.478.566-3.718.936v.468c1.239.37,2.478.65,3.718.937q.651.136,1.3.268c-.025.14-.045.28-.058.421a6.2,6.2,0,0,0,.132,1.859,7.441,7.441,0,0,0,.687,1.859,6.9,6.9,0,0,0,1.421,1.859h.468a6.9,6.9,0,0,0,1.421-1.859,7.439,7.439,0,0,0,.687-1.859,6.194,6.194,0,0,0,.132-1.859A4.029,4.029,0,0,0,591.309,302.587Z" transform="translate(-20.912 -1.656)" fill="#e6ba73"/><path d="M590.606,366.718c-.287-1.239-.567-2.478-.937-3.718H589.2c-.37,1.239-.65,2.478-.937,3.718q-.136.651-.268,1.3c-.14-.024-.281-.044-.42-.058a6.2,6.2,0,0,0-1.859.132,7.438,7.438,0,0,0-1.859.687A6.915,6.915,0,0,0,582,370.2v.468a6.9,6.9,0,0,0,1.859,1.421,7.438,7.438,0,0,0,1.859.687,6.2,6.2,0,0,0,1.859.132,4.029,4.029,0,0,0,1.859-.6l1.96-1.262-.087-.612C591.132,369.2,590.865,367.957,590.606,366.718Z" transform="translate(-20.912 -12.501)" fill="#e6ba73"/></g></g></svg>