<svg xmlns="http://www.w3.org/2000/svg" width="101.443" height="97.36" viewBox="0 0 101.443 97.36"><g transform="translate(-490 -456)"><path d="M1087.727-5546.068s-11.317-2.347-12.525,2.086,2.916,8.1,3.323,9.216,1.969,6.69,1.969,6.69h12.8Z" transform="translate(-557 6065)" fill="#b0b5c3"/><path d="M1080-5557.061s-6.611-4.53-6.484-10.171S1080-5572.9,1080-5572.9l54.53.719s6.059-.208,6.471,3.9-1.22,10.089-4.474,10.592S1080-5557.061,1080-5557.061Z" transform="translate(-557 6065)" fill="#b0b5c3"/><path d="M1080-5557.061s-6.611-4.53-6.484-10.171S1080-5572.9,1080-5572.9l54.53.719s6.059-.208,6.471,3.9-1.22,10.089-4.474,10.592S1080-5557.061,1080-5557.061Z" transform="translate(-557 6037)" fill="#b0b5c3"/><g transform="translate(215.641 -118.804)"><path d="M285.873,631.409c-.033-.016-.04,0-.05,0h-.241c-.272.005-.888.04-1.354.039s-.91-.017-1.353-.044a6.674,6.674,0,0,1-1.274.633,4.992,4.992,0,0,1-1.046.261,2.858,2.858,0,0,1-.823-.029,2.729,2.729,0,0,1-.873-.338,3.444,3.444,0,0,1-.314-.222c-.024.413-.041.825-.087,1.242a17,17,0,0,1-.567,2.9,9.548,9.548,0,0,0,4.7-.613,8.376,8.376,0,0,0,2.148-1.236,3.881,3.881,0,0,0,1.319-1.6.983.983,0,0,0,.037-.628A.635.635,0,0,0,285.873,631.409Z" transform="translate(-0.733 -11.746)" fill="none"/><path d="M314.264,627.39l1.8-.083c4.161-.193,8.321-.446,12.481-.59,4.16-.165,8.321-.247,12.481-.335l12.481-.233c4.16-.086,8.321-.09,12.481-.078l1.892.006.525,1.791q1.11,3.786,2.163,7.593a9.721,9.721,0,0,0,4.607-1.5,9.533,9.533,0,0,0,3.54-4.008,9.393,9.393,0,0,0-4.646-12.6,8.993,8.993,0,0,0-2.191-.632,10.474,10.474,0,0,0-1.119-.124l-.563.006h-.288l-.354.011c-3.777.128-7.555.192-11.332.234-7.555.075-15.11-.116-22.665-.289-3.778-.089-7.555-.173-11.332-.336-3.778-.145-7.555-.4-11.332-.6a9.418,9.418,0,0,0-8.629,4.569,9.558,9.558,0,0,0,.156,10.014,9.38,9.38,0,0,0,3.87,3.4,9.67,9.67,0,0,0,5,.824c1.129-.076,2.258-.147,3.386-.219q-.914-2.622-1.847-5.241Z" transform="translate(-5.928 -8.467)" fill="none"/><path d="M282.178,588.266a6.24,6.24,0,0,1,1.492-.182,6.111,6.111,0,0,1,.778.049c-.086-.17-.183-.335-.266-.506a22.369,22.369,0,0,1-1.231-3.432c-.124-.426-.251-.85-.369-1.278a8.438,8.438,0,0,0-.421,1.048,24.636,24.636,0,0,0-.594,3.874,6.9,6.9,0,0,1-.17.693A5.9,5.9,0,0,1,282.178,588.266Z" transform="translate(-1.461 -1.683)" fill="none"/><path d="M308.287,597.605a9.67,9.67,0,0,0,5,.824c3.777-.253,7.555-.5,11.332-.666a182.175,182.175,0,0,1,22.665.464c7.555.627,15.11,1.334,22.665,1.266a9.92,9.92,0,0,0,5.226-1.537,9.534,9.534,0,0,0,3.54-4.008,9.393,9.393,0,0,0-4.646-12.6,9,9,0,0,0-2.191-.632,10.522,10.522,0,0,0-1.119-.124l-.563.006h-.288l-.354.011c-3.777.128-7.555.192-11.332.234-7.555.074-15.11-.116-22.665-.289-3.778-.089-7.555-.173-11.332-.336-3.778-.145-7.555-.4-11.332-.6a9.418,9.418,0,0,0-8.629,4.568,9.558,9.558,0,0,0,.156,10.014A9.38,9.38,0,0,0,308.287,597.605Z" transform="translate(-5.928 -0.996)" fill="none"/><path d="M281.551,625.338l.323.04c.059-.053.119-.1.176-.159a6.748,6.748,0,0,0,1.795-4.042,2.868,2.868,0,0,0-.376-1.867,1.618,1.618,0,0,0-1.6-.706,10.88,10.88,0,0,0-2.549.584,22.03,22.03,0,0,0-2.112.83,17.539,17.539,0,0,1,.778,2.74,24.251,24.251,0,0,1,.34,2.4h.285A23.8,23.8,0,0,1,281.551,625.338Z" transform="translate(-0.591 -9.089)" fill="none"/><path d="M320.1,652.019c-2.4-.13-4.806-.27-7.208-.4a9.418,9.418,0,0,0-8.629,4.569,9.557,9.557,0,0,0,.156,10.014,9.387,9.387,0,0,0,3.87,3.4,9.678,9.678,0,0,0,5,.823c3.777-.253,7.555-.5,11.332-.666l.428-.014c-.7-2.84-1.429-5.675-2.2-8.5C321.992,658.158,321.063,655.083,320.1,652.019Z" transform="translate(-5.928 -15.938)" fill="none"/><path d="M393.785,661.736c.539,2.145,1.044,4.272,1.545,6.382l.154.648a9.4,9.4,0,0,0-2.993-15.032q-.4-.159-.8-.292C392.413,656.22,393.119,658.991,393.785,661.736Z" transform="translate(-24.351 -16.32)" fill="none"/><path d="M306.993,598.312a12.1,12.1,0,0,0,2.851,1.232,15.049,15.049,0,0,0,1.534.339c.507.054,1.083.131,1.529.15,3.777.253,7.555.5,11.332.666a182.151,182.151,0,0,0,22.664-.464c7.555-.627,15.11-1.334,22.665-1.266a11.828,11.828,0,0,0,9.887-5.386,12.242,12.242,0,0,0,1.878-5.764,11.913,11.913,0,0,0-1.308-6.17,12.11,12.11,0,0,0-4.455-4.786,13.076,13.076,0,0,0-3.1-1.345,14.686,14.686,0,0,0-1.673-.342l-.851-.076-.419-.033-.354-.011c-3.777-.128-7.555-.192-11.332-.234-7.555-.075-15.11.116-22.665.289-3.778.089-7.555.173-11.332.336-3.778.145-7.555.4-11.332.6a12.076,12.076,0,0,0-10.024,6.364A11.89,11.89,0,0,0,302.742,594,12.262,12.262,0,0,0,306.993,598.312Zm-3.11-15.116a9.418,9.418,0,0,1,8.629-4.569c3.778.2,7.555.456,11.332.6,3.778.163,7.555.247,11.332.336,7.555.174,15.11.364,22.665.289,3.778-.042,7.555-.105,11.332-.234l.354-.011h.288l.563-.006a10.474,10.474,0,0,1,1.119.124,8.991,8.991,0,0,1,2.191.632,9.45,9.45,0,0,1,1.106,16.6,9.923,9.923,0,0,1-5.226,1.537c-7.555.069-15.11-.639-22.665-1.266a182.163,182.163,0,0,0-22.664-.464c-3.778.162-7.555.413-11.332.666a9.67,9.67,0,0,1-5-.824,9.38,9.38,0,0,1-3.87-3.4A9.557,9.557,0,0,1,303.882,583.2Z" transform="translate(-5.55 0)" fill="#707070"/><path d="M379.456,629.582a12.241,12.241,0,0,0,1.878-5.764,11.913,11.913,0,0,0-1.308-6.17,12.111,12.111,0,0,0-4.455-4.786,13.078,13.078,0,0,0-3.1-1.345,14.726,14.726,0,0,0-1.673-.342l-.851-.076-.419-.032-.354-.011c-3.777-.128-7.555-.192-11.332-.234-7.555-.075-15.11.116-22.665.289-3.778.089-7.555.173-11.332.336-3.778.145-7.555.4-11.332.6a12.076,12.076,0,0,0-10.024,6.364A11.89,11.89,0,0,0,302.742,630a12.262,12.262,0,0,0,4.251,4.309,12.1,12.1,0,0,0,2.851,1.232,15.033,15.033,0,0,0,1.534.339c.507.054,1.083.131,1.529.15q2.228.15,4.454.288.662,1.951,1.3,3.91c-2.049.115-4.1.237-6.148.344a12.076,12.076,0,0,0-10.024,6.364,11.89,11.89,0,0,0,.254,11.591,12.261,12.261,0,0,0,4.251,4.309,12.1,12.1,0,0,0,2.851,1.232,15.065,15.065,0,0,0,1.534.339c.507.054,1.083.131,1.529.15,3.777.253,7.555.5,11.332.666.468.019.936.031,1.4.047.013.054.027.107.04.16,1.012,4.234,2.008,8.472,3.148,12.668l.37,1.362,1.537.055c4.294.154,8.631.146,12.934.033l6.453-.151,6.389-.257c4.232-.194,8.412-.421,12.477-.681s8.057-.511,11.862-.8l-2.838-12.124-1.1-4.632a11.585,11.585,0,0,0,2.538-2.8,12.241,12.241,0,0,0,1.878-5.764,11.914,11.914,0,0,0-1.308-6.17,12.11,12.11,0,0,0-4.455-4.786,13.076,13.076,0,0,0-3.1-1.345,8.189,8.189,0,0,0-.815-.192c-.433-1.636-.884-3.271-1.337-4.908A11.847,11.847,0,0,0,379.456,629.582Zm-66.548,3.851a9.672,9.672,0,0,1-5-.824,9.381,9.381,0,0,1-3.87-3.4,9.557,9.557,0,0,1-.156-10.014,9.418,9.418,0,0,1,8.629-4.569c3.778.2,7.555.456,11.332.6,3.778.163,7.555.247,11.332.336,7.555.174,15.11.364,22.665.289,3.778-.042,7.555-.105,11.332-.234l.354-.011h.288l.563-.005a10.474,10.474,0,0,1,1.119.124,8.991,8.991,0,0,1,2.191.632,9.45,9.45,0,0,1,1.106,16.6,9.721,9.721,0,0,1-4.607,1.5q-1.057-3.8-2.163-7.593l-.525-1.791-1.892-.006c-4.161-.012-8.321-.008-12.481.078l-12.481.233c-4.16.088-8.321.17-12.481.335-4.16.143-8.321.4-12.481.59l-1.8.083.561,1.579q.93,2.619,1.847,5.241C315.166,633.287,314.036,633.358,312.908,633.434Zm54.466,43.156c-4.256-.26-8.4-.487-12.485-.681l-6.092-.257-6.027-.151c-3.548-.1-7.071-.109-10.618-.007-1.237-3.63-2.564-7.234-3.885-10.838q-2.273-6.123-4.318-12.314c-1.348-4.133-2.568-8.3-3.742-12.489-1.016-3.606-1.941-7.24-2.851-10.878,3.6.178,7.206.381,10.809.506,4.16.165,8.321.247,12.481.335l12.481.233c3.545.073,7.089.082,10.633.077,1.064,3.383,2.155,6.754,3.312,10.125,1.359,3.971,2.747,7.953,4.216,11.989l9.188,25.146ZM324.24,661.3c-3.778.162-7.555.413-11.332.666a9.678,9.678,0,0,1-5-.823,9.388,9.388,0,0,1-3.87-3.4,9.558,9.558,0,0,1-.156-10.014,9.418,9.418,0,0,1,8.629-4.569c2.4.126,4.806.266,7.208.4.965,3.064,1.894,6.139,2.753,9.234.766,2.822,1.491,5.657,2.2,8.5Zm53.114-13.486a9.441,9.441,0,0,1-.672,12.106l-.154-.648c-.5-2.11-1.006-4.237-1.545-6.382-.666-2.745-1.373-5.516-2.092-8.294q.4.133.8.292A9.465,9.465,0,0,1,377.354,647.811Z" transform="translate(-5.55 -7.471)" fill="#707070"/><path d="M375.543,657c-1.469-4.036-2.857-8.018-4.216-11.989-1.156-3.372-2.247-6.742-3.312-10.125-3.544.006-7.089,0-10.633-.077l-12.481-.233c-4.16-.088-8.321-.17-12.481-.335-3.6-.124-7.206-.327-10.809-.506.911,3.638,1.835,7.272,2.851,10.878,1.174,4.185,2.394,8.356,3.742,12.488q2.055,6.189,4.318,12.314c1.321,3.6,2.648,7.208,3.885,10.838,3.547-.1,7.07-.092,10.618.007l6.028.151,6.092.257c4.089.194,8.23.421,12.485.681l13.1.8Zm-25.685,12.492c.5-1.667,1.067-3.289,1.667-4.895.292-.808.608-1.6.938-2.386.064-.15.12-.3.181-.454-.529.068-1.058.13-1.587.175l-.811.075-.406.029-.2.014a2.352,2.352,0,0,1-2.419-1.955q-.267-.631-.54-1.262a17.5,17.5,0,0,1-2.753,2.736l-2.651,2.071-1.008-3.326a10.774,10.774,0,0,1-.4-2.233c-.074-.76-.151-1.52-.271-2.267l-.358-2.243c-.128-.746-.212-1.5-.319-2.255l-.382-2.66,2.129,1.173c1.026.565,2.014,1.159,2.98,1.751l-.017-.04-.1-.229-.009-.37a2.962,2.962,0,0,1,1.856-2.79,2.886,2.886,0,0,1,.579-.167,2.547,2.547,0,0,1,.3-.04l.227-.013,1.847-.118,3.7-.262c1.232-.072,2.464-.112,3.7-.089.616,0,1.231.025,1.847.057l.253.013a2.93,2.93,0,0,1,.339.044,3.3,3.3,0,0,1,.66.189,3.34,3.34,0,0,1,1.124.75,3.262,3.262,0,0,1,.936,2.2c.669,2.895.762,6,1.436,8.891l.027.116,0,.023a1.569,1.569,0,0,1-.536,1.021,1.448,1.448,0,0,1-1.021.351c-.795-.04-1.59-.036-2.384,0a12.443,12.443,0,0,1,1.139,1.855,14.521,14.521,0,0,1,.877,2.1,10.963,10.963,0,0,1,.5,2.415l-.347.285a10.958,10.958,0,0,1-2.274-.953,14.566,14.566,0,0,1-1.9-1.265,13.245,13.245,0,0,1-1.364-1.233c-.429.533-.859,1.064-1.314,1.583-1.117,1.3-2.263,2.583-3.484,3.821Z" transform="translate(-9.806 -12.23)" fill="#fff"/><path d="M358.163,669.492c.455-.518.885-1.05,1.314-1.583a13.234,13.234,0,0,0,1.364,1.233,14.542,14.542,0,0,0,1.9,1.265,10.961,10.961,0,0,0,2.274.953l.347-.285a10.968,10.968,0,0,0-.5-2.415,14.529,14.529,0,0,0-.877-2.1,12.446,12.446,0,0,0-1.139-1.855c.794-.032,1.589-.036,2.384,0a1.448,1.448,0,0,0,1.021-.351,1.569,1.569,0,0,0,.536-1.021l0-.023-.027-.116c-.674-2.893-.767-6-1.436-8.891a3.262,3.262,0,0,0-.936-2.2,3.314,3.314,0,0,0-1.785-.94,2.9,2.9,0,0,0-.339-.044l-.253-.013c-.616-.033-1.231-.056-1.847-.057-1.232-.023-2.464.017-3.7.089l-3.7.262-1.847.118-.227.013a2.559,2.559,0,0,0-.3.04,2.894,2.894,0,0,0-.579.167,2.962,2.962,0,0,0-1.856,2.79l.01.37.1.229.017.04c-.965-.592-1.953-1.186-2.98-1.751l-2.129-1.173.382,2.66c.107.751.191,1.509.319,2.255l.358,2.243c.12.747.2,1.507.271,2.267a10.77,10.77,0,0,0,.4,2.233l1.008,3.326,2.651-2.071a17.5,17.5,0,0,0,2.753-2.736q.271.63.54,1.262a2.352,2.352,0,0,0,2.419,1.955l.2-.014.406-.029.811-.075c.529-.045,1.058-.107,1.587-.175-.061.151-.117.3-.181.454-.33.785-.646,1.579-.938,2.386-.6,1.606-1.17,3.229-1.667,4.9l.387.228C355.9,672.075,357.046,670.792,358.163,669.492Z" transform="translate(-14.24 -15.824)" fill="#e6ba73"/><path d="M276.6,593.149A12.309,12.309,0,0,0,279.068,590a17.185,17.185,0,0,0,1.034-2.174,5.275,5.275,0,0,0,1,.372,6.236,6.236,0,0,0,1.492.182,6.111,6.111,0,0,0,1.491-.18l.071-.021c.249.419.5.838.778,1.246a17.551,17.551,0,0,0,2.444,2.932l.312-.128a17.568,17.568,0,0,0-.33-3.8,24.323,24.323,0,0,0-.945-3.55,22.368,22.368,0,0,0-1.543-3.3c-.292-.536-.565-1.08-.886-1.6s-.691-1.029-1.064-1.532l-1.626-2.2-.253,2.217a12.058,12.058,0,0,1-.929,3.744,24.594,24.594,0,0,1-2.18,3.258,11.583,11.583,0,0,0-1.345,3.582,12.29,12.29,0,0,0-.307,3.986Zm4.489-10.571a8.43,8.43,0,0,1,.421-1.048c.118.428.246.852.369,1.278a22.371,22.371,0,0,0,1.231,3.432c.082.171.18.337.266.506a6.1,6.1,0,0,0-.778-.049,6.242,6.242,0,0,0-1.492.182,5.9,5.9,0,0,0-.779.265,6.891,6.891,0,0,0,.17-.693A24.62,24.62,0,0,1,281.091,582.578Z" transform="translate(-0.389 -0.298)" fill="#707070"/><path d="M287.221,626.255a3.066,3.066,0,0,0-1.1-.753,3.908,3.908,0,0,0-1.113-.249c-.051,0-.09,0-.136-.006a9.051,9.051,0,0,0,.976-4.538,5.961,5.961,0,0,0-.358-1.728,4.227,4.227,0,0,0-1.021-1.567,3.528,3.528,0,0,0-1.7-.927,3.649,3.649,0,0,0-1.781.083,10.2,10.2,0,0,0-2.665,1.354,13.1,13.1,0,0,0-1.78,1.461c-.12-.3-.252-.6-.4-.907a11.733,11.733,0,0,0-1.39,3.831,16.881,16.881,0,0,0-.268,2.409h-.125l.12.138c-.016.45-.02.9,0,1.349a16.86,16.86,0,0,0,.608,3.859,11.613,11.613,0,0,0,1.722,3.695c.111-.28.2-.556.288-.831a8.6,8.6,0,0,0,5.175.75,9.385,9.385,0,0,0,2.892-.976,5.814,5.814,0,0,0,2.5-2.29,3.746,3.746,0,0,0,.445-2.056A3.43,3.43,0,0,0,287.221,626.255Zm-9.828-3.952a17.537,17.537,0,0,0-.778-2.74,22.009,22.009,0,0,1,2.112-.83,10.877,10.877,0,0,1,2.549-.584,1.618,1.618,0,0,1,1.6.706,2.868,2.868,0,0,1,.376,1.867,6.748,6.748,0,0,1-1.795,4.042c-.057.057-.117.106-.176.159-.109-.014-.211-.025-.323-.04a23.791,23.791,0,0,0-2.942-.18h-.285A24.251,24.251,0,0,0,277.393,622.3Zm7.933,6.993a3.882,3.882,0,0,1-1.319,1.6,8.376,8.376,0,0,1-2.148,1.236,9.547,9.547,0,0,1-4.7.613,17,17,0,0,0,.567-2.9c.046-.417.063-.829.087-1.242a3.42,3.42,0,0,0,.314.222,2.728,2.728,0,0,0,.873.338,2.857,2.857,0,0,0,.823.029,4.992,4.992,0,0,0,1.046-.261,6.681,6.681,0,0,0,1.274-.633c.443.028.895.049,1.353.044s1.082-.033,1.354-.039h.241c.009,0,.017-.018.05,0a.634.634,0,0,1,.223.369A.982.982,0,0,1,285.326,629.3Z" transform="translate(0 -8.636)" fill="#707070"/><path d="M284.364,670.856a11.839,11.839,0,0,1-3.3-1.043,13.845,13.845,0,0,1-1.528-.72,3.357,3.357,0,0,1-.765-.87,6.224,6.224,0,0,1-.519-2.829l-.01-.447c0-.145.01-.24.011-.363a5.662,5.662,0,0,1,.084-.713,7.045,7.045,0,0,1,.449-1.476,11.778,11.778,0,0,1,1.731-2.83l.166-.2a.9.9,0,0,1,.187-.153,2.808,2.808,0,0,1,.65-.27c.132-.04.275-.075.424-.109s.249-.065.383-.082a4.8,4.8,0,0,1,.815-.059,21.18,21.18,0,0,1,3.725.644,10.592,10.592,0,0,0-3.416-2.214,6.074,6.074,0,0,0-2.216-.321,4.438,4.438,0,0,0-1.224.173,3.416,3.416,0,0,0-1,.483c-.085.062-.184.132-.256.192a11.155,11.155,0,0,0-2.806,3.364,8.568,8.568,0,0,0-.834,2.152,6.434,6.434,0,0,0-.191,1.193c-.011.2-.028.424-.029.6l0,.517a12.506,12.506,0,0,0,.217,2.187,6.089,6.089,0,0,0,1,2.391,5.759,5.759,0,0,0,.885.948,4.542,4.542,0,0,0,1.159.776,11.3,11.3,0,0,0,2.091.606,9.763,9.763,0,0,0,4.267.165,5.227,5.227,0,0,0,1.988-.938,8.117,8.117,0,0,0,1.4-1.473c-.634.219-1.243.473-1.837.614A4.4,4.4,0,0,1,284.364,670.856Z" transform="translate(-0.109 -17.016)" fill="#707070"/></g></g></svg>