<svg xmlns="http://www.w3.org/2000/svg" width="20" height="18" viewBox="0 0 20 18"><g transform="translate(0 -22.5)"><path d="M19.681,22.5H.319A.318.318,0,0,0,0,22.818V40.182a.318.318,0,0,0,.319.318H19.681A.318.318,0,0,0,20,40.182V36.794a.319.319,0,0,0-.638,0v3.071H.638V25.676H19.362v9.847a.319.319,0,0,0,.638,0V22.818A.318.318,0,0,0,19.681,22.5ZM.638,23.135H12.447v1.906H.638Zm12.447,1.906V23.135h6.277v1.906Z" transform="translate(0 0)" fill="#175d7a"/><path d="M373.84,52a.339.339,0,1,0,.34.339A.34.34,0,0,0,373.84,52Z" transform="translate(-357.606 -28.251)" fill="#175d7a"/><path d="M332.84,52a.339.339,0,1,0,.34.339A.34.34,0,0,0,332.84,52Z" transform="translate(-318.351 -28.251)" fill="#175d7a"/><path d="M414.84,52a.339.339,0,1,0,.34.339A.34.34,0,0,0,414.84,52Z" transform="translate(-396.862 -28.251)" fill="#175d7a"/><path d="M84.547,156.523a.319.319,0,0,0,.266-.224l.734-2.439a.319.319,0,0,0-.611-.182l-.527,1.749-.508-.843a.32.32,0,0,0-.548,0l-.508.843-.526-1.749a.319.319,0,0,0-.611.182l.734,2.439a.319.319,0,0,0,.266.224l.04,0a.32.32,0,0,0,.274-.154l.606-1.006.606,1.006A.32.32,0,0,0,84.547,156.523Z" transform="translate(-78.219 -125.405)" fill="#175d7a"/><path d="M183.549,156.516l.04,0a.319.319,0,0,0,.274-.154l.606-1.006.606,1.006a.32.32,0,0,0,.579-.072l.734-2.439a.319.319,0,0,0-.611-.182l-.527,1.749-.508-.843a.32.32,0,0,0-.548,0l-.507.843-.526-1.749a.319.319,0,0,0-.611.182l.734,2.439A.319.319,0,0,0,183.549,156.516Z" transform="translate(-174.768 -125.397)" fill="#175d7a"/><path d="M287.009,153.451a.319.319,0,0,0-.4.213l-.527,1.749-.508-.843a.32.32,0,0,0-.548,0l-.508.843L284,153.665a.319.319,0,0,0-.611.182l.734,2.439a.32.32,0,0,0,.579.072l.606-1.006.606,1.006a.32.32,0,0,0,.274.154l.04,0a.319.319,0,0,0,.266-.224l.734-2.439A.317.317,0,0,0,287.009,153.451Z" transform="translate(-271.313 -125.392)" fill="#175d7a"/><path d="M84.04,261.365a.318.318,0,0,0-.319-.318h-1.7a.318.318,0,0,0-.319.318v1.694a.318.318,0,0,0,.319.318h1.7a.318.318,0,0,0,.319-.318Zm-.638,1.376H82.338v-1.059H83.4Z" transform="translate(-78.223 -228.444)" fill="#175d7a"/><path d="M83.721,331.047h-1.7a.318.318,0,0,0-.319.318v1.694a.318.318,0,0,0,.319.318h1.7a.318.318,0,0,0,.319-.318v-1.694A.318.318,0,0,0,83.721,331.047Zm-.319,1.694H82.338v-1.059H83.4Z" transform="translate(-78.223 -295.479)" fill="#175d7a"/><path d="M330.808,281.047h-1.277a.318.318,0,1,0,0,.635h1.277a.318.318,0,1,0,0-.635Z" transform="translate(-315.203 -247.597)" fill="#175d7a"/><path d="M158.3,281.047h-6.277a.318.318,0,1,0,0,.635H158.3a.318.318,0,1,0,0-.635Z" transform="translate(-145.245 -247.597)" fill="#175d7a"/><path d="M330.808,351.047h-1.277a.318.318,0,1,0,0,.635h1.277a.318.318,0,1,0,0-.635Z" transform="translate(-315.203 -314.632)" fill="#175d7a"/><path d="M158.3,351.047h-6.277a.318.318,0,1,0,0,.635H158.3a.318.318,0,1,0,0-.635Z" transform="translate(-145.245 -314.632)" fill="#175d7a"/></g></svg>