<svg xmlns="http://www.w3.org/2000/svg" width="60.615" height="5.824" viewBox="0 0 60.615 5.824">
  <path id="Path_1721" data-name="Path 1721" d="M-28.04-3.586h-2.268V-4.869h2.268V-7.154h1.283v2.285h2.268v1.283h-2.268V-1.33H-28.04Zm6.85,0h-2.268V-4.869h2.268V-7.154h1.283v2.285h2.268v1.283h-2.268V-1.33H-21.19Zm6.85,0h-2.268V-4.869h2.268V-7.154h1.283v2.285h2.268v1.283h-2.268V-1.33h-1.283Zm6.85,0H-9.759V-4.869h2.268V-7.154h1.283v2.285H-3.94v1.283H-6.208V-1.33H-7.491Zm6.85,0H-2.909V-4.869H-.642V-7.154H.642v2.285H2.909v1.283H.642V-1.33H-.642Zm6.85,0H3.94V-4.869H6.208V-7.154H7.491v2.285H9.759v1.283H7.491V-1.33H6.208Zm6.85,0H10.79V-4.869h2.268V-7.154h1.283v2.285h2.268v1.283H14.341V-1.33H13.058Zm6.85,0H17.64V-4.869h2.268V-7.154H21.19v2.285h2.268v1.283H21.19V-1.33H19.907Zm6.85,0H24.489V-4.869h2.268V-7.154H28.04v2.285h2.268v1.283H28.04V-1.33H26.757Z" transform="translate(30.308 7.154)"/>
</svg>
